# Blender v2.79 (sub 0) OBJ File: ''
# www.blender.org
mtllib 2.mtl
o mesh_4_413.nr
v -0.027404 0.424082 0.011111
v -0.026487 0.424082 -0.025708
v 0.010639 0.424082 -0.026590
v 0.009722 0.424083 0.010228
v 0.101756 0.291856 -0.116909
v 0.085719 0.299278 -0.110505
v -0.097579 0.299278 -0.104801
v -0.113217 0.291856 -0.110218
v -0.107418 0.299278 -0.104495
v 0.095662 0.299278 -0.110814
v -0.118490 0.291856 0.101405
v -0.102558 0.299278 0.095056
v 0.080739 0.299277 0.089350
v 0.096483 0.291856 0.094714
v -0.112398 0.299278 0.095361
v 0.096483 0.291856 0.094714
v 0.090927 0.299278 0.079259
v 0.095421 0.299277 -0.101082
v 0.101756 0.291856 -0.116909
v 0.095662 0.299278 -0.110814
v -0.113217 0.291856 -0.110218
v -0.107661 0.299278 -0.094763
v -0.112155 0.299277 0.085579
v -0.118490 0.291856 0.101405
v -0.112398 0.299278 0.095361
v -0.107418 0.299278 -0.104495
v 0.005968 0.225645 -0.122759
v 0.077577 0.225644 -0.124987
v 0.076988 0.248691 -0.101302
v 0.006559 0.221543 -0.146493
v 0.078170 0.221542 -0.148722
v 0.005379 0.248691 -0.099073
v 0.095662 0.299278 -0.110814
v 0.051761 0.362169 -0.067324
v 0.040614 0.362169 -0.066977
v 0.085719 0.299278 -0.110505
v -0.054474 0.362168 -0.064860
v -0.097579 0.299278 -0.104801
v 0.085719 0.299278 -0.110505
v 0.040614 0.362169 -0.066977
v -0.065649 0.362169 -0.064514
v -0.107418 0.299278 -0.104495
v -0.097579 0.299278 -0.104801
v -0.054474 0.362168 -0.064860
v -0.102558 0.299278 0.095056
v -0.112398 0.299278 0.095361
v -0.068548 0.362168 0.051873
v -0.057374 0.362168 0.051526
v 0.051490 0.362169 -0.056376
v 0.051761 0.362169 -0.067324
v 0.095662 0.299278 -0.110814
v 0.095421 0.299277 -0.101082
v 0.090927 0.299278 0.079259
v 0.090684 0.299278 0.089041
v 0.048864 0.362168 0.049013
v 0.049135 0.362168 0.038065
v 0.051490 0.362169 -0.056376
v 0.095421 0.299277 -0.101082
v 0.090927 0.299278 0.079259
v 0.049135 0.362168 0.038065
v 0.037713 0.362168 0.049360
v 0.080739 0.299277 0.089350
v -0.102558 0.299278 0.095056
v -0.057374 0.362168 0.051526
v 0.048864 0.362168 0.049013
v 0.090684 0.299278 0.089041
v 0.080739 0.299277 0.089350
v 0.037713 0.362168 0.049360
v -0.065649 0.362169 -0.064514
v -0.054474 0.362168 -0.064860
v -0.026487 0.424082 -0.025708
v 0.010639 0.424082 -0.026590
v -0.026487 0.424082 -0.025708
v -0.054474 0.362168 -0.064860
v -0.107661 0.299278 -0.094763
v -0.107418 0.299278 -0.104495
v -0.065649 0.362169 -0.064514
v -0.065921 0.362168 -0.053541
v -0.068275 0.362169 0.040875
v -0.112155 0.299277 0.085579
v -0.107661 0.299278 -0.094763
v -0.065921 0.362168 -0.053541
v -0.068548 0.362168 0.051873
v -0.112398 0.299278 0.095361
v -0.112155 0.299277 0.085579
v -0.068275 0.362169 0.040875
v -0.054474 0.362168 -0.064860
v 0.040614 0.362169 -0.066977
v 0.010639 0.424082 -0.026590
v 0.048864 0.362168 0.049013
v 0.037713 0.362168 0.049360
v 0.009722 0.424083 0.010228
v 0.040614 0.362169 -0.066977
v 0.051761 0.362169 -0.067324
v 0.010639 0.424082 -0.026590
v -0.027404 0.424082 0.011111
v 0.009722 0.424083 0.010228
v 0.037713 0.362168 0.049360
v 0.037713 0.362168 0.049360
v -0.057374 0.362168 0.051526
v -0.027404 0.424082 0.011111
v -0.057374 0.362168 0.051526
v -0.068548 0.362168 0.051873
v -0.027404 0.424082 0.011111
v 0.051490 0.362169 -0.056376
v 0.049135 0.362168 0.038065
v 0.009722 0.424083 0.010228
v 0.048864 0.362168 0.049013
v 0.010639 0.424082 -0.026590
v 0.051761 0.362169 -0.067324
v -0.068275 0.362169 0.040875
v -0.065921 0.362168 -0.053541
v -0.026487 0.424082 -0.025708
v -0.065649 0.362169 -0.064514
v -0.027404 0.424082 0.011111
v -0.068548 0.362168 0.051873
v -0.010255 0.108262 0.101411
v -0.081876 0.108263 0.103640
v -0.081285 0.131210 0.080004
v -0.010847 0.104160 0.125145
v -0.082466 0.104160 0.127373
v -0.009667 0.131211 0.077774
v -0.083025 0.123887 -0.049610
v -0.084907 0.124083 0.034173
v -0.139704 0.095908 0.036028
v -0.137820 0.095713 -0.047781
v 0.136439 -0.088711 -0.061699
v 0.133323 -0.088711 0.063304
v 0.134327 -0.002228 0.023035
v 0.133323 -0.002172 0.063304
v 0.134415 0.020285 0.019484
v 0.137119 -0.088712 -0.089034
v 0.136439 -0.088711 -0.061699
v 0.134327 -0.002228 0.023035
v 0.134327 -0.002228 0.023035
v 0.133323 -0.002172 0.063304
v 0.133323 0.020286 0.063304
v 0.134415 0.020285 0.019484
v -0.138188 -0.087051 -0.102990
v -0.138188 0.020285 -0.102990
v -0.143035 0.020286 0.091550
v -0.143035 -0.087050 0.091551
v -0.139914 0.020066 0.036233
v -0.138031 0.019883 -0.047577
v -0.137820 0.095713 -0.047781
v -0.139704 0.095908 0.036028
v 0.093621 -0.087050 0.084187
v 0.093621 0.020286 0.084186
v 0.098469 0.020285 -0.110355
v 0.098470 -0.087051 -0.110355
v -0.138188 -0.087051 -0.102990
v 0.098470 -0.087051 -0.110355
v 0.098469 0.020285 -0.110355
v -0.138188 0.020285 -0.102990
v 0.093621 -0.087050 0.084187
v -0.143035 -0.087050 0.091551
v -0.143035 0.020286 0.091550
v 0.093621 0.020286 0.084186
v 0.087699 0.133751 -0.101538
v 0.083171 0.133750 0.080195
v 0.083171 0.291073 0.080194
v 0.087699 0.291075 -0.101538
v -0.099956 0.133750 -0.095696
v 0.087699 0.133751 -0.101538
v 0.087699 0.291075 -0.101538
v -0.099956 0.291073 -0.095696
v 0.083171 0.133750 0.080195
v -0.104485 0.133750 0.086035
v -0.104485 0.291073 0.086035
v 0.083171 0.291073 0.080194
v -0.104485 0.133750 0.086035
v -0.099956 0.133750 -0.095696
v -0.099956 0.291073 -0.095696
v -0.104485 0.291073 0.086035
v 0.075668 0.017636 -0.093521
v 0.075667 0.133261 -0.093522
v -0.090921 0.133261 -0.088337
v -0.090921 0.017636 -0.088336
v 0.074347 0.088876 0.054027
v 0.074448 0.102500 0.049953
v 0.075860 0.088877 -0.006710
v 0.074725 0.112558 0.038831
v 0.075104 0.116172 0.023663
v 0.075860 0.018577 -0.006711
v 0.074346 0.018577 0.054026
v 0.075759 0.102500 -0.002642
v 0.075483 0.112558 0.008467
v -0.061360 0.087803 0.077895
v -0.058592 0.096737 0.077810
v -0.020189 0.087803 0.076614
v -0.051058 0.103281 0.077575
v -0.040780 0.105722 0.077254
v -0.020189 0.041587 0.076614
v -0.061360 0.041587 0.077895
v -0.022943 0.096737 0.076700
v -0.030479 0.103281 0.076934
v -0.095068 0.017637 0.078150
v -0.095069 0.133262 0.078149
v 0.071518 0.133262 0.072965
v 0.071519 0.017637 0.072966
v 0.071519 0.017637 0.072966
v 0.071518 0.133262 0.072965
v 0.075667 0.133261 -0.093522
v 0.075668 0.017636 -0.093521
v -0.090921 0.017636 -0.088336
v -0.090921 0.133261 -0.088337
v -0.095069 0.133262 0.078149
v -0.095068 0.017637 0.078150
v 0.133323 -0.088711 0.063304
v 0.094111 -0.089345 0.064523
v 0.094111 -0.002087 0.064523
v 0.133323 -0.002172 0.063304
v 0.094111 -0.002087 0.064523
v 0.094111 0.020285 0.064523
v 0.133323 0.020286 0.063304
v 0.133323 -0.002172 0.063304
v -0.083235 0.020005 -0.049406
v -0.083025 0.123887 -0.049610
v -0.137820 0.095713 -0.047781
v -0.138031 0.019883 -0.047577
v -0.084907 0.124083 0.034173
v -0.085118 0.020188 0.034404
v -0.139914 0.020066 0.036233
v -0.139704 0.095908 0.036028
v 0.093621 0.020286 0.084186
v -0.143035 0.020286 0.091550
v -0.138188 0.020285 -0.102990
v 0.098469 0.020285 -0.110355
v 0.095202 0.020286 0.020705
v 0.134415 0.020285 0.019484
v 0.133323 0.020286 0.063304
v 0.094111 0.020285 0.064523
v 0.097907 -0.088711 -0.087813
v 0.137119 -0.088712 -0.089034
v 0.134415 0.020285 0.019484
v 0.095202 0.020286 0.020705
vt 0.111145 0.228027
vt 0.119629 0.245117
vt 0.119690 0.228027
vt 0.111023 0.245117
vt 0.613770 0.803589
vt 0.510742 0.814331
vt 0.608398 0.814209
vt 0.501465 0.804077
vt 0.505371 0.814331
vt 0.613770 0.814209
vt 0.613770 0.803589
vt 0.510742 0.814331
vt 0.608398 0.814209
vt 0.501465 0.804077
vt 0.613770 0.814209
vt 0.613770 0.803589
vt 0.510742 0.814331
vt 0.608398 0.814209
vt 0.501465 0.804077
vt 0.505371 0.814331
vt 0.613770 0.803589
vt 0.510742 0.814331
vt 0.608398 0.814209
vt 0.501465 0.804077
vt 0.505371 0.814331
vt 0.613770 0.814209
vt 0.076355 0.122070
vt 0.121948 0.159668
vt 0.121948 0.122070
vt 0.076355 0.084473
vt 0.121948 0.084473
vt 0.076355 0.159668
vt 0.626953 0.813843
vt 0.633301 0.900757
vt 0.626953 0.900757
vt 0.633301 0.813843
vt 0.535645 0.918030
vt 0.625000 0.814697
vt 0.513184 0.814697
vt 0.603516 0.917969
vt 0.626953 0.901978
vt 0.633301 0.813965
vt 0.626953 0.813965
vt 0.633301 0.901978
vt 0.633301 0.813843
vt 0.626953 0.900757
vt 0.626953 0.813843
vt 0.633301 0.900757
vt 0.633301 0.901978
vt 0.626953 0.813965
vt 0.626953 0.901978
vt 0.633301 0.813965
vt 0.633301 0.813843
vt 0.626953 0.900757
vt 0.626953 0.813843
vt 0.633301 0.900757
vt 0.535645 0.918030
vt 0.625000 0.814697
vt 0.513184 0.814697
vt 0.603516 0.917969
vt 0.535645 0.918030
vt 0.625000 0.814697
vt 0.513184 0.814697
vt 0.603516 0.917969
vt 0.626953 0.901978
vt 0.633301 0.813965
vt 0.626953 0.813965
vt 0.633301 0.901978
vt 0.148804 0.425293
vt 0.166870 0.500488
vt 0.153931 0.425293
vt 0.181396 0.500488
vt 0.153931 0.425293
vt 0.166870 0.500488
vt 0.633301 0.813843
vt 0.626953 0.900757
vt 0.626953 0.813843
vt 0.633301 0.900757
vt 0.522949 0.918640
vt 0.614258 0.814697
vt 0.501953 0.814697
vt 0.590332 0.918579
vt 0.626953 0.901978
vt 0.633301 0.813965
vt 0.626953 0.813965
vt 0.633301 0.901978
vt 0.153931 0.425293
vt 0.181396 0.500488
vt 0.194580 0.425293
vt 0.148804 0.425293
vt 0.166870 0.500488
vt 0.153931 0.425293
vt 0.194580 0.425293
vt 0.181396 0.500488
vt 0.199585 0.425293
vt 0.181396 0.500488
vt 0.153931 0.425293
vt 0.166870 0.500488
vt 0.153931 0.425293
vt 0.181396 0.500488
vt 0.194580 0.425293
vt 0.194580 0.425293
vt 0.181396 0.500488
vt 0.199585 0.425293
vt 0.153931 0.425293
vt 0.181396 0.500488
vt 0.194580 0.425293
vt 0.199585 0.425293
vt 0.166870 0.500488
vt 0.148804 0.425293
vt 0.153931 0.425293
vt 0.181396 0.500488
vt 0.194580 0.425293
vt 0.199585 0.425293
vt 0.166870 0.500488
vt 0.148804 0.425293
vt 0.076355 0.122070
vt 0.121948 0.159668
vt 0.121948 0.122070
vt 0.076355 0.084473
vt 0.121948 0.084473
vt 0.076355 0.159668
vt 0.047546 0.027832
vt 0.011711 0.075195
vt 0.047668 0.075195
vt 0.011574 0.027832
vt 0.125610 0.654541
vt 0.189331 0.728271
vt 0.219604 0.654541
vt 0.219604 0.728271
vt 0.239868 -0.249023
vt 0.163208 -0.271484
vt 0.153076 -0.249023
vt 0.231689 -0.271484
vt 0.194336 -0.271484
vt 0.179688 -0.249023
vt 0.179688 -0.271484
vt 0.195557 -0.249023
vt 0.245728 0.654297
vt 0.158813 0.755981
vt 0.245728 0.755981
vt 0.158813 0.654297
vt 0.088257 -0.750000
vt 0.125366 -0.665039
vt 0.125244 -0.750000
vt 0.088318 -0.665039
vt 0.245728 0.654297
vt 0.158813 0.755981
vt 0.245728 0.755981
vt 0.158813 0.654297
vt 0.127197 0.654297
vt 0.245728 0.755981
vt 0.245728 0.654297
vt 0.127197 0.755981
vt 0.127197 0.654297
vt 0.245728 0.755981
vt 0.245728 0.654297
vt 0.127197 0.755981
vt 0.002270 0.752441
vt 0.123352 0.968384
vt 0.123352 0.752441
vt 0.002270 0.968384
vt 0.002270 0.752441
vt 0.123352 0.968384
vt 0.123352 0.752441
vt 0.002270 0.968384
vt 0.002270 0.752441
vt 0.123352 0.968384
vt 0.123352 0.752441
vt 0.002270 0.968384
vt 0.002270 0.752441
vt 0.123352 0.968384
vt 0.123352 0.752441
vt 0.002270 0.968384
vt 0.124146 -0.499023
vt 0.002319 -0.306641
vt 0.124146 -0.306641
vt 0.002319 -0.499023
vt 0.207153 0.097656
vt 0.157349 0.097656
vt 0.203735 0.115234
vt 0.182251 0.133301
vt 0.194702 0.128418
vt 0.157349 0.005859
vt 0.207153 0.005859
vt 0.160645 0.115234
vt 0.169800 0.128418
vt 0.240845 0.070801
vt 0.217285 0.070801
vt 0.239258 0.083496
vt 0.229004 0.094238
vt 0.234863 0.092773
vt 0.217285 0.006836
vt 0.240845 0.006836
vt 0.218872 0.083496
vt 0.223145 0.092773
vt 0.124146 -0.499023
vt 0.002319 -0.306641
vt 0.124146 -0.306641
vt 0.002319 -0.499023
vt 0.124146 -0.499023
vt 0.002319 -0.306641
vt 0.124146 -0.306641
vt 0.002319 -0.499023
vt 0.124146 -0.499023
vt 0.002319 -0.306641
vt 0.124146 -0.306641
vt 0.002319 -0.499023
vt 0.219604 0.654541
vt 0.233887 0.728271
vt 0.233887 0.654053
vt 0.219604 0.728271
vt 0.178833 -0.271484
vt 0.192627 -0.249023
vt 0.178833 -0.249023
vt 0.192627 -0.271484
vt 0.057251 -0.750000
vt 0.084534 -0.663086
vt 0.057159 -0.632812
vt 0.084656 -0.750000
vt 0.057037 -0.632812
vt 0.084839 -0.750977
vt 0.057251 -0.750977
vt 0.084473 -0.663086
vt 0.245728 0.755371
vt 0.158813 0.992165
vt 0.245728 0.992165
vt 0.158813 0.755371
vt 0.188843 0.876404
vt 0.167480 0.898682
vt 0.188843 0.898682
vt 0.167480 0.876404
vt 0.124878 0.425293
vt 0.145142 0.626953
vt 0.145142 0.425293
vt 0.124878 0.626953
vn 0.0000 1.0000 0.0000
vn -0.0243 0.6223 -0.7823
vn -0.0244 0.6223 -0.7824
vn -0.0243 0.6224 -0.7823
vn 0.0244 0.6191 0.7849
vn 0.0244 0.6190 0.7849
vn 0.0243 0.6192 0.7848
vn 0.7805 0.6248 0.0194
vn -0.7805 0.6248 -0.0194
vn -0.7805 0.6249 -0.0194
vn -0.0144 0.8864 -0.4627
vn -0.0217 0.7162 -0.6975
vn -0.0139 0.8949 -0.4459
vn -0.0053 0.9854 -0.1704
vn -0.0258 0.5563 -0.8306
vn -0.0242 0.5513 -0.8339
vn -0.0220 0.5546 -0.8318
vn -0.0260 0.5486 -0.8357
vn -0.0184 0.5600 -0.8282
vn -0.0259 0.5485 -0.8357
vn -0.0260 0.5485 -0.8357
vn -0.0258 0.5485 -0.8357
vn 0.0257 0.5564 0.8305
vn 0.0258 0.5563 0.8306
vn 0.8264 0.5627 0.0205
vn 0.8264 0.5627 0.0204
vn 0.8264 0.5626 0.0205
vn 0.8264 0.5626 0.0206
vn 0.0243 0.5516 0.8338
vn 0.0223 0.5546 0.8318
vn 0.0260 0.5490 0.8354
vn 0.0189 0.5598 0.8284
vn 0.0259 0.5490 0.8354
vn 0.0259 0.5489 0.8354
vn -0.0260 0.5426 -0.8395
vn -0.0200 0.5408 -0.8409
vn -0.8267 0.5622 -0.0206
vn -0.8267 0.5622 -0.0205
vn -0.8267 0.5622 -0.0204
vn -0.0187 0.5399 -0.8415
vn 0.0261 0.5425 0.8396
vn -0.0262 0.5372 -0.8430
vn 0.0200 0.5406 0.8410
vn 0.0191 0.5400 0.8414
vn 0.0262 0.5375 0.8429
vn 0.8391 0.5436 0.0208
vn 0.8391 0.5436 0.0209
vn 0.8391 0.5435 0.0208
vn 0.8390 0.5436 0.0208
vn -0.8389 0.5438 -0.0208
vn -0.8390 0.5437 -0.0209
vn -0.8390 0.5437 -0.0208
vn -0.8390 0.5438 -0.0209
vn 0.0144 0.8867 0.4622
vn 0.0217 0.7170 0.6967
vn 0.0139 0.8952 0.4455
vn 0.0053 0.9854 0.1704
vn 0.0053 0.9853 0.1704
vn -0.4575 0.8891 -0.0123
vn -0.4576 0.8891 -0.0123
vn 0.9997 0.0000 0.0249
vn -0.9997 0.0000 -0.0249
vn -0.9997 0.0027 -0.0225
vn -0.0311 0.0000 -0.9995
vn 0.0311 0.0000 0.9995
vn 0.9997 0.0002 0.0250
vn 0.9997 -0.0001 0.0249
vn 0.0311 -0.0001 0.9995
vn 0.0312 0.0001 0.9995
vn 0.0310 -0.0001 0.9995
vn 0.0310 0.0000 0.9995
vn -0.0330 -0.0023 -0.9995
vn -0.0327 -0.0021 -0.9995
vn -0.0324 -0.0019 -0.9995
vn -0.0333 -0.0026 -0.9994
vn 0.0329 0.0024 0.9995
vn 0.0331 0.0023 0.9994
vn 0.0334 0.0021 0.9994
vn 0.0325 0.0026 0.9995
vn -0.0220 0.7051 -0.7088
usemtl mat_27
s 1
f 1/1/1 3/2/1 2/3/1
f 3/2/1 1/1/1 4/4/1
f 5/5/2 7/6/3 6/7/2
f 7/6/3 5/5/2 8/8/3
f 7/6/3 8/8/3 9/9/3
f 5/5/2 6/7/2 10/10/4
f 11/11/5 13/12/5 12/13/6
f 13/12/5 11/11/5 14/14/5
f 11/11/5 12/13/6 15/15/7
f 16/16/8 18/17/8 17/18/8
f 18/17/8 16/16/8 19/19/8
f 18/17/8 19/19/8 20/20/8
f 21/21/9 23/22/9 22/23/9
f 23/22/9 21/21/9 24/24/9
f 23/22/9 24/24/9 25/25/10
f 21/21/9 22/23/9 26/26/9
f 27/27/11 29/28/12 28/29/13
f 30/30/14 28/29/13 31/31/14
f 28/29/13 30/30/14 27/27/11
f 29/28/12 27/27/11 32/32/12
f 33/33/15 35/34/15 34/35/15
f 35/34/15 33/33/15 36/36/15
f 37/37/16 39/38/17 38/39/18
f 39/38/17 37/37/16 40/40/19
f 41/41/20 43/42/21 42/43/21
f 43/42/21 41/41/20 44/44/22
f 45/45/23 47/46/24 46/47/23
f 47/46/24 45/45/23 48/48/24
f 49/49/25 51/50/25 50/51/26
f 51/50/25 49/49/25 52/52/25
f 53/53/27 55/54/27 54/55/27
f 55/54/27 53/53/27 56/56/27
f 57/57/28 59/58/28 58/59/28
f 59/58/28 57/57/28 60/60/28
f 61/61/29 63/62/30 62/63/31
f 63/62/30 61/61/29 64/64/32
f 65/65/31 67/66/33 66/67/34
f 67/66/33 65/65/31 68/68/31
f 69/69/35 71/70/35 70/71/35
f 72/72/36 74/73/36 73/74/36
f 75/75/37 77/76/38 76/77/37
f 77/76/38 75/75/37 78/78/38
f 79/79/37 81/80/37 80/81/37
f 81/80/37 79/79/37 82/82/37
f 83/83/38 85/84/38 84/85/38
f 85/84/38 83/83/38 86/86/39
f 87/87/40 89/88/40 88/89/40
f 90/90/41 92/91/41 91/92/41
f 93/93/42 95/94/42 94/95/42
f 96/96/43 98/97/43 97/98/43
f 99/99/44 101/100/44 100/101/44
f 102/102/45 104/103/45 103/104/45
f 105/105/46 107/106/47 106/107/48
f 106/107/48 107/106/47 108/108/48
f 107/106/47 105/105/46 109/109/47
f 110/110/49 109/109/47 105/105/46
f 111/111/50 113/112/51 112/113/52
f 112/113/52 113/112/51 114/114/52
f 113/112/51 111/111/50 115/115/53
f 116/116/50 115/115/53 111/111/50
f 117/117/54 119/118/55 118/119/56
f 120/120/57 118/119/56 121/121/58
f 118/119/56 120/120/57 117/117/54
f 119/118/55 117/117/54 122/122/55
f 123/123/59 125/124/59 124/125/60
f 125/124/59 123/123/59 126/126/59
f 127/127/61 129/128/61 128/129/61
f 129/128/61 130/130/61 128/129/61
f 131/131/61 133/132/61 132/133/61
f 133/132/61 131/131/61 134/134/61
f 135/135/61 137/136/61 136/137/61
f 137/136/61 135/135/61 138/138/61
f 139/139/62 141/140/62 140/141/62
f 141/140/62 139/139/62 142/142/62
f 143/143/63 145/144/63 144/145/63
f 145/144/63 143/143/63 146/146/63
f 147/147/61 149/148/61 148/149/61
f 149/148/61 147/147/61 150/150/61
f 151/151/64 153/152/64 152/153/64
f 153/152/64 151/151/64 154/154/64
f 155/155/65 157/156/65 156/157/65
f 157/156/65 155/155/65 158/158/65
f 159/159/61 161/160/61 160/161/61
f 161/160/61 159/159/61 162/162/61
f 163/163/64 165/164/64 164/165/64
f 165/164/64 163/163/64 166/166/64
f 167/167/65 169/168/65 168/169/65
f 169/168/65 167/167/65 170/170/65
f 171/171/62 173/172/62 172/173/62
f 173/172/62 171/171/62 174/174/62
f 175/175/64 177/176/64 176/177/64
f 177/176/64 175/175/64 178/178/64
f 179/179/61 181/180/61 180/181/61
f 180/181/61 183/182/61 182/183/66
f 180/181/61 181/180/61 183/182/61
f 184/184/61 181/180/61 179/179/61
f 184/184/61 179/179/61 185/185/61
f 183/182/61 181/180/61 186/186/61
f 183/182/61 186/186/61 187/187/67
f 188/188/65 190/189/65 189/190/68
f 189/190/68 192/191/65 191/192/69
f 189/190/68 190/189/65 192/191/65
f 193/193/65 190/189/65 188/188/65
f 193/193/65 188/188/65 194/194/65
f 192/191/65 190/189/65 195/195/70
f 192/191/65 195/195/70 196/196/71
f 197/197/65 199/198/65 198/199/65
f 199/198/65 197/197/65 200/200/65
f 201/201/61 203/202/61 202/203/61
f 203/202/61 201/201/61 204/204/61
f 205/205/62 207/206/62 206/207/62
f 207/206/62 205/205/62 208/208/62
f 209/209/65 211/210/65 210/211/65
f 211/210/65 209/209/65 212/212/65
f 213/213/65 215/214/65 214/215/65
f 215/214/65 213/213/65 216/216/65
f 217/217/72 219/218/73 218/219/74
f 219/218/73 217/217/72 220/220/75
f 221/221/76 223/222/77 222/223/78
f 223/222/77 221/221/76 224/224/79
f 225/225/1 227/226/1 226/227/1
f 227/226/1 225/225/1 228/228/1
f 229/229/1 231/230/1 230/231/1
f 231/230/1 229/229/1 232/232/1
f 233/233/80 235/234/80 234/235/80
f 235/234/80 233/233/80 236/236/80
