# Blender v2.78 (sub 0) OBJ File: 'botella10.blend'
# www.blender.org
mtllib botella10.mtl
o Botella_Sphere002
v -0.266665 0.003430 -0.367035
v -0.218663 0.258315 -0.300968
v -0.000000 0.258315 -0.372014
v -0.000000 0.003430 -0.453680
v -0.431475 0.003430 -0.140195
v -0.353805 0.258315 -0.114958
v -0.431475 0.003430 0.140195
v -0.353805 0.258315 0.114958
v -0.266665 0.003430 0.367035
v -0.218663 0.258315 0.300968
v -0.000000 0.003430 0.453680
v -0.000000 0.258315 0.372014
v 0.266665 0.003430 0.367035
v 0.218663 0.258315 0.300968
v 0.431475 0.003430 0.140195
v 0.353805 0.258315 0.114958
v 0.431475 0.003430 -0.140195
v 0.353805 0.258315 -0.114958
v 0.266665 0.003430 -0.367035
v 0.218663 0.258315 -0.300968
v -0.221522 -0.265184 -0.304901
v -0.000000 -0.265184 -0.376878
v -0.358432 -0.265184 -0.116462
v -0.358432 -0.265184 0.116462
v -0.221522 -0.265184 0.304901
v -0.000000 -0.265184 0.376878
v 0.221522 -0.265184 0.304901
v 0.358432 -0.265184 0.116462
v 0.358432 -0.265184 -0.116462
v 0.221522 -0.265184 -0.304901
v -0.095682 -0.411023 -0.131697
v -0.000000 -0.411023 -0.162786
v -0.154818 -0.411023 -0.050304
v -0.154818 -0.411023 0.050304
v -0.095682 -0.411023 0.131697
v -0.000000 -0.411023 0.162786
v 0.095682 -0.411023 0.131697
v 0.154818 -0.411023 0.050304
v 0.154818 -0.411023 -0.050304
v 0.095682 -0.411023 -0.131697
v -0.096465 0.412129 -0.132775
v -0.000000 0.412129 -0.164117
v -0.156084 0.412129 -0.050715
v -0.156084 0.412129 0.050715
v -0.096465 0.412129 0.132774
v -0.000000 0.412129 0.164117
v 0.096465 0.412129 0.132774
v 0.156084 0.412129 0.050715
v 0.156084 0.412129 -0.050715
v 0.096465 0.412129 -0.132775
v -0.129202 0.463017 -0.177833
v -0.000000 0.463017 -0.219813
v -0.209056 0.463017 -0.067927
v -0.209056 0.463017 0.067927
v -0.129202 0.463017 0.177833
v -0.000000 0.463017 0.219812
v 0.129202 0.463017 0.177833
v 0.209056 0.463017 0.067927
v 0.209056 0.463017 -0.067927
v 0.129202 0.463017 -0.177833
v -0.129257 0.502397 -0.177905
v -0.000000 0.502397 -0.219904
v -0.209141 0.502397 -0.067955
v -0.209141 0.502397 0.067955
v -0.129257 0.502397 0.177905
v -0.000000 0.502397 0.219904
v 0.129257 0.502397 0.177905
v 0.209141 0.502397 0.067953
v 0.209141 0.502397 -0.067955
v 0.129257 0.502397 -0.177905
v -0.062629 0.502469 -0.086202
v -0.000000 0.502469 -0.106551
v -0.101337 0.502469 -0.032925
v -0.101337 0.502469 0.032925
v -0.062629 0.502469 0.086201
v -0.000000 0.502469 0.106551
v 0.062629 0.502469 0.086201
v 0.101337 0.502469 0.032925
v 0.101337 0.502469 -0.032925
v 0.062629 0.502469 -0.086202
v -0.000000 -0.433971 -0.000000
vt 0.5494 0.4186
vt 0.4842 0.2728
vt 0.5494 0.2728
vt 0.6147 0.2728
vt 0.6799 0.4186
vt 0.6799 0.2728
vt 0.0928 0.4186
vt 0.0276 0.2728
vt 0.0928 0.2728
vt 0.1581 0.2728
vt 0.2233 0.4186
vt 0.2233 0.2728
vt 0.2885 0.2728
vt 0.3538 0.4186
vt 0.3538 0.2728
vt 0.4190 0.4186
vt 0.4190 0.2728
vt 0.4842 0.1469
vt 0.5494 0.1469
vt 0.6147 0.1469
vt 0.6799 0.1469
vt 0.0276 0.1469
vt 0.0928 0.1469
vt 0.1581 0.1469
vt 0.2233 0.1469
vt 0.2885 0.1469
vt 0.3538 0.1469
vt 0.4190 0.1469
vt 0.4842 0.0557
vt 0.5494 0.0557
vt 0.6147 0.0557
vt 0.6799 0.0557
vt 0.0276 0.0557
vt 0.0928 0.0557
vt 0.1581 0.0557
vt 0.2233 0.0557
vt 0.2885 0.0557
vt 0.3538 0.0557
vt 0.4190 0.0557
vt 0.4842 0.5783
vt 0.4842 0.4186
vt 0.6147 0.4186
vt 0.5494 0.5783
vt 0.6147 0.5783
vt 0.0276 0.5783
vt 0.0276 0.4186
vt 0.1581 0.4186
vt 0.0928 0.5783
vt 0.1581 0.5783
vt 0.2885 0.4186
vt 0.2233 0.5783
vt 0.2885 0.5783
vt 0.3538 0.5783
vt 0.4190 0.5783
vt 0.4842 0.6015
vt 0.5494 0.6015
vt 0.6799 0.5783
vt 0.6147 0.6015
vt 0.0928 0.6015
vt 0.0276 0.6015
vt 0.1581 0.6015
vt 0.2233 0.6015
vt 0.2885 0.6015
vt 0.4190 0.6015
vt 0.3538 0.6015
vt 0.4842 0.6194
vt 0.5494 0.6194
vt 0.6799 0.6015
vt 0.6147 0.6194
vt 0.0928 0.6194
vt 0.0276 0.6194
vt 0.1581 0.6194
vt 0.2233 0.6194
vt 0.2885 0.6194
vt 0.4190 0.6194
vt 0.3538 0.6194
vt 0.5494 0.6195
vt 0.4842 0.6195
vt 0.6799 0.6194
vt 0.6147 0.6195
vt 0.0928 0.6195
vt 0.0276 0.6195
vt 0.1581 0.6195
vt 0.2885 0.6195
vt 0.2233 0.6195
vt 0.3538 0.6195
vt 0.4190 0.6195
vt 0.5127 0.0413
vt 0.1780 0.0413
vt 0.6799 0.6195
vn -0.6315 0.7262 -0.2720
vn -0.0100 0.0988 -0.9951
vn -0.5849 0.0982 -0.8051
vn -0.9297 0.0792 -0.3596
vn -0.4563 0.7255 0.5152
vn -0.9464 0.0988 0.3075
vn -0.0635 0.7262 0.6845
vn -0.5849 0.0982 0.8051
vn -0.0547 0.0792 0.9954
vn 0.6315 0.7262 0.2720
vn 0.5849 0.0982 0.8051
vn 0.9297 0.0792 0.3596
vn 0.4563 0.7255 -0.5152
vn 0.9464 0.0988 -0.3075
vn 0.0635 0.7262 -0.6845
vn 0.5849 0.0982 -0.8051
vn 0.0015 -0.5701 -0.8216
vn -0.4828 -0.5704 -0.6645
vn -0.7813 -0.5702 -0.2539
vn -0.7812 -0.5703 0.2539
vn -0.4828 -0.5704 0.6645
vn 0.0000 -0.5702 0.8215
vn 0.4828 -0.5704 0.6645
vn 0.7813 -0.5702 0.2539
vn 0.7812 -0.5703 -0.2539
vn 0.4828 -0.5704 -0.6645
vn -0.3252 -0.9013 -0.2863
vn -0.4011 -0.7310 -0.5521
vn -0.4687 -0.7749 -0.4241
vn -0.6513 -0.7288 0.2116
vn -0.4011 -0.7310 0.5521
vn -0.2585 -0.7749 0.5768
vn 0.4011 -0.7310 0.5521
vn 0.4687 -0.7749 0.4241
vn 0.6513 -0.7288 -0.2116
vn 0.4011 -0.7310 -0.5521
vn 0.0000 0.2330 -0.9725
vn 0.4329 0.4339 -0.7901
vn -0.9753 0.1558 -0.1564
vn -0.4345 0.0807 -0.8971
vn -0.8788 0.0806 -0.4704
vn -0.9878 0.0810 0.1328
vn 0.1527 0.1558 0.9759
vn -0.7189 0.0807 0.6904
vn -0.1714 0.0802 0.9819
vn 0.9753 0.1558 0.1564
vn 0.4345 0.0807 0.8971
vn 0.8788 0.0806 0.4704
vn 0.9878 0.0810 -0.1328
vn 0.7189 0.0807 -0.6904
vn -0.0000 -0.6850 -0.7285
vn -0.4290 -0.6835 -0.5905
vn -0.6942 -0.6835 -0.2256
vn -0.7854 -0.3932 0.4780
vn -0.6955 -0.6820 0.2260
vn -0.3564 -0.3931 0.8476
vn 0.4290 -0.6835 0.5905
vn 0.6942 -0.6836 0.2256
vn 0.7854 -0.3932 -0.4780
vn 0.6955 -0.6820 -0.2260
vn 0.0000 0.9220 -0.3871
vn -0.0843 0.5054 -0.8587
vn -0.5681 0.5010 -0.6529
vn -0.2291 0.9209 0.3153
vn -0.8439 0.4954 -0.2060
vn -0.0000 0.9157 0.4018
vn 0.0696 0.4979 0.8644
vn 0.5681 0.5010 0.6529
vn 0.2346 0.9169 -0.3229
vn 0.8435 0.4987 0.1992
vn -0.5432 0.3824 -0.7475
vn -0.0001 0.3824 -0.9240
vn -0.8788 0.3824 -0.2856
vn -0.5432 0.3824 0.7475
vn -0.8788 0.3824 0.2856
vn 0.0001 0.3824 0.9240
vn 0.8788 0.3824 0.2856
vn 0.5432 0.3824 0.7475
vn 0.8788 0.3824 -0.2856
vn 0.5432 0.3824 -0.7475
vn -0.3337 -0.9364 -0.1084
usemtl Material.001
s 1
f 2/1/1 4/2/2 1/3/3
f 5/4/4 2/1/1 1/3/3
f 8/5/5 5/4/4 7/6/6
f 10/7/7 7/8/6 9/9/8
f 11/10/9 10/7/7 9/9/8
f 14/11/10 11/10/9 13/12/11
f 15/13/12 14/11/10 13/12/11
f 18/14/13 15/13/12 17/15/14
f 20/16/15 17/15/14 19/17/16
f 4/2/2 20/16/15 19/17/16
f 1/3/3 22/18/17 21/19/18
f 5/4/4 21/19/18 23/20/19
f 7/6/6 23/20/19 24/21/20
f 9/9/8 24/22/20 25/23/21
f 11/10/9 25/23/21 26/24/22
f 13/12/11 26/24/22 27/25/23
f 15/13/12 27/25/23 28/26/24
f 17/15/14 28/26/24 29/27/25
f 19/17/16 29/27/25 30/28/26
f 4/2/2 30/28/26 22/18/17
f 21/19/18 32/29/27 31/30/28
f 33/31/29 21/19/18 31/30/28
f 24/21/20 33/31/29 34/32/30
f 25/23/21 34/33/30 35/34/31
f 36/35/32 25/23/21 35/34/31
f 27/25/23 36/35/32 37/36/33
f 38/37/34 27/25/23 37/36/33
f 29/27/25 38/37/34 39/38/35
f 30/28/26 39/38/35 40/39/36
f 32/29/27 30/28/26 40/39/36
f 2/1/1 42/40/37 3/41/38
f 6/42/39 41/43/40 2/1/1
f 8/5/5 43/44/41 6/42/39
f 10/7/7 44/45/42 8/46/5
f 12/47/43 45/48/44 10/7/7
f 14/11/10 46/49/45 12/47/43
f 16/50/46 47/51/47 14/11/10
f 18/14/13 48/52/48 16/50/46
f 20/16/15 49/53/49 18/14/13
f 3/41/38 50/54/50 20/16/15
f 41/43/40 52/55/51 42/40/37
f 43/44/41 51/56/52 41/43/40
f 44/57/42 53/58/53 43/44/41
f 44/45/42 55/59/54 54/60/55
f 45/48/44 56/61/56 55/59/54
f 47/51/47 56/61/56 46/49/45
f 48/52/48 57/62/57 47/51/47
f 49/53/49 58/63/58 48/52/48
f 49/53/49 60/64/59 59/65/60
f 50/54/50 52/55/51 60/64/59
f 51/56/52 62/66/61 52/55/51
f 53/58/53 61/67/62 51/56/52
f 54/68/55 63/69/63 53/58/53
f 54/60/55 65/70/64 64/71/65
f 55/59/54 66/72/66 65/70/64
f 57/62/57 66/72/66 56/61/56
f 58/63/58 67/73/67 57/62/57
f 59/65/60 68/74/68 58/63/58
f 59/65/60 70/75/69 69/76/70
f 60/64/59 62/66/61 70/75/69
f 62/66/61 71/77/71 72/78/72
f 63/69/63 71/77/71 61/67/62
f 64/79/65 73/80/73 63/69/63
f 64/71/65 75/81/74 74/82/75
f 65/70/64 76/83/76 75/81/74
f 67/73/67 76/83/76 66/72/66
f 67/73/67 78/84/77 77/85/78
f 68/74/68 79/86/79 78/84/77
f 69/76/70 80/87/80 79/86/79
f 62/66/61 80/87/80 70/75/69
f 31/30/28 81/88/81 33/31/29
f 34/33/30 81/89/81 35/34/31
f 32/29/27 81/88/81 31/30/28
f 36/35/32 81/89/81 37/36/33
f 38/37/34 81/89/81 39/38/35
f 81/88/81 34/32/30 33/31/29
f 81/89/81 36/35/32 35/34/31
f 32/29/27 40/39/36 81/88/81
f 81/89/81 38/37/34 37/36/33
f 81/88/81 40/39/36 39/38/35
f 2/1/1 3/41/38 4/2/2
f 5/4/4 6/42/39 2/1/1
f 8/5/5 6/42/39 5/4/4
f 10/7/7 8/46/5 7/8/6
f 11/10/9 12/47/43 10/7/7
f 14/11/10 12/47/43 11/10/9
f 15/13/12 16/50/46 14/11/10
f 18/14/13 16/50/46 15/13/12
f 20/16/15 18/14/13 17/15/14
f 4/2/2 3/41/38 20/16/15
f 1/3/3 4/2/2 22/18/17
f 5/4/4 1/3/3 21/19/18
f 7/6/6 5/4/4 23/20/19
f 9/9/8 7/8/6 24/22/20
f 11/10/9 9/9/8 25/23/21
f 13/12/11 11/10/9 26/24/22
f 15/13/12 13/12/11 27/25/23
f 17/15/14 15/13/12 28/26/24
f 19/17/16 17/15/14 29/27/25
f 4/2/2 19/17/16 30/28/26
f 21/19/18 22/18/17 32/29/27
f 33/31/29 23/20/19 21/19/18
f 24/21/20 23/20/19 33/31/29
f 25/23/21 24/22/20 34/33/30
f 36/35/32 26/24/22 25/23/21
f 27/25/23 26/24/22 36/35/32
f 38/37/34 28/26/24 27/25/23
f 29/27/25 28/26/24 38/37/34
f 30/28/26 29/27/25 39/38/35
f 32/29/27 22/18/17 30/28/26
f 2/1/1 41/43/40 42/40/37
f 6/42/39 43/44/41 41/43/40
f 8/5/5 44/57/42 43/44/41
f 10/7/7 45/48/44 44/45/42
f 12/47/43 46/49/45 45/48/44
f 14/11/10 47/51/47 46/49/45
f 16/50/46 48/52/48 47/51/47
f 18/14/13 49/53/49 48/52/48
f 20/16/15 50/54/50 49/53/49
f 3/41/38 42/40/37 50/54/50
f 41/43/40 51/56/52 52/55/51
f 43/44/41 53/58/53 51/56/52
f 44/57/42 54/68/55 53/58/53
f 44/45/42 45/48/44 55/59/54
f 45/48/44 46/49/45 56/61/56
f 47/51/47 57/62/57 56/61/56
f 48/52/48 58/63/58 57/62/57
f 49/53/49 59/65/60 58/63/58
f 49/53/49 50/54/50 60/64/59
f 50/54/50 42/40/37 52/55/51
f 51/56/52 61/67/62 62/66/61
f 53/58/53 63/69/63 61/67/62
f 54/68/55 64/79/65 63/69/63
f 54/60/55 55/59/54 65/70/64
f 55/59/54 56/61/56 66/72/66
f 57/62/57 67/73/67 66/72/66
f 58/63/58 68/74/68 67/73/67
f 59/65/60 69/76/70 68/74/68
f 59/65/60 60/64/59 70/75/69
f 60/64/59 52/55/51 62/66/61
f 62/66/61 61/67/62 71/77/71
f 63/69/63 73/80/73 71/77/71
f 64/79/65 74/90/75 73/80/73
f 64/71/65 65/70/64 75/81/74
f 65/70/64 66/72/66 76/83/76
f 67/73/67 77/85/78 76/83/76
f 67/73/67 68/74/68 78/84/77
f 68/74/68 69/76/70 79/86/79
f 69/76/70 70/75/69 80/87/80
f 62/66/61 72/78/72 80/87/80
o Corcho_Sphere002.001
v -0.071802 0.465267 -0.098828
v 0.000000 0.465267 -0.122157
v -0.116179 0.465267 -0.037748
v -0.116179 0.465267 0.037748
v -0.071802 0.465267 0.098826
v -0.000000 0.465267 0.122157
v 0.071802 0.465267 0.098826
v 0.116179 0.465267 0.037748
v 0.116179 0.465267 -0.037748
v 0.071802 0.465267 -0.098828
v -0.090784 0.598564 -0.124955
v 0.000000 0.598564 -0.154453
v -0.146894 0.598564 -0.047729
v -0.146894 0.598564 0.047729
v -0.090784 0.598564 0.124955
v -0.000000 0.598564 0.154453
v 0.090784 0.598564 0.124955
v 0.146894 0.598564 0.047729
v 0.146894 0.598564 -0.047729
v 0.090784 0.598564 -0.124955
v -0.094502 0.731834 -0.130070
v 0.000000 0.731834 -0.160776
v -0.152907 0.731834 -0.049683
v -0.152907 0.731834 0.049682
v -0.094502 0.731834 0.130069
v -0.000000 0.731834 0.160776
v 0.094502 0.731834 0.130070
v 0.152907 0.731834 0.049682
v 0.152907 0.731834 -0.049683
v 0.094502 0.731834 -0.130070
vt 0.6959 0.6451
vt 0.7944 0.8131
vt 0.6959 0.8131
vt 0.7944 0.6451
vt 0.8930 0.8131
vt 0.9915 0.6451
vt 0.8930 0.6451
vt 0.1047 0.6451
vt 0.0061 0.8131
vt 0.0061 0.6451
vt 0.2032 0.6451
vt 0.1047 0.8131
vt 0.3017 0.8131
vt 0.2032 0.8131
vt 0.3017 0.6451
vt 0.4003 0.8131
vt 0.4988 0.6451
vt 0.4003 0.6451
vt 0.5974 0.6451
vt 0.4988 0.8131
vt 0.5974 0.8131
vt 0.6959 0.9811
vt 0.7944 0.9811
vt 0.9915 0.8131
vt 0.8930 0.9811
vt 0.1047 0.9811
vt 0.0061 0.9811
vt 0.2032 0.9811
vt 0.3017 0.9811
vt 0.4003 0.9811
vt 0.5974 0.9811
vt 0.4988 0.9811
vt 0.3140 0.8168
vt 0.4266 0.6617
vt 0.5273 0.6617
vt 0.3450 0.9127
vt 0.6090 0.7212
vt 0.4266 0.9719
vt 0.6402 0.8168
vt 0.5273 0.9719
vt 0.9915 0.9811
vt 0.3450 0.7212
vt 0.6090 0.9127
vn 0.0000 0.3789 -0.9254
vn -0.5817 -0.1434 -0.8007
vn 0.0000 -0.1434 -0.9897
vn -0.5437 0.3802 -0.7483
vn -0.9412 -0.1434 -0.3058
vn -0.8796 0.3802 0.2858
vn -0.8788 0.3822 -0.2856
vn -0.5437 0.3802 0.7483
vn -0.9405 -0.1397 0.3097
vn 0.0000 0.3789 0.9254
vn -0.5788 -0.1397 0.8034
vn 0.5817 -0.1434 0.8007
vn 0.0039 -0.1397 0.9902
vn 0.5437 0.3802 0.7483
vn 0.9412 -0.1434 0.3058
vn 0.8796 0.3802 -0.2858
vn 0.8788 0.3822 0.2856
vn 0.5437 0.3802 -0.7483
vn 0.9405 -0.1397 -0.3097
vn 0.5788 -0.1397 -0.8034
vn -0.0000 0.9179 -0.3969
vn -0.3234 0.8350 -0.4452
vn -0.9357 0.1790 -0.3041
vn -0.3234 0.8350 0.4452
vn -0.9355 0.1800 0.3040
vn 0.0000 0.9179 0.3969
vn 0.3234 0.8350 0.4452
vn 0.9357 0.1790 0.3041
vn 0.3234 0.8350 -0.4452
vn 0.9355 0.1800 -0.3040
vn -0.3213 0.8374 -0.4423
vn -0.3213 0.8374 0.4423
vn -0.0000 0.9211 -0.3894
vn 0.0000 0.9211 0.3894
vn 0.3213 0.8374 -0.4423
vn 0.3213 0.8374 0.4423
vn -0.9355 0.1800 -0.3040
vn 0.9355 0.1800 0.3040
usemtl Material.001
s 1
f 83/91/82 92/92/83 93/93/84
f 82/94/85 94/95/86 92/92/83
f 85/96/87 94/95/86 84/97/88
f 86/98/89 95/99/90 85/100/87
f 87/101/91 96/102/92 86/98/89
f 87/101/91 98/103/93 97/104/94
f 88/105/95 99/106/96 98/103/93
f 90/107/97 99/106/96 89/108/98
f 91/109/99 100/110/100 90/107/97
f 83/91/82 101/111/101 91/109/99
f 92/92/83 103/112/102 93/93/84
f 94/95/86 102/113/103 92/92/83
f 95/114/90 104/115/104 94/95/86
f 95/99/90 106/116/105 105/117/106
f 96/102/92 107/118/107 106/116/105
f 98/103/93 107/118/107 97/104/94
f 99/106/96 108/119/108 98/103/93
f 100/110/100 109/120/109 99/106/96
f 100/110/100 111/121/110 110/122/111
f 101/111/101 103/112/102 111/121/110
f 102/123/112 105/124/106 106/125/113
f 103/126/114 106/125/113 107/127/115
f 107/127/115 111/128/116 103/126/114
f 108/129/117 110/130/111 111/128/116
f 83/91/82 82/94/85 92/92/83
f 82/94/85 84/97/88 94/95/86
f 85/96/87 95/114/90 94/95/86
f 86/98/89 96/102/92 95/99/90
f 87/101/91 97/104/94 96/102/92
f 87/101/91 88/105/95 98/103/93
f 88/105/95 89/108/98 99/106/96
f 90/107/97 100/110/100 99/106/96
f 91/109/99 101/111/101 100/110/100
f 83/91/82 93/93/84 101/111/101
f 92/92/83 102/113/103 103/112/102
f 94/95/86 104/115/104 102/113/103
f 95/114/90 105/131/106 104/115/104
f 95/99/90 96/102/92 106/116/105
f 96/102/92 97/104/94 107/118/107
f 98/103/93 108/119/108 107/118/107
f 99/106/96 109/120/109 108/119/108
f 100/110/100 110/122/111 109/120/109
f 100/110/100 101/111/101 111/121/110
f 101/111/101 93/93/84 103/112/102
f 102/123/112 104/132/118 105/124/106
f 103/126/114 102/123/112 106/125/113
f 107/127/115 108/129/117 111/128/116
f 108/129/117 109/133/119 110/130/111
