# Blender v2.79 (sub 0) OBJ File: ''
# www.blender.org
mtllib diplomatic3collider.mtl
o Cube.001
v -0.647789 0.010384 0.127338
v -0.647789 0.393904 0.133174
v -0.631945 0.393904 -0.121539
v -0.631945 0.010384 -0.121539
v 0.615466 0.393904 -0.203533
v 0.615466 0.010384 -0.203533
v 0.599086 0.393904 0.188155
v 0.599086 0.010384 0.182319
vn -0.9980 0.0005 -0.0628
vn -0.0656 0.0000 -0.9978
vn 0.9991 -0.0003 0.0421
vn -0.0440 -0.0152 0.9989
vn 0.0000 -1.0000 -0.0000
vn 0.0000 1.0000 0.0000
usemtl None
s 1
f 1//1 2//1 3//1 4//1
f 4//2 3//2 5//2 6//2
f 6//3 5//3 7//3 8//3
f 8//4 7//4 2//4 1//4
f 4//5 6//5 8//5 1//5
f 5//6 3//6 2//6 7//6
