# Blender v2.76 (sub 0) OBJ File: 'EmpireSwordsmen.blend'
# www.blender.org
mtllib EmpireSwordsmenCol.mtl
o Cube_Cube.002
v -0.037352 0.656532 0.036239
v -0.037352 0.656532 -0.030210
v -0.256901 -0.983153 -0.164339
v -0.256901 -0.983153 0.170367
v 0.037352 0.656532 -0.030210
v 0.256901 -0.983153 -0.164339
v 0.037352 0.656532 0.036239
v 0.256901 -0.983153 0.170367
vn -0.991200 0.132700 0.000000
vn 0.000000 0.081500 -0.996700
vn 0.991200 0.132700 0.000000
vn 0.000000 0.081500 0.996700
vn 0.000000 -1.000000 0.000000
vn 0.000000 1.000000 0.000000
usemtl None
s 1
f 1//1 2//1 3//1 4//1
f 2//2 5//2 6//2 3//2
f 5//3 7//3 8//3 6//3
f 7//4 1//4 4//4 8//4
f 4//5 3//5 6//5 8//5
f 7//6 5//6 2//6 1//6
