# Blender v2.79 (sub 0) OBJ File: ''
# www.blender.org
mtllib 6collider.mtl
o Cube
v -0.003611 -0.012171 0.303094
v -0.003611 0.335033 0.303094
v 0.028135 0.335033 0.185420
v 0.028135 -0.012171 0.185420
v 0.295263 0.335033 0.240564
v 0.295263 -0.012171 0.240564
v 0.256817 0.335033 0.386709
v 0.256817 -0.012171 0.386709
vn -0.9655 0.0000 -0.2605
vn 0.2022 0.0000 -0.9794
vn 0.9671 -0.0000 0.2544
vn -0.3057 -0.0000 0.9521
vn 0.0000 -1.0000 -0.0000
vn -0.0000 1.0000 0.0000
usemtl None
s 1
f 1//1 2//1 3//1 4//1
f 4//2 3//2 5//2 6//2
f 6//3 5//3 7//3 8//3
f 8//4 7//4 2//4 1//4
f 4//5 6//5 8//5 1//5
f 5//6 3//6 2//6 7//6
o Cube.001
v -0.339211 -0.012171 -0.118162
v -0.339211 0.335033 -0.118162
v -0.171465 0.335033 -0.375559
v -0.171465 -0.012171 -0.375559
v 0.112895 0.335033 -0.155931
v 0.112895 -0.012171 -0.155931
v -0.005771 0.335033 -0.118364
v -0.005771 -0.012171 -0.118364
vn -0.8378 0.0000 -0.5460
vn 0.6113 0.0000 -0.7914
vn 0.3018 -0.0000 0.9534
vn 0.0006 -0.0000 1.0000
vn 0.0000 -1.0000 -0.0000
vn -0.0000 1.0000 -0.0000
usemtl None
s 1
f 9//7 10//7 11//7 12//7
f 12//8 11//8 13//8 14//8
f 14//9 13//9 15//9 16//9
f 16//10 15//10 10//10 9//10
f 12//11 14//11 16//11 9//11
f 13//12 11//12 10//12 15//12
