# Blender v2.75 (sub 0) OBJ File: ''
# www.blender.org
mtllib Bottle.mtl
o bottle_bottle_geom-00CA490A
v 0.146500 -0.238600 -0.201600
v 0.000000 -0.238600 -0.249200
v 0.130400 0.097300 -0.179500
v 0.000000 0.097300 -0.221900
v -0.146500 -0.238600 -0.201600
v -0.130400 0.097300 -0.179500
v -0.237100 -0.238600 -0.077000
v -0.211100 0.097300 -0.068600
v -0.237100 -0.238600 0.077000
v -0.211100 0.097300 0.068600
v -0.146500 -0.238600 0.201600
v -0.130400 0.097300 0.179500
v 0.000000 -0.238600 0.249200
v 0.000000 0.097300 0.221900
v 0.130400 0.097300 0.179500
v 0.146500 -0.238600 0.201600
v 0.237000 -0.238600 0.077000
v 0.211100 0.097300 0.068600
v 0.237000 -0.238600 -0.077000
v 0.211100 0.097300 -0.068600
v 0.000000 -0.298400 -0.210900
v -0.124000 -0.298400 0.170600
v -0.124000 -0.298400 -0.170600
v 0.180400 0.135600 -0.058600
v 0.111500 0.135600 -0.153400
v 0.118700 0.150900 -0.038600
v 0.073300 0.150900 -0.100900
v 0.000000 0.135600 -0.189700
v 0.000000 0.150900 -0.124800
v -0.111500 0.135600 -0.153400
v -0.073300 0.150900 -0.100900
v -0.180400 0.135600 -0.058600
v -0.118700 0.150900 -0.038600
v -0.180400 0.135600 0.058600
v -0.118700 0.150900 0.038600
v -0.111500 0.135600 0.153400
v -0.073300 0.150900 0.100900
v 0.000000 0.135600 0.189700
v 0.000000 0.150900 0.124800
v 0.111500 0.135600 0.153400
v 0.073300 0.150900 0.100900
v 0.180400 0.135600 0.058600
v 0.118700 0.150900 0.038600
v 0.118700 0.150900 -0.038600
v 0.073300 0.150900 -0.100900
v 0.116300 0.208900 -0.037800
v 0.071900 0.208900 -0.098900
v 0.000000 0.150900 -0.124800
v 0.000000 0.208900 -0.122300
v -0.073300 0.150900 -0.100900
v -0.071900 0.208900 -0.098900
v -0.118700 0.150900 -0.038600
v -0.116300 0.208900 -0.037800
v -0.118700 0.150900 0.038600
v -0.116300 0.208900 0.037800
v -0.073300 0.150900 0.100900
v -0.071900 0.208900 0.098900
v 0.000000 0.150900 0.124800
v 0.000000 0.208900 0.122300
v 0.073300 0.150900 0.100900
v 0.071900 0.208900 0.098900
v 0.118700 0.150900 0.038600
v 0.116300 0.208900 0.037800
v 0.237000 -0.238600 -0.077000
v 0.237000 -0.238600 0.077000
v 0.200600 -0.298400 -0.065200
v 0.200600 -0.298400 0.065200
v 0.146500 -0.238600 0.201600
v 0.124000 -0.298400 0.170600
v 0.000000 -0.238600 0.249200
v 0.000000 -0.298400 0.210900
v -0.146500 -0.238600 0.201600
v -0.237100 -0.238600 0.077000
v -0.200600 -0.298400 0.065200
v -0.237100 -0.238600 -0.077000
v -0.200600 -0.298400 -0.065200
v -0.146500 -0.238600 -0.201600
v 0.000000 -0.238600 -0.249200
v 0.146500 -0.238600 -0.201600
v 0.124000 -0.298400 -0.170600
v -0.178800 0.208900 0.058100
v -0.110500 0.208900 0.152100
v -0.178800 0.274700 0.058100
v -0.110500 0.274700 0.152100
v -0.178800 0.208900 -0.058100
v -0.178800 0.274700 -0.058100
v -0.110500 0.208900 -0.152100
v -0.110500 0.274700 -0.152100
v 0.000000 0.208900 -0.188000
v 0.000000 0.274700 -0.188000
v 0.110500 0.208900 -0.152100
v 0.110500 0.274700 -0.152100
v 0.178800 0.208900 -0.058100
v 0.178800 0.274700 -0.058100
v 0.178800 0.208900 0.058100
v 0.178800 0.274700 0.058100
v 0.110500 0.208900 0.152100
v 0.110500 0.274700 0.152100
v -0.116300 0.208900 0.037800
v -0.071900 0.208900 0.098900
v -0.071200 0.274700 0.098000
v -0.115200 0.274700 0.037400
v -0.110500 0.274700 0.152100
v -0.178800 0.274700 0.058100
v -0.116300 0.208900 -0.037800
v -0.115200 0.274700 -0.037400
v -0.178800 0.274700 -0.058100
v -0.071900 0.208900 -0.098900
v -0.071200 0.274700 -0.098000
v -0.110500 0.274700 -0.152100
v 0.000000 0.208900 -0.122300
v 0.000000 0.274700 -0.121100
v 0.000000 0.274700 -0.188000
v 0.071900 0.208900 -0.098900
v 0.071200 0.274700 -0.098000
v 0.110500 0.274700 -0.152100
v 0.116300 0.208900 -0.037800
v 0.115200 0.274700 -0.037400
v 0.178800 0.274700 -0.058100
v 0.116300 0.208900 0.037800
v 0.115200 0.274700 0.037400
v 0.178800 0.274700 0.058100
v 0.071900 0.208900 0.098900
v 0.071200 0.274700 0.098000
v 0.110500 0.274700 0.152100
v 0.000000 0.208900 0.122300
v 0.000000 0.208900 0.188000
v 0.000000 0.274700 0.188000
v 0.000000 0.274700 0.121100
v 0.000000 0.274700 0.188000
vt 0.970000 0.090000
vt 0.970000 0.340000
vt 0.970000 0.380000
vt 0.970000 0.410000
vt 0.970000 0.030000
vt 0.970000 0.310000
vt 0.970000 0.780000
vt 0.970000 0.840000
vt 0.970000 0.750000
vt 0.970000 0.970000
vt 0.970000 0.910000
vn 0.308100 0.077200 -0.948200
vn 0.806200 0.077200 -0.586600
vn 0.806700 0.076900 -0.585900
vn 0.997000 0.076900 0.000000
vn 0.806200 0.076800 0.586600
vn 0.806700 0.077200 0.585900
vn 0.308100 0.077200 0.948200
vn 0.308300 0.077100 0.948200
vn -0.308300 0.077100 0.948200
vn -0.308100 0.077200 0.948200
vn -0.806200 0.077200 0.586600
vn -0.806400 0.077100 0.586300
vn -0.997000 0.077200 0.000000
vn -0.806200 0.077100 -0.586600
vn -0.806400 0.077200 -0.586300
vn -0.308300 0.077200 -0.948200
vn -0.308100 0.077100 -0.948200
vn 0.308300 0.077100 -0.948200
vn 0.241400 0.625000 -0.742400
vn 0.631700 0.624600 -0.459100
vn 0.630900 0.625500 -0.459100
vn 0.780300 0.625400 0.000000
vn 0.631100 0.625600 0.458700
vn 0.631400 0.624700 0.459500
vn 0.241600 0.625100 0.742200
vn 0.241500 0.624500 0.742800
vn -0.241800 0.624400 0.742700
vn -0.241400 0.625000 0.742400
vn -0.631700 0.624600 0.459100
vn -0.630900 0.625500 0.459100
vn -0.780300 0.625400 0.000000
vn -0.631100 0.625600 -0.458700
vn -0.631400 0.624700 -0.459500
vn -0.241600 0.625100 -0.742200
vn -0.241500 0.624500 -0.742800
vn 0.241800 0.624400 -0.742700
vn 0.074500 0.970600 -0.228700
vn 0.194200 0.970700 -0.141600
vn 0.194800 0.970600 -0.141600
vn 0.240700 0.970600 0.000000
vn 0.194700 0.970600 0.141900
vn 0.194500 0.970700 0.141400
vn 0.074500 0.970700 0.228600
vn 0.074500 0.970600 0.228800
vn -0.074600 0.970600 0.228800
vn -0.074500 0.970600 0.228700
vn -0.194200 0.970700 0.141600
vn -0.194800 0.970600 0.141600
vn -0.240700 0.970600 0.000000
vn -0.194700 0.970600 -0.141900
vn -0.194500 0.970700 -0.141400
vn -0.074500 0.970700 -0.228600
vn -0.074500 0.970600 -0.228800
vn 0.074600 0.970600 -0.228800
vn -0.000000 -1.000000 -0.000000
vn -0.264000 -0.520200 -0.812200
vn -0.263900 -0.520300 -0.812200
vn -0.690900 -0.520200 -0.502100
vn -0.690600 -0.520600 -0.502100
vn -0.853600 -0.521000 -0.000000
vn -0.690700 -0.520600 0.501900
vn -0.690700 -0.520200 0.502200
vn -0.263900 -0.520300 0.812200
vn -0.263900 -0.520200 0.812200
vn 0.264000 -0.520200 0.812200
vn 0.263900 -0.520300 0.812200
vn 0.690900 -0.520200 0.502100
vn 0.691200 -0.519800 0.502000
vn 0.854200 -0.519900 -0.000000
vn 0.691100 -0.519800 -0.502200
vn 0.691000 -0.520200 -0.501900
vn 0.263900 -0.520300 -0.812200
vn 0.807500 0.041500 -0.588400
vn 0.999100 0.041300 -0.000000
vn 0.808300 0.041500 0.587300
vn 0.807500 0.039800 0.588500
vn 0.309200 0.040200 0.950100
vn 0.309700 0.040900 0.949900
vn -0.309200 0.041000 0.950100
vn -0.309700 0.040200 0.950000
vn -0.808300 0.039800 0.587400
vn -0.807500 0.041500 0.588400
vn -0.999100 0.041300 -0.000000
vn -0.808300 0.041500 -0.587300
vn -0.807500 0.039800 -0.588500
vn -0.309200 0.040200 -0.950100
vn -0.309700 0.040900 -0.949900
vn 0.309200 0.041000 -0.950100
vn 0.309700 0.040200 -0.950000
vn 0.808300 0.039800 -0.587400
vn -0.809000 -0.000000 0.587800
vn -1.000000 -0.000000 0.000000
vn -0.809000 0.000000 -0.587800
vn -0.309000 0.000000 -0.951100
vn 0.309000 0.000000 -0.951100
vn 0.809000 0.000000 -0.587800
vn 1.000000 0.000000 0.000000
vn 0.809000 0.000000 0.587800
vn -0.309000 -0.000000 0.951100
vn 0.309000 -0.000000 0.951100
vn 0.000000 1.000000 0.000000
vn 0.263900 -0.520200 -0.812200
usemtl material-002EA1A2
s off
f 1/1/1 2/1/1 3/2/1
f 1/1/2 3/2/2 20/2/2
f 19/1/3 1/1/3 20/2/3
f 19/1/4 20/2/4 18/2/4
f 17/1/4 19/1/4 18/2/4
f 17/1/5 18/2/5 15/2/5
f 16/1/6 17/1/6 15/2/6
f 13/1/7 16/1/7 15/2/7
f 14/2/8 13/1/8 15/2/8
f 13/1/9 14/2/9 12/2/9
f 11/1/10 13/1/10 12/2/10
f 11/1/11 12/2/11 10/2/11
f 9/1/12 11/1/12 10/2/12
f 9/1/13 10/2/13 8/2/13
f 7/1/13 9/1/13 8/2/13
f 7/1/14 8/2/14 6/2/14
f 5/1/15 7/1/15 6/2/15
f 5/1/16 6/2/16 4/2/16
f 2/1/17 5/1/17 4/2/17
f 2/1/18 4/2/18 3/2/18
f 3/2/19 4/2/19 25/3/19
f 3/2/20 25/3/20 24/3/20
f 20/2/21 3/2/21 24/3/21
f 20/2/22 24/3/22 42/3/22
f 18/2/22 20/2/22 42/3/22
f 18/2/23 42/3/23 40/3/23
f 15/2/24 18/2/24 40/3/24
f 15/2/25 40/3/25 38/3/25
f 14/2/26 15/2/26 38/3/26
f 14/2/27 38/3/27 36/3/27
f 12/2/28 14/2/28 36/3/28
f 12/2/29 36/3/29 34/3/29
f 10/2/30 12/2/30 34/3/30
f 10/2/31 34/3/31 32/3/31
f 8/2/31 10/2/31 32/3/31
f 8/2/32 32/3/32 30/3/32
f 6/2/33 8/2/33 30/3/33
f 6/2/34 30/3/34 28/3/34
f 4/2/35 6/2/35 28/3/35
f 4/2/36 28/3/36 25/3/36
f 25/3/37 28/3/37 27/4/37
f 25/3/38 27/4/38 26/4/38
f 24/3/39 25/3/39 26/4/39
f 24/3/40 26/4/40 43/4/40
f 42/3/40 24/3/40 43/4/40
f 42/3/41 43/4/41 41/4/41
f 40/3/42 42/3/42 41/4/42
f 40/3/43 41/4/43 39/4/43
f 38/3/44 40/3/44 39/4/44
f 38/3/45 39/4/45 37/4/45
f 36/3/46 38/3/46 37/4/46
f 36/3/47 37/4/47 35/4/47
f 34/3/48 36/3/48 35/4/48
f 34/3/49 35/4/49 33/4/49
f 32/3/49 34/3/49 33/4/49
f 32/3/50 33/4/50 31/4/50
f 30/3/51 32/3/51 31/4/51
f 30/3/52 31/4/52 29/4/52
f 28/3/53 30/3/53 29/4/53
f 28/3/54 29/4/54 27/4/54
f 21/5/55 22/5/55 23/5/55
f 78/5/56 21/5/56 23/5/56
f 77/5/57 78/5/57 23/5/57
f 77/5/58 23/5/58 76/5/58
f 75/5/59 77/5/59 76/5/59
f 75/5/60 76/5/60 74/5/60
f 73/5/60 75/5/60 74/5/60
f 73/5/61 74/5/61 22/5/61
f 72/5/62 73/5/62 22/5/62
f 72/5/63 22/5/63 71/5/63
f 70/5/64 72/5/64 71/5/64
f 70/5/65 71/5/65 69/5/65
f 68/5/66 70/5/66 69/5/66
f 68/5/67 69/5/67 67/5/67
f 65/5/68 68/5/68 67/5/68
f 65/5/69 67/5/69 66/5/69
f 64/5/69 65/5/69 66/5/69
f 64/5/70 66/5/70 80/5/70
f 79/5/71 64/5/71 80/5/71
f 80/5/72 21/5/72 79/5/72
f 80/5/55 71/5/55 21/5/55
f 69/5/55 71/5/55 80/5/55
f 69/5/55 80/5/55 66/5/55
f 69/5/55 66/5/55 67/5/55
f 44/4/73 45/4/73 46/6/73
f 44/4/74 46/6/74 63/6/74
f 62/4/74 44/4/74 63/6/74
f 62/4/75 63/6/75 61/6/75
f 60/4/76 62/4/76 61/6/76
f 60/4/77 61/6/77 59/6/77
f 58/4/78 60/4/78 59/6/78
f 58/4/79 59/6/79 57/6/79
f 56/4/80 58/4/80 57/6/80
f 56/4/81 57/6/81 55/6/81
f 54/4/82 56/4/82 55/6/82
f 54/4/83 55/6/83 53/6/83
f 52/4/83 54/4/83 53/6/83
f 52/4/84 53/6/84 51/6/84
f 50/4/85 52/4/85 51/6/85
f 50/4/86 51/6/86 49/6/86
f 48/4/87 50/4/87 49/6/87
f 48/4/88 49/6/88 47/6/88
f 45/4/89 48/4/89 47/6/89
f 45/4/90 47/6/90 46/6/90
f 81/7/91 82/7/91 83/8/91
f 81/7/92 83/8/92 86/8/92
f 85/7/92 81/7/92 86/8/92
f 85/7/93 86/8/93 88/8/93
f 87/7/93 85/7/93 88/8/93
f 87/7/94 88/8/94 90/8/94
f 89/7/94 87/7/94 90/8/94
f 89/7/95 90/8/95 92/8/95
f 91/7/95 89/7/95 92/8/95
f 91/7/96 92/8/96 94/8/96
f 93/7/96 91/7/96 94/8/96
f 93/7/97 94/8/97 96/8/97
f 95/7/97 93/7/97 96/8/97
f 95/7/98 96/8/98 98/8/98
f 97/7/98 95/7/98 98/8/98
f 120/9/55 95/7/55 97/7/55
f 120/9/55 117/9/55 95/7/55
f 117/9/55 93/7/55 95/7/55
f 117/9/55 114/9/55 93/7/55
f 114/9/55 91/7/55 93/7/55
f 114/9/55 111/9/55 91/7/55
f 111/9/55 89/7/55 91/7/55
f 111/9/55 108/9/55 89/7/55
f 108/9/55 87/7/55 89/7/55
f 108/9/55 105/9/55 87/7/55
f 105/9/55 85/7/55 87/7/55
f 105/9/55 99/9/55 85/7/55
f 99/9/55 81/7/55 85/7/55
f 99/9/55 100/9/55 81/7/55
f 100/9/55 82/7/55 81/7/55
f 82/7/55 100/9/55 127/7/55
f 82/7/99 127/7/99 84/8/99
f 82/7/91 84/8/91 83/8/91
f 127/7/99 128/8/99 84/8/99
f 128/8/100 127/7/100 97/7/100
f 98/8/100 128/8/100 97/7/100
f 123/9/55 120/9/55 97/7/55
f 123/9/55 97/7/55 127/7/55
f 126/9/55 123/9/55 127/7/55
f 100/9/55 126/9/55 127/7/55
f 101/10/101 102/10/101 103/11/101
f 101/10/101 103/11/101 130/11/101
f 129/10/101 101/10/101 130/11/101
f 124/10/101 129/10/101 130/11/101
f 125/11/101 124/10/101 130/11/101
f 124/10/101 125/11/101 122/11/101
f 121/10/101 124/10/101 122/11/101
f 121/10/101 122/11/101 119/11/101
f 118/10/101 121/10/101 119/11/101
f 118/10/101 119/11/101 116/11/101
f 115/10/101 118/10/101 116/11/101
f 115/10/101 116/11/101 113/11/101
f 112/10/101 115/10/101 113/11/101
f 112/10/101 113/11/101 110/11/101
f 109/10/101 112/10/101 110/11/101
f 109/10/101 110/11/101 107/11/101
f 106/10/101 109/10/101 107/11/101
f 106/10/101 107/11/101 104/11/101
f 102/10/101 106/10/101 104/11/101
f 102/10/101 104/11/101 103/11/101
f 21/5/102 78/5/102 79/5/102
f 21/5/55 71/5/55 22/5/55
f 23/5/55 22/5/55 74/5/55
f 23/5/55 74/5/55 76/5/55
o bottle_cap_geom-02C1248F
v 0.102800 0.194600 -0.033400
v 0.063600 0.194600 -0.087500
v 0.123400 0.325500 -0.040100
v 0.076300 0.325500 -0.105000
v 0.000000 0.194600 -0.108100
v 0.000000 0.325500 -0.129800
v -0.063600 0.194600 -0.087500
v -0.076300 0.325500 -0.105000
v -0.102800 0.194600 -0.033400
v -0.123400 0.325500 -0.040100
v -0.102800 0.194600 -0.033400
v -0.102800 0.194600 0.033400
v -0.123400 0.325500 -0.040100
v -0.123400 0.325500 0.040100
v -0.063600 0.194600 0.087500
v -0.076300 0.325500 0.105000
v 0.000000 0.194600 0.108100
v 0.000000 0.325500 0.129600
v 0.063600 0.194600 0.087500
v 0.076300 0.325500 0.105000
v 0.102800 0.194600 0.033400
v 0.123400 0.325500 0.040100
v 0.102800 0.194600 -0.033400
v 0.123400 0.325500 -0.040100
v 0.000000 0.360400 0.108700
v 0.064000 0.360400 -0.088000
v 0.000000 0.360400 -0.108800
v -0.064000 0.360400 -0.088000
v -0.064000 0.360400 0.088000
v 0.064000 0.360400 0.088000
v 0.103500 0.360400 -0.033600
v 0.103500 0.360400 0.033600
v -0.103500 0.360400 -0.033600
v -0.103500 0.360400 0.033600
v -0.103500 0.360400 0.033600
v -0.064000 0.360400 0.088000
v -0.103500 0.360400 -0.033600
v -0.064000 0.360400 -0.088000
v -0.103500 0.360400 -0.033600
v 0.000000 0.360400 -0.108800
v 0.064000 0.360400 -0.088000
v 0.103500 0.360400 -0.033600
v 0.103500 0.360400 0.033600
v 0.103500 0.360400 -0.033600
v 0.064000 0.360400 0.088000
v 0.000000 0.360400 0.108700
v 0.000000 0.194600 -0.108100
v 0.000000 0.194600 0.108100
v -0.063600 0.194600 -0.087500
v 0.063600 0.194600 -0.087500
v 0.063600 0.194600 0.087500
v 0.102800 0.194600 -0.033400
v 0.102800 0.194600 0.033400
v -0.063600 0.194600 0.087500
v -0.102800 0.194600 -0.033400
v -0.102800 0.194600 0.033400
v 0.146500 -0.238600 -0.201600
v 0.000000 -0.238600 -0.249200
v 0.130400 0.097300 -0.179500
v 0.000000 0.097300 -0.221900
v -0.146500 -0.238600 -0.201600
v -0.130400 0.097300 -0.179500
v -0.237100 -0.238600 -0.077000
v -0.211100 0.097300 -0.068600
v -0.237100 -0.238600 0.077000
v -0.211100 0.097300 0.068600
v -0.146500 -0.238600 0.201600
v -0.130400 0.097300 0.179500
v 0.000000 -0.238600 0.249200
v 0.000000 0.097300 0.221900
v 0.130400 0.097300 0.179500
v 0.146500 -0.238600 0.201600
v 0.237000 -0.238600 0.077000
v 0.211100 0.097300 0.068600
v 0.237000 -0.238600 -0.077000
v 0.211100 0.097300 -0.068600
v 0.000000 -0.298400 -0.210900
v -0.124000 -0.298400 0.170600
v -0.124000 -0.298400 -0.170600
v 0.180400 0.135600 -0.058600
v 0.111500 0.135600 -0.153400
v 0.118700 0.150900 -0.038600
v 0.073300 0.150900 -0.100900
v 0.000000 0.135600 -0.189700
v 0.000000 0.150900 -0.124800
v -0.111500 0.135600 -0.153400
v -0.073300 0.150900 -0.100900
v -0.180400 0.135600 -0.058600
v -0.118700 0.150900 -0.038600
v -0.180400 0.135600 0.058600
v -0.118700 0.150900 0.038600
v -0.111500 0.135600 0.153400
v -0.073300 0.150900 0.100900
v 0.000000 0.135600 0.189700
v 0.000000 0.150900 0.124800
v 0.111500 0.135600 0.153400
v 0.073300 0.150900 0.100900
v 0.180400 0.135600 0.058600
v 0.118700 0.150900 0.038600
v 0.118700 0.150900 -0.038600
v 0.073300 0.150900 -0.100900
v 0.116300 0.208900 -0.037800
v 0.071900 0.208900 -0.098900
v 0.000000 0.150900 -0.124800
v 0.000000 0.208900 -0.122300
v -0.073300 0.150900 -0.100900
v -0.071900 0.208900 -0.098900
v -0.118700 0.150900 -0.038600
v -0.116300 0.208900 -0.037800
v -0.118700 0.150900 0.038600
v -0.116300 0.208900 0.037800
v -0.073300 0.150900 0.100900
v -0.071900 0.208900 0.098900
v 0.000000 0.150900 0.124800
v 0.000000 0.208900 0.122300
v 0.073300 0.150900 0.100900
v 0.071900 0.208900 0.098900
v 0.118700 0.150900 0.038600
v 0.116300 0.208900 0.037800
v 0.237000 -0.238600 -0.077000
v 0.237000 -0.238600 0.077000
v 0.200600 -0.298400 -0.065200
v 0.200600 -0.298400 0.065200
v 0.146500 -0.238600 0.201600
v 0.124000 -0.298400 0.170600
v 0.000000 -0.238600 0.249200
v 0.000000 -0.298400 0.210900
v -0.146500 -0.238600 0.201600
v -0.237100 -0.238600 0.077000
v -0.200600 -0.298400 0.065200
v -0.237100 -0.238600 -0.077000
v -0.200600 -0.298400 -0.065200
v -0.146500 -0.238600 -0.201600
v 0.000000 -0.238600 -0.249200
v 0.146500 -0.238600 -0.201600
v 0.124000 -0.298400 -0.170600
v -0.178800 0.208900 0.058100
v -0.110500 0.208900 0.152100
v -0.178800 0.274700 0.058100
v -0.110500 0.274700 0.152100
v -0.178800 0.208900 -0.058100
v -0.178800 0.274700 -0.058100
v -0.110500 0.208900 -0.152100
v -0.110500 0.274700 -0.152100
v 0.000000 0.208900 -0.188000
v 0.000000 0.274700 -0.188000
v 0.110500 0.208900 -0.152100
v 0.110500 0.274700 -0.152100
v 0.178800 0.208900 -0.058100
v 0.178800 0.274700 -0.058100
v 0.178800 0.208900 0.058100
v 0.178800 0.274700 0.058100
v 0.110500 0.208900 0.152100
v 0.110500 0.274700 0.152100
v -0.116300 0.208900 0.037800
v -0.071900 0.208900 0.098900
v -0.071200 0.274700 0.098000
v -0.115200 0.274700 0.037400
v -0.110500 0.274700 0.152100
v -0.178800 0.274700 0.058100
v -0.116300 0.208900 -0.037800
v -0.115200 0.274700 -0.037400
v -0.178800 0.274700 -0.058100
v -0.071900 0.208900 -0.098900
v -0.071200 0.274700 -0.098000
v -0.110500 0.274700 -0.152100
v 0.000000 0.208900 -0.122300
v 0.000000 0.274700 -0.121100
v 0.000000 0.274700 -0.188000
v 0.071900 0.208900 -0.098900
v 0.071200 0.274700 -0.098000
v 0.110500 0.274700 -0.152100
v 0.116300 0.208900 -0.037800
v 0.115200 0.274700 -0.037400
v 0.178800 0.274700 -0.058100
v 0.116300 0.208900 0.037800
v 0.115200 0.274700 0.037400
v 0.178800 0.274700 0.058100
v 0.071900 0.208900 0.098900
v 0.071200 0.274700 0.098000
v 0.110500 0.274700 0.152100
v 0.000000 0.208900 0.122300
v 0.000000 0.208900 0.188000
v 0.000000 0.274700 0.188000
v 0.000000 0.274700 0.121100
v 0.000000 0.274700 0.188000
vt 0.630000 0.030000
vt 0.340000 0.030000
vt 0.630000 0.410000
vt 0.340000 0.410000
vt 0.060000 0.030000
vt 0.060000 0.410000
vt 0.340000 0.530000
vt 0.060000 0.530000
vt 0.630000 0.530000
vt 0.840000 0.030000
vt 0.840000 0.410000
vt 0.840000 0.530000
vt 0.030000 0.970000
vt 0.750000 0.750000
vt 0.840000 0.970000
vt 0.130000 0.750000
vt 0.590000 0.590000
vt 0.340000 0.590000
vn 0.799900 -0.155600 -0.579600
vn 0.799500 -0.155100 -0.580200
vn 0.304400 -0.155200 -0.939800
vn 0.305300 -0.155700 -0.939400
vn -0.304400 -0.155800 -0.939700
vn -0.305400 -0.155200 -0.939500
vn -0.800000 -0.155100 -0.579600
vn -0.799500 -0.155500 -0.580200
vn -0.702700 0.496100 -0.510000
vn -0.268300 0.496600 -0.825500
vn -0.268300 0.496700 -0.825400
vn 0.268300 0.496700 -0.825400
vn 0.268300 0.496600 -0.825400
vn 0.702600 0.496100 -0.510100
vn 0.702900 0.495800 -0.510100
vn -0.987800 -0.155500 -0.000000
vn -0.799900 -0.155600 0.579600
vn -0.799500 -0.155100 0.580200
vn -0.304400 -0.155200 0.939800
vn -0.303200 -0.154400 0.940300
vn 0.304400 -0.154400 0.939900
vn 0.303100 -0.155100 0.940200
vn 0.800000 -0.155100 0.579600
vn 0.799500 -0.155500 0.580200
vn 0.987800 -0.155500 0.000000
vn 0.868700 0.495300 -0.000000
vn 0.702900 0.495800 0.510100
vn 0.702600 0.496100 0.510100
vn 0.267100 0.496500 0.825900
vn 0.266600 0.495200 0.826900
vn -0.267400 0.495100 0.826700
vn -0.266400 0.496400 0.826200
vn -0.702600 0.496100 0.510100
vn -0.702900 0.495800 0.510100
vn -0.868700 0.495300 0.000000
vn -0.000000 1.000000 0.000000
vn -0.702800 0.495700 -0.510300
vn -0.000000 -1.000000 -0.000000
usemtl material-01A3AEBA
s off
f 131/12/103 132/13/103 133/14/103
f 132/13/104 134/15/104 133/14/104
f 132/13/105 135/16/105 134/15/105
f 135/16/106 136/17/106 134/15/106
f 135/16/107 137/13/107 136/17/107
f 137/13/108 138/15/108 136/17/108
f 137/13/109 139/12/109 138/15/109
f 139/12/110 140/14/110 138/15/110
f 138/15/111 140/14/111 168/18/111
f 138/15/112 168/18/112 170/19/112
f 136/17/113 138/15/113 170/19/113
f 136/17/114 170/19/114 171/18/114
f 134/15/115 136/17/115 171/18/115
f 134/15/116 171/18/116 172/20/116
f 133/14/117 134/15/117 172/20/117
f 141/21/118 142/12/118 143/22/118
f 142/12/118 144/14/118 143/22/118
f 142/12/119 145/13/119 144/14/119
f 145/13/120 146/15/120 144/14/120
f 145/13/121 147/16/121 146/15/121
f 147/16/122 148/17/122 146/15/122
f 147/16/123 149/13/123 148/17/123
f 149/13/124 150/15/124 148/17/124
f 149/13/125 151/12/125 150/15/125
f 151/12/126 152/14/126 150/15/126
f 151/12/127 153/21/127 152/14/127
f 153/21/127 154/22/127 152/14/127
f 152/14/128 154/22/128 173/20/128
f 150/15/129 152/14/129 173/20/129
f 175/18/130 150/15/130 173/20/130
f 150/15/131 175/18/131 176/19/131
f 148/17/132 150/15/132 176/19/132
f 148/17/133 176/19/133 166/18/133
f 146/15/134 148/17/134 166/18/134
f 146/15/135 166/18/135 165/20/135
f 144/14/136 146/15/136 165/20/136
f 144/14/137 165/20/137 167/23/137
f 143/22/137 144/14/137 167/23/137
f 155/24/138 156/25/138 157/26/138
f 160/27/138 156/25/138 155/24/138
f 160/27/138 161/28/138 156/25/138
f 160/27/138 162/29/138 161/28/138
f 155/24/138 158/25/138 159/27/138
f 155/24/138 157/26/138 158/25/138
f 159/27/138 158/25/138 163/28/138
f 159/27/138 163/28/138 164/29/138
f 140/14/139 169/20/139 168/18/139
f 154/22/128 174/23/128 173/20/128
f 177/26/140 178/24/140 179/25/140
f 180/25/140 178/24/140 177/26/140
f 180/25/140 181/27/140 178/24/140
f 180/25/140 182/28/140 181/27/140
f 181/27/140 182/28/140 183/29/140
f 179/25/140 184/27/140 185/28/140
f 179/25/140 178/24/140 184/27/140
f 185/28/140 184/27/140 186/29/140
