# Blender v2.79 (sub 0) OBJ File: ''
# www.blender.org
mtllib 15collider.mtl
o Cube.001
v -0.120911 -0.012171 0.311035
v -0.120911 0.335033 0.316871
v -0.289191 0.335033 0.033322
v -0.289191 -0.012171 0.033322
v 0.215243 0.335033 -0.058253
v 0.215243 -0.012171 -0.058253
v 0.124745 0.335033 0.179922
v 0.124745 -0.012171 0.174086
vn -0.8576 -0.0043 0.5143
vn -0.1786 0.0000 -0.9839
vn 0.9333 -0.0030 0.3590
vn 0.4869 -0.0147 0.8733
vn -0.0000 -1.0000 -0.0000
vn 0.0000 1.0000 0.0000
usemtl None
s 1
f 1//1 2//1 3//1 4//1
f 4//2 3//2 5//2 6//2
f 6//3 5//3 7//3 8//3
f 8//4 7//4 2//4 1//4
f 4//5 6//5 8//5 1//5
f 5//6 3//6 2//6 7//6
