# Blender v2.78 (sub 0) OBJ File: ''
# www.blender.org
mtllib KoboldSpear right fist.mtl
o cat_RoadKillOut1
v -0.307618 0.824251 -0.097033
v -0.297660 0.900589 -0.083566
v -0.284890 0.891164 -0.091320
v -0.292769 0.830388 -0.099601
v -0.271999 0.880867 -0.085359
v -0.278460 0.835959 -0.094219
v -0.271929 0.828382 -0.080001
v -0.271925 0.854710 -0.076131
v -0.273309 0.853887 -0.054641
v -0.273611 0.828840 -0.057188
v -0.308607 0.821631 -0.035411
v -0.313526 0.851523 -0.041203
v -0.312035 0.854803 -0.061456
v -0.311336 0.819452 -0.059905
v -0.310039 0.855574 -0.078442
v -0.308278 0.821977 -0.082597
v -0.292334 0.941473 -0.072354
v -0.280426 0.940717 -0.076707
v -0.268952 0.939388 -0.071298
v -0.265650 0.938310 -0.059178
v -0.270675 0.938037 -0.047786
v -0.282060 0.938799 -0.043439
v -0.293414 0.940116 -0.048873
v -0.297704 0.941221 -0.060844
v -0.275020 0.887473 -0.054264
v -0.304142 0.899996 -0.064823
v -0.298477 0.897568 -0.023009
v -0.284136 0.921451 -0.027452
v -0.272467 0.921452 -0.034827
v -0.278477 0.843918 -0.032515
v -0.276038 0.835009 -0.032649
v -0.276677 0.832579 -0.016415
v -0.277276 0.847690 -0.016649
v -0.299137 0.848229 -0.014267
v -0.293670 0.827003 -0.013131
v -0.257588 0.878733 -0.019670
v -0.258579 0.855447 -0.014973
v -0.262145 0.858380 -0.004774
v -0.264489 0.879650 0.007197
v -0.309787 0.850142 -0.019146
v -0.258378 0.898702 -0.003249
v -0.255462 0.898879 -0.012588
v -0.232382 0.866905 -0.013427
v -0.229811 0.879244 -0.007356
v -0.236430 0.865338 -0.017991
v -0.238930 0.878945 -0.018395
v -0.237704 0.890877 -0.015125
v -0.233745 0.890631 -0.011177
v -0.220167 0.864209 -0.026119
v -0.215756 0.881095 -0.018999
v -0.225857 0.861992 -0.031970
v -0.229280 0.880334 -0.032893
v -0.227500 0.896323 -0.028140
v -0.222102 0.896098 -0.023021
v -0.211420 0.880970 -0.037627
v -0.310145 0.821991 -0.018970
v -0.268283 0.876925 -0.014762
v -0.229664 0.866917 -0.026142
v -0.253162 0.852208 -0.022205
v -0.253497 0.851249 -0.010626
v -0.230333 0.865000 -0.002986
v -0.220279 0.871509 -0.007989
v -0.219945 0.872468 -0.019568
v -0.270251 0.806787 -0.031253
v -0.287642 0.819075 -0.031598
v -0.272088 0.826871 -0.025557
v -0.279893 0.823081 -0.026146
v -0.272647 0.826294 -0.016437
v -0.269884 0.819862 -0.016526
v -0.288761 0.817922 -0.013361
v -0.271515 0.805470 -0.013036
v -0.304317 0.810126 -0.019403
v -0.261872 0.789176 -0.018144
v -0.303759 0.810703 -0.028522
v -0.261239 0.789835 -0.027253
v -0.218301 0.845921 -0.007981
v -0.204216 0.854767 -0.010793
v -0.232158 0.837726 -0.013012
v -0.231930 0.838375 -0.020856
v -0.217848 0.847221 -0.023669
v -0.203990 0.855418 -0.018637
v -0.250107 0.817347 -0.008964
v -0.238653 0.797992 -0.015031
v -0.260809 0.837482 -0.013716
v -0.260057 0.838263 -0.024536
v -0.248604 0.818910 -0.030603
v -0.237902 0.798774 -0.025851
v -0.265142 0.879058 -0.037763
v -0.226837 0.867793 -0.048391
v -0.250822 0.853875 -0.044993
v -0.251231 0.852902 -0.034037
v -0.227654 0.865847 -0.026480
v -0.217373 0.872025 -0.031076
v -0.216964 0.872998 -0.042032
v -0.273356 0.804459 -0.056176
v -0.291775 0.819067 -0.056537
v -0.277993 0.828501 -0.050050
v -0.271839 0.819725 -0.049998
v -0.278651 0.827844 -0.040296
v -0.272373 0.819015 -0.040248
v -0.293090 0.817751 -0.037028
v -0.274935 0.802939 -0.036696
v -0.306872 0.808317 -0.043514
v -0.280040 0.788625 -0.042985
v -0.306215 0.808975 -0.053269
v -0.279360 0.789337 -0.052735
v -0.214724 0.843588 -0.030564
v -0.200328 0.852003 -0.033512
v -0.228808 0.835918 -0.036004
v -0.228495 0.836663 -0.044394
v -0.214099 0.845078 -0.047343
v -0.200015 0.852749 -0.041903
v -0.247270 0.815868 -0.031714
v -0.236231 0.796304 -0.038224
v -0.257412 0.836321 -0.036776
v -0.256517 0.837213 -0.048347
v -0.245479 0.817652 -0.054855
v -0.235336 0.797198 -0.049795
v -0.247556 0.871871 -0.058674
v -0.213241 0.851953 -0.070270
v -0.239927 0.844270 -0.067154
v -0.240561 0.842943 -0.056178
v -0.214509 0.849301 -0.048319
v -0.203018 0.852938 -0.052801
v -0.202384 0.854265 -0.063776
v -0.271901 0.816361 -0.077790
v -0.290717 0.820979 -0.079122
v -0.281714 0.832848 -0.072831
v -0.269990 0.834535 -0.071310
v -0.282438 0.832106 -0.063740
v -0.270847 0.833696 -0.062235
v -0.292164 0.819495 -0.060939
v -0.273615 0.814681 -0.059640
v -0.301167 0.807626 -0.067228
v -0.275525 0.796506 -0.066118
v -0.300443 0.808369 -0.076320
v -0.274669 0.797345 -0.075193
v -0.216606 0.815988 -0.055419
v -0.215751 0.800025 -0.060802
v -0.220293 0.828384 -0.058475
v -0.219698 0.829220 -0.066280
v -0.215130 0.817447 -0.071030
v -0.215013 0.800754 -0.068608
v -0.248849 0.815039 -0.055532
v -0.247669 0.792995 -0.062964
v -0.249010 0.838090 -0.058879
v -0.247991 0.839096 -0.069657
v -0.246811 0.817053 -0.077088
v -0.246650 0.794002 -0.073741
v -0.244595 0.875320 -0.080877
v -0.221326 0.849902 -0.093665
v -0.248628 0.854416 -0.089489
v -0.249527 0.853060 -0.078124
v -0.223124 0.847190 -0.070934
v -0.211297 0.845669 -0.075980
v -0.210397 0.847024 -0.087345
v -0.274901 0.818612 -0.098696
v -0.288032 0.822945 -0.099592
v -0.277090 0.834129 -0.093736
v -0.272814 0.836210 -0.092813
v -0.277764 0.833486 -0.085800
v -0.273624 0.835474 -0.084895
v -0.289379 0.821660 -0.083722
v -0.276520 0.817141 -0.082859
v -0.300322 0.810475 -0.089578
v -0.278606 0.799542 -0.088742
v -0.299648 0.811118 -0.097514
v -0.277796 0.800278 -0.096661
v -0.225891 0.830901 -0.077750
v -0.209542 0.828199 -0.080252
v -0.241701 0.834416 -0.082055
v -0.241162 0.835228 -0.088860
v -0.224814 0.832525 -0.091362
v -0.209004 0.829010 -0.087056
v -0.257707 0.819728 -0.079174
v -0.253665 0.797875 -0.085629
v -0.260784 0.842473 -0.082120
v -0.259820 0.843367 -0.091523
v -0.255778 0.821515 -0.097980
v -0.252702 0.798768 -0.095032
v -0.290897 0.824841 -0.033984
v -0.292367 0.825048 -0.058468
v -0.291343 0.826391 -0.081287
vt 0.1276 0.3855
vt 0.1426 0.3595
vt 0.1458 0.3660
vt 0.1354 0.3869
vt 0.1700 0.1873
vt 0.1508 0.2037
vt 0.1478 0.1969
vt 0.1669 0.1794
vt 0.1626 0.1708
vt 0.1504 0.1837
vt 0.1393 0.1785
vt 0.1470 0.1617
vt 0.0939 0.3616
vt 0.1115 0.3593
vt 0.1190 0.3678
vt 0.1030 0.3774
vt 0.1271 0.3739
vt 0.1227 0.3836
vt 0.1368 0.2166
vt 0.1326 0.2149
vt 0.1345 0.1949
vt 0.1407 0.2187
vt 0.1527 0.3459
vt 0.1565 0.3489
vt 0.1368 0.3537
vt 0.1494 0.3423
vt 0.1271 0.3403
vt 0.1467 0.3382
vt 0.1367 0.3329
vt 0.1457 0.3335
vt 0.1240 0.2073
vt 0.1282 0.2139
vt 0.1244 0.2154
vt 0.1191 0.2096
vt 0.1264 0.1699
vt 0.1276 0.1601
vt 0.1175 0.1630
vt 0.1170 0.1742
vt 0.1083 0.1731
vt 0.1094 0.1650
vt 0.1094 0.1916
vt 0.1080 0.1831
vt 0.1046 0.1797
vt 0.1023 0.3419
vt 0.1045 0.3316
vt 0.1148 0.3295
vt 0.1059 0.3470
vt 0.1071 0.2030
vt 0.1090 0.1993
vt 0.1231 0.3242
vt 0.1044 0.3207
vt 0.1105 0.3188
vt 0.0987 0.1869
vt 0.0976 0.1844
vt 0.0995 0.1920
vt 0.0994 0.1966
vt 0.0988 0.1993
vt 0.1157 0.3163
vt 0.1002 0.3113
vt 0.1073 0.3100
vt 0.0918 0.1882
vt 0.0907 0.1856
vt 0.0920 0.1922
vt 0.0917 0.1959
vt 0.0906 0.1985
vt 0.1133 0.3070
vt 0.1039 0.2998
vt 0.0847 0.1920
vt 0.0930 0.3509
vt 0.0928 0.3419
vt 0.0920 0.1214
vt 0.1040 0.1240
vt 0.0975 0.1275
vt 0.0952 0.1290
vt 0.0887 0.1341
vt 0.0398 0.3322
vt 0.0547 0.3342
vt 0.0549 0.3383
vt 0.0535 0.3412
vt 0.0501 0.3432
vt 0.1187 0.1452
vt 0.1230 0.1487
vt 0.1193 0.1563
vt 0.1139 0.1498
vt 0.1155 0.1584
vt 0.1111 0.1519
vt 0.1082 0.1613
vt 0.1052 0.1559
vt 0.0818 0.3409
vt 0.0884 0.3420
vt 0.0878 0.3506
vt 0.0798 0.3482
vt 0.0872 0.3552
vt 0.0786 0.3518
vt 0.0813 0.3623
vt 0.0753 0.3590
vt 0.0624 0.3356
vt 0.0613 0.3412
vt 0.0995 0.1359
vt 0.0949 0.1402
vt 0.1019 0.1341
vt 0.1070 0.1306
vt 0.0602 0.3438
vt 0.0565 0.3488
vt 0.0737 0.3378
vt 0.0713 0.3450
vt 0.1061 0.1451
vt 0.1002 0.1491
vt 0.1087 0.1432
vt 0.1143 0.1389
vt 0.0700 0.3482
vt 0.0663 0.3555
vt 0.1476 0.1044
vt 0.1541 0.1151
vt 0.1469 0.1128
vt 0.1442 0.1121
vt 0.1359 0.1107
vt 0.0475 0.3935
vt 0.0574 0.3855
vt 0.0601 0.3876
vt 0.0610 0.3900
vt 0.0603 0.3933
vt 0.1479 0.1430
vt 0.1490 0.1491
vt 0.1409 0.1541
vt 0.1413 0.1429
vt 0.1349 0.1535
vt 0.1375 0.1423
vt 0.1275 0.1471
vt 0.1305 0.1403
vt 0.0790 0.3711
vt 0.0831 0.3668
vt 0.0917 0.3706
vt 0.0828 0.3763
vt 0.0943 0.3754
vt 0.0844 0.3795
vt 0.0937 0.3841
vt 0.0869 0.3860
vt 0.0632 0.3809
vt 0.0661 0.3848
vt 0.1417 0.1209
vt 0.1355 0.1203
vt 0.1449 0.1215
vt 0.1510 0.1228
vt 0.0672 0.3871
vt 0.0682 0.3924
vt 0.0711 0.3752
vt 0.0743 0.3807
vt 0.1394 0.1320
vt 0.1325 0.1303
vt 0.1428 0.1327
vt 0.1499 0.1338
vt 0.0756 0.3836
vt 0.0780 0.3902
vt 0.1890 0.1266
vt 0.1890 0.1387
vt 0.1843 0.1332
vt 0.1825 0.1313
vt 0.1761 0.1262
vt 0.0839 0.4184
vt 0.0878 0.4084
vt 0.0907 0.4088
vt 0.0924 0.4103
vt 0.0932 0.4130
vt 0.1723 0.1574
vt 0.1707 0.1623
vt 0.1614 0.1622
vt 0.1665 0.1541
vt 0.1569 0.1590
vt 0.1636 0.1519
vt 0.1535 0.1501
vt 0.1586 0.1464
vt 0.0964 0.3905
vt 0.0970 0.3862
vt 0.1050 0.3850
vt 0.1016 0.3924
vt 0.1091 0.3870
vt 0.1042 0.3939
vt 0.1127 0.3946
vt 0.1089 0.3981
vt 0.0899 0.4032
vt 0.0937 0.4048
vt 0.1767 0.1369
vt 0.1717 0.1333
vt 0.1790 0.1388
vt 0.1834 0.1429
vt 0.0953 0.4060
vt 0.0982 0.4095
vt 0.0933 0.3957
vt 0.0980 0.3983
vt 0.1693 0.1453
vt 0.1642 0.1403
vt 0.1717 0.1473
vt 0.1771 0.1516
vt 0.1001 0.3998
vt 0.1046 0.4038
vt 0.2074 0.1778
vt 0.1990 0.1859
vt 0.2006 0.1784
vt 0.2009 0.1757
vt 0.2006 0.1666
vt 0.1293 0.4259
vt 0.1250 0.4153
vt 0.1277 0.4133
vt 0.1303 0.4131
vt 0.1330 0.4151
vt 0.1780 0.1851
vt 0.1738 0.1859
vt 0.1717 0.1780
vt 0.1772 0.1776
vt 0.1709 0.1741
vt 0.1771 0.1743
vt 0.1737 0.1657
vt 0.1780 0.1666
vt 0.1188 0.3985
vt 0.1171 0.3953
vt 0.1233 0.3905
vt 0.1248 0.3961
vt 0.1272 0.3903
vt 0.1278 0.3955
vt 0.1349 0.3907
vt 0.1350 0.3949
vt 0.1230 0.4107
vt 0.1273 0.4088
vt 0.1938 0.1748
vt 0.1930 0.1679
vt 0.1937 0.1778
vt 0.1935 0.1844
vt 0.1294 0.4085
vt 0.1346 0.4095
vt 0.1202 0.4037
vt 0.1261 0.4020
vt 0.1842 0.1745
vt 0.1849 0.1670
vt 0.1841 0.1774
vt 0.1843 0.1851
vt 0.1286 0.4017
vt 0.1357 0.4015
vt 0.1254 0.1489
vt 0.0832 0.3643
vt 0.1509 0.1505
vt 0.0961 0.3846
vt 0.1714 0.1645
vt 0.1171 0.3827
vt 0.1149 0.3940
vn -0.6103 -0.1616 -0.7755
vn -0.7666 0.2332 -0.5983
vn 0.0629 0.2164 -0.9743
vn 0.0491 0.1098 -0.9927
vn 0.8816 0.0535 -0.4690
vn 0.6982 0.3607 -0.6184
vn 0.9669 -0.2547 0.0155
vn 0.9993 -0.0337 -0.0162
vn 0.9994 -0.0176 0.0290
vn 0.9764 -0.2136 0.0312
vn -0.8106 -0.5838 -0.0462
vn -0.9960 0.0492 0.0740
vn -0.9939 0.0907 -0.0632
vn -0.7220 -0.6857 -0.0927
vn -0.9764 0.1150 -0.1830
vn -0.8726 -0.4227 -0.2447
vn 0.9279 0.0129 -0.3727
vn 0.9742 -0.1288 0.1853
vn 0.9923 -0.0493 -0.1136
vn 0.1023 0.2549 -0.9615
vn -0.6822 0.2506 -0.6869
vn -0.9762 0.2023 -0.0777
vn -0.9809 0.1766 -0.0811
vn -0.7342 0.3946 0.5525
vn -0.8401 0.3424 0.4208
vn -0.1926 0.7765 0.6000
vn -0.0366 0.5707 0.8204
vn 0.7829 0.5077 0.3597
vn 0.8608 0.1000 0.4990
vn 0.9685 0.2145 0.1263
vn 0.9732 0.2101 0.0937
vn 0.6455 0.2555 0.7198
vn 0.8253 -0.2944 0.4819
vn -0.1926 -0.4085 0.8922
vn -0.0875 -0.0258 0.9958
vn 0.2828 -0.0027 -0.9592
vn 0.2686 -0.8173 -0.5097
vn 0.2508 -0.8671 0.4304
vn 0.0896 0.0321 0.9955
vn -0.8308 -0.1545 0.5347
vn 0.2705 0.8241 0.4976
vn 0.4257 0.7800 -0.4587
vn 0.4065 -0.8971 0.1733
vn 0.6907 0.0674 0.7200
vn -0.2242 -0.8715 -0.4362
vn -0.7329 0.0084 -0.6803
vn -0.3760 0.8884 -0.2635
vn 0.2526 0.9118 0.3236
vn 0.4881 -0.8698 0.0715
vn 0.8497 0.1040 0.5170
vn -0.1580 -0.8441 -0.5124
vn -0.6773 0.0080 -0.7357
vn -0.3069 0.8891 -0.3395
vn 0.3191 0.9187 0.2326
vn 0.6642 0.1279 -0.7365
vn -0.7578 -0.2316 0.6100
vn -0.5545 0.8305 0.0527
vn 0.0116 0.2482 -0.9686
vn -0.5639 -0.4551 -0.6891
vn -0.6003 -0.5595 0.5715
vn -0.0452 0.0856 0.9953
vn 0.3397 0.7329 0.5895
vn 0.3695 0.8182 -0.4405
vn 0.0389 0.0551 -0.9977
vn 0.1661 -0.1464 -0.9752
vn 0.7843 0.2510 -0.5673
vn -0.3983 0.6942 -0.5995
vn 0.6394 0.3060 0.7054
vn 0.0146 0.6461 0.7631
vn -0.0611 -0.0630 0.9961
vn -0.0992 -0.0887 0.9911
vn -0.7181 -0.3871 0.5783
vn 0.2816 -0.7592 0.5868
vn -0.5696 -0.4403 -0.6941
vn 0.3672 -0.6702 -0.6450
vn 0.0060 -0.0828 0.9965
vn 0.5896 0.4695 0.6572
vn -0.6148 -0.5404 0.5744
vn -0.5782 -0.4357 -0.6898
vn 0.0636 0.0821 -0.9946
vn 0.6240 0.5684 -0.5362
vn -0.0588 -0.0661 0.9961
vn 0.3594 -0.7157 0.5988
vn -0.4059 0.6483 0.6442
vn -0.3198 0.7377 -0.5945
vn 0.0794 0.0776 -0.9938
vn 0.4455 -0.6262 -0.6398
vn -0.5274 0.8478 0.0556
vn 0.0159 0.2680 -0.9633
vn -0.5910 -0.4071 -0.6965
vn -0.6381 -0.5194 0.5683
vn -0.0570 0.0942 0.9939
vn 0.3580 0.7140 0.6017
vn 0.3967 0.8064 -0.4386
vn 0.0515 0.0772 -0.9957
vn 0.1886 -0.1116 -0.9757
vn 0.7425 0.3553 -0.5679
vn 0.0659 0.7783 -0.6244
vn 0.6608 0.2645 0.7025
vn -0.0365 0.6761 0.7359
vn 0.0633 -0.2506 0.9660
vn -0.1010 -0.0703 0.9924
vn -0.5779 -0.5925 0.5613
vn -0.2720 -0.7117 0.6476
vn -0.4957 -0.5015 -0.7091
vn -0.1695 -0.6090 -0.7749
vn -0.0162 -0.0662 0.9977
vn 0.5977 0.4498 0.6637
vn -0.6582 -0.4970 0.5655
vn -0.6113 -0.3854 -0.6912
vn 0.0580 0.1106 -0.9922
vn 0.6438 0.5571 -0.5245
vn -0.0598 -0.0677 0.9959
vn 0.3519 -0.7265 0.5902
vn -0.3845 0.6647 0.6406
vn -0.2898 0.7591 -0.5829
vn 0.0939 0.0856 -0.9919
vn 0.4466 -0.6321 -0.6332
vn -0.3006 0.9488 0.0972
vn 0.0852 0.2833 -0.9552
vn -0.6620 -0.2407 -0.7098
vn -0.7350 -0.3932 0.5524
vn -0.0277 0.0473 0.9985
vn 0.5221 0.5769 0.6282
vn 0.5820 0.7023 -0.4099
vn 0.0597 0.0962 -0.9936
vn 0.2300 -0.0374 -0.9725
vn 0.5939 0.5415 -0.5950
vn 0.0891 0.8348 -0.5433
vn 0.4851 0.4263 0.7635
vn -0.0276 0.7204 0.6930
vn 0.0762 -0.1976 0.9773
vn -0.1274 -0.0871 0.9880
vn -0.3785 -0.7025 0.6026
vn -0.2211 -0.8171 0.5324
vn -0.2742 -0.5934 -0.7567
vn -0.1043 -0.7026 -0.7039
vn -0.1024 -0.1214 0.9873
vn 0.0986 -0.8378 0.5370
vn -0.5846 0.2090 0.7839
vn -0.4618 0.3779 -0.8025
vn 0.0849 0.0637 -0.9943
vn 0.2113 -0.7266 -0.6538
vn -0.0819 -0.0923 0.9924
vn -0.0126 -0.8359 0.5487
vn -0.0589 0.7216 0.6898
vn 0.0578 0.8369 -0.5442
vn 0.1056 0.0928 -0.9901
vn 0.1046 -0.7207 -0.6853
vn 0.0860 0.9885 0.1247
vn 0.1684 0.2587 -0.9512
vn -0.7189 0.0476 -0.6935
vn -0.8185 -0.1025 0.5653
vn 0.0140 0.0261 0.9996
vn 0.7153 0.3441 0.6082
vn 0.7945 0.4635 -0.3924
vn 0.0635 0.0976 -0.9932
vn 0.0843 0.0803 -0.9932
vn 0.5612 0.5686 -0.6014
vn 0.0862 0.8181 -0.5686
vn 0.5428 0.3609 0.7583
vn -0.0450 0.6990 0.7137
vn 0.0593 -0.2182 0.9741
vn -0.1388 -0.0864 0.9865
vn -0.4606 -0.6629 0.5902
vn -0.2519 -0.7936 0.5539
vn -0.4448 -0.4576 -0.7699
vn -0.1208 -0.6743 -0.7285
vn -0.0591 -0.1711 0.9835
vn 0.7427 -0.0718 0.6657
vn -0.8101 -0.0782 0.5811
vn -0.7085 0.0747 -0.7017
vn 0.0973 0.0646 -0.9932
vn 0.8382 0.0721 -0.5406
vn -0.0880 -0.0921 0.9919
vn 0.0846 -0.8144 0.5741
vn -0.1576 0.7030 0.6935
vn -0.0283 0.8229 -0.5675
vn 0.1149 0.0961 -0.9887
vn 0.2139 -0.6946 -0.6869
vn 0.3821 -0.9235 -0.0327
vn -0.0817 -0.9949 -0.0593
vn -0.0852 -0.9947 -0.0577
vn -0.6887 -0.7199 -0.0860
usemtl lambert5SG
s 1
f 1/1/1 2/2/2 3/3/3 4/4/4
f 4/5/4 3/6/3 5/7/5 6/8/6
f 7/9/7 8/10/8 9/11/9 10/12/10
f 11/13/11 12/14/12 13/15/13 14/16/14
f 14/16/14 13/15/13 15/17/15 16/18/16
f 5/7/5 19/19/17 20/20/18 25/21/19
f 3/6/3 18/22/20 19/19/17 5/7/5
f 2/2/2 17/23/21 18/24/20 3/3/3
f 26/25/22 24/26/23 17/23/21 2/2/2
f 27/27/24 23/28/25 24/26/23 26/25/22
f 28/29/26 22/30/27 23/28/25 27/27/24
f 29/31/28 21/32/29 22/33/27 28/34/26
f 25/21/19 20/20/18 21/32/29 29/31/28
f 10/12/10 9/11/9 30/35/30 31/36/31
f 32/37/32 33/38/33 34/39/34 35/40/35
f 36/41/36 37/42/37 33/38/33 25/21/19
f 33/38/33 37/42/37 38/43/38 34/39/34
f 34/44/34 38/45/38 39/46/39 40/47/40
f 28/34/26 41/48/41 42/49/42 29/31/28
f 29/31/28 42/49/42 36/41/36 25/21/19
f 27/27/24 39/46/39 41/50/41 28/29/26
f 38/45/38 43/51/43 44/52/44 39/46/39
f 37/42/37 45/53/45 43/54/43 38/43/38
f 36/41/36 46/55/46 45/53/45 37/42/37
f 42/49/42 47/56/47 46/55/46 36/41/36
f 41/48/41 48/57/48 47/56/47 42/49/42
f 39/46/39 44/52/44 48/58/48 41/50/41
f 43/51/43 49/59/49 50/60/50 44/52/44
f 45/53/45 51/61/51 49/62/49 43/54/43
f 46/55/46 52/63/52 51/61/51 45/53/45
f 47/56/47 53/64/53 52/63/52 46/55/46
f 48/57/48 54/65/54 53/64/53 47/56/47
f 44/52/44 50/60/50 54/66/54 48/58/48
f 49/59/49 55/67/55 50/60/50
f 51/61/51 55/68/55 49/62/49
f 52/63/52 55/68/55 51/61/51
f 53/64/53 55/68/55 52/63/52
f 54/65/54 55/68/55 53/64/53
f 50/60/50 55/67/55 54/66/54
f 31/36/31 30/35/30 33/38/33 32/37/32
f 33/38/33 30/35/30 9/11/9 25/21/19
f 25/21/19 9/11/9 8/10/8 5/7/5
f 6/8/6 5/7/5 8/10/8 7/9/7
f 15/17/15 13/15/13 26/25/22 2/2/2
f 16/18/16 15/17/15 2/2/2 1/1/1
f 12/14/12 27/27/24 26/25/22 13/15/13
f 34/44/34 40/47/40 56/69/56 35/70/35
f 56/69/56 40/47/40 12/14/12 11/13/11
f 27/27/24 12/14/12 40/47/40 39/46/39
f 57/71/57 58/72/58 59/73/59
f 57/71/57 59/73/59 60/74/60
f 57/71/57 60/74/60 61/75/61
f 57/76/57 61/77/61 62/78/62
f 57/76/57 62/78/62 63/79/63
f 57/76/57 63/79/63 58/80/58
f 64/81/64 65/82/65 66/83/66 67/84/67
f 67/84/67 66/83/66 68/85/68 69/86/69
f 69/86/69 68/85/68 70/87/70 71/88/71
f 71/89/71 70/90/70 72/91/72 73/92/73
f 73/92/73 72/91/72 74/93/74 75/94/75
f 75/94/75 74/93/74 65/95/65 64/96/64
f 61/77/61 76/97/76 77/98/77 62/78/62
f 60/74/60 78/99/78 76/100/76 61/75/61
f 59/73/59 79/101/79 78/99/78 60/74/60
f 58/72/58 80/102/80 79/101/79 59/73/59
f 63/79/63 81/103/81 80/104/80 58/80/58
f 62/78/62 77/98/77 81/103/81 63/79/63
f 76/97/76 82/105/82 83/106/83 77/98/77
f 78/99/78 84/107/84 82/108/82 76/100/76
f 79/101/79 85/109/85 84/107/84 78/99/78
f 80/102/80 86/110/86 85/109/85 79/101/79
f 81/103/81 87/111/87 86/112/86 80/104/80
f 77/98/77 83/106/83 87/111/87 81/103/81
f 82/105/82 71/89/71 73/92/73 83/106/83
f 84/107/84 69/86/69 71/88/71 82/108/82
f 85/109/85 67/84/67 69/86/69 84/107/84
f 86/110/86 64/81/64 67/84/67 85/109/85
f 87/111/87 75/94/75 64/96/64 86/112/86
f 83/106/83 73/92/73 75/94/75 87/111/87
f 88/113/88 89/114/89 90/115/90
f 88/113/88 90/115/90 91/116/91
f 88/113/88 91/116/91 92/117/92
f 88/118/88 92/119/92 93/120/93
f 88/118/88 93/120/93 94/121/94
f 88/118/88 94/121/94 89/122/89
f 95/123/95 96/124/96 97/125/97 98/126/98
f 98/126/98 97/125/97 99/127/99 100/128/100
f 100/128/100 99/127/99 101/129/101 102/130/102
f 102/131/102 101/132/101 103/133/103 104/134/104
f 104/134/104 103/133/103 105/135/105 106/136/106
f 106/136/106 105/135/105 96/137/96 95/138/95
f 92/119/92 107/139/107 108/140/108 93/120/93
f 91/116/91 109/141/109 107/142/107 92/117/92
f 90/115/90 110/143/110 109/141/109 91/116/91
f 89/114/89 111/144/111 110/143/110 90/115/90
f 94/121/94 112/145/112 111/146/111 89/122/89
f 93/120/93 108/140/108 112/145/112 94/121/94
f 107/139/107 113/147/113 114/148/114 108/140/108
f 109/141/109 115/149/115 113/150/113 107/142/107
f 110/143/110 116/151/116 115/149/115 109/141/109
f 111/144/111 117/152/117 116/151/116 110/143/110
f 112/145/112 118/153/118 117/154/117 111/146/111
f 108/140/108 114/148/114 118/153/118 112/145/112
f 113/147/113 102/131/102 104/134/104 114/148/114
f 115/149/115 100/128/100 102/130/102 113/150/113
f 116/151/116 98/126/98 100/128/100 115/149/115
f 117/152/117 95/123/95 98/126/98 116/151/116
f 118/153/118 106/136/106 95/138/95 117/154/117
f 114/148/114 104/134/104 106/136/106 118/153/118
f 119/155/119 120/156/120 121/157/121
f 119/155/119 121/157/121 122/158/122
f 119/155/119 122/158/122 123/159/123
f 119/160/119 123/161/123 124/162/124
f 119/160/119 124/162/124 125/163/125
f 119/160/119 125/163/125 120/164/120
f 126/165/126 127/166/127 128/167/128 129/168/129
f 129/168/129 128/167/128 130/169/130 131/170/131
f 131/170/131 130/169/130 132/171/132 133/172/133
f 133/173/133 132/174/132 134/175/134 135/176/135
f 135/176/135 134/175/134 136/177/136 137/178/137
f 137/178/137 136/177/136 127/179/127 126/180/126
f 123/161/123 138/181/138 139/182/139 124/162/124
f 122/158/122 140/183/140 138/184/138 123/159/123
f 121/157/121 141/185/141 140/183/140 122/158/122
f 120/156/120 142/186/142 141/185/141 121/157/121
f 125/163/125 143/187/143 142/188/142 120/164/120
f 124/162/124 139/182/139 143/187/143 125/163/125
f 138/181/138 144/189/144 145/190/145 139/182/139
f 140/183/140 146/191/146 144/192/144 138/184/138
f 141/185/141 147/193/147 146/191/146 140/183/140
f 142/186/142 148/194/148 147/193/147 141/185/141
f 143/187/143 149/195/149 148/196/148 142/188/142
f 139/182/139 145/190/145 149/195/149 143/187/143
f 144/189/144 133/173/133 135/176/135 145/190/145
f 146/191/146 131/170/131 133/172/133 144/192/144
f 147/193/147 129/168/129 131/170/131 146/191/146
f 148/194/148 126/165/126 129/168/129 147/193/147
f 149/195/149 137/178/137 126/180/126 148/196/148
f 145/190/145 135/176/135 137/178/137 149/195/149
f 150/197/150 151/198/151 152/199/152
f 150/197/150 152/199/152 153/200/153
f 150/197/150 153/200/153 154/201/154
f 150/202/150 154/203/154 155/204/155
f 150/202/150 155/204/155 156/205/156
f 150/202/150 156/205/156 151/206/151
f 157/207/157 158/208/158 159/209/159 160/210/160
f 160/210/160 159/209/159 161/211/161 162/212/162
f 162/212/162 161/211/161 163/213/163 164/214/164
f 164/215/164 163/216/163 165/217/165 166/218/166
f 166/218/166 165/217/165 167/219/167 168/220/168
f 168/220/168 167/219/167 158/221/158 157/222/157
f 154/203/154 169/223/169 170/224/170 155/204/155
f 153/200/153 171/225/171 169/226/169 154/201/154
f 152/199/152 172/227/172 171/225/171 153/200/153
f 151/198/151 173/228/173 172/227/172 152/199/152
f 156/205/156 174/229/174 173/230/173 151/206/151
f 155/204/155 170/224/170 174/229/174 156/205/156
f 169/223/169 175/231/175 176/232/176 170/224/170
f 171/225/171 177/233/177 175/234/175 169/226/169
f 172/227/172 178/235/178 177/233/177 171/225/171
f 173/228/173 179/236/179 178/235/178 172/227/172
f 174/229/174 180/237/180 179/238/179 173/230/173
f 170/224/170 176/232/176 180/237/180 174/229/174
f 175/231/175 164/215/164 166/218/166 176/232/176
f 177/233/177 162/212/162 164/214/164 175/234/175
f 178/235/178 160/210/160 162/212/162 177/233/177
f 179/236/179 157/207/157 160/210/160 178/235/178
f 180/237/180 168/220/168 157/222/157 179/238/179
f 176/232/176 166/218/166 168/220/168 180/237/180
f 65/82/65 181/239/181 31/36/31 66/83/66
f 66/83/66 31/36/31 32/37/32 68/85/68
f 68/85/68 32/37/32 35/40/35 70/87/70
f 70/90/70 35/70/35 56/69/56 72/91/72
f 72/91/72 56/69/56 11/13/11 74/93/74
f 74/93/74 11/13/11 181/240/181 65/95/65
f 96/124/96 182/241/182 10/12/10 97/125/97
f 97/125/97 10/12/10 31/36/31 99/127/99
f 99/127/99 31/36/31 181/239/181 101/129/101
f 101/132/101 181/240/181 11/13/11 103/133/103
f 103/133/103 11/13/11 14/16/14 105/135/105
f 105/135/105 14/16/14 182/242/182 96/137/96
f 127/166/127 183/243/183 7/9/7 128/167/128
f 128/167/128 7/9/7 10/12/10 130/169/130
f 130/169/130 10/12/10 182/241/182 132/171/132
f 132/174/132 182/242/182 14/16/14 134/175/134
f 134/175/134 14/16/14 16/244/184 136/177/136
f 136/177/136 16/244/184 183/245/183 127/179/127
f 158/208/158 4/5/4 6/8/6 159/209/159
f 159/209/159 6/8/6 7/9/7 161/211/161
f 161/211/161 7/9/7 183/243/183 163/213/163
f 163/216/163 183/245/183 16/244/184 165/217/165
f 165/217/165 16/244/184 1/1/1 167/219/167
f 167/219/167 1/1/1 4/4/4 158/221/158
