# Blender v2.78 (sub 0) OBJ File: 'botella1.blend'
# www.blender.org
mtllib botella1-collision.mtl
o Cylinder
v 0.000000 -0.144496 -0.455000
v 0.000000 0.980956 -0.249630
v 0.267442 -0.144496 -0.368103
v 0.146729 0.980956 -0.201955
v 0.432731 -0.144496 -0.140603
v 0.237412 0.980956 -0.077140
v 0.432731 -0.144496 0.140603
v 0.237412 0.980956 0.077140
v 0.267442 -0.144496 0.368103
v 0.146729 0.980956 0.201955
v -0.000000 -0.144496 0.455000
v -0.000000 0.980956 0.249630
v -0.267442 -0.144496 0.368103
v -0.146729 0.980956 0.201955
v -0.432731 -0.144496 0.140603
v -0.237412 0.980956 0.077140
v -0.432731 -0.144496 -0.140603
v -0.237412 0.980956 -0.077140
v -0.267442 -0.144496 -0.368103
v -0.146729 0.980956 -0.201955
v 0.000000 -0.385556 -0.278771
v 0.163858 -0.385556 -0.225531
v 0.114550 1.319883 -0.157665
v 0.000000 1.319883 -0.194884
v 0.265127 -0.385556 -0.086145
v 0.185346 1.319883 -0.060222
v 0.265127 -0.385556 0.086145
v 0.185346 1.319883 0.060222
v 0.163858 -0.385556 0.225531
v 0.114550 1.319883 0.157665
v -0.000000 -0.385556 0.278771
v -0.000000 1.319883 0.194884
v -0.163858 -0.385556 0.225531
v -0.114550 1.319883 0.157665
v -0.265127 -0.385556 0.086145
v -0.185346 1.319883 0.060223
v -0.265127 -0.385556 -0.086145
v -0.185346 1.319883 -0.060223
v -0.163858 -0.385556 -0.225531
v -0.114550 1.319883 -0.157665
v 0.000000 0.149351 -0.455000
v 0.267442 0.149351 -0.368103
v 0.098801 0.852264 -0.135987
v 0.000000 0.852264 -0.168090
v 0.432731 0.149351 -0.140603
v 0.159863 0.852264 -0.051943
v 0.432731 0.149351 0.140603
v 0.159863 0.852264 0.051943
v 0.267442 0.149351 0.368103
v 0.098801 0.852264 0.135987
v -0.000000 0.149351 0.455000
v -0.000000 0.852264 0.168090
v -0.267442 0.149351 0.368103
v -0.098801 0.852264 0.135987
v -0.432731 0.149351 0.140603
v -0.159863 0.852264 0.051943
v -0.432731 0.149351 -0.140603
v -0.159863 0.852264 -0.051943
v -0.267442 0.149351 -0.368103
v -0.098801 0.852264 -0.135987
v 0.000000 0.397710 -0.170723
v 0.100348 0.397710 -0.138118
v 0.162367 0.397710 -0.052756
v 0.162367 0.397710 0.052756
v 0.100348 0.397710 0.138118
v -0.000000 0.397710 0.170723
v -0.100348 0.397710 0.138118
v -0.162367 0.397710 0.052756
v -0.162367 0.397710 -0.052756
v -0.100348 0.397710 -0.138118
vn 0.3090 0.0055 -0.9510
vn 0.8090 0.0055 -0.5878
vn 1.0000 0.0055 -0.0000
vn 0.8090 0.0055 0.5878
vn 0.3090 0.0055 0.9510
vn -0.3090 0.0055 0.9510
vn -0.8090 0.0055 0.5878
vn -1.0000 0.0055 0.0000
vn 0.0000 1.0000 0.0000
vn -0.8090 0.0055 -0.5878
vn -0.3090 0.0055 -0.9510
vn 0.0000 -1.0000 -0.0000
vn 0.2537 -0.5709 -0.7809
vn 0.3054 0.1518 -0.9400
vn 0.6642 -0.5709 -0.4826
vn 0.7996 0.1518 -0.5810
vn 0.8211 -0.5709 0.0000
vn 0.9884 0.1518 0.0000
vn 0.6642 -0.5709 0.4826
vn 0.7996 0.1518 0.5810
vn 0.2537 -0.5709 0.7809
vn 0.3054 0.1518 0.9400
vn -0.2537 -0.5709 0.7809
vn -0.3054 0.1518 0.9400
vn -0.6642 -0.5709 0.4826
vn -0.7996 0.1518 0.5810
vn -0.8211 -0.5709 0.0000
vn -0.9884 0.1518 0.0000
vn -0.6642 -0.5709 -0.4826
vn -0.7996 0.1518 -0.5810
vn -0.2537 -0.5709 -0.7809
vn -0.3054 0.1518 -0.9400
vn 0.3090 0.0000 -0.9511
vn 0.2647 -0.5161 -0.8146
vn 0.8090 0.0000 -0.5878
vn 0.6929 -0.5161 -0.5034
vn 1.0000 0.0000 0.0000
vn 0.8565 -0.5161 0.0000
vn 0.8090 0.0000 0.5878
vn 0.6929 -0.5161 0.5034
vn 0.3090 0.0000 0.9511
vn 0.2647 -0.5161 0.8146
vn -0.3090 0.0000 0.9511
vn -0.2647 -0.5161 0.8146
vn -0.8090 0.0000 0.5878
vn -0.6929 -0.5161 0.5034
vn -1.0000 0.0000 0.0000
vn -0.8565 -0.5161 0.0000
vn -0.8090 0.0000 -0.5878
vn -0.6929 -0.5161 -0.5034
vn -0.3090 0.0000 -0.9511
vn -0.2647 -0.5161 -0.8146
vn -0.5473 0.7364 -0.3976
vn -0.6765 0.7364 0.0000
vn -0.5473 0.7364 0.3976
vn -0.2091 0.7364 0.6434
vn 0.2091 0.7364 0.6434
vn 0.5473 0.7364 0.3976
vn 0.6765 0.7364 0.0000
vn 0.5473 0.7364 -0.3976
vn 0.2091 0.7364 -0.6434
vn -0.2091 0.7364 -0.6434
usemtl None
s off
f 61//1 43//1 62//1
f 43//2 63//2 62//2
f 46//3 64//3 63//3
f 48//4 65//4 64//4
f 50//5 66//5 65//5
f 52//6 67//6 66//6
f 54//7 68//7 67//7
f 56//8 69//8 68//8
f 34//9 30//9 26//9
f 58//10 70//10 69//10
f 60//11 61//11 70//11
f 27//12 37//12 39//12
f 3//13 21//13 1//13
f 2//14 23//14 4//14
f 5//15 22//15 3//15
f 4//16 26//16 6//16
f 7//17 25//17 5//17
f 6//18 28//18 8//18
f 9//19 27//19 7//19
f 10//20 28//20 30//20
f 11//21 29//21 9//21
f 10//22 32//22 12//22
f 13//23 31//23 11//23
f 12//24 34//24 14//24
f 13//25 35//25 33//25
f 14//26 36//26 16//26
f 17//27 35//27 15//27
f 16//28 38//28 18//28
f 19//29 37//29 17//29
f 18//30 40//30 20//30
f 1//31 39//31 19//31
f 20//32 24//32 2//32
f 42//33 1//33 41//33
f 43//34 2//34 4//34
f 45//35 3//35 42//35
f 43//36 6//36 46//36
f 47//37 5//37 45//37
f 48//38 6//38 8//38
f 49//39 7//39 47//39
f 50//40 8//40 10//40
f 51//41 9//41 49//41
f 50//42 12//42 52//42
f 53//43 11//43 51//43
f 52//44 14//44 54//44
f 55//45 13//45 53//45
f 54//46 16//46 56//46
f 57//47 15//47 55//47
f 56//48 18//48 58//48
f 59//49 17//49 57//49
f 60//50 18//50 20//50
f 41//51 19//51 59//51
f 60//52 2//52 44//52
f 57//53 70//53 59//53
f 68//54 57//54 55//54
f 67//55 55//55 53//55
f 66//56 53//56 51//56
f 49//57 66//57 51//57
f 64//58 49//58 47//58
f 63//59 47//59 45//59
f 62//60 45//60 42//60
f 61//61 42//61 41//61
f 70//62 41//62 59//62
f 61//1 44//1 43//1
f 43//2 46//2 63//2
f 46//3 48//3 64//3
f 48//4 50//4 65//4
f 50//5 52//5 66//5
f 52//6 54//6 67//6
f 54//7 56//7 68//7
f 56//8 58//8 69//8
f 26//9 23//9 24//9
f 24//9 40//9 26//9
f 38//9 36//9 34//9
f 34//9 32//9 30//9
f 30//9 28//9 26//9
f 26//9 40//9 38//9
f 38//9 34//9 26//9
f 58//10 60//10 70//10
f 60//11 44//11 61//11
f 39//12 21//12 22//12
f 22//12 25//12 39//12
f 27//12 29//12 31//12
f 31//12 33//12 35//12
f 35//12 37//12 27//12
f 39//12 25//12 27//12
f 27//12 31//12 35//12
f 3//13 22//13 21//13
f 2//14 24//14 23//14
f 5//15 25//15 22//15
f 4//16 23//16 26//16
f 7//17 27//17 25//17
f 6//18 26//18 28//18
f 9//19 29//19 27//19
f 10//20 8//20 28//20
f 11//21 31//21 29//21
f 10//22 30//22 32//22
f 13//23 33//23 31//23
f 12//24 32//24 34//24
f 13//25 15//25 35//25
f 14//26 34//26 36//26
f 17//27 37//27 35//27
f 16//28 36//28 38//28
f 19//29 39//29 37//29
f 18//30 38//30 40//30
f 1//31 21//31 39//31
f 20//32 40//32 24//32
f 42//33 3//33 1//33
f 43//34 44//34 2//34
f 45//35 5//35 3//35
f 43//36 4//36 6//36
f 47//37 7//37 5//37
f 48//38 46//38 6//38
f 49//39 9//39 7//39
f 50//40 48//40 8//40
f 51//41 11//41 9//41
f 50//42 10//42 12//42
f 53//43 13//43 11//43
f 52//44 12//44 14//44
f 55//45 15//45 13//45
f 54//46 14//46 16//46
f 57//47 17//47 15//47
f 56//48 16//48 18//48
f 59//49 19//49 17//49
f 60//50 58//50 18//50
f 41//51 1//51 19//51
f 60//52 20//52 2//52
f 57//53 69//53 70//53
f 68//54 69//54 57//54
f 67//55 68//55 55//55
f 66//56 67//56 53//56
f 49//57 65//57 66//57
f 64//58 65//58 49//58
f 63//59 64//59 47//59
f 62//60 63//60 45//60
f 61//61 62//61 42//61
f 70//62 61//62 41//62
