# 3ds Max Wavefront OBJ Exporter v0.97b - (c)2007 guruware
# File Created: 02.08.2014 12:21:38

mtllib Fireplace247.mtl

#
# object Mesh_0247
#

v  -0.023125 0.165084 0.891977
v  -0.000143 0.165084 -1.140458
v  -1.941399 0.165084 -1.140458
v  -2.075585 0.165084 0.845297
v  -0.000360 0.096247 1.115300
v  -2.295562 0.096247 1.090137
v  -2.166963 0.096247 -1.140463
v  0.000000 0.000000 1.115300
v  2.295562 0.000000 1.140463
v  2.294841 0.096247 1.140463
v  1.941113 0.165084 -1.140458
v  2.029335 0.165084 0.938657
v  2.166706 0.096247 -1.140463
v  -2.166963 0.000000 -1.140463
v  -2.295562 0.000000 1.090137
v  2.166562 0.000000 -1.140458
v  1.099458 6.284762 -1.140458
v  -1.103111 6.284762 -1.140458
v  -0.602444 6.284762 -0.610444
v  0.528164 6.284762 -0.610522
v  -0.916623 0.110999 -0.033501
v  -0.855630 0.110999 -0.782837
v  -0.723379 1.293115 -0.782837
v  -0.784372 1.293115 -0.033501
v  -0.889043 1.363613 0.052900
v  -1.021293 0.110999 0.052900
v  -1.621914 0.110999 -0.470559
v  -1.455964 1.896221 -0.470559
v  -1.609561 0.110999 -1.140458
v  -0.344453 1.578362 0.096489
v  -0.393613 1.703869 0.236210
v  -1.047418 2.005927 -0.021840
v  -1.551657 3.029467 -0.585117
v  -1.443611 1.896221 -1.140458
v  -0.323189 1.578362 -0.782867
v  0.291946 1.512047 -0.782893
v  0.314145 1.512047 0.096489
v  0.365456 1.637555 0.236184
v  0.028194 2.005927 0.236199
v  -0.861594 3.117064 0.020368
v  0.749023 1.016489 -0.782916
v  0.809464 1.016489 -0.033501
v  0.913162 1.086986 0.052822
v  0.943016 2.005927 -0.002621
v  0.699503 3.117064 -0.054401
v  -0.732355 4.115891 -0.181194
v  0.817055 0.110999 -0.782916
v  0.877496 0.110999 -0.033501
v  0.981194 0.110999 0.052822
v  1.488113 2.005927 -0.474017
v  1.245614 3.000003 -0.588918
v  0.873734 3.986518 -0.301494
v  1.594704 0.110999 -0.474017
v  1.513987 2.005927 -1.140458
v  1.344191 3.000003 -1.140458
v  1.379532 3.950839 -1.140458
v  1.620577 0.110999 -1.140458
v  1.339527 4.701744 -1.140458
v  0.739543 4.701744 -0.369634
v  -0.537473 4.701744 -0.355769
v  -1.154120 4.701744 -1.140458
v  -1.391360 4.087623 -1.140458
v  -1.592865 3.029467 -1.140458
v  -1.981892 0.316042 -0.075664
v  -1.707955 0.474199 -0.075664
v  -1.890579 0.474199 -0.075664
v  -1.707955 0.157885 -0.075664
v  -1.616643 0.316042 -0.075664
v  -1.890579 0.157885 -0.075664
v  -1.877682 0.428954 -1.033343
v  -1.877682 0.157318 -1.033344
v  -1.956097 0.293136 -1.033344
v  -1.642438 0.293136 -1.033343
v  -1.720852 0.157318 -1.033343
v  -1.720852 0.428954 -1.033343
v  -1.526794 0.282480 0.125387
v  -1.317543 0.393299 0.064246
v  -1.439819 0.393299 0.134842
v  -1.369219 0.171661 -0.025259
v  -1.282244 0.282480 -0.015804
v  -1.491495 0.171661 0.045336
v  -1.759519 0.660913 -0.438836
v  -1.803896 0.470580 -0.515699
v  -1.834209 0.565746 -0.446956
v  -1.624200 0.565746 -0.568204
v  -1.698891 0.470580 -0.576324
v  -1.654514 0.660913 -0.499460
v  0.152202 0.307911 -0.119774
v  0.212635 0.409926 0.046264
v  0.172346 0.409926 -0.064428
v  0.212635 0.205896 0.046264
v  0.232779 0.307911 0.101610
v  0.172346 0.205896 -0.064428
v  0.755661 0.380742 -0.267884
v  0.755661 0.205530 -0.267884
v  0.738362 0.293136 -0.315413
v  0.807558 0.293136 -0.125298
v  0.790259 0.205530 -0.172827
v  0.790259 0.380742 -0.172827
v  0.214603 0.550505 -0.149812
v  0.355080 0.640515 -0.055664
v  0.276872 0.640514 -0.133872
v  0.308750 0.460496 -0.009333
v  0.371019 0.550506 0.006606
v  0.230542 0.460496 -0.087542
v  0.750448 0.370432 -0.596403
v  0.710662 0.215840 -0.556616
v  0.696974 0.293136 -0.610090
v  0.831298 0.293136 -0.475766
v  0.777824 0.215840 -0.489454
v  0.817610 0.370432 -0.529240
v  -0.576482 0.316042 -0.552031
v  -0.576482 0.474199 -0.278095
v  -0.576482 0.474199 -0.460719
v  -0.576482 0.157885 -0.278095
v  -0.576483 0.316042 -0.186783
v  -0.576482 0.157885 -0.460719
v  0.381197 0.428954 -0.447822
v  0.381197 0.157318 -0.447822
v  0.381197 0.293136 -0.526237
v  0.381197 0.293136 -0.212578
v  0.381197 0.157318 -0.290992
v  0.381197 0.428954 -0.290992
v  -0.625908 0.556301 0.282530
v  -0.472083 0.708990 0.182386
v  -0.597280 0.681823 0.233272
v  -0.404143 0.485114 0.230017
v  -0.375514 0.610636 0.180759
v  -0.529340 0.457947 0.280903
v  -0.872557 0.377598 -0.632800
v  -0.814213 0.185343 -0.591896
v  -0.897142 0.269806 -0.590499
v  -0.682115 0.316466 -0.677896
v  -0.706699 0.208674 -0.635595
v  -0.765044 0.400929 -0.676499
v  0.124404 0.310426 0.034023
v  0.106383 0.429805 -0.171960
v  0.118397 0.429805 -0.034638
v  0.106383 0.191047 -0.171960
v  0.100376 0.310426 -0.240621
v  0.118397 0.191047 -0.034638
v  -0.836486 0.395653 0.039132
v  -0.836486 0.190619 0.039132
v  -0.831328 0.293136 0.098095
v  -0.851962 0.293136 -0.137758
v  -0.846803 0.190619 -0.078795
v  -0.846803 0.395653 -0.078795
v  0.228501 0.767106 -0.223844
v  0.241946 0.870524 -0.438620
v  0.198751 0.872367 -0.307729
v  0.344639 0.658159 -0.401742
v  0.314890 0.763420 -0.485627
v  0.301444 0.660001 -0.270850
v  -0.594327 0.404382 -0.573110
v  -0.506139 0.222011 -0.541440
v  -0.568779 0.313988 -0.501074
v  -0.494592 0.310823 -0.725881
v  -0.469045 0.220429 -0.653844
v  -0.557233 0.402799 -0.685514
# 159 vertices

vn -0.003531 0.987870 0.155244
vn 0.000000 1.000000 0.000000
vn -0.190553 0.981592 -0.012877
vn -0.127931 0.987461 0.092495
vn -0.006713 0.955418 0.295179
vn -0.146517 0.978739 0.143534
vn -0.002941 0.963357 0.268205
vn -0.293531 0.955748 -0.019624
vn -0.010961 -0.000041 0.999940
vn -0.010963 -0.000082 0.999940
vn 0.142384 0.989780 -0.007867
vn -0.003249 0.989739 0.142851
vn 0.093701 0.987261 0.128595
vn 0.151570 0.978868 0.137271
vn 0.291812 0.956335 -0.016393
vn -0.006521 0.954808 0.297153
vn -0.998342 -0.000002 -0.057557
vn -0.998342 0.000000 -0.057557
vn 0.998399 0.007236 -0.056097
vn 0.998403 -0.001499 -0.056466
vn 0.998404 -0.001258 -0.056456
vn 0.998398 0.007477 -0.056087
vn -0.010961 -0.000001 0.999940
vn -0.010961 -0.000000 0.999940
vn -0.010963 -0.000040 0.999940
vn -0.010963 -0.000041 0.999940
vn 0.000000 1.000000 -0.000000
vn 0.875678 -0.095885 0.473280
vn 0.990564 -0.110821 0.080628
vn 0.849922 -0.523828 0.056891
vn 0.690404 -0.496388 0.526252
vn -0.242298 -0.169040 0.955362
vn -0.056579 0.005974 0.998380
vn -0.913505 0.087745 0.397251
vn -0.920323 0.001987 0.391154
vn -0.995539 0.092543 -0.018357
vn 0.142442 -0.889969 0.433204
vn -0.103915 -0.284178 0.953124
vn -0.574876 -0.004865 0.818226
vn -0.903096 0.114014 0.414028
vn -0.999660 0.018447 -0.018433
vn 0.247995 -0.968743 0.005997
vn -0.443982 -0.895985 0.009515
vn -0.338497 -0.831068 0.441301
vn 0.061339 -0.253041 0.965509
vn 0.037587 0.119223 0.992156
vn -0.357194 0.177379 0.917033
vn -0.908039 -0.414472 0.060648
vn -0.763133 -0.382686 0.520749
vn 0.191424 -0.133770 0.972349
vn 0.510566 0.098125 0.854221
vn 0.380441 0.188688 0.905351
vn -0.387607 0.326827 0.861943
vn -0.993980 -0.074681 0.080165
vn -0.881681 -0.066244 0.467174
vn 0.034732 -0.003938 0.999389
vn 0.891048 0.128678 0.435289
vn 0.870748 0.170587 0.461192
vn 0.526904 0.180051 0.830634
vn 0.901909 0.050733 0.428937
vn 0.992937 0.112206 0.038549
vn 0.984111 0.094606 0.150249
vn 0.885266 0.077045 0.458659
vn 0.997672 0.056119 0.038733
vn 0.806314 0.114247 0.580350
vn 0.417554 0.161460 0.894192
vn -0.361039 0.235563 0.902309
vn -0.786663 0.195370 0.585654
vn -0.824193 0.326199 0.462925
vn 0.708704 0.172034 0.684210
vn 0.345736 0.188794 0.919143
vn -0.416521 0.127714 0.900111
vn -0.747420 0.060863 0.661557
vn -0.996858 0.028320 0.073969
vn -0.988766 -0.130225 0.073369
vn 0.000052 0.000001 1.000000
vn 0.000053 0.000001 1.000000
vn 0.000081 -0.000009 1.000000
vn 0.000047 0.000002 1.000000
vn 0.000048 0.000002 1.000000
vn 0.000047 0.000004 1.000000
vn -0.000000 -0.000000 1.000000
vn 0.000000 0.000000 -1.000000
vn 0.000001 0.000000 -1.000000
vn 0.000001 -0.000000 -1.000000
vn 0.999604 0.007512 -0.027103
vn 0.865969 -0.499968 -0.011366
vn 0.999613 -0.007703 -0.026740
vn 0.496211 0.866894 -0.047638
vn 0.502794 0.863097 -0.047548
vn 0.000000 0.998886 -0.047192
vn -0.496680 -0.867912 -0.006175
vn 0.000000 -1.000000 0.000592
vn -0.503273 -0.864105 -0.006266
vn -0.999613 -0.007703 -0.026740
vn -0.999604 0.007512 -0.027103
vn -0.865487 0.499690 -0.035263
vn -0.865487 0.499689 -0.035263
vn 0.453152 -0.422620 0.784886
vn 0.453151 -0.422621 0.784886
vn -0.453152 0.422620 -0.784886
vn -0.453153 0.422620 -0.784885
vn -0.453151 0.422620 -0.784886
vn 0.854466 0.019091 -0.519156
vn 0.638916 -0.448099 -0.625295
vn 0.638916 -0.448100 -0.625294
vn 0.851293 0.004507 -0.524671
vn 0.590177 0.806710 0.030183
vn 0.595342 0.803072 0.025368
vn 0.188698 0.926052 0.326834
vn 0.188697 0.926052 0.326834
vn -0.616346 -0.783945 -0.074484
vn -0.211028 -0.906570 -0.365512
vn -0.621519 -0.780296 -0.069660
vn -0.880025 0.004507 0.474907
vn -0.876835 0.019091 0.480412
vn -0.660612 0.468424 0.586660
vn -0.660612 0.468424 0.586661
vn -0.939693 -0.000000 0.342020
vn -0.939693 -0.000000 0.342019
vn 0.939693 -0.000000 -0.342020
vn 0.939693 0.000000 -0.342020
vn 0.939693 0.000000 -0.342019
vn 0.939693 0.000001 -0.342020
vn 0.939693 -0.000001 -0.342020
vn 0.367354 0.007512 0.930051
vn 0.306859 -0.499968 0.809858
vn 0.306860 -0.499967 0.809858
vn 0.367015 -0.007703 0.930183
vn 0.214480 0.866894 0.449993
vn 0.216646 0.863097 0.456210
vn 0.044346 0.998886 -0.016140
vn -0.164072 -0.867911 -0.468839
vn -0.000557 -1.000000 0.000203
vn -0.166242 -0.864105 -0.475065
vn -0.316760 -0.007703 -0.948474
vn -0.316416 0.007512 -0.948591
vn -0.262877 0.499689 -0.825352
vn -0.664465 0.342018 0.664462
vn -0.664465 0.342019 0.664462
vn -0.664465 0.342018 0.664461
vn 0.664465 -0.342018 -0.664462
vn 0.664466 -0.342018 -0.664461
vn 0.723008 -0.001771 0.690838
vn 0.497561 -0.472982 0.727132
vn 0.719863 -0.013302 0.693989
vn 0.586789 0.801377 0.116073
vn 0.589785 0.798499 0.120640
vn 0.267136 0.925893 -0.267136
vn -0.558130 -0.816956 -0.145171
vn -0.242164 -0.939528 0.242165
vn -0.242165 -0.939528 0.242165
vn -0.561127 -0.814072 -0.149743
vn -0.693990 -0.013302 -0.719862
vn -0.690838 -0.001771 -0.723007
vn -0.472221 0.459859 -0.752022
vn -0.472221 0.459860 -0.752021
vn -1.000000 -0.000000 -0.000001
vn -1.000000 0.000000 -0.000001
vn -1.000000 0.000000 -0.000000
vn 1.000000 0.000000 0.000000
vn 0.027103 0.007512 0.999604
vn 0.011366 -0.499968 0.865970
vn 0.026740 -0.007703 0.999613
vn 0.047638 0.866894 0.496211
vn 0.047548 0.863097 0.502795
vn 0.047192 0.998886 0.000000
vn 0.006175 -0.867911 -0.496681
vn -0.000592 -1.000000 0.000000
vn 0.006266 -0.864105 -0.503273
vn 0.026740 -0.007703 -0.999613
vn 0.027103 0.007512 -0.999604
vn 0.035263 0.499689 -0.865487
vn 0.306821 0.286234 0.907706
vn -0.306821 -0.286233 -0.907707
vn -0.306821 -0.286234 -0.907706
vn -0.306821 -0.286234 -0.907707
vn -0.306821 -0.286233 -0.907706
vn 0.900142 0.196529 -0.388743
vn 0.926165 -0.300599 -0.227723
vn 0.903478 0.185817 -0.386265
vn 0.193890 0.900543 -0.389138
vn 0.199237 0.898848 -0.390354
vn -0.295312 0.926875 -0.231719
vn -0.206437 -0.912771 0.352467
vn 0.284696 -0.937543 0.199903
vn -0.211789 -0.911073 0.353683
vn -0.912586 -0.208267 0.351869
vn -0.915915 -0.197554 0.349387
vn -0.936672 0.290428 0.195698
vn 0.996195 -0.000000 -0.087155
vn -0.996195 0.000000 0.087155
vn -0.996195 -0.000001 0.087156
vn -0.107487 0.005690 -0.994190
vn -0.084023 -0.499982 -0.861950
vn -0.107281 -0.005799 -0.994212
vn -0.079167 0.866873 -0.492204
vn -0.079549 0.864004 -0.497161
vn -0.035502 0.999365 0.003106
vn 0.038708 -0.867452 0.496013
vn 0.000445 -1.000000 -0.000039
vn 0.000446 -1.000000 -0.000039
vn 0.039090 -0.864579 0.500974
vn 0.066992 -0.005799 0.997737
vn 0.066785 0.005689 0.997751
vn 0.048930 0.499823 0.864745
vn 0.846648 0.456812 0.272965
vn 0.846648 0.456811 0.272965
vn 0.846649 0.456811 0.272965
vn -0.846648 -0.456812 -0.272965
vn -0.846648 -0.456812 -0.272964
vn -0.846648 -0.456811 -0.272965
vn 0.293538 -0.017637 -0.955785
vn 0.479145 -0.460212 -0.747412
vn 0.298656 -0.027761 -0.953957
vn -0.247497 0.747973 -0.615858
vn -0.244662 0.745379 -0.620122
vn -0.460012 0.872618 -0.164091
vn -0.460013 0.872618 -0.164090
vn 0.213258 -0.767049 0.605110
vn 0.430492 -0.889259 0.154583
vn 0.210418 -0.764450 0.609377
vn -0.327908 -0.001029 0.944709
vn -0.333024 0.009094 0.942875
vn -0.508796 0.443985 0.737566
vn -0.508796 0.443985 0.737567
# 226 vertex normals

vt 0.527344 0.070313 0.000000
vt 0.527344 0.496094 0.000000
vt 0.886719 0.496094 0.000000
vt 0.886719 0.070313 0.000000
vt 0.527344 0.023438 0.000000
vt 0.914063 0.023438 0.000000
vt 0.914063 0.496094 0.000000
vt 0.527344 0.000000 0.000000
vt 0.921875 0.000000 0.000000
vt 0.921875 0.023438 0.000000
vt 0.921875 0.496094 0.000000
vt 0.937500 0.496094 0.000000
vt 0.937500 0.023438 0.000000
vt 0.914063 0.000000 0.000000
vt 0.960938 0.593750 0.000000
vt 0.921875 0.593750 0.000000
vt 0.929688 0.589844 0.000000
vt 0.953125 0.589844 0.000000
vt 0.147379 0.252650 0.000000
vt 0.193818 0.252363 0.000000
vt 0.202311 0.342290 0.000000
vt 0.162663 0.394978 0.000000
vt 0.150566 0.403497 0.000000
vt 0.135283 0.252650 0.000000
vt 0.068704 0.252650 0.000000
vt 0.072296 0.467858 0.000000
vt 0.002074 0.252650 0.000000
vt 0.213504 0.429447 0.000000
vt 0.207822 0.444614 0.000000
vt 0.132263 0.481115 0.000000
vt 0.090993 0.604800 0.000000
vt 0.002074 0.469936 0.000000
vt 0.228016 0.367248 0.000000
vt 0.274873 0.363938 0.000000
vt 0.289617 0.421434 0.000000
vt 0.295547 0.436600 0.000000
vt 0.256570 0.481115 0.000000
vt 0.153739 0.615386 0.000000
vt 0.305714 0.329382 0.000000
vt 0.346860 0.361550 0.000000
vt 0.358844 0.370069 0.000000
vt 0.362294 0.481115 0.000000
vt 0.334152 0.615386 0.000000
vt 0.168675 0.736085 0.000000
vt 0.311001 0.252142 0.000000
vt 0.354722 0.252650 0.000000
vt 0.366706 0.252650 0.000000
vt 0.425290 0.481115 0.000000
vt 0.402933 0.601240 0.000000
vt 0.354287 0.720451 0.000000
vt 0.437609 0.252650 0.000000
vt 0.498077 0.481478 0.000000
vt 0.487025 0.601604 0.000000
vt 0.464318 0.716140 0.000000
vt 0.498077 0.252650 0.000000
vt 0.441274 0.806880 0.000000
vt 0.338779 0.806880 0.000000
vt 0.191197 0.806880 0.000000
vt 0.070198 0.806880 0.000000
vt 0.051990 0.732669 0.000000
vt 0.413530 0.998173 0.000000
vt 0.314350 0.998173 0.000000
vt 0.183688 0.998173 0.000000
vt 0.076093 0.998173 0.000000
vt 0.014968 0.605839 0.000000
vt 0.828125 0.644531 0.000000
vt 0.882813 0.550781 0.000000
vt 0.882813 0.613281 0.000000
vt 0.773438 0.550781 0.000000
vt 0.828125 0.519531 0.000000
vt 0.773438 0.613281 0.000000
vt 0.878906 0.613281 0.000000
vt 0.878906 0.550781 0.000000
vt 0.761719 0.609375 0.000000
vt 0.761719 0.660156 0.000000
vt 0.500000 0.660156 0.000000
vt 0.500000 0.613281 0.000000
vt 0.761719 0.558594 0.000000
vt 0.500000 0.558594 0.000000
vt 0.761719 0.503906 0.000000
vt 0.500000 0.503906 0.000000
vt 0.500000 0.609375 0.000000
vt 0.761719 0.613281 0.000000
# 83 texture coords

g Mesh_0247
usemtl Tex_0247_0_dds
s 1
f 1/1/1 2/2/2 3/3/2 
s 2
f 3/3/3 4/4/4 1/1/1 
s 3
f 5/5/5 1/1/1 4/4/4 
s 4
f 4/4/4 6/6/6 5/5/7 
s 5
f 7/7/8 6/6/6 4/4/4 
s 6
f 4/4/4 3/3/3 7/7/8 
s 7
f 5/5/9 8/8/9 9/9/9 
s 8
f 9/9/10 10/10/10 5/5/10 
s 9
f 11/3/11 2/2/2 1/1/12 
s 10
f 1/1/12 12/4/13 11/3/11 
s 11
f 11/3/11 12/4/13 10/10/14 
s 12
f 10/10/14 13/11/15 11/3/11 
s 13
f 12/4/13 1/1/12 5/5/16 
s 14
f 5/5/16 10/10/14 12/4/13 
s 15
f 14/12/17 15/13/17 6/6/17 
s 16
f 6/6/18 7/7/18 14/12/18 
s 17
f 9/13/19 16/12/20 13/11/21 
s 18
f 13/11/21 10/10/22 9/13/19 
s 19
f 6/6/23 15/14/24 8/8/25 
s 20
f 8/8/25 5/5/26 6/6/23 
s 21
f 17/15/27 18/16/27 19/17/27 
s 22
f 19/17/27 20/18/27 17/15/27 
s 23
f 21/19/28 22/20/29 23/21/30 
s 24
f 23/21/30 24/22/31 21/19/28 
s 25
f 21/19/28 24/22/31 25/23/32 
s 26
f 25/23/32 26/24/33 21/19/28 
s 27
f 27/25/34 26/24/33 25/23/32 
s 28
f 25/23/32 28/26/35 27/25/34 
s 29
f 29/27/36 27/25/34 28/26/35 
s 30
f 30/28/37 24/22/31 23/21/30 
s 31
f 25/23/32 24/22/31 30/28/37 
s 32
f 30/28/37 31/29/38 25/23/32 
s 33
f 32/30/39 25/23/32 31/29/38 
s 34
f 25/23/32 32/30/39 28/26/35 
s 35
f 33/31/40 28/26/35 32/30/39 
s 36
f 34/32/41 28/26/35 33/31/40 
s 37
f 28/26/35 34/32/41 29/27/36 
s 38
f 23/21/30 35/33/42 30/28/37 
s 39
f 30/28/37 35/33/42 36/34/43 
s 40
f 36/34/43 37/35/44 30/28/37 
s 41
f 30/28/37 37/35/44 38/36/45 
s 42
f 38/36/45 31/29/38 30/28/37 
s 43
f 39/37/46 31/29/38 38/36/45 
s 44
f 31/29/38 39/37/46 40/38/47 
s 45
f 40/38/47 32/30/39 31/29/38 
s 46
f 32/30/39 40/38/47 33/31/40 
s 47
f 37/35/44 36/34/43 41/39/48 
s 48
f 41/39/48 42/40/49 37/35/44 
s 49
f 37/35/44 42/40/49 43/41/50 
s 50
f 43/41/50 38/36/45 37/35/44 
s 51
f 38/36/45 43/41/50 44/42/51 
s 52
f 38/36/45 44/42/51 45/43/52 
s 53
f 45/43/52 39/37/46 38/36/45 
s 54
f 39/37/46 45/43/52 40/38/47 
s 55
f 46/44/53 40/38/47 45/43/52 
s 56
f 33/31/40 40/38/47 46/44/53 
s 57
f 42/40/49 41/39/48 47/45/54 
s 58
f 47/45/54 48/46/55 42/40/49 
s 59
f 42/40/49 48/46/55 49/47/56 
s 60
f 49/47/56 43/41/50 42/40/49 
s 61
f 50/48/57 43/41/50 49/47/56 
s 62
f 50/48/57 44/42/51 43/41/50 
s 63
f 45/43/52 44/42/51 50/48/57 
s 64
f 50/48/57 51/49/58 45/43/52 
s 65
f 45/43/52 51/49/58 52/50/59 
s 66
f 45/43/52 52/50/59 46/44/53 
s 67
f 49/47/56 53/51/60 50/48/57 
s 68
f 54/52/61 50/48/57 53/51/60 
s 69
f 50/48/57 54/52/61 55/53/62 
s 70
f 55/53/62 51/49/58 50/48/57 
s 71
f 51/49/58 55/53/62 56/54/63 
s 72
f 52/50/59 51/49/58 56/54/63 
s 73
f 53/51/60 57/55/64 54/52/61 
s 74
f 52/50/59 56/54/63 58/56/65 
s 75
f 58/56/65 59/57/66 52/50/59 
s 76
f 52/50/59 59/57/66 60/58/67 
s 77
f 60/58/67 46/44/53 52/50/59 
s 78
f 46/44/53 60/58/67 61/59/68 
s 79
f 61/59/68 62/60/69 46/44/53 
s 80
f 33/31/40 46/44/53 62/60/69 
s 81
f 58/56/65 17/61/70 59/57/66 
s 82
f 59/57/66 17/61/70 20/62/71 
s 83
f 60/58/67 59/57/66 20/62/71 
s 84
f 20/62/71 19/63/72 60/58/67 
s 85
f 60/58/67 19/63/72 18/64/73 
s 86
f 60/58/67 18/64/73 61/59/68 
s 87
f 62/60/69 63/65/74 33/31/40 
s 88
f 33/31/40 63/65/74 34/32/75 
s 89
f 22/20/76 35/33/77 23/21/78 
s 90
f 22/20/76 36/34/79 35/33/77 
s 91
f 22/20/76 41/39/80 36/34/79 
s 92
f 22/20/76 47/45/81 41/39/80 
s 93
f 64/66/82 65/67/82 66/68/82 
s 94
f 64/66/82 67/69/82 65/67/82 
s 95
f 67/69/82 68/70/82 65/67/82 
s 96
f 64/66/82 69/71/82 67/69/82 
s 97
f 70/71/83 71/72/83 72/66/84 
s 98
f 70/71/83 73/70/83 71/72/83 
s 99
f 73/70/83 74/73/85 71/72/83 
s 100
f 70/71/83 75/69/83 73/70/83 
s 101
f 68/74/86 67/75/87 74/76/87 
s 102
f 74/76/87 73/77/88 68/74/86 
s 103
f 65/78/89 68/74/86 73/77/88 
s 104
f 73/77/88 75/79/90 65/78/89 
s 105
f 66/80/91 65/78/89 75/79/90 
s 106
f 75/79/90 70/81/91 66/80/91 
s 107
f 71/79/92 74/81/93 67/80/93 
s 108
f 67/80/93 69/78/94 71/79/92 
s 109
f 72/82/95 71/79/92 69/78/94 
s 110
f 69/78/94 64/83/96 72/82/95 
s 111
f 70/76/97 72/82/95 64/83/96 
s 112
f 64/83/96 66/75/98 70/76/97 
s 113
f 76/66/99 77/67/99 78/68/99 
s 114
f 76/66/99 79/69/99 77/67/99 
s 115
f 79/69/99 80/70/99 77/67/99 
s 116
f 76/66/99 81/71/100 79/69/99 
s 117
f 82/71/101 83/72/101 84/66/102 
s 118
f 82/71/101 85/70/103 83/72/101 
s 119
f 85/70/103 86/73/103 83/72/101 
s 120
f 82/71/101 87/69/103 85/70/103 
s 121
f 80/74/104 79/75/105 86/76/106 
s 122
f 86/76/106 85/77/107 80/74/104 
s 123
f 77/78/108 80/74/104 85/77/107 
s 124
f 85/77/107 87/79/109 77/78/108 
s 125
f 78/80/110 77/78/108 87/79/109 
s 126
f 87/79/109 82/81/111 78/80/110 
s 127
f 83/79/112 86/81/113 79/80/113 
s 128
f 79/80/113 81/78/114 83/79/112 
s 129
f 84/82/115 83/79/112 81/78/114 
s 130
f 81/78/114 76/83/116 84/82/115 
s 131
f 82/76/117 84/82/115 76/83/116 
s 132
f 76/83/116 78/75/118 82/76/117 
s 133
f 88/66/119 89/67/119 90/68/119 
s 134
f 88/66/119 91/69/119 89/67/119 
s 135
f 91/69/119 92/70/120 89/67/119 
s 136
f 88/66/119 93/71/119 91/69/119 
s 137
f 94/71/121 95/72/122 96/66/123 
s 138
f 94/71/121 97/70/121 95/72/122 
s 139
f 97/70/121 98/73/124 95/72/122 
s 140
f 94/71/121 99/69/125 97/70/121 
s 141
f 92/74/126 91/75/127 98/76/128 
s 142
f 98/76/128 97/77/129 92/74/126 
s 143
f 89/78/130 92/74/126 97/77/129 
s 144
f 97/77/129 99/79/131 89/78/130 
s 145
f 90/80/132 89/78/130 99/79/131 
s 146
f 99/79/131 94/81/132 90/80/132 
s 147
f 95/79/133 98/81/134 91/80/134 
s 148
f 91/80/134 93/78/135 95/79/133 
s 149
f 96/82/136 95/79/133 93/78/135 
s 150
f 93/78/135 88/83/137 96/82/136 
s 151
f 94/76/138 96/82/136 88/83/137 
s 152
f 88/83/137 90/75/138 94/76/138 
s 153
f 100/66/139 101/67/139 102/68/140 
s 154
f 100/66/139 103/69/139 101/67/139 
s 155
f 103/69/139 104/70/141 101/67/139 
s 156
f 100/66/139 105/71/139 103/69/139 
s 157
f 106/71/142 107/72/142 108/66/143 
s 158
f 106/71/142 109/70/142 107/72/142 
s 159
f 109/70/142 110/73/142 107/72/142 
s 160
f 106/71/142 111/69/142 109/70/142 
s 161
f 104/74/144 103/75/145 110/76/145 
s 162
f 110/76/145 109/77/146 104/74/144 
s 163
f 101/78/147 104/74/144 109/77/146 
s 164
f 109/77/146 111/79/148 101/78/147 
s 165
f 102/80/149 101/78/147 111/79/148 
s 166
f 111/79/148 106/81/149 102/80/149 
s 167
f 107/79/150 110/81/151 103/80/152 
s 168
f 103/80/152 105/78/153 107/79/150 
s 169
f 108/82/154 107/79/150 105/78/153 
s 170
f 105/78/153 100/83/155 108/82/154 
s 171
f 106/76/156 108/82/154 100/83/155 
s 172
f 100/83/155 102/75/157 106/76/156 
s 173
f 112/66/158 113/67/158 114/68/158 
s 174
f 112/66/158 115/69/159 113/67/158 
s 175
f 115/69/159 116/70/158 113/67/158 
s 176
f 112/66/158 117/71/160 115/69/159 
s 177
f 118/71/161 119/72/161 120/66/161 
s 178
f 118/71/161 121/70/161 119/72/161 
s 179
f 121/70/161 122/73/161 119/72/161 
s 180
f 118/71/161 123/69/161 121/70/161 
s 181
f 116/74/162 115/75/163 122/76/163 
s 182
f 122/76/163 121/77/164 116/74/162 
s 183
f 113/78/165 116/74/162 121/77/164 
s 184
f 121/77/164 123/79/166 113/78/165 
s 185
f 114/80/167 113/78/165 123/79/166 
s 186
f 123/79/166 118/81/167 114/80/167 
s 187
f 119/79/168 122/81/169 115/80/169 
s 188
f 115/80/169 117/78/170 119/79/168 
s 189
f 120/82/171 119/79/168 117/78/170 
s 190
f 117/78/170 112/83/172 120/82/171 
s 191
f 118/76/173 120/82/171 112/83/172 
s 192
f 112/83/172 114/75/173 118/76/173 
s 193
f 124/66/174 125/67/174 126/68/174 
s 194
f 124/66/174 127/69/174 125/67/174 
s 195
f 127/69/174 128/70/174 125/67/174 
s 196
f 124/66/174 129/71/174 127/69/174 
s 197
f 130/71/175 131/72/175 132/66/175 
s 198
f 130/71/175 133/70/176 131/72/175 
s 199
f 133/70/176 134/73/177 131/72/175 
s 200
f 130/71/175 135/69/178 133/70/176 
s 201
f 128/74/179 127/75/180 134/76/180 
s 202
f 134/76/180 133/77/181 128/74/179 
s 203
f 125/78/182 128/74/179 133/77/181 
s 204
f 133/77/181 135/79/183 125/78/182 
s 205
f 126/80/184 125/78/182 135/79/183 
s 206
f 135/79/183 130/81/184 126/80/184 
s 207
f 131/79/185 134/81/186 127/80/186 
s 208
f 127/80/186 129/78/187 131/79/185 
s 209
f 132/82/188 131/79/185 129/78/187 
s 210
f 129/78/187 124/83/189 132/82/188 
s 211
f 130/76/190 132/82/188 124/83/189 
s 212
f 124/83/189 126/75/190 130/76/190 
s 213
f 136/66/191 137/67/191 138/68/191 
s 214
f 136/66/191 139/69/191 137/67/191 
s 215
f 139/69/191 140/70/191 137/67/191 
s 216
f 136/66/191 141/71/191 139/69/191 
s 217
f 142/71/192 143/72/192 144/66/192 
s 218
f 142/71/192 145/70/192 143/72/192 
s 219
f 145/70/192 146/73/192 143/72/192 
s 220
f 142/71/192 147/69/193 145/70/192 
s 221
f 140/74/194 139/75/195 146/76/195 
s 222
f 146/76/195 145/77/196 140/74/194 
s 223
f 137/78/197 140/74/194 145/77/196 
s 224
f 145/77/196 147/79/198 137/78/197 
s 225
f 138/80/199 137/78/197 147/79/198 
s 226
f 147/79/198 142/81/199 138/80/199 
s 227
f 143/79/200 146/81/201 139/80/202 
s 228
f 139/80/202 141/78/203 143/79/200 
s 229
f 144/82/204 143/79/200 141/78/203 
s 230
f 141/78/203 136/83/205 144/82/204 
s 231
f 142/76/206 144/82/204 136/83/205 
s 232
f 136/83/205 138/75/206 142/76/206 
s 233
f 148/66/207 149/67/208 150/68/209 
s 234
f 148/66/207 151/69/207 149/67/208 
s 235
f 151/69/207 152/70/207 149/67/208 
s 236
f 148/66/207 153/71/207 151/69/207 
s 237
f 154/71/210 155/72/210 156/66/211 
s 238
f 154/71/210 157/70/210 155/72/210 
s 239
f 157/70/210 158/73/210 155/72/210 
s 240
f 154/71/210 159/69/212 157/70/210 
s 241
f 152/74/213 151/75/214 158/76/214 
s 242
f 158/76/214 157/77/215 152/74/213 
s 243
f 149/78/216 152/74/213 157/77/215 
s 244
f 157/77/215 159/79/217 149/78/216 
s 245
f 150/80/218 149/78/216 159/79/217 
s 246
f 159/79/217 154/81/219 150/80/218 
s 247
f 155/79/220 158/81/221 151/80/221 
s 248
f 151/80/221 153/78/222 155/79/220 
s 249
f 156/82/223 155/79/220 153/78/222 
s 250
f 153/78/222 148/83/224 156/82/223 
s 251
f 154/76/225 156/82/223 148/83/224 
s 252
f 148/83/224 150/75/226 154/76/225 
# 0 polygons - 252 triangles