# Blender v2.90.1 OBJ File: ''
# www.blender.org
mtllib Collider.mtl
o Cube.001
v 0.346128 1.412311 -0.346128
v -0.346128 1.412311 -0.346128
v -0.346128 1.412311 0.346128
v 0.346128 1.412311 0.346128
v 0.346128 0.047704 0.346128
v -0.346128 0.047704 0.346128
v -0.346128 0.047704 -0.346128
v 0.346128 0.047704 -0.346128
vt 0.625000 0.500000
vt 0.875000 0.500000
vt 0.875000 0.750000
vt 0.625000 0.750000
vt 0.375000 0.750000
vt 0.625000 1.000000
vt 0.375000 1.000000
vt 0.375000 0.000000
vt 0.625000 0.000000
vt 0.625000 0.250000
vt 0.375000 0.250000
vt 0.125000 0.500000
vt 0.375000 0.500000
vt 0.125000 0.750000
vn 0.0000 1.0000 0.0000
vn 0.0000 -0.0000 1.0000
vn -1.0000 0.0000 0.0000
vn 0.0000 -1.0000 -0.0000
vn 1.0000 0.0000 0.0000
vn 0.0000 0.0000 -1.0000
usemtl Material.001
s off
f 1/1/1 2/2/1 3/3/1 4/4/1
f 5/5/2 4/4/2 3/6/2 6/7/2
f 6/8/3 3/9/3 2/10/3 7/11/3
f 7/12/4 8/13/4 5/5/4 6/14/4
f 8/13/5 1/1/5 4/4/5 5/5/5
f 7/11/6 2/10/6 1/1/6 8/13/6
o Cylinder_Cylinder.001
v 0.000000 0.000000 -0.580000
v 0.000000 0.058000 -0.580000
v 0.113152 0.058000 -0.568855
v 0.113152 0.000000 -0.568855
v 0.221956 0.058000 -0.535850
v 0.221956 0.000000 -0.535850
v 0.322231 0.058000 -0.482253
v 0.322231 0.000000 -0.482253
v 0.410122 0.058000 -0.410122
v 0.410122 0.000000 -0.410122
v 0.482253 0.058000 -0.322231
v 0.482253 0.000000 -0.322231
v 0.535850 0.058000 -0.221956
v 0.535850 0.000000 -0.221956
v 0.568855 0.058000 -0.113152
v 0.568855 0.000000 -0.113152
v 0.580000 0.058000 0.000000
v 0.580000 0.000000 0.000000
v 0.568855 0.058000 0.113152
v 0.568855 -0.000000 0.113152
v 0.535850 0.058000 0.221956
v 0.535850 -0.000000 0.221956
v 0.482253 0.058000 0.322231
v 0.482253 -0.000000 0.322231
v 0.410122 0.058000 0.410122
v 0.410122 -0.000000 0.410122
v 0.322231 0.058000 0.482253
v 0.322231 -0.000000 0.482253
v 0.221956 0.058000 0.535850
v 0.221956 -0.000000 0.535850
v 0.113152 0.058000 0.568855
v 0.113152 -0.000000 0.568855
v 0.000000 0.058000 0.580000
v 0.000000 -0.000000 0.580000
v -0.113153 0.058000 0.568855
v -0.113153 -0.000000 0.568855
v -0.221957 0.058000 0.535850
v -0.221957 -0.000000 0.535850
v -0.322231 0.058000 0.482252
v -0.322231 -0.000000 0.482252
v -0.410122 0.058000 0.410121
v -0.410122 -0.000000 0.410121
v -0.482253 0.058000 0.322231
v -0.482253 -0.000000 0.322231
v -0.535850 0.058000 0.221956
v -0.535850 -0.000000 0.221956
v -0.568855 0.058000 0.113152
v -0.568855 -0.000000 0.113152
v -0.580000 0.058000 -0.000001
v -0.580000 0.000000 -0.000001
v -0.568855 0.058000 -0.113153
v -0.568855 0.000000 -0.113153
v -0.535850 0.058000 -0.221957
v -0.535850 0.000000 -0.221957
v -0.482252 0.058000 -0.322231
v -0.482252 0.000000 -0.322231
v -0.410121 0.058000 -0.410123
v -0.410121 0.000000 -0.410123
v -0.322230 0.058000 -0.482253
v -0.322230 0.000000 -0.482253
v -0.221956 0.058000 -0.535850
v -0.221956 0.000000 -0.535850
v -0.113152 0.058000 -0.568856
v -0.113152 0.000000 -0.568856
v 0.000000 0.058000 0.000000
v 0.000000 0.000000 0.000000
vt 1.000887 0.251277
vt 1.000887 0.282527
vt 0.985262 0.282527
vt 0.985262 0.251277
vt 0.969637 0.282527
vt 0.969637 0.251277
vt 0.954012 0.282527
vt 0.954012 0.251277
vt 0.938387 0.282527
vt 0.938387 0.251277
vt 0.922762 0.282527
vt 0.922762 0.251277
vt 0.907137 0.282527
vt 0.907137 0.251277
vt 0.891512 0.282527
vt 0.891512 0.251277
vt 0.875887 0.282527
vt 0.875887 0.251277
vt 0.860262 0.282527
vt 0.860262 0.251277
vt 0.844637 0.282527
vt 0.844637 0.251277
vt 0.829012 0.282527
vt 0.829012 0.251277
vt 0.813387 0.282527
vt 0.813387 0.251277
vt 0.797762 0.282527
vt 0.797762 0.251277
vt 0.782137 0.282527
vt 0.782137 0.251277
vt 0.766512 0.282527
vt 0.766512 0.251277
vt 0.750887 0.282527
vt 0.750887 0.251277
vt 0.735262 0.282527
vt 0.735262 0.251277
vt 0.719637 0.282527
vt 0.719637 0.251277
vt 0.704012 0.282527
vt 0.704012 0.251277
vt 0.688387 0.282527
vt 0.688387 0.251277
vt 0.672762 0.282527
vt 0.672762 0.251277
vt 0.657137 0.282527
vt 0.657137 0.251277
vt 0.641512 0.282527
vt 0.641512 0.251277
vt 0.625887 0.282527
vt 0.625887 0.251277
vt 0.610262 0.282527
vt 0.610262 0.251277
vt 0.594637 0.282527
vt 0.594637 0.251277
vt 0.579012 0.282527
vt 0.579012 0.251277
vt 0.563387 0.282527
vt 0.563387 0.251277
vt 0.547762 0.282527
vt 0.547762 0.251277
vt 0.532137 0.282527
vt 0.532137 0.251277
vt 0.516512 0.282527
vt 0.516512 0.251277
vt 0.500887 0.282527
vt 0.500887 0.251277
vt 0.649298 0.243972
vt 0.625887 0.246277
vt 0.625887 0.126277
vt 0.602476 0.243972
vt 0.579965 0.237143
vt 0.559218 0.226054
vt 0.541034 0.211130
vt 0.526110 0.192946
vt 0.515021 0.172199
vt 0.508192 0.149688
vt 0.505887 0.126277
vt 0.508192 0.102867
vt 0.515021 0.080355
vt 0.526110 0.059609
vt 0.541034 0.041425
vt 0.559218 0.026501
vt 0.579965 0.015412
vt 0.602476 0.008583
vt 0.625887 0.006277
vt 0.649297 0.008583
vt 0.671809 0.015412
vt 0.692555 0.026501
vt 0.710739 0.041425
vt 0.725663 0.059609
vt 0.736752 0.080355
vt 0.743581 0.102867
vt 0.745887 0.126277
vt 0.743581 0.149688
vt 0.736752 0.172199
vt 0.725663 0.192946
vt 0.710739 0.211130
vt 0.692555 0.226054
vt 0.671809 0.237143
vt 0.875887 0.246277
vt 0.899297 0.243972
vt 0.875887 0.126277
vt 0.921809 0.237143
vt 0.942555 0.226054
vt 0.960739 0.211130
vt 0.975663 0.192946
vt 0.986752 0.172199
vt 0.993581 0.149688
vt 0.995887 0.126277
vt 0.993581 0.102867
vt 0.986752 0.080355
vt 0.975663 0.059609
vt 0.960739 0.041425
vt 0.942555 0.026501
vt 0.921809 0.015412
vt 0.899297 0.008583
vt 0.875887 0.006277
vt 0.852476 0.008583
vt 0.829965 0.015412
vt 0.809218 0.026501
vt 0.791034 0.041425
vt 0.776110 0.059609
vt 0.765021 0.080355
vt 0.758192 0.102867
vt 0.755887 0.126277
vt 0.758192 0.149688
vt 0.765021 0.172199
vt 0.776110 0.192946
vt 0.791034 0.211130
vt 0.809218 0.226054
vt 0.829965 0.237143
vt 0.852476 0.243972
vn 0.0980 0.0000 -0.9952
vn 0.2903 0.0000 -0.9569
vn 0.4714 0.0000 -0.8819
vn 0.6344 0.0000 -0.7730
vn 0.7730 0.0000 -0.6344
vn 0.8819 0.0000 -0.4714
vn 0.9569 0.0000 -0.2903
vn 0.9952 -0.0000 -0.0980
vn 0.9952 -0.0000 0.0980
vn 0.9569 0.0000 0.2903
vn 0.8819 0.0000 0.4714
vn 0.7730 0.0000 0.6344
vn 0.6344 0.0000 0.7730
vn 0.4714 0.0000 0.8819
vn 0.2903 0.0000 0.9569
vn 0.0980 0.0000 0.9952
vn -0.0980 0.0000 0.9952
vn -0.2903 0.0000 0.9569
vn -0.4714 0.0000 0.8819
vn -0.6344 0.0000 0.7730
vn -0.7730 0.0000 0.6344
vn -0.8819 -0.0000 0.4714
vn -0.9569 -0.0000 0.2903
vn -0.9952 0.0000 0.0980
vn -0.9952 0.0000 -0.0980
vn -0.9569 -0.0000 -0.2903
vn -0.8819 0.0000 -0.4714
vn -0.7730 0.0000 -0.6344
vn -0.6344 0.0000 -0.7730
vn -0.4714 0.0000 -0.8819
vn -0.2903 0.0000 -0.9569
vn -0.0980 0.0000 -0.9952
vn 0.0000 1.0000 0.0000
vn 0.0000 -1.0000 -0.0000
usemtl face
s 1
f 9/15/7 10/16/7 11/17/7 12/18/7
f 12/18/8 11/17/8 13/19/8 14/20/8
f 14/20/9 13/19/9 15/21/9 16/22/9
f 16/22/10 15/21/10 17/23/10 18/24/10
f 18/24/11 17/23/11 19/25/11 20/26/11
f 20/26/12 19/25/12 21/27/12 22/28/12
f 22/28/13 21/27/13 23/29/13 24/30/13
f 24/30/14 23/29/14 25/31/14 26/32/14
f 26/32/15 25/31/15 27/33/15 28/34/15
f 28/34/16 27/33/16 29/35/16 30/36/16
f 30/36/17 29/35/17 31/37/17 32/38/17
f 32/38/18 31/37/18 33/39/18 34/40/18
f 34/40/19 33/39/19 35/41/19 36/42/19
f 36/42/20 35/41/20 37/43/20 38/44/20
f 38/44/21 37/43/21 39/45/21 40/46/21
f 40/46/22 39/45/22 41/47/22 42/48/22
f 42/48/23 41/47/23 43/49/23 44/50/23
f 44/50/24 43/49/24 45/51/24 46/52/24
f 46/52/25 45/51/25 47/53/25 48/54/25
f 48/54/26 47/53/26 49/55/26 50/56/26
f 50/56/27 49/55/27 51/57/27 52/58/27
f 52/58/28 51/57/28 53/59/28 54/60/28
f 54/60/29 53/59/29 55/61/29 56/62/29
f 56/62/30 55/61/30 57/63/30 58/64/30
f 58/64/31 57/63/31 59/65/31 60/66/31
f 60/66/32 59/65/32 61/67/32 62/68/32
f 62/68/33 61/67/33 63/69/33 64/70/33
f 64/70/34 63/69/34 65/71/34 66/72/34
f 66/72/35 65/71/35 67/73/35 68/74/35
f 68/74/36 67/73/36 69/75/36 70/76/36
f 70/76/37 69/75/37 71/77/37 72/78/37
f 72/78/38 71/77/38 10/79/38 9/80/38
f 11/81/39 10/82/39 73/83/39
f 10/82/39 71/84/39 73/83/39
f 71/84/39 69/85/39 73/83/39
f 69/85/39 67/86/39 73/83/39
f 67/86/39 65/87/39 73/83/39
f 65/87/39 63/88/39 73/83/39
f 63/88/39 61/89/39 73/83/39
f 61/89/39 59/90/39 73/83/39
f 59/90/39 57/91/39 73/83/39
f 57/91/39 55/92/39 73/83/39
f 55/92/39 53/93/39 73/83/39
f 53/93/39 51/94/39 73/83/39
f 51/94/39 49/95/39 73/83/39
f 49/95/39 47/96/39 73/83/39
f 47/96/39 45/97/39 73/83/39
f 45/97/39 43/98/39 73/83/39
f 43/98/39 41/99/39 73/83/39
f 41/99/39 39/100/39 73/83/39
f 39/100/39 37/101/39 73/83/39
f 37/101/39 35/102/39 73/83/39
f 35/102/39 33/103/39 73/83/39
f 33/103/39 31/104/39 73/83/39
f 31/104/39 29/105/39 73/83/39
f 29/105/39 27/106/39 73/83/39
f 27/106/39 25/107/39 73/83/39
f 25/107/39 23/108/39 73/83/39
f 23/108/39 21/109/39 73/83/39
f 21/109/39 19/110/39 73/83/39
f 19/110/39 17/111/39 73/83/39
f 17/111/39 15/112/39 73/83/39
f 15/112/39 13/113/39 73/83/39
f 13/113/39 11/81/39 73/83/39
f 9/114/40 12/115/40 74/116/40
f 12/115/40 14/117/40 74/116/40
f 14/117/40 16/118/40 74/116/40
f 16/118/40 18/119/40 74/116/40
f 18/119/40 20/120/40 74/116/40
f 20/120/40 22/121/40 74/116/40
f 22/121/40 24/122/40 74/116/40
f 24/122/40 26/123/40 74/116/40
f 26/123/40 28/124/40 74/116/40
f 28/124/40 30/125/40 74/116/40
f 30/125/40 32/126/40 74/116/40
f 32/126/40 34/127/40 74/116/40
f 34/127/40 36/128/40 74/116/40
f 36/128/40 38/129/40 74/116/40
f 38/129/40 40/130/40 74/116/40
f 40/130/40 42/131/40 74/116/40
f 42/131/40 44/132/40 74/116/40
f 44/132/40 46/133/40 74/116/40
f 46/133/40 48/134/40 74/116/40
f 48/134/40 50/135/40 74/116/40
f 50/135/40 52/136/40 74/116/40
f 52/136/40 54/137/40 74/116/40
f 54/137/40 56/138/40 74/116/40
f 56/138/40 58/139/40 74/116/40
f 58/139/40 60/140/40 74/116/40
f 60/140/40 62/141/40 74/116/40
f 62/141/40 64/142/40 74/116/40
f 64/142/40 66/143/40 74/116/40
f 66/143/40 68/144/40 74/116/40
f 68/144/40 70/145/40 74/116/40
f 70/145/40 72/146/40 74/116/40
f 72/146/40 9/114/40 74/116/40
