# Blender v2.79 (sub 0) OBJ File: ''
# www.blender.org
mtllib 5collider.mtl
o Cube
v -0.285748 -0.012171 0.344471
v -0.285748 0.335033 0.344471
v -0.403204 -0.012171 0.175323
v -0.403204 0.335033 0.175323
v 0.280329 -0.012171 0.082254
v 0.280329 0.335033 0.082254
v 0.189439 -0.012171 -0.071071
v 0.189439 0.335033 -0.071071
vn -0.8214 0.0000 0.5704
vn -0.3839 0.0000 -0.9234
vn 0.8602 0.0000 -0.5099
vn 0.4203 0.0000 0.9074
vn 0.0000 -1.0000 -0.0000
vn 0.0000 1.0000 0.0000
usemtl None
s off
f 1//1 2//1 4//1 3//1
f 3//2 4//2 8//2 7//2
f 7//3 8//3 6//3 5//3
f 5//4 6//4 2//4 1//4
f 3//5 7//5 5//5 1//5
f 8//6 4//6 2//6 6//6
o Cube.001
v -0.339211 -0.012171 -0.039087
v -0.339211 0.335033 -0.039087
v -0.402285 -0.012171 -0.245533
v -0.402285 0.335033 -0.245533
v 0.084558 -0.012171 -0.181808
v 0.084558 0.335033 -0.181808
v 0.066018 -0.012171 -0.295047
v 0.066018 0.335033 -0.295047
vn -0.9564 0.0000 0.2922
vn -0.1051 0.0000 -0.9945
vn 0.9869 0.0000 -0.1616
vn 0.3192 0.0000 0.9477
vn 0.0000 -1.0000 0.0000
vn 0.0000 1.0000 0.0000
usemtl None
s off
f 9//7 10//7 12//7 11//7
f 11//8 12//8 16//8 15//8
f 15//9 16//9 14//9 13//9
f 13//10 14//10 10//10 9//10
f 11//11 15//11 13//11 9//11
f 16//12 12//12 10//12 14//12
o Cube.002
v 0.312553 -0.012171 -0.131956
v 0.312553 0.335033 -0.131956
v 0.410491 -0.012171 -0.295845
v 0.410491 0.335033 -0.295845
v 0.498108 -0.012171 -0.048738
v 0.498108 0.335033 -0.048738
v 0.595703 -0.012171 -0.232049
v 0.595703 0.335033 -0.232049
vn -0.8584 0.0000 -0.5130
vn 0.3257 0.0000 -0.9455
vn 0.8827 0.0000 0.4699
vn -0.4092 0.0000 0.9124
vn 0.0000 -1.0000 0.0000
vn 0.0000 1.0000 0.0000
usemtl None
s off
f 17//13 18//13 20//13 19//13
f 19//14 20//14 24//14 23//14
f 23//15 24//15 22//15 21//15
f 21//16 22//16 18//16 17//16
f 19//17 23//17 21//17 17//17
f 24//18 20//18 18//18 22//18
