# Blender v2.79 (sub 0) OBJ File: ''
# www.blender.org
mtllib 11.mtl
o mesh_4_403.nr
v -0.107820 0.417207 0.027835
v -0.173776 0.417207 0.027822
v -0.177281 0.417208 -0.035016
v -0.111326 0.417208 -0.035001
v 0.026832 0.239473 -0.096462
v 0.032399 0.352950 0.003332
v -0.135550 0.362130 0.003299
v -0.141461 0.246896 -0.102645
v 0.196414 0.246895 -0.102574
v 0.202324 0.362129 0.003369
v 0.032399 0.352950 0.003332
v 0.026832 0.239473 -0.096462
v -0.129575 0.246896 0.110384
v -0.135550 0.362130 0.003299
v 0.032399 0.352950 0.003332
v 0.037969 0.239474 0.103176
v 0.045383 0.188302 -0.102508
v 0.117078 0.188302 -0.102494
v 0.118402 0.211347 -0.078790
v 0.044065 0.184200 -0.126111
v 0.115762 0.184201 -0.126097
v 0.046704 0.211348 -0.078805
v 0.037969 0.239474 0.103176
v 0.032399 0.352950 0.003332
v 0.202324 0.362129 0.003369
v 0.208297 0.246895 0.110453
v 0.214102 -0.085723 -0.109118
v 0.227916 -0.085723 0.138525
v 0.227916 0.021615 0.138524
v 0.214102 0.021614 -0.109118
v 0.039937 0.184200 0.133724
v -0.031756 0.184201 0.133708
v -0.033073 0.188301 0.110104
v 0.038619 0.188301 0.110121
v 0.038619 0.188301 0.110121
v -0.033073 0.188301 0.110104
v -0.034395 0.211348 0.086402
v 0.037298 0.211348 0.086416
v 0.196414 0.246895 -0.102574
v 0.208297 0.246895 0.110453
v 0.202324 0.362129 0.003369
v -0.169071 0.308418 -0.029410
v -0.165921 0.308417 0.027044
v -0.165597 0.229317 0.032804
v -0.168344 0.229318 -0.029262
v -0.184408 0.129610 -0.056141
v -0.178240 0.129609 0.054440
v 0.198123 -0.033035 0.091706
v 0.198124 0.132932 0.091705
v 0.188270 0.132930 -0.084924
v 0.188270 -0.033037 -0.084923
v 0.198123 0.207442 0.091706
v 0.188269 0.207441 -0.084923
v -0.184408 -0.089335 -0.056141
v -0.178240 -0.089336 0.054440
v -0.173776 0.396504 0.027822
v -0.177281 0.396505 -0.035016
v -0.177281 0.417208 -0.035016
v -0.173776 0.417207 0.027822
v 0.188269 0.207441 -0.084923
v 0.198123 0.207442 0.091706
v 0.200187 0.248457 0.093790
v 0.190096 0.248458 -0.087106
v 0.185630 0.019967 0.075563
v 0.188583 0.019966 0.128448
v 0.188583 0.112812 0.128447
v 0.185630 0.154317 0.075564
v -0.169071 0.308418 -0.029410
v -0.168669 0.355880 -0.024105
v -0.166463 0.355880 0.015466
v -0.165921 0.308417 0.027044
v -0.168719 0.397872 -0.023139
v -0.166454 0.397872 0.017457
v -0.056026 0.020382 0.175755
v -0.010743 0.020382 0.175762
v -0.014409 -0.002137 0.175762
v -0.014409 -0.002137 0.175762
v -0.056026 -0.002083 0.175755
v -0.056026 0.020382 0.175755
v -0.010743 0.020382 0.175762
v 0.101319 -0.088651 0.175786
v 0.073112 -0.088652 0.175780
v -0.014409 -0.002137 0.175762
v 0.073112 -0.088652 0.175780
v -0.056026 -0.088651 0.175755
v -0.014409 -0.002137 0.175762
v -0.056026 -0.002083 0.175755
v -0.079030 0.112812 0.128392
v -0.109493 0.112813 0.128387
v -0.112445 0.154317 0.075501
v -0.081978 0.154316 0.075510
v 0.188583 0.112812 0.128447
v 0.158119 0.112813 0.128442
v 0.155169 0.154317 0.075557
v 0.185630 0.154317 0.075564
v -0.145961 -0.085723 0.138447
v -0.159776 -0.085723 -0.109194
v -0.159776 0.021614 -0.109194
v -0.145961 0.021615 0.138447
v -0.141461 0.246896 -0.102645
v -0.135550 0.362130 0.003299
v -0.129575 0.246896 0.110384
v -0.131245 -0.033036 -0.084989
v -0.131245 0.132930 -0.084990
v -0.121391 0.132931 0.091639
v -0.121391 -0.033036 0.091639
v -0.131245 0.207441 -0.084989
v -0.121391 0.207441 0.091640
v -0.145961 -0.085723 0.138447
v -0.145961 0.021615 0.138447
v 0.040964 0.021614 0.138484
v 0.040964 -0.085723 0.138484
v 0.040964 -0.085723 0.138484
v 0.040964 0.021614 0.138484
v 0.227916 0.021615 0.138524
v 0.227916 -0.085723 0.138525
v 0.027149 -0.085722 -0.109156
v 0.027149 0.021615 -0.109156
v -0.159776 0.021614 -0.109194
v -0.159776 -0.085723 -0.109194
v 0.214102 -0.085723 -0.109118
v 0.214102 0.021614 -0.109118
v 0.027149 0.021615 -0.109156
v 0.027149 -0.085722 -0.109156
v -0.112445 0.019967 0.075501
v -0.112445 0.154317 0.075501
v -0.109493 0.112813 0.128387
v -0.109494 0.019967 0.128388
v -0.121391 0.207441 0.091640
v -0.131245 0.207441 -0.084989
v -0.133417 0.248458 -0.087172
v -0.123326 0.248457 0.093724
v 0.188583 0.019966 0.128448
v 0.158118 0.019967 0.128442
v 0.158119 0.112813 0.128442
v 0.188583 0.112812 0.128447
v -0.079031 0.019966 0.128392
v -0.109494 0.019967 0.128388
v -0.109493 0.112813 0.128387
v -0.079030 0.112812 0.128392
v -0.031297 0.086250 -0.087450
v 0.028894 0.086251 -0.087438
v -0.027271 0.099336 -0.087448
v -0.001205 0.112422 -0.087443
v -0.016244 0.108906 -0.087444
v 0.028894 0.018770 -0.087438
v -0.031297 0.018769 -0.087450
v 0.024859 0.099337 -0.087438
v 0.013846 0.108906 -0.087438
v -0.131245 0.207441 -0.084989
v -0.131245 0.132930 -0.084990
v 0.027397 0.132931 -0.084957
v 0.027402 0.207441 -0.084958
v 0.188269 0.207441 -0.084923
v 0.027402 0.207441 -0.084958
v 0.027397 0.132931 -0.084957
v 0.188270 0.132930 -0.084924
v -0.131245 -0.033036 -0.084989
v 0.027392 -0.033036 -0.084957
v 0.027397 0.132931 -0.084957
v -0.131245 0.132930 -0.084990
v 0.188270 -0.033037 -0.084923
v 0.188270 0.132930 -0.084924
v 0.027397 0.132931 -0.084957
v 0.027392 -0.033036 -0.084957
v 0.188269 0.207441 -0.084923
v 0.190096 0.248458 -0.087106
v 0.027379 0.244942 -0.087139
v 0.027379 0.244942 -0.087139
v -0.133417 0.248458 -0.087172
v -0.131245 0.207441 -0.084989
v -0.131245 0.207441 -0.084989
v 0.027402 0.207441 -0.084958
v 0.027379 0.244942 -0.087139
v 0.027379 0.244942 -0.087139
v 0.027402 0.207441 -0.084958
v 0.188269 0.207441 -0.084923
v 0.032385 0.086251 0.092812
v 0.036419 0.099337 0.092814
v 0.092589 0.086250 0.092824
v 0.047431 0.108907 0.092816
v 0.062485 0.112422 0.092819
v 0.092589 0.018770 0.092824
v 0.032385 0.018770 0.092812
v 0.088536 0.099336 0.092825
v 0.077536 0.108907 0.092822
v 0.198123 -0.033035 0.091706
v 0.036462 -0.033037 0.091674
v 0.036590 0.132930 0.091672
v 0.198124 0.132932 0.091705
v 0.198123 0.207442 0.091706
v 0.198124 0.132932 0.091705
v 0.036590 0.132930 0.091672
v 0.036648 0.207441 0.091674
v -0.121391 0.207441 0.091640
v 0.036648 0.207441 0.091674
v 0.036590 0.132930 0.091672
v -0.121391 0.132931 0.091639
v -0.121391 -0.033036 0.091639
v -0.121391 0.132931 0.091639
v 0.036590 0.132930 0.091672
v 0.036462 -0.033037 0.091674
v -0.169071 0.308418 -0.029410
v -0.118400 0.308418 -0.029401
v -0.118206 0.355879 -0.024095
v -0.168669 0.355880 -0.024105
v -0.168719 0.397872 -0.023139
v -0.118048 0.397872 -0.023128
v -0.168344 0.229318 -0.029262
v -0.117674 0.229316 -0.029251
v -0.184408 0.129610 -0.056141
v -0.105326 0.129610 -0.056124
v -0.105326 -0.089335 -0.056124
v -0.184408 -0.089335 -0.056141
v -0.058146 -0.001997 0.137770
v -0.058145 0.020382 0.137770
v -0.056026 0.020382 0.175755
v -0.056026 -0.002083 0.175755
v -0.056026 -0.088651 0.175755
v -0.058145 -0.089237 0.137770
v -0.058146 -0.001997 0.137770
v -0.056026 -0.002083 0.175755
v 0.037470 0.244942 0.093757
v 0.200187 0.248457 0.093790
v 0.198123 0.207442 0.091706
v -0.121391 0.207441 0.091640
v -0.123326 0.248457 0.093724
v 0.037470 0.244942 0.093757
v 0.198123 0.207442 0.091706
v 0.036648 0.207441 0.091674
v 0.037470 0.244942 0.093757
v 0.037470 0.244942 0.093757
v 0.036648 0.207441 0.091674
v -0.121391 0.207441 0.091640
v -0.177281 0.396505 -0.035016
v -0.111326 0.396506 -0.035001
v -0.111326 0.417208 -0.035001
v -0.177281 0.417208 -0.035016
v -0.165921 0.308417 0.027044
v -0.166463 0.355880 0.015466
v -0.116716 0.355880 0.015475
v -0.116070 0.308417 0.027054
v -0.166454 0.397872 0.017457
v -0.116604 0.397872 0.017466
v -0.165597 0.229317 0.032804
v -0.115748 0.229318 0.032814
v -0.178240 0.129609 0.054440
v -0.099156 0.129609 0.054456
v -0.099156 -0.089336 0.054456
v -0.178240 -0.089336 0.054440
v -0.145961 0.021615 0.138447
v -0.159776 0.021614 -0.109194
v 0.027149 0.021615 -0.109156
v 0.040964 0.021614 0.138484
v 0.040964 0.021614 0.138484
v 0.027149 0.021615 -0.109156
v 0.214102 0.021614 -0.109118
v 0.227916 0.021615 0.138524
v -0.012861 0.020381 0.137779
v -0.010743 0.020382 0.175762
v -0.056026 0.020382 0.175755
v -0.058145 0.020382 0.137770
v -0.107820 0.396504 0.027835
v -0.173776 0.396504 0.027822
v -0.173776 0.417207 0.027822
v -0.107820 0.417207 0.027835
v 0.099201 -0.088652 0.137803
v 0.101319 -0.088651 0.175786
v -0.010743 0.020382 0.175762
v -0.012861 0.020381 0.137779
v -0.081978 0.019966 0.075510
v -0.079031 0.019966 0.128392
v -0.079030 0.112812 0.128392
v -0.081978 0.154316 0.075510
v -0.111326 0.396506 -0.035001
v -0.107820 0.396504 0.027835
v -0.107820 0.417207 0.027835
v -0.111326 0.417208 -0.035001
v -0.118400 0.308418 -0.029401
v -0.116070 0.308417 0.027054
v -0.116716 0.355880 0.015475
v -0.118206 0.355879 -0.024095
v -0.118048 0.397872 -0.023128
v -0.116604 0.397872 0.017466
v 0.155169 0.019967 0.075557
v 0.155169 0.154317 0.075557
v 0.158119 0.112813 0.128442
v 0.158118 0.019967 0.128442
vt 0.300537 0.467773
vt 0.284668 0.438477
vt 0.284668 0.467773
vt 0.300537 0.438477
vt 0.594727 0.807739
vt 0.501953 0.994076
vt 0.594727 0.994076
vt 0.501953 0.807739
vt 0.501953 0.807739
vt 0.594727 0.994076
vt 0.501953 0.994076
vt 0.594727 0.807739
vt 0.501953 0.807739
vt 0.594727 0.994076
vt 0.501953 0.994076
vt 0.594727 0.807739
vt 0.076355 0.048828
vt 0.121948 0.086426
vt 0.121948 0.048828
vt 0.076355 0.010742
vt 0.121948 0.010742
vt 0.076355 0.086426
vt 0.594727 0.807739
vt 0.501953 0.994076
vt 0.594727 0.994076
vt 0.501953 0.807739
vt 0.127197 0.654297
vt 0.245728 0.755981
vt 0.245728 0.654297
vt 0.127197 0.755981
vt 0.076355 0.010742
vt 0.121948 0.048828
vt 0.121948 0.010742
vt 0.076355 0.048828
vt 0.076355 0.048828
vt 0.121948 0.086426
vt 0.121948 0.048828
vt 0.076355 0.086426
vt 0.148193 0.508057
vt 0.198120 0.627441
vt 0.248047 0.508057
vt 0.323975 0.405273
vt 0.297852 0.326172
vt 0.300293 0.405273
vt 0.324707 0.326172
vt 0.336426 0.227051
vt 0.288574 0.227051
vt 0.122559 0.435547
vt 0.001653 0.651855
vt 0.122559 0.651855
vt 0.001653 0.435547
vt 0.122559 0.749023
vt 0.001653 0.749023
vt 0.336426 0.003906
vt 0.288574 0.003906
vt 0.300293 0.437012
vt 0.285156 0.427246
vt 0.285156 0.437012
vt 0.300293 0.427246
vt 0.003326 0.908264
vt 0.122986 0.963257
vt 0.122986 0.908264
vt 0.003326 0.963257
vt 0.000762 0.248047
vt 0.031586 0.333008
vt 0.031586 0.248047
vt 0.000762 0.370605
vt 0.323975 0.405273
vt 0.305420 0.452637
vt 0.322754 0.452637
vt 0.300293 0.405273
vt 0.322510 0.494629
vt 0.304443 0.494629
vt 0.179688 -0.249023
vt 0.194336 -0.271484
vt 0.195557 -0.249023
vt 0.194336 -0.271484
vt 0.179688 -0.249023
vt 0.179688 -0.271484
vt 0.239868 -0.249023
vt 0.163208 -0.271484
vt 0.153076 -0.249023
vt 0.231689 -0.271484
vt 0.125610 0.654541
vt 0.189331 0.728271
vt 0.219604 0.654541
vt 0.219604 0.728271
vt 0.031586 0.333008
vt 0.051422 0.370605
vt 0.051422 0.333008
vt 0.031586 0.370605
vt 0.031586 0.333008
vt 0.051422 0.370605
vt 0.051422 0.333008
vt 0.031586 0.370605
vt 0.127197 0.654297
vt 0.245728 0.755981
vt 0.245728 0.654297
vt 0.127197 0.755981
vt 0.148193 0.508057
vt 0.248047 0.508057
vt 0.198120 0.627441
vt 0.123047 0.436035
vt 0.002369 0.651611
vt 0.123047 0.651611
vt 0.002369 0.436035
vt 0.123047 0.748535
vt 0.002369 0.748535
vt 0.245728 0.654297
vt 0.158813 0.755981
vt 0.245728 0.755981
vt 0.158813 0.654297
vt 0.245728 0.654297
vt 0.158813 0.755981
vt 0.245728 0.755981
vt 0.158813 0.654297
vt 0.245728 0.654297
vt 0.158813 0.755981
vt 0.245728 0.755981
vt 0.158813 0.654297
vt 0.245728 0.654297
vt 0.158813 0.755981
vt 0.245728 0.755981
vt 0.158813 0.654297
vt 0.000762 0.248047
vt 0.031586 0.333008
vt 0.000762 0.370605
vt 0.031586 0.248047
vt 0.003326 0.908264
vt 0.122986 0.963257
vt 0.122986 0.908264
vt 0.003326 0.963257
vt 0.031586 0.248047
vt 0.051422 0.333008
vt 0.051422 0.248047
vt 0.031586 0.333008
vt 0.031586 0.248047
vt 0.051422 0.333008
vt 0.051422 0.248047
vt 0.031586 0.333008
vt 0.207153 0.097656
vt 0.203735 0.115234
vt 0.157349 0.097656
vt 0.194702 0.128418
vt 0.182251 0.133301
vt 0.157349 0.005859
vt 0.207153 0.005859
vt 0.160645 0.115234
vt 0.169800 0.128418
vt 0.001276 0.906738
vt 0.120667 0.793945
vt 0.001276 0.793945
vt 0.120667 0.906738
vt 0.001276 0.906738
vt 0.120667 0.793945
vt 0.120667 0.906738
vt 0.001276 0.793945
vt 0.001276 0.412598
vt 0.101501 0.684326
vt 0.101501 0.412598
vt 0.001276 0.684326
vt 0.001276 0.412598
vt 0.101501 0.684326
vt 0.001276 0.684326
vt 0.101501 0.412598
vt 0.123291 0.908203
vt 0.003195 0.963165
vt 0.123291 0.963165
vt 0.003880 0.963165
vt 0.123779 0.908203
vt 0.123779 0.963165
vt 0.123779 0.908203
vt 0.003880 0.963165
vt 0.003880 0.908203
vt 0.003195 0.963165
vt 0.123291 0.908203
vt 0.003195 0.908203
vt 0.207153 0.097656
vt 0.157349 0.097656
vt 0.203735 0.115234
vt 0.182251 0.133301
vt 0.194702 0.128418
vt 0.157349 0.005859
vt 0.207153 0.005859
vt 0.160645 0.115234
vt 0.169800 0.128418
vt 0.001276 0.412598
vt 0.101501 0.684326
vt 0.101501 0.412598
vt 0.001276 0.684326
vt 0.001276 0.906738
vt 0.120667 0.793945
vt 0.001276 0.793945
vt 0.120667 0.906738
vt 0.001276 0.906738
vt 0.120667 0.793945
vt 0.120667 0.906738
vt 0.001276 0.793945
vt 0.001276 0.412598
vt 0.101501 0.684326
vt 0.001276 0.684326
vt 0.101501 0.412598
vt 0.281982 0.405273
vt 0.259277 0.452637
vt 0.259277 0.405273
vt 0.281982 0.452637
vt 0.281982 0.494629
vt 0.259277 0.494629
vt 0.281982 0.326172
vt 0.259277 0.326172
vt 0.288574 0.227051
vt 0.251221 0.227051
vt 0.251221 0.003906
vt 0.288574 0.003906
vt 0.178833 -0.271484
vt 0.192627 -0.249023
vt 0.178833 -0.249023
vt 0.192627 -0.271484
vt 0.219604 0.654541
vt 0.233887 0.728271
vt 0.233887 0.654053
vt 0.219604 0.728271
vt 0.003078 0.963257
vt 0.123413 0.908264
vt 0.123413 0.963257
vt 0.122986 0.908264
vt 0.003326 0.963257
vt 0.122986 0.963257
vt 0.123413 0.908264
vt 0.003078 0.963257
vt 0.003078 0.908264
vt 0.003326 0.963257
vt 0.122986 0.908264
vt 0.003326 0.908264
vt 0.300293 0.437012
vt 0.285156 0.427246
vt 0.285156 0.437012
vt 0.300293 0.427246
vt 0.281982 0.405273
vt 0.259277 0.452637
vt 0.281982 0.452637
vt 0.259277 0.405273
vt 0.281982 0.494629
vt 0.259277 0.494629
vt 0.281982 0.326172
vt 0.259277 0.326172
vt 0.288574 0.227051
vt 0.251221 0.227051
vt 0.251221 0.003906
vt 0.288574 0.003906
vt 0.245728 0.755371
vt 0.158813 0.992165
vt 0.245728 0.992165
vt 0.158813 0.755371
vt 0.245728 0.755371
vt 0.158813 0.992165
vt 0.245728 0.992165
vt 0.158813 0.755371
vt 0.188843 0.876404
vt 0.167480 0.898682
vt 0.188843 0.898682
vt 0.167480 0.876404
vt 0.300293 0.437012
vt 0.285156 0.427246
vt 0.285156 0.437012
vt 0.300293 0.427246
vt 0.124878 0.425293
vt 0.145142 0.626953
vt 0.145142 0.425293
vt 0.124878 0.626953
vt 0.000762 0.248047
vt 0.031586 0.333008
vt 0.031586 0.248047
vt 0.000762 0.370605
vt 0.300293 0.437012
vt 0.285156 0.427246
vt 0.285156 0.437012
vt 0.300293 0.427246
vt 0.323975 0.405273
vt 0.305420 0.452637
vt 0.300293 0.405273
vt 0.322754 0.452637
vt 0.322510 0.494629
vt 0.304443 0.494629
vt 0.000762 0.248047
vt 0.031586 0.333008
vt 0.000762 0.370605
vt 0.031586 0.248047
vn 0.0000 1.0000 0.0000
vn 0.0460 0.6662 -0.7443
vn 0.0472 0.6671 -0.7434
vn 0.0362 0.6589 -0.7513
vn 0.0568 0.6741 -0.7364
vn -0.0454 0.6698 -0.7411
vn -0.0467 0.6688 -0.7420
vn -0.0364 0.6774 -0.7347
vn -0.0559 0.6609 -0.7484
vn 0.0485 0.6719 0.7390
vn 0.0498 0.6708 0.7399
vn 0.0371 0.6813 0.7310
vn 0.0614 0.6610 0.7478
vn 0.0001 0.8950 -0.4461
vn 0.0001 0.7170 -0.6970
vn 0.0001 0.8865 -0.4627
vn 0.0000 0.9852 -0.1712
vn 0.0001 0.7170 -0.6971
vn -0.0477 0.6681 0.7425
vn -0.0493 0.6693 0.7414
vn -0.0358 0.6591 0.7511
vn -0.0608 0.6778 0.7327
vn 0.9984 0.0000 -0.0557
vn -0.0000 0.9852 0.1712
vn 0.0000 0.9852 0.1711
vn -0.0001 0.7170 0.6971
vn -0.0001 0.7169 0.6971
vn -0.0002 0.7169 0.6971
vn -0.9987 -0.0038 0.0508
vn -0.9960 0.0748 0.0494
vn -0.9984 0.0000 0.0557
vn -0.9962 0.0754 0.0441
vn -0.9965 0.0640 0.0537
vn -0.9964 0.0640 0.0556
vn 0.9973 -0.0474 -0.0556
vn 0.9973 -0.0473 -0.0556
vn -0.9984 0.0022 0.0557
vn -0.9984 0.0000 0.0556
vn -0.9984 -0.0024 0.0557
vn -0.0002 0.0000 1.0000
vn -0.0001 0.7866 0.6174
vn -0.0002 0.7866 0.6174
vn 0.0002 0.0000 -1.0000
vn -0.9972 -0.0498 0.0556
vn -0.0001 0.0000 1.0000
vn 0.0002 0.0001 -1.0000
vn 0.0000 0.0004 -1.0000
vn 0.0004 0.0005 -1.0000
vn 0.0013 -0.0532 -0.9986
vn -0.0009 -0.0532 -0.9986
vn 0.0002 -0.0580 -0.9983
vn -0.0002 -0.0001 1.0000
vn -0.0003 -0.0001 1.0000
vn 0.0002 0.0547 -0.9985
vn 0.0002 0.0670 -0.9977
vn 0.0002 0.0546 -0.9985
vn 0.0002 0.0672 -0.9977
vn 0.0002 0.0230 -0.9997
vn 0.0002 0.1361 -0.9907
vn 0.0002 0.1355 -0.9908
vn 0.0002 0.1245 -0.9922
vn 0.0002 0.1261 -0.9920
vn 0.0009 -0.0508 0.9987
vn -0.0013 -0.0508 0.9987
vn -0.0002 -0.0555 0.9984
vn -0.0002 0.1557 0.9878
vn -0.0002 0.0963 0.9953
vn -0.0002 0.0953 0.9954
vn -0.0002 0.1549 0.9879
vn -0.0002 -0.0473 0.9989
vn -0.0002 0.1452 0.9894
vn -0.0002 0.1462 0.9892
vn -0.0002 0.1023 0.9948
vn -0.0002 0.1009 0.9949
vn 0.6968 0.7162 -0.0389
vn 0.9984 0.0000 -0.0556
vn 0.9992 0.0020 -0.0396
vn 0.9993 0.0001 -0.0382
vn 0.9991 0.0035 -0.0412
vn 0.9993 -0.0013 -0.0376
vn 0.9993 -0.0019 -0.0365
vn 0.9994 -0.0010 -0.0355
usemtl mat_27
s 1
f 1/1/1 3/2/1 2/3/1
f 3/2/1 1/1/1 4/4/1
f 5/5/2 7/6/3 6/7/4
f 7/6/3 5/5/2 8/8/5
f 9/9/6 11/10/7 10/11/8
f 11/10/7 9/9/6 12/12/9
f 13/13/10 15/14/11 14/15/12
f 15/14/11 13/13/10 16/16/13
f 17/17/14 19/18/15 18/19/16
f 20/20/17 18/19/16 21/21/17
f 18/19/16 20/20/17 17/17/14
f 19/18/15 17/17/14 22/22/18
f 23/23/19 25/24/20 24/25/21
f 25/24/20 23/23/19 26/26/22
f 27/27/23 29/28/23 28/29/23
f 29/28/23 27/27/23 30/30/23
f 31/31/24 33/32/25 32/33/25
f 33/32/25 31/31/24 34/34/24
f 35/35/26 37/36/27 36/37/28
f 37/36/27 35/35/26 38/38/26
f 39/39/23 41/40/23 40/41/23
f 42/42/29 44/43/30 43/44/31
f 44/43/30 42/42/29 45/45/32
f 46/46/33 44/43/30 45/45/32
f 44/43/30 46/46/33 47/47/34
f 48/48/23 50/49/23 49/50/23
f 50/49/23 48/48/23 51/51/23
f 52/52/23 50/49/23 53/53/23
f 50/49/23 52/52/23 49/50/23
f 54/54/31 47/47/34 46/46/33
f 47/47/34 54/54/31 55/55/31
f 56/56/31 58/57/31 57/58/31
f 58/57/31 56/56/31 59/59/31
f 60/60/35 62/61/36 61/62/36
f 62/61/36 60/60/35 63/63/35
f 64/64/23 66/65/23 65/66/23
f 66/65/23 64/64/23 67/67/23
f 68/68/37 70/69/31 69/70/38
f 70/69/31 68/68/37 71/71/37
f 72/72/39 70/69/31 73/73/39
f 70/69/31 72/72/39 69/70/38
f 74/74/40 76/75/40 75/76/40
f 77/77/40 79/78/40 78/79/40
f 80/80/40 82/81/40 81/82/40
f 82/81/40 80/80/40 83/83/40
f 84/84/40 86/85/40 85/86/40
f 86/85/40 87/87/40 85/86/40
f 88/88/41 90/89/41 89/90/41
f 90/89/41 88/88/41 91/91/42
f 92/92/41 94/93/41 93/94/41
f 94/93/41 92/92/41 95/95/41
f 96/96/31 98/97/31 97/98/31
f 98/97/31 96/96/31 99/99/31
f 100/100/31 102/101/31 101/102/31
f 103/103/31 105/104/31 104/105/31
f 105/104/31 103/103/31 106/106/31
f 107/107/31 105/104/31 108/108/31
f 105/104/31 107/107/31 104/105/31
f 109/109/40 111/110/40 110/111/40
f 111/110/40 109/109/40 112/112/40
f 113/113/40 115/114/40 114/115/40
f 115/114/40 113/113/40 116/116/40
f 117/117/43 119/118/43 118/119/43
f 119/118/43 117/117/43 120/120/43
f 121/121/43 123/122/43 122/123/43
f 123/122/43 121/121/43 124/124/43
f 125/125/31 127/126/31 126/127/31
f 127/126/31 125/125/31 128/128/31
f 129/129/44 131/130/44 130/131/44
f 131/130/44 129/129/44 132/132/44
f 133/133/40 135/134/40 134/135/40
f 135/134/40 133/133/40 136/136/40
f 137/137/45 139/138/45 138/139/45
f 139/138/45 137/137/45 140/140/45
f 141/141/43 143/142/46 142/143/43
f 143/142/46 145/144/47 144/145/46
f 143/142/46 144/145/46 142/143/43
f 146/146/43 141/141/43 142/143/43
f 146/146/43 147/147/43 141/141/43
f 144/145/46 148/148/46 142/143/43
f 144/145/46 149/149/48 148/148/46
f 150/150/43 152/151/43 151/152/43
f 152/151/43 150/150/43 153/153/43
f 154/154/43 156/155/43 155/156/43
f 156/155/43 154/154/43 157/157/43
f 158/158/43 160/159/43 159/160/43
f 160/159/43 158/158/43 161/161/43
f 162/162/43 164/163/43 163/164/43
f 164/163/43 162/162/43 165/165/43
f 166/166/49 168/167/49 167/168/49
f 169/169/50 171/170/50 170/171/50
f 172/172/51 174/173/51 173/174/51
f 175/175/51 177/176/51 176/177/51
f 178/178/40 180/179/40 179/180/52
f 179/180/52 182/181/40 181/182/40
f 179/180/52 180/179/40 182/181/40
f 183/183/40 180/179/40 178/178/40
f 183/183/40 178/178/40 184/184/40
f 182/181/40 180/179/40 185/185/53
f 182/181/40 185/185/53 186/186/40
f 187/187/40 189/188/40 188/189/40
f 189/188/40 187/187/40 190/190/40
f 191/191/40 193/192/40 192/193/40
f 193/192/40 191/191/40 194/194/40
f 195/195/40 197/196/40 196/197/40
f 197/196/40 195/195/40 198/198/40
f 199/199/40 201/200/40 200/201/40
f 201/200/40 199/199/40 202/202/40
f 203/203/54 205/204/55 204/205/56
f 205/204/55 203/203/54 206/206/57
f 207/207/58 205/204/55 206/206/57
f 205/204/55 207/207/58 208/208/58
f 204/205/56 209/209/59 203/203/54
f 209/209/59 204/205/56 210/210/60
f 210/210/60 211/211/61 209/209/59
f 211/211/61 210/210/60 212/212/62
f 213/213/43 211/211/61 212/212/62
f 211/211/61 213/213/43 214/214/43
f 215/215/31 217/216/31 216/217/31
f 217/216/31 215/215/31 218/218/31
f 219/219/31 221/220/31 220/221/31
f 221/220/31 219/219/31 222/222/31
f 223/223/63 225/224/63 224/225/63
f 226/226/64 228/227/64 227/228/64
f 229/229/65 231/230/65 230/231/65
f 232/232/65 234/233/65 233/234/65
f 235/235/43 237/236/43 236/237/43
f 237/236/43 235/235/43 238/238/43
f 239/239/66 241/240/67 240/241/68
f 241/240/67 239/239/66 242/242/69
f 243/243/70 241/240/67 244/244/70
f 241/240/67 243/243/70 240/241/68
f 245/245/71 242/242/69 239/239/66
f 242/242/69 245/245/71 246/246/72
f 247/247/73 246/246/72 245/245/71
f 246/246/72 247/247/73 248/248/74
f 249/249/40 247/247/73 250/250/40
f 247/247/73 249/249/40 248/248/74
f 251/251/1 253/252/1 252/253/1
f 253/252/1 251/251/1 254/254/1
f 255/255/1 257/256/1 256/257/1
f 257/256/1 255/255/1 258/258/1
f 259/259/1 261/260/1 260/261/1
f 261/260/1 259/259/1 262/262/1
f 263/263/40 265/264/40 264/265/40
f 265/264/40 263/263/40 266/266/40
f 267/267/75 269/268/75 268/269/75
f 269/268/75 267/267/75 270/270/75
f 271/271/76 273/272/76 272/273/76
f 273/272/76 271/271/76 274/274/76
f 275/275/23 277/276/23 276/277/23
f 277/276/23 275/275/23 278/278/23
f 279/279/77 281/280/78 280/281/79
f 281/280/78 279/279/77 282/282/80
f 283/283/81 281/280/78 282/282/80
f 281/280/78 283/283/81 284/284/82
f 285/285/31 287/286/31 286/287/31
f 287/286/31 285/285/31 288/288/31
