# 3ds Max Wavefront OBJ Exporter v0.97b - (c)2007 guruware
# File Created: 01.08.2014 09:30:21

mtllib Pedestal85.mtl

#
# object Mesh_0085
#

v  0.050262 0.175171 0.118042
v  0.050262 1.063477 0.118042
v  -0.050262 1.063477 0.118042
v  -0.050262 0.175171 0.118042
v  0.091492 0.175171 -0.125854
v  0.091492 1.218750 -0.125854
v  0.091492 1.218750 0.082397
v  0.091492 0.175171 0.082397
v  -0.091492 0.175171 -0.125854
v  -0.091492 1.218750 -0.125854
v  -0.091492 0.175171 0.082397
v  -0.091492 1.218750 0.082397
v  0.065491 1.063477 0.082397
v  0.065491 0.175171 0.082397
v  0.019272 1.142578 0.082397
v  -0.019272 1.142578 0.082397
v  -0.052338 1.110352 0.082397
v  0.039001 1.097656 0.118042
v  -0.039001 1.097656 0.118042
v  0.052338 1.110352 0.082397
v  -0.065491 0.175171 0.082397
v  -0.065491 1.063477 0.082397
v  0.012436 1.119141 0.118042
v  -0.012436 1.119141 0.118042
v  0.017929 1.052734 0.118042
v  0.017929 1.073242 0.118042
v  0.017929 1.073242 0.356445
v  0.017929 1.052734 0.356445
v  0.000005 1.083008 0.118042
v  0.000005 1.083008 0.356445
v  -0.017929 1.073242 0.118042
v  -0.017929 1.073242 0.356445
v  -0.017929 1.052734 0.118042
v  -0.017929 1.052734 0.356445
v  0.000006 1.041992 0.118042
v  0.000006 1.041992 0.356445
v  0.000005 1.062500 0.361572
v  0.141235 0.130127 0.137329
v  -0.141235 0.130127 0.137329
v  -0.172974 0.084961 0.169067
v  0.172974 0.084961 0.169067
v  -0.141235 0.130127 -0.145020
v  0.141235 0.130127 -0.145020
v  0.172974 0.084961 -0.176758
v  -0.172974 0.084961 -0.176758
v  0.121948 0.175171 -0.125854
v  -0.121948 0.175171 -0.125854
v  -0.121948 0.175171 0.118042
v  0.121948 0.175171 0.118042
v  -0.222168 -0.000006 0.218262
v  0.222168 0.000000 0.218262
v  0.222168 0.039825 0.218262
v  -0.222168 0.039825 0.218262
v  0.222168 0.000000 -0.226074
v  -0.222168 0.000000 -0.226074
v  -0.222168 0.039825 -0.226074
v  0.222168 0.039825 -0.226074
v  -0.140015 1.218750 -0.143921
v  0.140015 1.218750 -0.143921
v  0.140015 1.218750 0.136108
v  -0.140015 1.218750 0.136108
v  -0.198975 1.338867 0.195068
v  0.198975 1.338867 0.195068
v  0.198975 1.338867 -0.202881
v  -0.198975 1.338867 -0.202881
v  0.140015 1.251953 0.136108
v  -0.140015 1.251953 0.136108
v  0.140015 1.251953 -0.143921
v  -0.140015 1.251953 -0.143921
v  0.222168 1.299805 0.218262
v  -0.222168 1.299805 0.218262
v  0.222168 1.299805 -0.226074
v  -0.222168 1.299805 -0.226074
# 73 vertices

vn 0.000000 0.000000 1.000000
vn 1.000000 0.000000 -0.000000
vn 0.000000 0.000000 -1.000000
vn -1.000000 0.000000 -0.000000
vn 0.919592 0.000000 0.392874
vn 0.907942 0.129884 0.398462
vn 0.908894 0.152092 0.388303
vn 0.875883 0.245772 0.415241
vn 0.878057 0.264776 0.398634
vn 0.581647 0.648353 0.491248
vn 0.597244 0.612797 0.517475
vn 0.580675 0.650431 0.489648
vn 0.559680 0.692047 0.455883
vn 0.000000 0.835555 0.549406
vn -0.620204 0.636355 0.458693
vn -0.759432 0.476227 0.443249
vn -0.746207 0.471001 0.470461
vn -0.531598 0.657323 0.534163
vn -0.912778 0.121516 0.389962
vn -0.906155 0.138502 0.399626
vn -0.919592 0.000000 0.392874
vn 0.478440 0.878120 0.000002
vn 0.000129 1.000000 0.000001
vn 0.000107 1.000000 -0.000001
vn 0.478423 0.878130 -0.000000
vn -0.478216 0.878242 -0.000000
vn -0.478233 0.878233 -0.000002
vn -0.513823 -0.857896 -0.000002
vn -0.513822 -0.857897 -0.000002
vn -0.513841 -0.857886 -0.000000
vn -0.513842 -0.857885 -0.000000
vn 0.514095 -0.857733 0.000000
vn 0.514096 -0.857733 -0.000000
vn 0.514077 -0.857744 0.000002
vn 0.514076 -0.857745 0.000002
vn 0.212394 -0.119344 0.969869
vn 0.000057 -0.003030 0.999995
vn 0.000028 -0.242536 0.970142
vn 0.204764 0.121859 0.971196
vn 0.000020 0.242536 0.970142
vn -0.204683 0.121820 0.971218
vn -0.212305 -0.119310 0.969893
vn 0.000000 0.511564 0.859245
vn 0.000000 0.574946 0.818192
vn 0.000000 0.510862 -0.859662
vn 0.000000 0.510862 -0.859663
vn 0.000000 0.574946 -0.818192
vn -0.859245 0.511564 -0.000000
vn -0.859289 0.511490 -0.000000
vn -0.818192 0.574946 -0.000000
vn 0.000000 1.000000 -0.000000
vn 0.859289 0.511490 -0.000000
vn 0.859245 0.511564 -0.000000
vn 0.818192 0.574946 -0.000000
vn 0.000007 -1.000000 -0.000007
vn 0.000014 -1.000000 -0.000014
vn 0.000000 -1.000000 -0.000000
vn 0.000000 0.393619 0.919274
vn 0.000000 0.736851 0.676056
vn 0.000000 0.736850 0.676056
vn 0.000000 0.391510 -0.920174
vn 0.000000 0.737684 -0.675146
vn -0.919274 0.393619 -0.000000
vn -0.676056 0.736851 -0.000000
vn -0.676056 0.736850 -0.000000
vn 0.919274 0.393619 -0.000000
vn 0.676056 0.736851 -0.000000
vn 0.000000 -0.864105 0.503312
vn 0.503312 -0.864105 -0.000000
vn 0.000000 -0.864105 -0.503312
vn -0.503312 -0.864105 -0.000000
vn 0.000000 0.510539 0.859855
vn 0.859855 0.510539 -0.000000
vn 0.000000 0.510539 -0.859855
vn -0.859855 0.510539 -0.000000
# 75 vertex normals

vt 0.560547 0.007813 0.000000
vt 0.560547 0.679199 0.000000
vt 0.484375 0.679199 0.000000
vt 0.484375 0.007813 0.000000
vt 0.303711 0.007813 0.000000
vt 0.303711 0.796875 0.000000
vt 0.146118 0.796875 0.000000
vt 0.146118 0.007813 0.000000
vt 0.441895 0.007813 0.000000
vt 0.441895 0.796875 0.000000
vt 0.126587 0.679199 0.000000
vt 0.126587 0.007813 0.000000
vt 0.091553 0.739014 0.000000
vt 0.007835 0.796875 0.000000
vt 0.062439 0.739014 0.000000
vt 0.037415 0.715088 0.000000
vt 0.551758 0.705566 0.000000
vt 0.492920 0.705566 0.000000
vt 0.116577 0.715088 0.000000
vt 0.007835 0.007813 0.000000
vt 0.027466 0.007813 0.000000
vt 0.027466 0.679199 0.000000
vt 0.531250 0.721924 0.000000
vt 0.512695 0.721924 0.000000
vt 0.589355 0.007813 0.000000
vt 0.589355 0.682129 0.000000
vt 0.575195 0.724121 0.000000
vt 0.541504 0.752319 0.000000
vt 0.502930 0.752319 0.000000
vt 0.469238 0.724121 0.000000
vt 0.455078 0.682129 0.000000
vt 0.455078 0.007813 0.000000
vt 0.429688 0.913818 0.000000
vt 0.429688 0.929443 0.000000
vt 0.249390 0.929443 0.000000
vt 0.249390 0.913818 0.000000
vt 0.429688 0.945129 0.000000
vt 0.249390 0.945129 0.000000
vt 0.429688 0.960785 0.000000
vt 0.249390 0.960785 0.000000
vt 0.429688 0.976440 0.000000
vt 0.249390 0.976440 0.000000
vt 0.429688 0.992096 0.000000
vt 0.249390 0.992096 0.000000
vt 0.429688 0.898132 0.000000
vt 0.249390 0.898132 0.000000
vt 0.236328 0.968887 0.000000
vt 0.220703 0.976807 0.000000
vt 0.220703 0.961121 0.000000
vt 0.236328 0.984413 0.000000
vt 0.220703 0.992172 0.000000
vt 0.205200 0.984413 0.000000
vt 0.205200 0.968887 0.000000
vt 0.662598 0.466309 0.000000
vt 0.876465 0.466309 0.000000
vt 0.900391 0.424316 0.000000
vt 0.638672 0.424316 0.000000
vt 0.007835 0.992180 0.000000
vt 0.192261 0.992180 0.000000
vt 0.192261 0.807739 0.000000
vt 0.007835 0.807739 0.000000
vt 0.937500 0.343750 0.000000
vt 0.601563 0.343750 0.000000
vt 0.601563 0.374023 0.000000
vt 0.937500 0.374023 0.000000
vt 0.937500 0.007813 0.000000
vt 0.601563 0.007813 0.000000
vt 0.677246 0.503174 0.000000
vt 0.861816 0.503174 0.000000
vt 0.664063 0.780396 0.000000
vt 0.452393 0.780396 0.000000
vt 0.452393 0.992180 0.000000
vt 0.664063 0.992180 0.000000
vt 0.974609 0.691162 0.000000
vt 0.673828 0.691162 0.000000
vt 0.673828 0.992104 0.000000
vt 0.974609 0.992104 0.000000
vt 0.930176 0.560059 0.000000
vt 0.718262 0.560059 0.000000
vt 0.718262 0.584961 0.000000
vt 0.930176 0.584961 0.000000
vt 0.656250 0.656738 0.000000
vt 0.992188 0.656738 0.000000
# 83 texture coords

g Mesh_0085
usemtl Tex_0085_0_dds
s 1
f 1/1/1 2/2/1 3/3/1 
s 2
f 3/3/1 4/4/1 1/1/1 
s 3
f 5/5/2 6/6/2 7/7/2 
s 4
f 7/7/2 8/8/2 5/5/2 
s 5
f 5/9/3 9/5/3 10/6/3 
s 6
f 10/6/3 6/10/3 5/9/3 
s 7
f 9/5/4 11/8/4 12/7/4 
s 8
f 12/7/4 10/6/4 9/5/4 
s 9
f 8/8/1 7/7/1 13/11/1 
s 10
f 13/11/1 14/12/1 8/8/1 
s 11
f 15/13/1 7/7/1 12/14/1 
s 12
f 12/14/1 16/15/1 15/13/1 
s 13
f 12/14/1 17/16/1 16/15/1 
s 14
f 18/17/1 19/18/1 3/3/1 
s 15
f 3/3/1 2/2/1 18/17/1 
s 16
f 7/7/1 20/19/1 13/11/1 
s 17
f 11/20/1 21/21/1 22/22/1 
s 18
f 22/22/1 12/14/1 11/20/1 
s 19
f 12/14/1 22/22/1 17/16/1 
s 20
f 23/23/1 24/24/1 19/18/1 
s 21
f 19/18/1 18/17/1 23/23/1 
s 22
f 7/7/1 15/13/1 20/19/1 
s 23
f 14/25/5 13/26/6 2/2/7 
s 24
f 2/2/7 1/1/5 14/25/5 
s 25
f 13/26/6 20/27/8 18/17/9 
s 26
f 18/17/9 2/2/7 13/26/6 
s 27
f 20/27/10 15/28/11 23/23/12 
s 28
f 23/23/12 18/17/13 20/27/10 
s 29
f 16/29/14 24/24/14 23/23/14 
s 30
f 23/23/14 15/28/14 16/29/14 
s 31
f 16/29/15 17/30/16 19/18/17 
s 32
f 19/18/17 24/24/18 16/29/18 
s 33
f 17/30/16 22/31/19 3/3/20 
s 34
f 3/3/20 19/18/17 17/30/16 
s 35
f 22/31/19 21/32/21 4/4/21 
s 36
f 4/4/21 3/3/20 22/31/19 
s 37
f 25/33/2 26/34/2 27/35/2 
s 38
f 27/35/2 28/36/2 25/33/2 
s 39
f 26/34/22 29/37/23 30/38/24 
s 40
f 30/38/24 27/35/25 26/34/22 
s 41
f 29/37/23 31/39/26 32/40/27 
s 42
f 32/40/27 30/38/24 29/37/23 
s 43
f 31/39/4 33/41/4 34/42/4 
s 44
f 34/42/4 32/40/4 31/39/4 
s 45
f 33/41/28 35/43/29 36/44/30 
s 46
f 36/44/30 34/42/31 33/41/28 
s 47
f 35/45/32 25/33/33 28/36/34 
s 48
f 28/36/34 36/46/35 35/45/32 
s 49
f 28/47/36 37/48/37 36/49/38 
s 50
f 28/47/36 27/50/39 37/48/37 
s 51
f 30/51/40 32/52/41 37/48/37 
s 52
f 27/50/39 30/51/40 37/48/37 
s 53
f 37/48/37 34/53/42 36/49/38 
s 54
f 37/48/37 32/52/41 34/53/42 
s 55
f 38/54/43 39/55/43 40/56/44 
s 56
f 40/56/44 41/57/44 38/54/43 
s 57
f 42/54/45 43/55/46 44/56/47 
s 58
f 44/56/47 45/57/47 42/54/45 
s 59
f 39/55/48 42/54/49 45/57/50 
s 60
f 45/57/50 40/56/50 39/55/48 
s 61
f 46/58/51 47/59/51 48/60/51 
s 62
f 48/60/51 49/61/51 46/58/51 
s 63
f 43/55/52 38/54/53 41/57/54 
s 64
f 41/57/54 44/56/54 43/55/52 
s 65
f 50/62/1 51/63/1 52/64/1 
s 66
f 52/64/1 53/65/1 50/62/1 
s 67
f 54/62/3 55/63/3 56/64/3 
s 68
f 56/64/3 57/65/3 54/62/3 
s 69
f 55/63/4 50/62/4 53/65/4 
s 70
f 53/65/4 56/64/4 55/63/4 
s 71
f 51/63/2 54/62/2 57/65/2 
s 72
f 57/65/2 52/64/2 51/63/2 
s 73
f 51/63/55 50/62/56 55/66/55 
s 74
f 55/66/55 54/67/57 51/63/55 
s 75
f 49/68/58 48/69/58 39/55/43 
s 76
f 39/55/43 38/54/43 49/68/58 
s 77
f 53/65/59 52/64/59 41/57/60 
s 78
f 41/57/60 40/56/60 53/65/59 
s 79
f 47/68/61 46/69/61 43/55/46 
s 80
f 43/55/46 42/54/45 47/68/61 
s 81
f 57/65/62 56/64/62 45/57/62 
s 82
f 45/57/62 44/56/62 57/65/62 
s 83
f 48/69/63 47/68/63 42/54/49 
s 84
f 42/54/49 39/55/48 48/69/63 
s 85
f 56/64/64 53/65/64 40/56/65 
s 86
f 40/56/65 45/57/64 56/64/64 
s 87
f 46/69/66 49/68/66 38/54/53 
s 88
f 38/54/53 43/55/52 46/69/66 
s 89
f 52/64/67 57/65/67 44/56/67 
s 90
f 44/56/67 41/57/67 52/64/67 
s 91
f 58/70/57 59/71/57 60/72/57 
s 92
f 60/72/57 61/73/57 58/70/57 
s 93
f 62/74/51 63/75/51 64/76/51 
s 94
f 64/76/51 65/77/51 62/74/51 
s 95
f 61/78/1 60/79/1 66/80/1 
s 96
f 66/80/1 67/81/1 61/78/1 
s 97
f 60/79/2 59/78/2 68/81/2 
s 98
f 68/81/2 66/80/2 60/79/2 
s 99
f 59/78/3 58/79/3 69/80/3 
s 100
f 69/80/3 68/81/3 59/78/3 
s 101
f 58/79/4 61/78/4 67/81/4 
s 102
f 67/81/4 69/80/4 58/79/4 
s 103
f 67/81/68 66/80/68 70/82/68 
s 104
f 70/82/68 71/83/68 67/81/68 
s 105
f 66/80/69 68/81/69 72/83/69 
s 106
f 72/83/69 70/82/69 66/80/69 
s 107
f 68/81/70 69/80/70 73/82/70 
s 108
f 73/82/70 72/83/70 68/81/70 
s 109
f 69/80/71 67/81/71 71/83/71 
s 110
f 71/83/71 73/82/71 69/80/71 
s 111
f 71/83/72 70/82/72 63/75/72 
s 112
f 63/75/72 62/74/72 71/83/72 
s 113
f 70/82/73 72/83/73 64/74/73 
s 114
f 64/74/73 63/75/73 70/82/73 
s 115
f 72/83/74 73/82/74 65/75/74 
s 116
f 65/75/74 64/74/74 72/83/74 
s 117
f 73/82/75 71/83/75 62/74/75 
s 118
f 62/74/75 65/75/75 73/82/75 
# 0 polygons - 118 triangles