# Blender v2.76 (sub 0) OBJ File: ''
# www.blender.org
mtllib Open Book.mtl
o Model001_24_papers_0.1_5_0.002
v -0.231285 0.057326 -0.123449
v -0.231285 0.057326 0.123449
v -0.160021 0.071896 0.123449
v -0.160021 0.071896 -0.123449
v -0.038320 0.072703 0.123449
v -0.038320 0.072703 -0.123449
v 0.000000 0.048586 0.123449
v 0.000000 0.048586 -0.123449
v 0.038481 0.072703 0.123449
v 0.038481 0.072703 -0.123449
v 0.160653 0.072160 0.123449
v 0.160653 0.072160 -0.123449
v 0.231285 0.057326 0.123449
v 0.231285 0.057326 -0.123449
v -0.160021 0.019564 0.156790
v -0.260146 0.019549 0.156790
v -0.260146 -0.000720 0.156790
v -0.047426 -0.000602 0.156790
v 0.000000 0.019549 0.156790
v -0.027862 0.006742 0.156790
v -0.014820 0.000940 0.156790
v -0.000132 -0.001498 0.156790
v 0.014644 0.001248 0.156790
v 0.027113 0.005890 0.156790
v 0.048043 -0.000632 0.156790
v 0.160550 0.019564 0.156790
v 0.260146 -0.000720 0.156790
v 0.260146 0.019549 0.156790
v 0.260146 -0.000720 0.156790
v 0.260146 -0.000720 -0.156790
v 0.260146 0.019549 -0.156790
v 0.260146 0.019549 0.156790
v 0.160550 0.019564 -0.156790
v 0.260146 0.019549 -0.156790
v 0.260146 -0.000720 -0.156790
v 0.048043 -0.000632 -0.156790
v 0.000000 0.019549 -0.156790
v 0.027113 0.005890 -0.156790
v 0.014644 0.001248 -0.156790
v -0.000132 -0.001498 -0.156790
v -0.014820 0.000940 -0.156790
v -0.027862 0.006742 -0.156790
v -0.047426 -0.000602 -0.156790
v -0.160021 0.019564 -0.156790
v -0.260146 -0.000720 -0.156790
v -0.260146 0.019549 -0.156790
v -0.260146 -0.000720 -0.156790
v -0.260146 -0.000720 0.156790
v -0.260146 0.019549 0.156790
v -0.260146 0.019549 -0.156790
v -0.231285 0.057326 0.123449
v -0.250291 0.019564 0.143248
v -0.160021 0.019564 0.143248
v -0.160021 0.071896 0.123449
v -0.038320 0.072703 0.123449
v 0.000000 0.019564 0.143248
v 0.000000 0.048586 0.123449
v 0.250291 0.019564 0.143248
v 0.250291 0.019564 -0.143248
v 0.231285 0.057326 -0.123449
v 0.231285 0.057326 0.123449
v 0.231285 0.057326 -0.123449
v 0.250291 0.019564 -0.143248
v 0.160550 0.019564 -0.143248
v 0.160653 0.072160 -0.123449
v 0.038481 0.072703 -0.123449
v 0.000000 0.019564 -0.143248
v 0.000000 0.048586 -0.123449
v 0.000000 0.019564 -0.143248
v -0.038320 0.072703 -0.123449
v -0.160021 0.019564 -0.143248
v -0.160021 0.071896 -0.123449
v -0.231285 0.057326 -0.123449
v -0.250291 0.019564 -0.143248
v -0.250291 0.019564 -0.143248
v -0.250291 0.019564 0.143248
v -0.231285 0.057326 0.123449
v -0.231285 0.057326 -0.123449
v 0.000000 0.019564 0.143248
v 0.038481 0.072703 0.123449
v 0.000000 0.048586 0.123449
v 0.160550 0.019564 0.143248
v 0.160653 0.072160 0.123449
v 0.231285 0.057326 0.123449
v 0.250291 0.019564 0.143248
v -0.047426 -0.000602 -0.156790
v -0.260146 -0.000720 0.156790
v -0.260146 -0.000720 -0.156790
v 0.014644 0.001248 -0.156790
v 0.014644 0.001248 0.156790
v -0.000132 -0.001498 -0.156790
v -0.014820 0.000940 -0.156790
v -0.014820 0.000940 0.156790
v -0.027862 0.006742 0.156790
v -0.027862 0.006742 -0.156790
v 0.048043 -0.000632 -0.156790
v 0.027113 0.005890 0.156790
v 0.027113 0.005890 -0.156790
v 0.260146 -0.000720 -0.156790
v 0.260146 -0.000720 0.156790
v -0.250291 0.019564 0.143248
v -0.260146 0.019549 0.156790
v -0.160021 0.019564 0.156790
v -0.260146 0.019549 -0.156790
v -0.160021 0.019564 0.143248
v -0.250291 0.019564 -0.143248
v 0.000000 0.019549 0.156790
v -0.160021 0.019564 -0.156790
v 0.000000 0.019564 0.143248
v -0.160021 0.019564 -0.143248
v 0.000000 0.019549 -0.156790
v 0.160550 0.019564 0.143248
v 0.160550 0.019564 0.156790
v 0.000000 0.019564 -0.143248
v 0.250291 0.019564 0.143248
v 0.260146 0.019549 0.156790
v 0.160550 0.019564 -0.143248
v 0.160550 0.019564 -0.156790
v 0.250291 0.019564 -0.143248
v 0.260146 0.019549 -0.156790
vt 0.013813 0.017250
vt 0.236813 0.017250
vt 0.236813 0.086250
vt 0.013813 0.086250
vt 0.236813 0.202250
vt 0.013813 0.202250
vt 0.236813 0.245250
vt 0.013813 0.245250
vt 0.236813 0.288250
vt 0.013813 0.288250
vt 0.236813 0.405250
vt 0.012812 0.405250
vt 0.236813 0.474250
vt 0.013813 0.474250
vt 0.757812 0.386250
vt 0.757812 0.474250
vt 0.747813 0.474250
vt 0.747813 0.288250
vt 0.757812 0.246250
vt 0.751813 0.270250
vt 0.748812 0.259250
vt 0.747813 0.246250
vt 0.748812 0.233250
vt 0.750812 0.222250
vt 0.747813 0.204250
vt 0.757812 0.105250
vt 0.747813 0.017250
vt 0.757812 0.017250
vt 0.987813 0.474250
vt 0.987813 0.463250
vt 0.747813 0.463250
vt 0.987813 0.105250
vt 0.987813 0.018250
vt 0.978813 0.018250
vt 0.978813 0.204250
vt 0.987813 0.246250
vt 0.981812 0.222250
vt 0.979813 0.233250
vt 0.977813 0.246250
vt 0.979813 0.259250
vt 0.981812 0.270250
vt 0.978813 0.288250
vt 0.987813 0.386250
vt 0.978813 0.474250
vt 0.987813 0.029250
vt 0.747813 0.029250
vt 0.747813 0.018250
vt 0.348812 0.551250
vt 0.376812 0.493250
vt 0.238813 0.493250
vt 0.239812 0.573250
vt 0.096813 0.575250
vt 0.037812 0.493250
vt 0.043813 0.550250
vt 0.021812 0.492250
vt 0.415812 0.492250
vt 0.386813 0.557250
vt 0.053813 0.558250
vt 0.349813 0.551250
vt 0.376812 0.492250
vt 0.240812 0.492250
vt 0.241812 0.573250
vt 0.097813 0.574250
vt 0.043813 0.549250
vt 0.037812 0.492250
vt 0.239812 0.492250
vt 0.240812 0.572250
vt 0.038813 0.493250
vt 0.098813 0.575250
vt 0.044812 0.550250
vt 0.241812 0.493250
vt 0.242812 0.573250
vt 0.350812 0.551250
vt 0.377813 0.493250
vt 0.988813 0.288250
vt 0.747813 0.475250
vt 0.988813 0.475250
vt 0.988813 0.233250
vt 0.747813 0.233250
vt 0.988813 0.246250
vt 0.988813 0.259250
vt 0.747813 0.259250
vt 0.747813 0.271250
vt 0.988813 0.271250
vt 0.988813 0.204250
vt 0.747813 0.223250
vt 0.988813 0.223250
vt 0.988813 0.018250
vt 0.977813 0.466250
vt 0.988813 0.386250
vt 0.977813 0.386250
vt 0.757812 0.466250
vt 0.747813 0.387250
vt 0.757812 0.387250
vt 0.977813 0.105250
vt 0.988813 0.105250
vt 0.977813 0.027250
vt 0.757812 0.106250
vt 0.747813 0.106250
vt 0.757812 0.027250
vn -0.346100 0.817300 -0.460700
vn -0.534900 0.700500 0.472400
vn -0.116300 0.885000 0.450900
vn -0.069500 0.889800 -0.450900
vn 0.172300 0.826000 0.536600
vn 0.281500 0.795300 -0.536900
vn 0.135300 0.909500 0.393100
vn -0.133300 0.909700 -0.393200
vn -0.281300 0.795300 0.537000
vn -0.172800 0.825800 -0.536800
vn 0.070100 0.889500 0.451600
vn 0.118500 0.884300 -0.451600
vn 0.349000 0.816100 0.460700
vn 0.536400 0.699400 -0.472300
vn -0.000000 0.707000 0.707200
vn -0.666900 0.666300 0.333500
vn -0.333000 -0.666800 0.666800
vn 0.167000 -0.681900 0.712200
vn 0.000000 0.447100 0.894500
vn -0.134100 -0.802800 0.581000
vn -0.204600 -0.804600 0.557500
vn 0.056400 -0.826600 0.559900
vn 0.244700 -0.794400 0.556000
vn -0.070500 -0.816200 0.573400
vn -0.070700 -0.700000 0.710700
vn 0.666600 -0.333400 0.666700
vn 0.302300 0.904200 0.301700
vn 0.666600 -0.333300 0.666700
vn 0.333100 -0.666700 -0.666800
vn 0.666900 0.666300 -0.333500
vn 0.000000 0.707000 -0.707200
vn 0.333100 -0.666700 -0.666700
vn -0.141000 -0.689200 -0.710700
vn -0.000000 0.447100 -0.894500
vn 0.114700 -0.811200 -0.573500
vn 0.198500 -0.807100 -0.556000
vn -0.040500 -0.827600 -0.559900
vn -0.272200 -0.784300 -0.557500
vn 0.086100 -0.809400 -0.581000
vn 0.083700 -0.697000 -0.712200
vn -0.666600 -0.333300 -0.666800
vn -0.302300 0.904200 -0.301700
vn -0.666600 -0.333400 -0.666800
vn -0.333000 -0.666700 0.666800
vn -0.176700 0.968600 0.174800
vn -0.012700 0.774400 0.632500
vn 0.000200 0.738500 0.674300
vn 0.135200 0.909500 0.393200
vn 0.372700 0.909400 0.184800
vn 0.176700 0.968600 -0.174800
vn 0.536400 0.699400 -0.472400
vn 0.012900 0.774100 -0.632900
vn 0.118600 0.884300 -0.451500
vn 0.000200 0.738500 -0.674300
vn -0.133400 0.909700 -0.393200
vn 0.281600 0.795300 -0.536800
vn -0.133300 0.909800 -0.393100
vn -0.012700 0.774400 -0.632500
vn -0.069500 0.889900 -0.450900
vn -0.372600 0.909400 -0.184800
vn -0.372700 0.909400 -0.184800
vn -0.281200 0.795300 0.537000
vn 0.135100 0.909500 0.393200
vn 0.012900 0.774100 0.632900
vn 0.070000 0.889500 0.451600
vn 0.372600 0.909400 0.184800
vn -0.666600 -0.333300 -0.666700
vn 0.198600 -0.807100 -0.556000
vn 0.244800 -0.794300 0.556000
vn 0.056500 -0.826600 0.559900
vn -0.040300 -0.827600 -0.559900
vn -0.272100 -0.784300 -0.557500
vn -0.134000 -0.802800 0.581000
vn 0.086100 -0.809300 -0.581000
vn -0.140900 -0.689300 -0.710700
vn -0.070700 -0.816200 0.573400
vn 0.114700 -0.811200 -0.573400
vn -0.666900 0.666400 0.333500
vn 0.666900 0.666400 -0.333500
usemtl Model001_Material001.027
s 1
f 1/1/1 2/2/2 3/3/3
f 4/4/4 1/1/1 3/3/3
f 4/4/4 3/3/3 5/5/5
f 5/5/5 6/6/6 4/4/4
f 6/6/6 5/5/5 7/7/7
f 7/7/7 8/8/8 6/6/6
f 8/8/8 7/7/7 9/9/9
f 9/9/9 10/10/10 8/8/8
f 10/10/10 9/9/9 11/11/11
f 11/11/11 12/12/12 10/10/10
f 12/12/12 11/11/11 13/13/13
f 13/13/13 14/14/14 12/12/12
f 15/15/15 16/16/16 17/17/17
f 17/17/17 18/18/18 15/15/15
f 19/19/19 15/15/15 18/18/18
f 18/18/18 20/20/20 19/19/19
f 20/20/20 21/21/21 19/19/19
f 21/21/21 22/22/22 19/19/19
f 22/22/22 23/23/23 19/19/19
f 23/23/23 24/24/24 19/19/19
f 19/19/19 24/24/24 25/25/25
f 25/25/25 26/26/15 19/19/19
f 26/26/15 25/25/25 27/27/26
f 27/27/26 28/28/27 26/26/15
f 29/17/28 30/29/29 31/30/30
f 31/30/30 32/31/27 29/17/28
f 33/32/31 34/33/30 35/34/32
f 35/34/32 36/35/33 33/32/31
f 37/36/34 33/32/31 36/35/33
f 36/35/33 38/37/35 37/36/34
f 38/37/35 39/38/36 37/36/34
f 39/38/36 40/39/37 37/36/34
f 40/39/37 41/40/38 37/36/34
f 41/40/38 42/41/39 37/36/34
f 37/36/34 42/41/39 43/42/40
f 43/42/40 44/43/31 37/36/34
f 44/43/31 43/42/40 45/44/41
f 45/44/41 46/29/42 44/43/31
f 47/45/43 48/46/44 49/47/16
f 49/47/16 50/33/42 47/45/43
f 51/48/2 52/49/45 53/50/46
f 53/50/46 54/51/3 51/48/2
f 55/52/5 54/51/3 53/50/46
f 53/50/46 56/53/47 55/52/5
f 56/53/47 57/54/48 55/52/5
f 58/55/49 59/56/50 60/57/51
f 60/57/51 61/58/13 58/55/49
f 62/59/51 63/60/50 64/61/52
f 64/61/52 65/62/53 62/59/51
f 66/63/10 65/62/53 64/61/52
f 64/61/52 67/53/54 66/63/10
f 67/53/54 68/64/55 66/63/10
f 69/65/54 70/63/56 68/64/57
f 70/63/56 69/65/54 71/66/58
f 71/66/58 72/67/59 70/63/56
f 73/59/1 72/67/59 71/66/58
f 74/60/60 73/59/1 71/66/58
f 75/55/61 76/56/45 77/57/2
f 77/57/2 78/58/1 75/55/61
f 79/68/47 80/69/62 81/70/63
f 80/69/62 79/68/47 82/71/64
f 82/71/64 83/72/65 80/69/62
f 84/73/13 83/72/65 82/71/64
f 82/71/64 85/74/66 84/73/13
f 86/75/40 18/18/18 87/76/44
f 87/76/44 88/77/67 86/75/40
f 89/78/68 90/79/69 22/22/70
f 22/22/70 91/80/71 89/78/68
f 92/81/72 93/82/21 94/83/73
f 94/83/73 95/84/74 92/81/72
f 96/85/75 25/25/25 97/86/76
f 97/86/76 98/87/77 96/85/75
f 98/87/77 97/86/76 90/79/69
f 90/79/69 89/78/68 98/87/77
f 91/80/71 22/22/70 93/82/21
f 93/82/21 92/81/72 91/80/71
f 95/84/74 94/83/73 18/18/18
f 18/18/18 86/75/40 95/84/74
f 99/88/32 100/47/26 25/25/25
f 25/25/25 96/85/75 99/88/32
f 101/89/45 102/77/78 103/90/15
f 104/76/42 102/77/78 101/89/45
f 103/90/15 105/91/46 101/89/45
f 101/89/45 106/92/60 104/76/42
f 105/91/46 103/90/15 107/80/19
f 108/93/31 104/76/42 106/92/60
f 107/80/19 109/39/47 105/91/46
f 106/92/60 110/94/58 108/93/31
f 111/22/34 108/93/31 110/94/58
f 112/95/64 109/39/47 107/80/19
f 107/80/19 113/96/15 112/95/64
f 110/94/58 114/19/54 111/22/34
f 115/97/66 112/95/64 113/96/15
f 113/96/15 116/88/27 115/97/66
f 111/22/34 114/19/54 117/98/52
f 117/98/52 118/99/31 111/22/34
f 119/100/50 115/97/66 116/88/27
f 118/99/31 117/98/52 119/100/50
f 116/88/27 120/47/79 119/100/50
f 119/100/50 120/47/79 118/99/31
