# Blender v2.78 (sub 0) OBJ File: 'botella5.blend'
# www.blender.org
mtllib botella5-collision.mtl.mtl
o Cylinder_Cylinder.001
v 0.000000 1.512381 -0.095608
v 0.078742 1.358882 -0.108378
v 0.000000 1.358882 -0.133963
v 0.056197 1.512381 -0.077349
v 0.127407 1.358882 -0.041397
v 0.090930 1.512381 -0.029544
v 0.127407 1.358882 0.041398
v 0.090930 1.512381 0.029546
v 0.078742 1.358882 0.108379
v 0.056197 1.512381 0.077350
v 0.000000 1.358882 0.133963
v 0.000000 1.512381 0.095610
v -0.078742 1.358882 0.108379
v -0.056197 1.512381 0.077350
v -0.127407 1.358882 0.041398
v -0.090930 1.512381 0.029546
v -0.127407 1.358882 -0.041397
v -0.090930 1.512381 -0.029544
v -0.078742 1.358882 -0.108379
v -0.056197 1.512381 -0.077349
v 0.513630 -0.420172 0.166888
v -0.513630 -0.420172 0.166888
v -0.317441 -0.420171 -0.436919
v -0.093817 0.858782 -0.129127
v -0.151798 0.858782 -0.049322
v -0.151798 0.858782 0.049322
v -0.093817 0.858782 0.129127
v -0.000000 0.858782 0.159610
v 0.093817 0.858782 0.129127
v 0.151798 0.858782 0.049322
v 0.151798 0.858782 -0.049322
v 0.093817 0.858782 -0.129127
v -0.000000 0.858783 -0.159610
v -0.152130 0.412706 -0.209391
v -0.000000 0.412706 -0.258821
v -0.246154 0.412706 -0.079979
v -0.246154 0.412706 0.079980
v -0.152130 0.412706 0.209392
v -0.000000 0.412706 0.258821
v 0.152130 0.412706 0.209392
v 0.246154 0.412706 0.079980
v 0.246154 0.412706 -0.079979
v 0.152130 0.412706 -0.209391
v -0.000000 -0.107657 -0.673537
v -0.395895 -0.107657 -0.544903
v -0.640572 -0.107657 -0.208134
v -0.640572 -0.107657 0.208134
v -0.395895 -0.107657 0.544903
v -0.000000 -0.107657 0.673537
v 0.395895 -0.107657 0.544903
v 0.640572 -0.107657 0.208134
v 0.640572 -0.107657 -0.208134
v 0.395895 -0.107657 -0.544903
v -0.000000 -0.313271 -0.660307
v -0.388119 -0.313271 -0.534199
v -0.627992 -0.313271 -0.204044
v -0.627992 -0.313271 0.204044
v -0.388119 -0.313271 0.534199
v -0.000000 -0.313271 0.660307
v 0.388119 -0.313271 0.534199
v 0.627992 -0.313271 0.204044
v 0.627992 -0.313271 -0.204044
v 0.388119 -0.313271 -0.534199
v -0.000000 -0.420171 -0.540064
v -0.513630 -0.420172 -0.166890
v -0.317441 -0.420172 0.436919
v -0.000000 -0.420172 0.540064
v 0.317441 -0.420172 0.436919
v 0.513630 -0.420172 -0.166890
v 0.317441 -0.420171 -0.436919
vt 0.0000 0.0000
vt 1.0000 0.0000
vt 1.0000 1.0000
vt 0.0000 0.0000
vt 1.0000 0.0000
vt 1.0000 1.0000
vt 0.0000 0.0000
vt 1.0000 0.0000
vt 1.0000 1.0000
vt 0.0000 0.0000
vt 1.0000 0.0000
vt 1.0000 1.0000
vt 0.0000 0.0000
vt 1.0000 0.0000
vt 1.0000 1.0000
vt 0.0000 0.0000
vt 1.0000 0.0000
vt 1.0000 1.0000
vt 0.0000 0.0000
vt 1.0000 0.0000
vt 1.0000 1.0000
vt 0.0000 0.0000
vt 1.0000 0.0000
vt 1.0000 1.0000
vt 1.0000 0.0000
vt 1.0000 1.0000
vt 0.0000 0.0000
vt 1.0000 0.0000
vt 1.0000 1.0000
vt 0.0000 0.0000
vt 1.0000 0.0000
vt 1.0000 1.0000
vt 0.0000 0.0000
vt 1.0000 0.0000
vt 1.0000 1.0000
vt 0.0000 0.0000
vt 1.0000 0.0000
vt 1.0000 1.0000
vt 0.0000 0.0000
vt 1.0000 0.0000
vt 1.0000 1.0000
vt 0.0000 0.0000
vt 1.0000 0.0000
vt 1.0000 1.0000
vt 0.0000 0.0000
vt 1.0000 0.0000
vt 1.0000 1.0000
vt 0.0000 0.0000
vt 1.0000 0.0000
vt 1.0000 1.0000
vt 0.0000 0.0000
vt 1.0000 0.0000
vt 1.0000 1.0000
vt 0.0000 0.0000
vt 1.0000 0.0000
vt 1.0000 1.0000
vt 0.0000 0.0000
vt 1.0000 0.0000
vt 1.0000 1.0000
vt 0.0000 0.0000
vt 1.0000 0.0000
vt 1.0000 1.0000
vt 0.0000 0.0000
vt 1.0000 0.0000
vt 1.0000 1.0000
vt 0.0000 0.0000
vt 1.0000 1.0000
vt 0.0000 0.0000
vt 1.0000 1.0000
vt 0.0000 0.0000
vt 1.0000 0.0000
vt 1.0000 1.0000
vt 0.0000 0.0000
vt 0.0000 0.0000
vt 1.0000 1.0000
vt 0.0000 0.0000
vt 1.0000 0.0000
vt 1.0000 1.0000
vt 0.0000 0.0000
vt 1.0000 0.0000
vt 1.0000 1.0000
vt 0.0000 0.0000
vt 1.0000 0.0000
vt 1.0000 1.0000
vt 0.0000 0.0000
vt 1.0000 0.0000
vt 1.0000 1.0000
vt 0.0000 0.0000
vt 1.0000 0.0000
vt 1.0000 0.0000
vt 1.0000 1.0000
vt 1.0000 0.0000
vt 1.0000 1.0000
vt 0.0000 0.0000
vt 1.0000 0.0000
vt 1.0000 1.0000
vt 1.0000 0.0000
vt 1.0000 1.0000
vt 1.0000 0.0000
vt 1.0000 1.0000
vt 0.0000 0.0000
vt 1.0000 0.0000
vt 1.0000 1.0000
vt 0.0000 0.0000
vt 1.0000 0.0000
vt 1.0000 1.0000
vt 0.0000 0.0000
vt 1.0000 0.0000
vt 1.0000 1.0000
vt 0.0000 0.0000
vt 1.0000 0.0000
vt 1.0000 1.0000
vt 0.0000 0.0000
vt 1.0000 0.0000
vt 1.0000 1.0000
vt 0.0000 0.0000
vt 1.0000 0.0000
vt 1.0000 1.0000
vt 0.0000 0.0000
vt 1.0000 0.0000
vt 1.0000 1.0000
vt 0.0000 0.0000
vt 0.0000 0.0000
vt 1.0000 0.0000
vt 1.0000 1.0000
vt 0.0000 0.0000
vt 1.0000 0.0000
vt 1.0000 1.0000
vt 0.0000 0.0000
vt 1.0000 0.0000
vt 1.0000 1.0000
vt 0.0000 0.0000
vt 0.0000 0.0000
vt 1.0000 0.0000
vt 1.0000 1.0000
vt 0.0000 0.0000
vt 1.0000 0.0000
vt 1.0000 1.0000
vt 0.0000 0.0000
vt 1.0000 0.0000
vt 1.0000 1.0000
vt 0.0000 0.0000
vt 1.0000 0.0000
vt 0.0000 0.0000
vt 1.0000 0.0000
vt 1.0000 1.0000
vt 1.0000 0.0000
vt 1.0000 1.0000
vt 0.0000 0.0000
vt 1.0000 1.0000
vt 0.0000 0.0000
vt 1.0000 0.0000
vt 1.0000 1.0000
vt 0.0000 0.0000
vt 1.0000 0.0000
vt 1.0000 1.0000
vt 1.0000 0.0000
vt 1.0000 1.0000
vt 0.0000 0.0000
vt 1.0000 0.0000
vt 1.0000 1.0000
vt 0.0000 0.0000
vt 1.0000 0.0000
vt 1.0000 1.0000
vt 0.0000 0.0000
vt 1.0000 0.0000
vt 1.0000 0.0000
vt 1.0000 0.0000
vt 1.0000 0.0000
vt 1.0000 0.0000
vt 1.0000 0.0000
vt 1.0000 0.0000
vt 1.0000 1.0000
vt 1.0000 0.0000
vt 1.0000 1.0000
vt 1.0000 1.0000
vt 1.0000 1.0000
vt 1.0000 0.0000
vt 0.0000 0.0000
vt 0.0000 0.0000
vt 0.0000 0.0000
vt 0.0000 0.0000
vt 0.0000 0.0000
vt 1.0000 1.0000
vt 1.0000 1.0000
vt 1.0000 0.0000
vt 1.0000 0.0000
vt 1.0000 0.0000
vt 1.0000 0.0000
vt 1.0000 1.0000
vt 1.0000 1.0000
vt 1.0000 1.0000
vt 1.0000 0.0000
vt 1.0000 0.0000
vn 0.3006 0.2312 -0.9253
vn 0.7871 0.2312 -0.5719
vn 0.9729 0.2312 0.0000
vn 0.7871 0.2312 0.5719
vn 0.3006 0.2312 0.9253
vn -0.3006 0.2312 0.9253
vn -0.7871 0.2312 0.5719
vn -0.9729 0.2312 0.0000
vn 0.0000 1.0000 -0.0000
vn -0.7871 0.2312 -0.5719
vn -0.3006 0.2312 -0.9253
vn 0.0000 -1.0000 -0.0000
vn -0.8081 0.0487 -0.5871
vn -0.9988 0.0487 0.0000
vn -0.8081 0.0487 0.5871
vn -0.3086 0.0487 0.9499
vn 0.3086 0.0487 0.9499
vn 0.8081 0.0487 0.5871
vn 0.9988 0.0487 0.0000
vn 0.8081 0.0487 -0.5871
vn 0.3087 0.0487 -0.9499
vn 0.3086 0.0487 -0.9499
vn -0.3086 0.0487 -0.9499
vn -0.3023 0.2069 -0.9305
vn -0.7915 0.2069 -0.5751
vn -0.9784 0.2069 0.0000
vn -0.7915 0.2069 0.5751
vn -0.3023 0.2069 0.9305
vn 0.3023 0.2069 0.9305
vn 0.7915 0.2069 0.5751
vn 0.9784 0.2069 0.0000
vn 0.7915 0.2069 -0.5751
vn 0.3023 0.2069 -0.9305
vn -0.2463 0.6041 -0.7579
vn -0.6447 0.6041 -0.4684
vn -0.7969 0.6041 0.0000
vn -0.6447 0.6041 0.4684
vn -0.2463 0.6041 0.7579
vn 0.2463 0.6041 0.7579
vn 0.6447 0.6041 0.4684
vn 0.7969 0.6041 0.0000
vn 0.6447 0.6041 -0.4684
vn 0.2463 0.6041 -0.7579
vn -0.3084 -0.0611 -0.9493
vn -0.8075 -0.0611 -0.5867
vn -0.9981 -0.0611 -0.0000
vn -0.8075 -0.0611 0.5867
vn -0.3084 -0.0611 0.9493
vn 0.3084 -0.0611 0.9493
vn 0.8075 -0.0611 0.5867
vn 0.9981 -0.0611 -0.0000
vn 0.8075 -0.0611 -0.5867
vn 0.3084 -0.0611 -0.9493
vn -0.2110 -0.7305 -0.6495
vn -0.5525 -0.7305 -0.4014
vn -0.6829 -0.7305 -0.0000
vn -0.5525 -0.7305 0.4014
vn -0.2110 -0.7305 0.6495
vn 0.2110 -0.7305 0.6495
vn 0.5525 -0.7305 0.4014
vn 0.6829 -0.7305 -0.0000
vn 0.5525 -0.7305 -0.4014
vn 0.2110 -0.7305 -0.6495
usemtl None.001
s 1
f 1/1/1 2/2/1 3/3/1
f 4/4/2 5/5/2 2/6/2
f 6/7/3 7/8/3 5/9/3
f 8/10/4 9/11/4 7/12/4
f 10/13/5 11/14/5 9/15/5
f 12/16/6 13/17/6 11/18/6
f 14/19/7 15/20/7 13/21/7
f 16/22/8 17/23/8 15/24/8
f 14/19/9 10/25/9 6/26/9
f 18/27/10 19/28/10 17/29/10
f 20/30/11 3/31/11 19/32/11
f 21/33/12 22/34/12 23/35/12
f 17/36/13 24/37/13 25/38/13
f 15/39/14 25/40/14 26/41/14
f 13/42/15 26/43/15 27/44/15
f 11/45/16 27/46/16 28/47/16
f 9/48/17 28/49/17 29/50/17
f 7/51/18 29/52/18 30/53/18
f 5/54/19 30/55/19 31/56/19
f 2/57/20 31/58/20 32/59/20
f 3/60/21 32/61/22 33/62/22
f 19/63/23 33/64/23 24/65/23
f 34/66/24 33/64/24 35/67/24
f 36/68/25 24/37/25 34/69/25
f 26/70/26 36/71/26 37/72/26
f 38/73/27 26/43/27 37/72/27
f 39/74/28 27/46/28 38/75/28
f 29/76/29 39/77/29 40/78/29
f 30/79/30 40/80/30 41/81/30
f 31/82/31 41/83/31 42/84/31
f 32/85/32 42/86/32 43/87/32
f 33/88/33 43/89/33 35/67/33
f 34/66/34 44/90/34 45/91/34
f 36/68/35 45/92/35 46/93/35
f 37/94/36 46/95/36 47/96/36
f 38/73/37 47/97/37 48/98/37
f 39/74/38 48/99/38 49/100/38
f 40/101/39 49/102/39 50/103/39
f 41/104/40 50/105/40 51/106/40
f 42/107/41 51/108/41 52/109/41
f 43/110/42 52/111/42 53/112/42
f 35/113/43 53/114/43 44/115/43
f 45/116/44 54/117/44 55/118/44
f 46/119/45 55/120/45 56/121/45
f 57/122/46 46/95/46 56/121/46
f 48/123/47 57/124/47 58/125/47
f 49/126/48 58/127/48 59/128/48
f 50/129/49 59/130/49 60/131/49
f 61/132/50 50/105/50 60/131/50
f 52/133/51 61/134/51 62/135/51
f 53/136/52 62/137/52 63/138/52
f 44/139/53 63/140/53 54/141/53
f 55/142/54 64/143/54 23/35/54
f 56/144/55 23/145/55 65/146/55
f 57/122/56 65/147/56 22/148/56
f 58/149/57 22/34/57 66/150/57
f 59/151/58 66/152/58 67/153/58
f 60/154/59 67/155/59 68/156/59
f 61/132/60 68/157/60 21/158/60
f 62/159/61 21/160/61 69/161/61
f 63/162/62 69/163/62 70/164/62
f 64/165/63 63/140/63 70/164/63
f 1/1/1 4/166/1 2/6/1
f 4/4/2 6/167/2 5/9/2
f 6/7/3 8/168/3 7/12/3
f 8/10/4 10/25/4 9/15/4
f 10/13/5 12/169/5 11/18/5
f 12/16/6 14/170/6 13/21/6
f 14/19/7 16/171/7 15/24/7
f 16/22/8 18/172/8 17/29/8
f 6/7/9 4/166/9 1/173/9
f 1/1/9 20/174/9 6/26/9
f 18/27/9 16/171/9 14/175/9
f 14/19/9 12/169/9 10/176/9
f 10/13/9 8/168/9 6/26/9
f 6/7/9 20/174/9 18/177/9
f 18/27/9 14/170/9 6/26/9
f 18/27/10 20/174/10 19/32/10
f 20/30/11 1/178/11 3/3/11
f 23/179/12 64/143/12 70/164/12
f 70/180/12 69/163/12 23/35/12
f 21/33/12 68/157/12 22/148/12
f 67/181/12 66/152/12 22/148/12
f 22/182/12 65/147/12 23/35/12
f 23/179/12 69/163/12 21/158/12
f 68/183/12 67/155/12 22/148/12
f 17/36/13 19/28/13 24/65/13
f 15/39/14 17/23/14 25/38/14
f 13/42/15 15/20/15 26/41/15
f 11/45/16 13/17/16 27/44/16
f 9/48/17 11/14/17 28/47/17
f 7/51/18 9/11/18 29/50/18
f 5/54/19 7/8/19 30/53/19
f 2/57/20 5/5/20 31/56/20
f 3/60/21 2/2/21 32/59/22
f 19/63/23 3/31/23 33/62/23
f 34/66/24 24/37/24 33/62/24
f 36/68/25 25/40/25 24/65/25
f 26/70/26 25/40/26 36/184/26
f 38/73/27 27/46/27 26/41/27
f 39/74/28 28/49/28 27/44/28
f 29/76/29 28/49/29 39/185/29
f 30/79/30 29/52/30 40/78/30
f 31/82/31 30/55/31 41/81/31
f 32/85/32 31/58/32 42/84/32
f 33/88/33 32/61/33 43/87/33
f 34/66/34 35/186/34 44/115/34
f 36/68/35 34/187/35 45/91/35
f 37/94/36 36/71/36 46/93/36
f 38/73/37 37/188/37 47/96/37
f 39/74/38 38/189/38 48/98/38
f 40/101/39 39/77/39 49/100/39
f 41/104/40 40/80/40 50/103/40
f 42/107/41 41/83/41 51/106/41
f 43/110/42 42/86/42 52/109/42
f 35/113/43 43/89/43 53/112/43
f 45/116/44 44/90/44 54/141/44
f 46/119/45 45/92/45 55/118/45
f 57/122/46 47/97/46 46/93/46
f 48/123/47 47/97/47 57/190/47
f 49/126/48 48/99/48 58/125/48
f 50/129/49 49/102/49 59/128/49
f 61/132/50 51/108/50 50/103/50
f 52/133/51 51/108/51 61/191/51
f 53/136/52 52/111/52 62/135/52
f 44/139/53 53/114/53 63/138/53
f 55/142/54 54/117/54 64/192/54
f 56/144/55 55/120/55 23/35/55
f 57/122/56 56/193/56 65/146/56
f 58/149/57 57/124/57 22/148/57
f 59/151/58 58/127/58 66/150/58
f 60/154/59 59/130/59 67/153/59
f 61/132/60 60/194/60 68/156/60
f 62/159/61 61/134/61 21/158/61
f 63/162/62 62/137/62 69/161/62
f 64/165/63 54/117/63 63/138/63
