# Blender v2.78 (sub 0) OBJ File: ''
# www.blender.org
mtllib KoboldSpear02 left hand.mtl
o cat_RoadKillOut1
v 0.221381 0.766485 -0.194922
v 0.203857 0.770198 -0.202587
v 0.203887 0.824353 -0.175881
v 0.215287 0.827982 -0.162611
v 0.184396 0.770985 -0.203069
v 0.188001 0.815810 -0.177070
v 0.180844 0.765596 -0.189921
v 0.175326 0.757238 -0.169491
v 0.175825 0.780901 -0.158419
v 0.182011 0.788610 -0.177750
v 0.206496 0.744028 -0.139750
v 0.212312 0.752738 -0.161343
v 0.217045 0.775660 -0.155157
v 0.211540 0.768391 -0.137535
v 0.217856 0.761138 -0.181871
v 0.219981 0.781950 -0.170807
v 0.211397 0.865771 -0.136550
v 0.201684 0.868544 -0.144346
v 0.189544 0.865916 -0.144556
v 0.182040 0.862711 -0.134777
v 0.183909 0.857842 -0.123192
v 0.194112 0.854678 -0.116317
v 0.206673 0.855072 -0.118177
v 0.213473 0.858347 -0.126966
v 0.177348 0.812385 -0.146132
v 0.216112 0.820406 -0.144433
v 0.201541 0.807236 -0.111669
v 0.189690 0.833228 -0.107115
v 0.179016 0.838012 -0.115908
v 0.169510 0.748528 -0.147897
v 0.171058 0.761803 -0.142037
v 0.165534 0.742596 -0.133124
v 0.182917 0.738671 -0.124938
v 0.187975 0.760099 -0.117117
v 0.170556 0.762872 -0.124468
v 0.160995 0.788036 -0.090351
v 0.165145 0.765803 -0.098286
v 0.178999 0.766234 -0.094372
v 0.200967 0.762157 -0.118222
v 0.192513 0.784201 -0.083408
v 0.167501 0.806242 -0.081181
v 0.179887 0.804042 -0.078735
v 0.179724 0.774993 -0.061903
v 0.171801 0.764458 -0.068331
v 0.163677 0.764206 -0.070625
v 0.161244 0.777242 -0.065973
v 0.165058 0.787916 -0.060597
v 0.172321 0.786626 -0.059163
v 0.176991 0.765921 -0.039085
v 0.166327 0.751744 -0.047736
v 0.155396 0.751405 -0.050824
v 0.152121 0.768947 -0.044563
v 0.157255 0.783313 -0.037328
v 0.167027 0.781577 -0.035397
v 0.155496 0.758245 -0.019654
v 0.202519 0.738096 -0.124977
v 0.155161 0.617147 -0.192107
v 0.156936 0.646416 -0.186175
v 0.184907 0.645311 -0.185545
v 0.154118 0.642163 -0.175731
v 0.179272 0.636805 -0.164659
v 0.191936 0.637562 -0.167401
v 0.194754 0.641815 -0.177844
v 0.186528 0.717956 -0.152777
v 0.166926 0.718531 -0.152738
v 0.167444 0.735703 -0.145605
v 0.187047 0.735128 -0.145644
v 0.164707 0.715181 -0.144512
v 0.165225 0.732353 -0.137379
v 0.182089 0.711256 -0.136326
v 0.182607 0.728428 -0.129193
v 0.201692 0.710681 -0.136365
v 0.202210 0.727853 -0.129232
v 0.203912 0.714031 -0.144591
v 0.204430 0.731203 -0.137458
v 0.197676 0.658724 -0.159320
v 0.180816 0.659220 -0.159287
v 0.165864 0.662595 -0.166327
v 0.167773 0.665477 -0.173402
v 0.184634 0.664982 -0.173437
v 0.199585 0.661606 -0.166395
v 0.204266 0.687088 -0.144322
v 0.180983 0.687772 -0.144275
v 0.160337 0.692434 -0.153998
v 0.162973 0.696413 -0.163769
v 0.186255 0.695729 -0.163815
v 0.206903 0.691067 -0.154092
v 0.160637 0.614710 -0.218315
v 0.162338 0.643867 -0.212107
v 0.190235 0.642649 -0.211201
v 0.159669 0.639840 -0.202217
v 0.184898 0.634594 -0.191422
v 0.197488 0.635238 -0.193887
v 0.200156 0.639265 -0.203776
v 0.192400 0.723663 -0.176281
v 0.172720 0.724120 -0.175952
v 0.173338 0.744597 -0.167445
v 0.193018 0.744141 -0.167775
v 0.170344 0.720534 -0.167146
v 0.170962 0.741011 -0.158640
v 0.187648 0.716491 -0.158670
v 0.188266 0.736969 -0.150164
v 0.207329 0.716034 -0.158999
v 0.207947 0.736511 -0.150493
v 0.209705 0.719620 -0.167804
v 0.210323 0.740097 -0.159298
v 0.203173 0.659087 -0.184075
v 0.186245 0.659480 -0.183792
v 0.171362 0.662957 -0.191083
v 0.173405 0.666042 -0.198656
v 0.190332 0.665648 -0.198939
v 0.205217 0.662171 -0.191649
v 0.209738 0.687411 -0.168982
v 0.186361 0.687954 -0.168591
v 0.165808 0.692756 -0.178658
v 0.168630 0.697015 -0.189117
v 0.192005 0.696472 -0.189508
v 0.212560 0.691670 -0.179440
v 0.166637 0.634331 -0.234712
v 0.168346 0.663500 -0.228535
v 0.196251 0.662294 -0.227659
v 0.165661 0.659448 -0.218585
v 0.190881 0.654191 -0.207760
v 0.203479 0.654847 -0.210254
v 0.206164 0.658899 -0.220204
v 0.198004 0.735140 -0.195383
v 0.178402 0.735715 -0.195344
v 0.178925 0.753030 -0.188151
v 0.198527 0.752455 -0.188190
v 0.176183 0.732365 -0.187118
v 0.176705 0.749680 -0.179926
v 0.193566 0.728441 -0.178933
v 0.194088 0.745755 -0.171741
v 0.213168 0.727865 -0.178971
v 0.213691 0.745180 -0.171779
v 0.215388 0.731215 -0.187196
v 0.215910 0.748529 -0.180004
v 0.209153 0.675910 -0.201926
v 0.192292 0.676404 -0.201892
v 0.177341 0.679781 -0.208934
v 0.179250 0.682662 -0.216009
v 0.196110 0.682167 -0.216042
v 0.211062 0.678791 -0.209001
v 0.215743 0.704273 -0.186929
v 0.192459 0.704956 -0.186882
v 0.171813 0.709618 -0.196605
v 0.174449 0.713596 -0.206374
v 0.197732 0.712913 -0.206421
v 0.218379 0.708251 -0.196698
v 0.172852 0.672528 -0.241831
v 0.174413 0.695207 -0.238564
v 0.202367 0.694076 -0.237870
v 0.171629 0.691006 -0.228248
v 0.196800 0.685673 -0.217237
v 0.209447 0.686405 -0.219917
v 0.212231 0.690606 -0.230233
v 0.203203 0.748521 -0.211591
v 0.183741 0.749308 -0.212073
v 0.184089 0.760824 -0.207290
v 0.203550 0.760036 -0.206807
v 0.181803 0.746383 -0.204891
v 0.182151 0.757899 -0.200107
v 0.199327 0.742671 -0.197226
v 0.199674 0.754186 -0.192443
v 0.218789 0.741883 -0.196744
v 0.219137 0.753399 -0.191960
v 0.220727 0.744808 -0.203926
v 0.221075 0.756324 -0.199143
v 0.215138 0.702623 -0.214340
v 0.198398 0.703301 -0.214755
v 0.183326 0.706494 -0.221348
v 0.184993 0.709010 -0.227525
v 0.201732 0.708332 -0.227110
v 0.216804 0.705139 -0.220517
v 0.221557 0.723870 -0.202497
v 0.198441 0.724806 -0.203071
v 0.177627 0.729215 -0.212174
v 0.179929 0.732689 -0.220705
v 0.203044 0.731754 -0.220133
v 0.223859 0.727344 -0.211028
v 0.187850 0.742476 -0.145234
v 0.193745 0.751304 -0.167118
v 0.199293 0.759708 -0.187663
vt 0.2269 0.2018
vt 0.2224 0.1952
vt 0.2373 0.1772
vt 0.2445 0.1775
vt 0.2370 0.4361
vt 0.2334 0.4438
vt 0.2155 0.4250
vt 0.2190 0.4185
vt 0.2286 0.4520
vt 0.2124 0.4601
vt 0.2058 0.4428
vt 0.2172 0.4383
vt 0.2625 0.2227
vt 0.2444 0.2209
vt 0.2465 0.2024
vt 0.2574 0.2057
vt 0.2307 0.2055
vt 0.2377 0.1975
vt 0.2021 0.4261
vt 0.2016 0.4060
vt 0.2059 0.4047
vt 0.2100 0.4028
vt 0.2485 0.1604
vt 0.2528 0.1627
vt 0.2522 0.1803
vt 0.2574 0.1642
vt 0.2684 0.1837
vt 0.2622 0.1650
vt 0.2712 0.1720
vt 0.2670 0.1640
vt 0.1925 0.4130
vt 0.1878 0.4104
vt 0.1935 0.4050
vt 0.1971 0.4068
vt 0.1929 0.4603
vt 0.1924 0.4505
vt 0.1830 0.4568
vt 0.1750 0.4543
vt 0.1745 0.4461
vt 0.1832 0.4456
vt 0.1768 0.4277
vt 0.1749 0.4360
vt 0.1713 0.4393
vt 0.2771 0.2070
vt 0.2709 0.2058
vt 0.2832 0.1905
vt 0.2855 0.2008
vt 0.1769 0.4200
vt 0.1754 0.4162
vt 0.2847 0.1807
vt 0.2948 0.1901
vt 0.2955 0.1964
vt 0.1646 0.4341
vt 0.1658 0.4316
vt 0.1670 0.4266
vt 0.1672 0.4220
vt 0.1668 0.4193
vt 0.2949 0.1843
vt 0.3041 0.1894
vt 0.3058 0.1964
vt 0.1578 0.4324
vt 0.1591 0.4299
vt 0.1596 0.4260
vt 0.1595 0.4223
vt 0.1586 0.4195
vt 0.3044 0.1827
vt 0.3148 0.1883
vt 0.1523 0.4257
vt 0.2809 0.2157
vt 0.2726 0.2191
vt 0.1548 0.4965
vt 0.1607 0.4908
vt 0.1669 0.4947
vt 0.1585 0.4892
vt 0.1523 0.4836
vt 0.3115 0.2601
vt 0.2997 0.2487
vt 0.3036 0.2473
vt 0.2976 0.2512
vt 0.2972 0.2552
vt 0.1830 0.4746
vt 0.1785 0.4697
vt 0.1843 0.4636
vt 0.1875 0.4714
vt 0.1759 0.4674
vt 0.1807 0.4612
vt 0.1702 0.4630
vt 0.1736 0.4578
vt 0.2863 0.2253
vt 0.2805 0.2301
vt 0.2751 0.2238
vt 0.2826 0.2197
vt 0.2778 0.2327
vt 0.2711 0.2262
vt 0.2725 0.2387
vt 0.2670 0.2345
vt 0.2945 0.2441
vt 0.2992 0.2408
vt 0.1589 0.4780
vt 0.1632 0.4826
vt 0.1655 0.4845
vt 0.1703 0.4884
vt 0.2896 0.2516
vt 0.2926 0.2461
vt 0.2869 0.2365
vt 0.2925 0.2314
vt 0.1648 0.4695
vt 0.1704 0.4739
vt 0.1729 0.4759
vt 0.1781 0.4806
vt 0.2794 0.2454
vt 0.2845 0.2391
vt 0.2090 0.5174
vt 0.2089 0.5089
vt 0.2162 0.5071
vt 0.2062 0.5094
vt 0.1978 0.5103
vt 0.2523 0.2782
vt 0.2526 0.2643
vt 0.2556 0.2659
vt 0.2500 0.2644
vt 0.2473 0.2664
vt 0.2120 0.4788
vt 0.2054 0.4785
vt 0.2057 0.4672
vt 0.2135 0.4728
vt 0.2016 0.4788
vt 0.1998 0.4674
vt 0.1944 0.4803
vt 0.1919 0.4733
vt 0.2599 0.2402
vt 0.2537 0.2389
vt 0.2553 0.2285
vt 0.2623 0.2347
vt 0.2501 0.2387
vt 0.2498 0.2280
vt 0.2431 0.2391
vt 0.2420 0.2321
vt 0.2526 0.2576
vt 0.2574 0.2587
vt 0.1980 0.5006
vt 0.2043 0.5004
vt 0.2075 0.5000
vt 0.2137 0.4992
vt 0.2449 0.2588
vt 0.2501 0.2576
vt 0.2531 0.2485
vt 0.2594 0.2491
vt 0.1957 0.4905
vt 0.2028 0.4892
vt 0.2062 0.4887
vt 0.2133 0.4881
vt 0.2429 0.2490
vt 0.2499 0.2484
vt 0.2519 0.4979
vt 0.2476 0.4910
vt 0.2527 0.4859
vt 0.2457 0.4928
vt 0.2390 0.4975
vt 0.2148 0.2551
vt 0.2207 0.2450
vt 0.2223 0.2474
vt 0.2187 0.2440
vt 0.2159 0.2444
vt 0.2373 0.4661
vt 0.2313 0.4690
vt 0.2268 0.4606
vt 0.2360 0.4611
vt 0.2283 0.4710
vt 0.2220 0.4634
vt 0.2228 0.4761
vt 0.2181 0.4721
vt 0.2352 0.2323
vt 0.2313 0.2283
vt 0.2366 0.2222
vt 0.2388 0.2300
vt 0.2288 0.2266
vt 0.2332 0.2193
vt 0.2231 0.2240
vt 0.2247 0.2190
vt 0.2231 0.2406
vt 0.2261 0.2434
vt 0.2350 0.4900
vt 0.2403 0.4869
vt 0.2427 0.4851
vt 0.2474 0.4813
vt 0.2171 0.2384
vt 0.2214 0.2396
vt 0.2273 0.2340
vt 0.2316 0.2372
vt 0.2281 0.4826
vt 0.2335 0.4780
vt 0.2360 0.4761
vt 0.2417 0.4722
vt 0.2196 0.2302
vt 0.2251 0.2327
vt 0.2737 0.4482
vt 0.2669 0.4471
vt 0.2659 0.4395
vt 0.2670 0.4497
vt 0.2661 0.4588
vt 0.1894 0.2168
vt 0.2015 0.2131
vt 0.2008 0.2163
vt 0.2006 0.2106
vt 0.1977 0.2089
vt 0.2449 0.4389
vt 0.2436 0.4463
vt 0.2381 0.4455
vt 0.2407 0.4378
vt 0.2433 0.4496
vt 0.2370 0.4494
vt 0.2436 0.4573
vt 0.2393 0.4579
vt 0.2187 0.2151
vt 0.2185 0.2087
vt 0.2241 0.2077
vt 0.2223 0.2154
vt 0.2177 0.2057
vt 0.2227 0.2041
vt 0.2153 0.1988
vt 0.2192 0.1972
vt 0.2058 0.2115
vt 0.2059 0.2163
vt 0.2586 0.4570
vt 0.2599 0.4502
vt 0.2601 0.4473
vt 0.2602 0.4406
vt 0.2022 0.2052
vt 0.2052 0.2096
vt 0.2124 0.2099
vt 0.2133 0.2160
vt 0.2505 0.4574
vt 0.2503 0.4498
vt 0.2504 0.4469
vt 0.2512 0.4393
vt 0.2090 0.2009
vt 0.2117 0.2075
vt 0.1900 0.4714
vt 0.2644 0.2336
vt 0.2155 0.4715
vt 0.2407 0.2301
vt 0.2369 0.4589
vt 0.2337 0.2102
vt 0.2244 0.2168
vn 0.8943 0.1972 -0.4017
vn 0.2463 0.4133 -0.8767
vn 0.2357 0.5097 -0.8274
vn 0.9258 0.2349 -0.2962
vn -0.6107 0.3651 -0.7027
vn -0.7102 0.3745 -0.5961
vn -0.9550 -0.0488 -0.2927
vn -0.9575 -0.0638 -0.2814
vn -0.9706 0.1447 -0.1921
vn -0.9546 0.1740 -0.2419
vn 0.9283 -0.3403 0.1499
vn 0.9316 -0.3474 0.1068
vn 0.9752 -0.1082 0.1932
vn 0.9435 -0.1153 0.3108
vn 0.9915 -0.0912 0.0923
vn 0.9950 -0.0457 0.0886
vn -0.9704 0.1551 -0.1853
vn -0.9934 0.1028 -0.0507
vn -0.6388 0.3837 -0.6669
vn 0.2090 0.5350 -0.8186
vn 0.9059 0.2193 -0.3623
vn 0.9776 0.0044 0.2104
vn 0.9714 -0.0509 0.2321
vn 0.8344 0.0584 0.5480
vn 0.6616 -0.0072 0.7498
vn 0.1866 0.4743 0.8604
vn 0.2233 0.2988 0.9278
vn -0.7671 0.4834 0.4219
vn -0.7292 0.1827 0.6595
vn -0.9645 -0.0527 -0.2588
vn -0.9794 0.1607 -0.1219
vn -0.8969 -0.0685 0.4369
vn -0.2213 -0.3244 0.9197
vn -0.0340 -0.6821 0.7304
vn -0.9574 -0.2437 0.1547
vn -0.9920 0.0982 -0.0793
vn -0.6835 -0.7257 -0.0781
vn 0.2905 -0.9346 0.2052
vn 0.6793 -0.3747 0.6310
vn 0.8430 -0.1984 0.5000
vn -0.6350 0.6439 0.4269
vn 0.3996 0.5981 0.6947
vn 0.9534 -0.1223 0.2757
vn 0.4974 -0.8561 -0.1402
vn -0.5957 -0.7210 -0.3539
vn -0.9808 0.1330 -0.1427
vn -0.5576 0.7861 0.2667
vn 0.4854 0.7150 0.5031
vn 0.8948 -0.1760 0.4102
vn 0.4531 -0.8915 0.0006
vn -0.6327 -0.7410 -0.2250
vn -0.9896 0.1116 -0.0907
vn -0.5866 0.7289 0.3528
vn 0.4454 0.6512 0.6144
vn -0.2937 -0.3146 0.9027
vn 0.5954 -0.2895 0.7495
vn -0.0640 -0.9181 -0.3912
vn -0.5833 0.4418 -0.6816
vn 0.3058 0.2122 -0.9281
vn -0.8900 -0.0213 0.4554
vn -0.1722 -0.5092 0.8433
vn 0.5498 -0.7144 0.4329
vn 0.8005 -0.3360 -0.4963
vn 0.2433 0.3974 -0.8848
vn -0.6070 0.3807 -0.6976
vn -0.6162 0.1703 -0.7689
vn 0.2279 0.1252 -0.9656
vn -0.9071 -0.0722 0.4147
vn -0.9117 -0.1339 0.3885
vn -0.2413 -0.3339 0.9112
vn -0.2425 -0.3659 0.8985
vn 0.6107 -0.2569 0.7490
vn 0.6114 -0.3192 0.7240
vn 0.9108 0.1961 -0.3633
vn 0.9004 -0.0142 -0.4349
vn 0.6179 -0.4299 0.6583
vn -0.2130 -0.3516 0.9116
vn -0.8933 -0.0438 0.4473
vn -0.5857 0.4206 -0.6929
vn 0.2715 0.3793 -0.8845
vn 0.9083 0.0085 -0.4182
vn 0.6072 -0.3408 0.7178
vn -0.2428 -0.3767 0.8939
vn -0.9102 -0.1565 0.3834
vn -0.6084 0.2991 -0.7351
vn 0.2421 0.3550 -0.9030
vn 0.9090 0.1144 -0.4009
vn -0.0647 -0.9180 -0.3913
vn -0.5856 0.4163 -0.6955
vn 0.3036 0.1961 -0.9324
vn -0.8936 -0.0486 0.4461
vn -0.1731 -0.5234 0.8343
vn 0.5453 -0.7151 0.4374
vn 0.7986 -0.3327 -0.5015
vn 0.2432 0.3940 -0.8864
vn -0.6144 0.3689 -0.6974
vn -0.6203 0.1772 -0.7641
vn 0.2289 0.1366 -0.9638
vn -0.9115 -0.0795 0.4035
vn -0.9121 -0.2676 0.3105
vn -0.2415 -0.3375 0.9098
vn -0.2418 -0.5839 0.7750
vn 0.6175 -0.2656 0.7404
vn 0.6136 -0.4533 0.6465
vn 0.9146 0.1828 -0.3606
vn 0.9035 -0.0082 -0.4284
vn 0.6204 -0.4348 0.6527
vn -0.2142 -0.3776 0.9009
vn -0.8999 -0.0734 0.4298
vn -0.5938 0.3886 -0.7045
vn 0.2704 0.3539 -0.8953
vn 0.9090 0.0008 -0.4168
vn 0.6134 -0.3506 0.7076
vn -0.2429 -0.3835 0.8910
vn -0.9138 -0.1648 0.3712
vn -0.6154 0.2856 -0.7347
vn 0.2419 0.3482 -0.9057
vn 0.9118 0.0997 -0.3982
vn -0.0646 -0.9180 -0.3913
vn -0.5796 0.4402 -0.6858
vn 0.3044 0.2108 -0.9289
vn -0.8883 -0.0258 0.4585
vn -0.1735 -0.5105 0.8422
vn 0.5433 -0.7165 0.4376
vn 0.7972 -0.3333 -0.5034
vn 0.2433 0.3979 -0.8846
vn -0.6157 0.1799 -0.7672
vn 0.2293 0.1407 -0.9631
vn -0.9086 -0.2665 0.3217
vn -0.2413 -0.3335 0.9113
vn -0.2421 -0.5742 0.7821
vn 0.6061 -0.4508 0.6553
vn 0.9014 -0.0046 -0.4330
vn 0.6154 -0.4349 0.6574
vn -0.2141 -0.3599 0.9081
vn -0.8931 -0.0501 0.4471
vn -0.5844 0.4158 -0.6968
vn 0.2705 0.3711 -0.8883
vn 0.9066 0.0046 -0.4219
vn 0.6071 -0.3408 0.7178
vn -0.9102 -0.1564 0.3834
vn 0.9090 0.1144 -0.4008
vn -0.1209 -0.9075 -0.4022
vn -0.5701 0.4823 -0.6651
vn 0.2963 0.2067 -0.9325
vn -0.8784 0.0170 0.4776
vn -0.1815 -0.5144 0.8381
vn 0.5115 -0.7665 0.3883
vn 0.7566 -0.3967 -0.5199
vn 0.2434 0.4027 -0.8824
vn -0.5930 0.4008 -0.6984
vn -0.5999 0.3223 -0.7323
vn 0.2424 0.3659 -0.8985
vn -0.8986 -0.0606 0.4345
vn -0.9037 -0.2705 0.3320
vn -0.2411 -0.3286 0.9132
vn -0.2423 -0.5707 0.7846
vn 0.5977 -0.2426 0.7641
vn 0.5965 -0.4530 0.6625
vn 0.9034 0.2187 -0.3688
vn 0.9056 0.1391 -0.4006
vn 0.6029 -0.4546 0.6556
vn -0.2130 -0.3233 0.9220
vn -0.8777 -0.0131 0.4790
vn -0.5635 0.4611 -0.6854
vn 0.2711 0.4074 -0.8721
vn 0.8983 -0.0087 -0.4393
vn 0.5922 -0.3502 0.7257
vn -0.2428 -0.3784 0.8932
vn -0.9025 -0.1685 0.3964
vn -0.5938 0.2974 -0.7476
vn 0.2420 0.3534 -0.9036
vn 0.9009 0.1155 -0.4184
vn -0.0274 -0.9224 -0.3854
vn -0.0284 -0.9240 -0.3814
vn -0.0288 -0.9246 -0.3799
vn 0.8936 -0.4447 0.0616
usemtl lambert5SG
s 1
f 1/1/1 2/2/2 3/3/3 4/4/4
f 2/5/2 5/6/5 6/7/6 3/8/3
f 7/9/7 8/10/8 9/11/9 10/12/10
f 11/13/11 12/14/12 13/15/13 14/16/14
f 12/14/12 15/17/15 16/18/16 13/15/13
f 6/7/6 25/19/17 20/20/18 19/21/19
f 3/8/3 6/7/6 19/21/19 18/22/20
f 4/4/4 3/3/3 18/23/20 17/24/21
f 26/25/22 4/4/4 17/24/21 24/26/23
f 27/27/24 26/25/22 24/26/23 23/28/25
f 28/29/26 27/27/24 23/28/25 22/30/27
f 29/31/28 28/32/26 22/33/27 21/34/29
f 25/19/17 29/31/28 21/34/29 20/20/18
f 8/10/8 30/35/30 31/36/31 9/11/9
f 32/37/32 33/38/33 34/39/34 35/40/35
f 36/41/36 25/19/17 35/40/35 37/42/37
f 35/40/35 34/39/34 38/43/38 37/42/37
f 34/44/34 39/45/39 40/46/40 38/47/38
f 28/32/26 29/31/28 41/48/41 42/49/42
f 29/31/28 25/19/17 36/41/36 41/48/41
f 27/27/24 28/29/26 42/50/42 40/46/40
f 38/47/38 40/46/40 43/51/43 44/52/44
f 37/42/37 38/43/38 44/53/44 45/54/45
f 36/41/36 37/42/37 45/54/45 46/55/46
f 41/48/41 36/41/36 46/55/46 47/56/47
f 42/49/42 41/48/41 47/56/47 48/57/48
f 40/46/40 42/50/42 48/58/48 43/51/43
f 44/52/44 43/51/43 49/59/49 50/60/50
f 45/54/45 44/53/44 50/61/50 51/62/51
f 46/55/46 45/54/45 51/62/51 52/63/52
f 47/56/47 46/55/46 52/63/52 53/64/53
f 48/57/48 47/56/47 53/64/53 54/65/54
f 43/51/43 48/58/48 54/66/54 49/59/49
f 50/60/50 49/59/49 55/67/55
f 51/62/51 50/61/50 55/68/55
f 52/63/52 51/62/51 55/68/55
f 53/64/53 52/63/52 55/68/55
f 54/65/54 53/64/53 55/68/55
f 49/59/49 54/66/54 55/67/55
f 30/35/30 32/37/32 35/40/35 31/36/31
f 35/40/35 25/19/17 9/11/9 31/36/31
f 25/19/17 6/7/6 10/12/10 9/11/9
f 5/6/5 7/9/7 10/12/10 6/7/6
f 16/18/16 4/4/4 26/25/22 13/15/13
f 15/17/15 1/1/1 4/4/4 16/18/16
f 14/16/14 13/15/13 26/25/22 27/27/24
f 34/44/34 33/69/33 56/70/56 39/45/39
f 56/70/56 11/13/11 14/16/14 39/45/39
f 27/27/24 40/46/40 39/45/39 14/16/14
f 57/71/57 58/72/58 59/73/59
f 57/71/57 60/74/60 58/72/58
f 57/71/57 61/75/61 60/74/60
f 57/76/57 62/77/62 61/78/61
f 57/76/57 63/79/63 62/77/62
f 57/76/57 59/80/59 63/79/63
f 64/81/64 65/82/65 66/83/66 67/84/67
f 65/82/65 68/85/68 69/86/69 66/83/66
f 68/85/68 70/87/70 71/88/71 69/86/69
f 70/89/70 72/90/72 73/91/73 71/92/71
f 72/90/72 74/93/74 75/94/75 73/91/73
f 74/93/74 64/95/64 67/96/67 75/94/75
f 61/78/61 62/77/62 76/97/76 77/98/77
f 60/74/60 61/75/61 77/99/77 78/100/78
f 58/72/58 60/74/60 78/100/78 79/101/79
f 59/73/59 58/72/58 79/101/79 80/102/80
f 63/79/63 59/80/59 80/103/80 81/104/81
f 62/77/62 63/79/63 81/104/81 76/97/76
f 77/98/77 76/97/76 82/105/82 83/106/83
f 78/100/78 77/99/77 83/107/83 84/108/84
f 79/101/79 78/100/78 84/108/84 85/109/85
f 80/102/80 79/101/79 85/109/85 86/110/86
f 81/104/81 80/103/80 86/111/86 87/112/87
f 76/97/76 81/104/81 87/112/87 82/105/82
f 83/106/83 82/105/82 72/90/72 70/89/70
f 84/108/84 83/107/83 70/87/70 68/85/68
f 85/109/85 84/108/84 68/85/68 65/82/65
f 86/110/86 85/109/85 65/82/65 64/81/64
f 87/112/87 86/111/86 64/95/64 74/93/74
f 82/105/82 87/112/87 74/93/74 72/90/72
f 88/113/88 89/114/89 90/115/90
f 88/113/88 91/116/91 89/114/89
f 88/113/88 92/117/92 91/116/91
f 88/118/88 93/119/93 92/120/92
f 88/118/88 94/121/94 93/119/93
f 88/118/88 90/122/90 94/121/94
f 95/123/95 96/124/96 97/125/97 98/126/98
f 96/124/96 99/127/99 100/128/100 97/125/97
f 99/127/99 101/129/101 102/130/102 100/128/100
f 101/131/101 103/132/103 104/133/104 102/134/102
f 103/132/103 105/135/105 106/136/106 104/133/104
f 105/135/105 95/137/95 98/138/98 106/136/106
f 92/120/92 93/119/93 107/139/107 108/140/108
f 91/116/91 92/117/92 108/141/108 109/142/109
f 89/114/89 91/116/91 109/142/109 110/143/110
f 90/115/90 89/114/89 110/143/110 111/144/111
f 94/121/94 90/122/90 111/145/111 112/146/112
f 93/119/93 94/121/94 112/146/112 107/139/107
f 108/140/108 107/139/107 113/147/113 114/148/114
f 109/142/109 108/141/108 114/149/114 115/150/115
f 110/143/110 109/142/109 115/150/115 116/151/116
f 111/144/111 110/143/110 116/151/116 117/152/117
f 112/146/112 111/145/111 117/153/117 118/154/118
f 107/139/107 112/146/112 118/154/118 113/147/113
f 114/148/114 113/147/113 103/132/103 101/131/101
f 115/150/115 114/149/114 101/129/101 99/127/99
f 116/151/116 115/150/115 99/127/99 96/124/96
f 117/152/117 116/151/116 96/124/96 95/123/95
f 118/154/118 117/153/117 95/137/95 105/135/105
f 113/147/113 118/154/118 105/135/105 103/132/103
f 119/155/119 120/156/120 121/157/121
f 119/155/119 122/158/122 120/156/120
f 119/155/119 123/159/123 122/158/122
f 119/160/119 124/161/124 123/162/123
f 119/160/119 125/163/125 124/161/124
f 119/160/119 121/164/121 125/163/125
f 126/165/126 127/166/65 128/167/127 129/168/128
f 127/166/65 130/169/68 131/170/129 128/167/127
f 130/169/68 132/171/130 133/172/131 131/170/129
f 132/173/130 134/174/72 135/175/132 133/176/131
f 134/174/72 136/177/74 137/178/133 135/175/132
f 136/177/74 126/179/126 129/180/128 137/178/133
f 123/162/123 124/161/124 138/181/134 139/182/135
f 122/158/122 123/159/123 139/183/135 140/184/136
f 120/156/120 122/158/122 140/184/136 141/185/137
f 121/157/121 120/156/120 141/185/137 142/186/138
f 125/163/125 121/164/121 142/187/138 143/188/139
f 124/161/124 125/163/125 143/188/139 138/181/134
f 139/182/135 138/181/134 144/189/140 145/190/83
f 140/184/136 139/183/135 145/191/83 146/192/141
f 141/185/137 140/184/136 146/192/141 147/193/85
f 142/186/138 141/185/137 147/193/85 148/194/86
f 143/188/139 142/187/138 148/195/86 149/196/142
f 138/181/134 143/188/139 149/196/142 144/189/140
f 145/190/83 144/189/140 134/174/72 132/173/130
f 146/192/141 145/191/83 132/171/130 130/169/68
f 147/193/85 146/192/141 130/169/68 127/166/65
f 148/194/86 147/193/85 127/166/65 126/165/126
f 149/196/142 148/195/86 126/179/126 136/177/74
f 144/189/140 149/196/142 136/177/74 134/174/72
f 150/197/143 151/198/144 152/199/145
f 150/197/143 153/200/146 151/198/144
f 150/197/143 154/201/147 153/200/146
f 150/202/143 155/203/148 154/204/147
f 150/202/143 156/205/149 155/203/148
f 150/202/143 152/206/145 156/205/149
f 157/207/150 158/208/151 159/209/152 160/210/153
f 158/208/151 161/211/154 162/212/155 159/209/152
f 161/211/154 163/213/156 164/214/157 162/212/155
f 163/215/156 165/216/158 166/217/159 164/218/157
f 165/216/158 167/219/160 168/220/161 166/217/159
f 167/219/160 157/221/150 160/222/153 168/220/161
f 154/204/147 155/203/148 169/223/162 170/224/163
f 153/200/146 154/201/147 170/225/163 171/226/164
f 151/198/144 153/200/146 171/226/164 172/227/165
f 152/199/145 151/198/144 172/227/165 173/228/166
f 156/205/149 152/206/145 173/229/166 174/230/167
f 155/203/148 156/205/149 174/230/167 169/223/162
f 170/224/163 169/223/162 175/231/168 176/232/169
f 171/226/164 170/225/163 176/233/169 177/234/170
f 172/227/165 171/226/164 177/234/170 178/235/171
f 173/228/166 172/227/165 178/235/171 179/236/172
f 174/230/167 173/229/166 179/237/172 180/238/173
f 169/223/162 174/230/167 180/238/173 175/231/168
f 176/232/169 175/231/168 165/216/158 163/215/156
f 177/234/170 176/233/169 163/213/156 161/211/154
f 178/235/171 177/234/170 161/211/154 158/208/151
f 179/236/172 178/235/171 158/208/151 157/207/150
f 180/238/173 179/237/172 157/221/150 167/219/160
f 175/231/168 180/238/173 167/219/160 165/216/158
f 67/84/67 66/83/66 30/35/30 181/239/174
f 66/83/66 69/86/69 32/37/32 30/35/30
f 69/86/69 71/88/71 33/38/33 32/37/32
f 71/92/71 73/91/73 56/70/56 33/69/33
f 73/91/73 75/94/75 11/13/11 56/70/56
f 75/94/75 67/96/67 181/240/174 11/13/11
f 98/126/98 97/125/97 8/10/8 182/241/175
f 97/125/97 100/128/100 30/35/30 8/10/8
f 100/128/100 102/130/102 181/239/174 30/35/30
f 102/134/102 104/133/104 11/13/11 181/240/174
f 104/133/104 106/136/106 12/14/12 11/13/11
f 106/136/106 98/138/98 182/242/175 12/14/12
f 129/168/128 128/167/127 7/9/7 183/243/176
f 128/167/127 131/170/129 8/10/8 7/9/7
f 131/170/129 133/172/131 182/241/175 8/10/8
f 133/176/131 135/175/132 12/14/12 182/242/175
f 135/175/132 137/178/133 15/244/177 12/14/12
f 137/178/133 129/180/128 183/245/176 15/244/177
f 160/210/153 159/209/152 5/6/5 2/5/2
f 159/209/152 162/212/155 7/9/7 5/6/5
f 162/212/155 164/214/157 183/243/176 7/9/7
f 164/218/157 166/217/159 15/244/177 183/245/176
f 166/217/159 168/220/161 1/1/1 15/244/177
f 168/220/161 160/222/153 2/2/2 1/1/1
