# Blender v2.81 (sub 16) OBJ File: ''
# www.blender.org
mtllib figure_Collider.mtl
o Cylinder
v 0.000000 0.052076 -0.537601
v 0.000000 0.004970 -0.537601
v 0.242173 0.052076 -0.501743
v 0.242173 0.004970 -0.501743
v 0.447477 0.052076 -0.399630
v 0.447477 0.004970 -0.399630
v 0.584657 0.052076 -0.246807
v 0.584657 0.004970 -0.246807
v 0.632828 0.052076 -0.066539
v 0.632828 0.004970 -0.066539
v 0.584657 0.052076 0.113728
v 0.584657 0.004970 0.113728
v 0.447477 0.052076 0.266551
v 0.447477 0.004970 0.266551
v 0.242173 0.052076 0.368665
v 0.242173 0.004970 0.368665
v 0.000000 0.052076 0.404522
v 0.000000 0.004970 0.404522
v -0.242173 0.052076 0.368665
v -0.242173 0.004970 0.368665
v -0.447477 0.052076 0.266551
v -0.447477 0.004970 0.266551
v -0.584657 0.052076 0.113728
v -0.584657 0.004970 0.113728
v -0.632828 0.052076 -0.066539
v -0.632828 0.004970 -0.066539
v -0.584657 0.052076 -0.246807
v -0.584657 0.004970 -0.246807
v -0.447477 0.052076 -0.399630
v -0.447477 0.004970 -0.399630
v -0.242172 0.052076 -0.501743
v -0.242172 0.004970 -0.501743
vt 0.421072 0.838045
vt 0.081661 0.838045
vt 0.081660 0.159222
vt 0.531001 0.682322
vt 0.660888 0.055172
vt 0.974463 0.314946
vt 0.844576 0.942096
vt 0.752732 0.978634
vt 0.660888 0.942096
vt 0.583027 0.838045
vt 0.512732 0.498634
vt 0.531001 0.314946
vt 0.583027 0.159223
vt 0.752732 0.018634
vt 0.844576 0.055172
vt 0.922438 0.159222
vt 0.992732 0.498634
vt 0.974463 0.682322
vt 0.922438 0.838045
vt 0.343210 0.942096
vt 0.251366 0.978634
vt 0.159522 0.942096
vt 0.029635 0.682322
vt 0.011366 0.498634
vt 0.029635 0.314946
vt 0.159522 0.055172
vt 0.251366 0.018634
vt 0.343210 0.055172
vt 0.421072 0.159223
vt 0.473097 0.314946
vt 0.491366 0.498634
vt 0.473097 0.682322
vn 0.0000 1.0000 0.0000
vn 0.0000 -1.0000 0.0000
usemtl Material
s off
f 6/1/1 30/2/1 22/3/1
f 7/4/2 15/5/2 23/6/2
f 31/7/2 1/8/2 3/9/2
f 3/9/2 5/10/2 31/7/2
f 5/10/2 7/4/2 31/7/2
f 7/4/2 9/11/2 11/12/2
f 11/12/2 13/13/2 7/4/2
f 13/13/2 15/5/2 7/4/2
f 15/5/2 17/14/2 23/6/2
f 17/14/2 19/15/2 23/6/2
f 19/15/2 21/16/2 23/6/2
f 23/6/2 25/17/2 27/18/2
f 27/18/2 29/19/2 31/7/2
f 23/6/2 27/18/2 31/7/2
f 31/7/2 7/4/2 23/6/2
f 6/1/1 4/20/1 2/21/1
f 2/21/1 32/22/1 30/2/1
f 30/2/1 28/23/1 26/24/1
f 26/24/1 24/25/1 22/3/1
f 22/3/1 20/26/1 18/27/1
f 18/27/1 16/28/1 14/29/1
f 14/29/1 12/30/1 10/31/1
f 10/31/1 8/32/1 14/29/1
f 8/32/1 6/1/1 14/29/1
f 6/1/1 2/21/1 30/2/1
f 30/2/1 26/24/1 22/3/1
f 22/3/1 18/27/1 6/1/1
f 18/27/1 14/29/1 6/1/1
