# Blender v2.76 (sub 0) OBJ File: ''
# www.blender.org
mtllib Book Stack 2.mtl
o Model001_24_bookstack_0.3_10_1.001
v 0.136829 0.269241 -0.134378
v -0.213174 0.269241 -0.040583
v 0.133139 0.277131 -0.141595
v -0.215328 0.277131 -0.048231
v -0.215328 0.326089 -0.048231
v 0.133139 0.326089 -0.141595
v -0.213174 0.334141 -0.040583
v 0.136829 0.334141 -0.134378
v -0.143076 0.269241 0.221226
v -0.213174 0.269241 -0.040583
v 0.136829 0.269241 -0.134378
v 0.206926 0.269241 0.127376
v 0.206926 0.334141 0.127376
v -0.143076 0.269241 0.221226
v 0.206926 0.269241 0.127376
v -0.143076 0.334141 0.221226
v 0.136829 0.334141 -0.134378
v -0.143076 0.334141 0.221226
v 0.206926 0.334141 0.127376
v -0.213174 0.334141 -0.040583
v 0.133139 0.326089 -0.141595
v 0.136829 0.269241 -0.134378
v 0.133139 0.277131 -0.141595
v 0.136829 0.334141 -0.134378
v 0.206926 0.334141 0.127376
v 0.206926 0.269241 0.127376
v -0.143076 0.334141 0.221226
v -0.213174 0.269241 -0.040583
v -0.143076 0.269241 0.221226
v -0.213174 0.334141 -0.040583
v -0.215328 0.326089 -0.048231
v -0.215328 0.277131 -0.048231
v 0.174072 0.204960 0.248532
v -0.224026 0.187537 0.144073
v 0.176199 0.197070 0.240803
v -0.225992 0.195427 0.151721
v -0.227312 0.252302 0.151128
v 0.172914 0.261835 0.247859
v 0.174557 0.269725 0.240130
v -0.225507 0.260192 0.143319
v 0.176199 0.197070 0.240803
v -0.148327 0.186056 -0.168471
v 0.251817 0.195589 -0.071713
v -0.224026 0.187537 0.144073
v -0.149889 0.258711 -0.169144
v 0.251817 0.195589 -0.071713
v -0.148327 0.186056 -0.168471
v 0.250175 0.268244 -0.072413
v 0.174557 0.269725 0.240130
v -0.149889 0.258711 -0.169144
v -0.225507 0.260192 0.143319
v 0.250175 0.268244 -0.072413
v -0.227312 0.252302 0.151128
v -0.224026 0.187537 0.144073
v -0.225992 0.195427 0.151721
v -0.225507 0.260192 0.143319
v -0.148327 0.186056 -0.168471
v -0.149889 0.258711 -0.169144
v 0.174557 0.269725 0.240130
v 0.251817 0.195589 -0.071713
v 0.250175 0.268244 -0.072413
v 0.176199 0.197070 0.240803
v 0.172914 0.261835 0.247859
v 0.174072 0.204960 0.248532
v -0.224188 0.058545 -0.092368
v 0.136748 0.066489 -0.197231
v 0.138794 0.058545 -0.189664
v -0.226154 0.066489 -0.100016
v 0.136748 0.123525 -0.197231
v -0.226154 0.123525 -0.100016
v -0.224188 0.131497 -0.092368
v 0.138794 0.131497 -0.189664
v -0.140949 0.058545 0.218263
v -0.224188 0.058545 -0.092368
v 0.138794 0.058545 -0.189664
v 0.222060 0.058545 0.120967
v 0.222060 0.131497 0.120967
v -0.140949 0.131497 0.218263
v 0.222060 0.058545 0.120967
v -0.140949 0.058545 0.218263
v 0.138794 0.131497 -0.189664
v -0.140949 0.131497 0.218263
v 0.222060 0.131497 0.120967
v -0.224188 0.131497 -0.092368
v 0.136748 0.123525 -0.197231
v 0.138794 0.058545 -0.189664
v 0.136748 0.066489 -0.197231
v 0.138794 0.131497 -0.189664
v 0.222060 0.131497 0.120967
v 0.222060 0.058545 0.120967
v -0.140949 0.131497 0.218263
v -0.224188 0.058545 -0.092368
v -0.140949 0.058545 0.218263
v -0.224188 0.131497 -0.092368
v -0.226154 0.123525 -0.100016
v -0.226154 0.066489 -0.100016
v -0.170598 0.131658 0.177842
v 0.191657 0.131658 0.177842
v -0.168955 0.139629 0.185894
v 0.191657 0.139629 0.185894
v -0.168955 0.188695 0.185894
v 0.191657 0.188695 0.185894
v 0.191657 0.196585 0.177842
v -0.170598 0.196585 0.177842
v 0.191657 0.131658 -0.093122
v -0.170598 0.131658 0.177842
v -0.170598 0.131658 -0.093122
v 0.191657 0.131658 0.177842
v -0.170598 0.196585 -0.093122
v 0.191657 0.196585 -0.093122
v -0.170598 0.131658 -0.093122
v 0.191657 0.131658 -0.093122
v -0.170598 0.196585 0.177842
v 0.191657 0.196585 -0.093122
v -0.170598 0.196585 -0.093122
v 0.191657 0.196585 0.177842
v -0.170598 0.196585 0.177842
v -0.168955 0.139629 0.185894
v -0.168955 0.188695 0.185894
v -0.170598 0.131658 0.177842
v -0.170598 0.131658 -0.093122
v -0.170598 0.196585 -0.093122
v 0.191657 0.196585 0.177842
v 0.191657 0.131658 -0.093122
v 0.191657 0.196585 -0.093122
v 0.191657 0.131658 0.177842
v 0.191657 0.188695 0.185894
v 0.191657 0.139629 0.185894
v 0.080546 0.333818 0.292239
v -0.231755 0.341546 0.083293
v -0.227312 0.333818 0.076749
v 0.075968 0.341546 0.298809
v 0.075968 0.398744 0.298809
v -0.231755 0.398745 0.083293
v 0.080546 0.406635 0.292239
v -0.227312 0.406635 0.076749
v -0.227312 0.333818 0.076749
v 0.264959 0.333818 0.028895
v 0.080546 0.333818 0.292239
v -0.042818 0.333818 -0.186540
v -0.042818 0.406635 -0.186540
v 0.264959 0.406635 0.028895
v -0.042818 0.333818 -0.186540
v 0.264959 0.333818 0.028895
v -0.227312 0.406635 0.076749
v 0.264959 0.406635 0.028895
v -0.042818 0.406635 -0.186540
v 0.080546 0.406635 0.292239
v -0.227312 0.406635 0.076749
v -0.231755 0.341546 0.083293
v -0.231755 0.398745 0.083293
v -0.227312 0.333818 0.076749
v -0.042818 0.333818 -0.186540
v -0.042818 0.406635 -0.186540
v 0.264959 0.406635 0.028895
v 0.080546 0.333818 0.292239
v 0.264959 0.333818 0.028895
v 0.080546 0.406635 0.292239
v 0.075968 0.398744 0.298809
v 0.075968 0.341546 0.298809
v 0.195589 0.050547 0.224188
v 0.195104 0.029649 0.229789
v 0.195589 0.008752 0.224188
v 0.197070 -0.000000 0.206280
v 0.197070 0.059299 0.206280
v 0.223703 0.000000 -0.097135
v 0.223703 0.059299 -0.097135
v -0.224511 0.008752 0.187537
v -0.225023 0.029649 0.193138
v -0.224511 0.050547 0.187537
v -0.222868 0.059299 0.169629
v -0.222868 -0.000000 0.169629
v -0.196424 0.059299 -0.133866
v -0.196424 0.000000 -0.133866
v -0.196424 0.059299 -0.133866
v 0.223703 0.000000 -0.097135
v -0.196424 0.000000 -0.133866
v 0.223703 0.059299 -0.097135
v -0.222868 0.059299 0.169629
v 0.223703 0.059299 -0.097135
v -0.196424 0.059299 -0.133866
v 0.197070 0.059299 0.206280
v 0.197070 0.059299 0.206280
v -0.222868 0.059299 0.169629
v 0.195589 0.050547 0.224188
v -0.224511 0.050547 0.187537
v 0.195104 0.029649 0.229789
v -0.225023 0.029649 0.193138
v -0.224511 0.008752 0.187537
v 0.195589 0.008752 0.224188
v -0.222868 -0.000000 0.169629
v 0.197070 -0.000000 0.206280
v 0.223703 0.000000 -0.097135
v -0.222868 -0.000000 0.169629
v -0.196424 0.000000 -0.133866
v 0.197070 -0.000000 0.206280
vt 0.365000 0.669096
vt 0.365000 0.409096
vt 0.374000 0.668096
vt 0.374000 0.409096
vt 0.409000 0.409096
vt 0.409000 0.668096
vt 0.417000 0.409096
vt 0.417000 0.669096
vt 0.617000 0.409096
vt 0.422000 0.409096
vt 0.422000 0.669096
vt 0.617000 0.669096
vt 0.622000 0.674096
vt 0.670000 0.405096
vt 0.670000 0.674096
vt 0.622000 0.405096
vt 0.618000 0.715096
vt 0.612000 0.673096
vt 0.618000 0.679096
vt 0.612000 0.721096
vt 0.411000 0.721096
vt 0.411000 0.673096
vt 0.011000 0.448096
vt 0.003000 0.744096
vt 0.003000 0.448096
vt 0.011000 0.744096
vt 0.052000 0.744096
vt 0.052000 0.448096
vt 0.060000 0.448096
vt 0.060000 0.744096
vt 0.065000 0.448096
vt 0.296000 0.744096
vt 0.296000 0.448096
vt 0.065000 0.744096
vt 0.360000 0.745096
vt 0.306000 0.439096
vt 0.306000 0.745096
vt 0.360000 0.439096
vt 0.615000 0.774096
vt 0.609000 0.726096
vt 0.615000 0.731096
vt 0.609000 0.780096
vt 0.370000 0.726096
vt 0.370000 0.780096
vt 0.916000 0.371096
vt 0.924000 0.666096
vt 0.916000 0.666096
vt 0.924000 0.371096
vt 0.965000 0.666096
vt 0.965000 0.371096
vt 0.973000 0.371096
vt 0.973000 0.666096
vt 0.681000 0.371096
vt 0.912000 0.371096
vt 0.912000 0.666096
vt 0.681000 0.666096
vt 0.626000 0.782096
vt 0.932000 0.782096
vt 0.626000 0.728096
vt 0.932000 0.728096
vt 0.922000 0.718096
vt 0.916000 0.670096
vt 0.922000 0.676096
vt 0.916000 0.724096
vt 0.677000 0.724096
vt 0.677000 0.670096
vt 0.551000 0.367096
vt 0.555000 0.383096
vt 0.551000 0.398096
vt 0.538000 0.405096
vt 0.538000 0.360096
vt 0.312000 0.405096
vt 0.312000 0.360096
vt 0.624000 0.312096
vt 0.311000 0.356096
vt 0.624000 0.356096
vt 0.311000 0.312096
vt 0.534000 0.003096
vt 0.312000 0.311096
vt 0.312000 0.003096
vt 0.534000 0.311096
vt 0.537000 0.311096
vt 0.537000 0.003096
vt 0.552000 0.311096
vt 0.552000 0.003096
vt 0.567000 0.311096
vt 0.567000 0.003096
vt 0.583000 0.003096
vt 0.583000 0.311096
vt 0.598000 0.003096
vt 0.598000 0.311096
vn -0.182600 -0.708700 -0.681500
vn -0.182500 -0.709200 -0.681000
vn -0.239000 -0.384000 -0.891900
vn -0.238900 -0.384200 -0.891800
vn -0.250500 0.250700 -0.935100
vn -0.223900 0.501100 -0.835900
vn -0.184300 0.701900 -0.688000
vn -0.184500 0.701500 -0.688400
vn 0.000000 -1.000000 -0.000000
vn 0.259000 -0.000000 0.965900
vn 0.000000 1.000000 0.000000
vn 0.890400 0.000000 -0.455200
vn 0.933400 0.000000 -0.358900
vn 0.966000 -0.000000 -0.258700
vn -0.966000 -0.000000 0.258600
vn -0.964300 -0.000000 0.264900
vn -0.962500 -0.000000 0.271100
vn -0.208600 -0.381800 0.900400
vn -0.149600 -0.709600 0.688500
vn -0.148900 -0.712200 0.686100
vn -0.208900 -0.380800 0.900700
vn -0.225400 0.387100 0.894100
vn -0.225400 0.385500 0.894700
vn -0.181500 0.709800 0.680600
vn -0.181000 0.712400 0.678000
vn 0.021400 -0.999700 0.009900
vn 0.235100 -0.004000 -0.972000
vn 0.235100 -0.004100 -0.972000
vn -0.021400 0.999700 -0.009900
vn -0.971600 -0.023600 -0.235500
vn -0.971600 -0.023200 -0.235400
vn -0.974100 -0.024900 -0.224700
vn -0.970800 -0.022700 -0.238800
vn -0.971700 -0.023000 -0.235100
vn -0.971700 -0.023100 -0.235100
vn 0.972000 0.024200 0.233800
vn 0.971700 0.024200 0.235000
vn 0.971200 0.023700 0.237000
vn 0.971100 0.023400 0.237600
vn 0.969600 0.022600 0.243800
vn -0.183900 -0.703700 -0.686300
vn -0.223700 -0.502500 -0.835100
vn -0.184300 -0.702400 -0.687500
vn -0.250400 -0.251800 -0.934800
vn -0.239400 0.379500 -0.893700
vn -0.239300 0.380500 -0.893300
vn -0.184200 0.702400 -0.687500
vn -0.184600 0.701200 -0.688700
vn 0.258900 -0.000000 0.965900
vn 0.965300 0.000000 -0.261100
vn 0.965700 0.000000 -0.259600
vn 0.965900 0.000000 -0.258900
vn -0.965900 0.000000 0.258800
vn -0.967200 -0.000000 0.253900
vn -0.968500 0.000000 0.248900
vn 0.000000 -0.710700 0.703500
vn 0.000000 -0.508500 0.861100
vn 0.000000 -0.254200 0.967200
vn 0.000000 0.387400 0.921900
vn 0.000000 0.714200 0.699900
vn 0.000000 0.000000 -1.000000
vn -0.994900 0.000000 0.100500
vn -0.979800 0.000000 0.199900
vn -1.000000 -0.000000 0.000000
vn 1.000000 0.000000 0.000000
vn -0.399600 -0.717400 0.570700
vn -0.528300 -0.389300 0.754500
vn -0.400800 -0.715200 0.572600
vn -0.528100 -0.390700 0.754000
vn -0.554700 0.254900 0.792000
vn -0.494100 0.508000 0.705500
vn -0.403800 0.710200 0.576700
vn -0.405000 0.707900 0.578600
vn 0.573400 0.000000 -0.819200
vn -0.823200 0.000000 -0.567800
vn -0.827300 0.000000 -0.561700
vn -0.819000 0.000000 -0.573900
vn 0.819100 -0.000000 0.573600
vn 0.819600 -0.000000 0.573000
vn 0.820500 0.000000 0.571700
vn 0.996500 -0.000000 0.083600
vn 0.996300 0.000000 0.086200
vn 0.996400 -0.000000 0.084300
vn 0.996400 -0.000000 0.084200
vn 0.996400 -0.000000 0.085400
vn 0.996200 -0.000000 0.087400
vn -0.995800 0.000000 -0.091300
vn -0.995900 0.000000 -0.091000
vn -0.996000 -0.000000 -0.089700
vn -0.996100 -0.000000 -0.088400
vn -0.996200 0.000000 -0.086800
vn 0.087100 0.000000 -0.996200
vn -0.038100 0.899000 0.436200
vn -0.038000 0.899200 0.436000
vn -0.058000 0.745300 0.664200
vn -0.074700 0.513800 0.854700
vn -0.086900 -0.000000 0.996200
vn -0.074600 -0.513800 0.854700
vn -0.058000 -0.745300 0.664200
vn -0.038000 -0.899200 0.436000
vn -0.038100 -0.899000 0.436200
usemtl Model001_Material001.019
s 1
f 1/1/1 2/2/2 3/3/3
f 3/3/3 2/2/2 4/4/4
f 5/5/5 3/3/3 4/4/4
f 3/3/3 5/5/5 6/6/6
f 7/7/7 6/6/6 5/5/5
f 6/6/6 7/7/7 8/8/8
f 9/9/9 10/10/9 11/11/9
f 12/12/9 9/9/9 11/11/9
f 13/13/10 14/14/10 15/15/10
f 14/14/10 13/13/10 16/16/10
f 17/11/11 18/9/11 19/12/11
f 18/9/11 17/11/11 20/10/11
f 21/17/12 22/18/13 23/19/12
f 22/18/13 21/17/12 24/20/13
f 25/21/14 22/18/13 24/20/13
f 22/18/13 25/21/14 26/22/14
f 27/21/15 28/18/16 29/22/15
f 28/18/16 27/21/15 30/20/16
f 28/18/16 30/20/16 31/17/17
f 28/18/16 31/17/17 32/19/17
f 33/23/18 34/24/19 35/25/20
f 34/24/19 33/23/18 36/26/21
f 33/23/18 37/27/22 36/26/21
f 37/27/22 33/23/18 38/28/23
f 39/29/24 37/27/22 38/28/23
f 37/27/22 39/29/24 40/30/25
f 41/31/26 42/32/26 43/33/26
f 42/32/26 41/31/26 44/34/26
f 45/35/27 46/36/27 47/37/27
f 46/36/27 45/35/27 48/38/28
f 49/31/29 50/32/29 51/34/29
f 50/32/29 49/31/29 52/33/29
f 53/39/30 54/40/31 55/41/32
f 54/40/31 53/39/30 56/42/33
f 56/42/33 57/43/34 54/40/31
f 57/43/34 56/42/33 58/44/35
f 59/42/36 60/43/37 61/44/37
f 60/43/37 59/42/36 62/40/38
f 62/40/38 59/42/36 63/39/39
f 62/40/38 63/39/39 64/41/40
f 65/45/41 66/46/42 67/47/43
f 66/46/42 65/45/41 68/48/44
f 68/48/44 69/49/45 66/46/42
f 69/49/45 68/48/44 70/50/46
f 71/51/47 69/49/45 70/50/46
f 69/49/45 71/51/47 72/52/48
f 73/53/9 74/54/9 75/55/9
f 76/56/9 73/53/9 75/55/9
f 77/57/49 78/58/49 79/59/49
f 80/60/49 79/59/49 78/58/49
f 81/55/11 82/53/11 83/56/11
f 82/53/11 81/55/11 84/54/11
f 85/61/50 86/62/51 87/63/50
f 86/62/51 85/61/50 88/64/51
f 89/65/52 86/62/51 88/64/51
f 86/62/51 89/65/52 90/66/52
f 91/65/53 92/62/54 93/66/53
f 92/62/54 91/65/53 94/64/54
f 92/62/54 94/64/54 95/61/55
f 92/62/54 95/61/55 96/63/55
f 97/1/56 98/2/56 99/3/57
f 100/4/58 99/3/57 98/2/56
f 100/4/58 101/6/59 99/3/57
f 101/6/59 100/4/58 102/5/59
f 103/7/60 101/6/59 102/5/59
f 101/6/59 103/7/60 104/8/60
f 105/9/9 106/11/9 107/12/9
f 106/11/9 105/9/9 108/10/9
f 109/13/61 110/16/61 111/15/61
f 112/14/61 111/15/61 110/16/61
f 113/11/11 114/9/11 115/12/11
f 114/9/11 113/11/11 116/10/11
f 117/20/62 118/19/63 119/17/63
f 117/20/62 120/18/62 118/19/63
f 117/20/62 121/22/64 120/18/62
f 117/20/62 122/21/64 121/22/64
f 123/20/65 124/22/65 125/21/65
f 124/22/65 123/20/65 126/18/65
f 126/18/65 123/20/65 127/17/65
f 126/18/65 127/17/65 128/19/65
f 129/45/66 130/46/67 131/47/68
f 130/46/67 129/45/66 132/48/69
f 133/50/70 130/46/67 132/48/69
f 130/46/67 133/50/70 134/49/71
f 135/51/72 134/49/71 133/50/70
f 134/49/71 135/51/72 136/52/73
f 137/55/9 138/53/9 139/54/9
f 137/55/9 140/56/9 138/53/9
f 141/57/74 142/58/74 143/59/74
f 144/60/74 143/59/74 142/58/74
f 145/55/11 146/53/11 147/56/11
f 146/53/11 145/55/11 148/54/11
f 149/64/75 150/63/76 151/61/76
f 149/64/75 152/62/75 150/63/76
f 149/64/75 153/66/77 152/62/75
f 149/64/75 154/65/77 153/66/77
f 155/65/78 156/62/79 157/66/78
f 156/62/79 155/65/78 158/64/79
f 156/62/79 158/64/79 159/61/80
f 156/62/79 159/61/80 160/63/80
f 161/67/81 162/68/82 163/69/83
f 164/70/84 161/67/81 163/69/83
f 164/70/84 165/71/85 161/67/81
f 166/72/86 165/71/85 164/70/84
f 165/71/85 166/72/86 167/73/86
f 168/69/87 169/68/88 170/67/87
f 171/71/89 168/69/87 170/67/87
f 171/71/89 172/70/90 168/69/87
f 173/73/91 172/70/90 171/71/89
f 172/70/90 173/73/91 174/72/91
f 175/74/92 176/75/92 177/76/92
f 175/74/92 178/77/92 176/75/92
f 179/78/11 180/79/11 181/80/11
f 180/79/11 179/78/11 182/81/11
f 183/82/93 184/83/94 185/84/95
f 186/85/96 185/84/95 184/83/94
f 186/85/96 187/86/97 185/84/95
f 187/86/97 186/85/96 188/87/97
f 189/88/98 187/86/97 188/87/97
f 187/86/97 189/88/98 190/89/99
f 190/89/99 189/88/98 191/90/100
f 190/89/99 191/90/100 192/91/101
f 193/79/9 194/78/9 195/80/9
f 194/78/9 193/79/9 196/81/9
