# Blender v2.78 (sub 0) OBJ File: 'botella10.blend'
# www.blender.org
mtllib botella10-collision.mtl
o Collision_Cylinder
v 0.000000 -0.264712 -0.376668
v 0.000000 0.502562 -0.222544
v 0.221400 -0.264712 -0.304731
v 0.130808 0.502562 -0.180042
v 0.358232 -0.264712 -0.116397
v 0.211652 0.502562 -0.068770
v 0.358232 -0.264712 0.116397
v 0.211652 0.502562 0.068770
v 0.221400 -0.264712 0.304731
v 0.130808 0.502562 0.180042
v -0.000000 -0.264712 0.376668
v -0.000000 0.502562 0.222544
v -0.221400 -0.264712 0.304730
v -0.130808 0.502562 0.180042
v -0.358232 -0.264712 0.116397
v -0.211652 0.502562 0.068770
v -0.358232 -0.264712 -0.116397
v -0.211652 0.502562 -0.068770
v -0.221400 -0.264712 -0.304731
v -0.130808 0.502562 -0.180042
v 0.000000 -0.435365 -0.000000
v 0.093648 0.730027 -0.128896
v 0.000000 0.730027 -0.159324
v 0.151526 0.730027 -0.049234
v 0.151526 0.730027 0.049234
v 0.093648 0.730027 0.128896
v -0.000000 0.730027 0.159324
v -0.093648 0.730027 0.128896
v -0.151526 0.730027 0.049234
v -0.151526 0.730027 -0.049234
v -0.093648 0.730027 -0.128896
v -0.000000 0.001955 -0.455932
v 0.267990 0.001955 -0.368857
v 0.097289 0.411901 -0.133907
v 0.000000 0.411901 -0.165518
v 0.433617 0.001955 -0.140891
v 0.157417 0.411901 -0.051148
v 0.433617 0.001955 0.140891
v 0.157417 0.411901 0.051148
v 0.267990 0.001955 0.368857
v 0.097289 0.411901 0.133907
v -0.000000 0.001955 0.455932
v -0.000000 0.411901 0.165518
v -0.267990 0.001955 0.368857
v -0.097289 0.411901 0.133907
v -0.433617 0.001955 0.140891
v -0.157417 0.411901 0.051148
v -0.433617 0.001955 -0.140891
v -0.157417 0.411901 -0.051148
v -0.267990 0.001955 -0.368857
v -0.097289 0.411901 -0.133907
v -0.000000 0.261857 -0.377573
v 0.221932 0.261857 -0.305463
v 0.359093 0.261857 -0.116677
v 0.359094 0.261857 0.116677
v 0.221932 0.261857 0.305463
v -0.000000 0.261857 0.377573
v -0.221932 0.261857 0.305463
v -0.359094 0.261857 0.116677
v -0.359094 0.261857 -0.116677
v -0.221932 0.261857 -0.305463
v 0.000000 -0.409716 -0.168571
v 0.099084 -0.409716 -0.136377
v 0.160321 -0.409716 -0.052091
v 0.160321 -0.409716 0.052091
v 0.099084 -0.409716 0.136377
v -0.000000 -0.409716 0.168571
v -0.099084 -0.409716 0.136377
v -0.160321 -0.409716 0.052091
v -0.160321 -0.409716 -0.052091
v -0.099084 -0.409716 -0.136377
v 0.044064 -0.409716 -0.154254
v 0.126316 -0.409716 -0.098894
v 0.160321 -0.409716 -0.005760
v 0.133088 -0.409716 0.089574
v 0.055020 -0.409716 0.150694
v -0.044064 -0.409716 0.154254
v -0.133088 -0.409716 0.089574
v -0.160321 -0.409716 0.005760
v -0.133088 -0.409716 -0.089574
v -0.055020 -0.409716 -0.150694
vn 0.1845 0.8023 -0.5677
vn 0.4829 0.8023 -0.3509
vn 0.5969 0.8023 -0.0000
vn 0.4829 0.8023 0.3509
vn 0.1845 0.8023 0.5677
vn -0.1845 0.8023 0.5677
vn -0.4829 0.8023 0.3509
vn -0.5969 0.8023 0.0000
vn 0.0000 1.0000 0.0000
vn -0.4829 0.8023 -0.3509
vn -0.1845 0.8023 -0.5677
vn 0.0488 -0.9874 -0.1502
vn 0.2988 0.2556 -0.9195
vn 0.1278 -0.9874 -0.0929
vn 0.7822 0.2556 -0.5683
vn 0.1580 -0.9874 0.0000
vn 0.9668 0.2556 0.0000
vn 0.1278 -0.9874 0.0929
vn 0.7822 0.2556 0.5683
vn 0.0488 -0.9874 0.1502
vn 0.2988 0.2556 0.9195
vn -0.0488 -0.9874 0.1502
vn -0.2988 0.2556 0.9195
vn -0.1278 -0.9874 0.0929
vn -0.7822 0.2556 0.5683
vn -0.1580 -0.9874 0.0000
vn -0.9668 0.2556 0.0000
vn -0.1278 -0.9874 -0.0929
vn -0.7822 0.2556 -0.5683
vn -0.0488 -0.9874 -0.1502
vn -0.2988 0.2556 -0.9195
vn 0.2974 -0.2720 -0.9152
vn 0.2652 -0.5134 -0.8162
vn 0.7785 -0.2720 -0.5656
vn 0.6943 -0.5134 -0.5044
vn 0.9623 -0.2720 0.0000
vn 0.8582 -0.5134 0.0000
vn 0.7785 -0.2720 0.5656
vn 0.6943 -0.5134 0.5044
vn 0.2974 -0.2720 0.9152
vn 0.2652 -0.5134 0.8162
vn -0.2974 -0.2720 0.9152
vn -0.2652 -0.5134 0.8162
vn -0.7785 -0.2720 0.5656
vn -0.6943 -0.5134 0.5044
vn -0.9623 -0.2720 0.0000
vn -0.8582 -0.5134 0.0000
vn -0.7785 -0.2720 -0.5656
vn -0.6943 -0.5134 -0.5044
vn -0.2974 -0.2720 -0.9152
vn -0.2652 -0.5134 -0.8162
vn -0.7777 0.2756 -0.5650
vn -0.9613 0.2756 0.0000
vn -0.7777 0.2756 0.5650
vn -0.2970 0.2756 0.9142
vn 0.2970 0.2756 0.9142
vn 0.7777 0.2756 0.5650
vn 0.9613 0.2756 0.0000
vn 0.7777 0.2756 -0.5650
vn 0.2970 0.2756 -0.9142
vn -0.2970 0.2756 -0.9142
vn -0.1826 -0.8067 -0.5621
vn -0.4781 -0.8067 -0.3474
vn -0.5910 -0.8067 0.0000
vn -0.4781 -0.8067 0.3474
vn -0.1826 -0.8067 0.5621
vn 0.1826 -0.8067 0.5621
vn 0.4781 -0.8067 0.3474
vn 0.5910 -0.8067 0.0000
vn 0.4781 -0.8067 -0.3474
vn 0.1826 -0.8067 -0.5621
usemtl None
s off
f 52//1 34//1 53//1
f 34//2 54//2 53//2
f 37//3 55//3 54//3
f 39//4 56//4 55//4
f 41//5 57//5 56//5
f 43//6 58//6 57//6
f 45//7 59//7 58//7
f 47//8 60//8 59//8
f 28//9 26//9 24//9
f 49//10 61//10 60//10
f 51//11 52//11 61//11
f 72//12 21//12 62//12
f 2//13 22//13 4//13
f 73//14 21//14 63//14
f 4//15 24//15 6//15
f 74//16 21//16 64//16
f 6//17 25//17 8//17
f 75//18 21//18 65//18
f 10//19 25//19 26//19
f 76//20 21//20 66//20
f 10//21 27//21 12//21
f 77//22 21//22 67//22
f 12//23 28//23 14//23
f 78//24 21//24 68//24
f 14//25 29//25 16//25
f 79//26 21//26 69//26
f 16//27 30//27 18//27
f 80//28 21//28 70//28
f 18//29 31//29 20//29
f 81//30 21//30 71//30
f 20//31 23//31 2//31
f 33//32 1//32 32//32
f 34//33 2//33 4//33
f 36//34 3//34 33//34
f 34//35 6//35 37//35
f 38//36 5//36 36//36
f 39//37 6//37 8//37
f 40//38 7//38 38//38
f 41//39 8//39 10//39
f 42//40 9//40 40//40
f 41//41 12//41 43//41
f 44//42 11//42 42//42
f 43//43 14//43 45//43
f 46//44 13//44 44//44
f 45//45 16//45 47//45
f 48//46 15//46 46//46
f 47//47 18//47 49//47
f 50//48 17//48 48//48
f 51//49 18//49 20//49
f 32//50 19//50 50//50
f 51//51 2//51 35//51
f 48//52 61//52 50//52
f 59//53 48//53 46//53
f 58//54 46//54 44//54
f 57//55 44//55 42//55
f 40//56 57//56 42//56
f 55//57 40//57 38//57
f 54//58 38//58 36//58
f 53//59 36//59 33//59
f 52//60 33//60 32//60
f 61//61 32//61 50//61
f 52//1 35//1 34//1
f 34//2 37//2 54//2
f 37//3 39//3 55//3
f 39//4 41//4 56//4
f 41//5 43//5 57//5
f 43//6 45//6 58//6
f 45//7 47//7 59//7
f 47//8 49//8 60//8
f 24//9 22//9 23//9
f 23//9 31//9 24//9
f 30//9 29//9 28//9
f 28//9 27//9 26//9
f 26//9 25//9 24//9
f 24//9 31//9 30//9
f 30//9 28//9 24//9
f 49//10 51//10 61//10
f 51//11 35//11 52//11
f 63//12 21//12 72//12
f 2//13 23//13 22//13
f 64//14 21//14 73//14
f 4//15 22//15 24//15
f 65//16 21//16 74//16
f 6//17 24//17 25//17
f 66//18 21//18 75//18
f 10//19 8//19 25//19
f 67//20 21//20 76//20
f 10//21 26//21 27//21
f 68//22 21//22 77//22
f 12//23 27//23 28//23
f 78//24 69//24 21//24
f 14//25 28//25 29//25
f 70//26 21//26 79//26
f 16//27 29//27 30//27
f 71//28 21//28 80//28
f 18//29 30//29 31//29
f 62//30 21//30 81//30
f 20//31 31//31 23//31
f 33//32 3//32 1//32
f 34//33 35//33 2//33
f 36//34 5//34 3//34
f 34//35 4//35 6//35
f 38//36 7//36 5//36
f 39//37 37//37 6//37
f 40//38 9//38 7//38
f 41//39 39//39 8//39
f 42//40 11//40 9//40
f 41//41 10//41 12//41
f 44//42 13//42 11//42
f 43//43 12//43 14//43
f 46//44 15//44 13//44
f 45//45 14//45 16//45
f 48//46 17//46 15//46
f 47//47 16//47 18//47
f 50//48 19//48 17//48
f 51//49 49//49 18//49
f 32//50 1//50 19//50
f 51//51 20//51 2//51
f 48//52 60//52 61//52
f 59//53 60//53 48//53
f 58//54 59//54 46//54
f 57//55 58//55 44//55
f 40//56 56//56 57//56
f 55//57 56//57 40//57
f 54//58 55//58 38//58
f 53//59 54//59 36//59
f 52//60 53//60 33//60
f 61//61 52//61 32//61
f 1//62 81//62 71//62 19//62
f 19//63 71//63 80//63
f 19//63 80//63 70//63 17//63
f 17//64 70//64 79//64
f 17//64 79//64 69//64 15//64
f 13//65 15//65 69//65 78//65
f 13//65 78//65 68//65
f 13//66 68//66 77//66
f 13//66 77//66 67//66 11//66
f 11//67 67//67 76//67
f 11//67 76//67 66//67 9//67
f 9//68 66//68 75//68
f 9//68 75//68 65//68 7//68
f 7//69 65//69 74//69
f 7//69 74//69 64//69 5//69
f 5//70 64//70 73//70
f 5//70 73//70 63//70 3//70
f 3//71 63//71 72//71
f 3//71 72//71 62//71 1//71
f 1//62 62//62 81//62
