# Blender v2.76 (sub 0) OBJ File: ''
# www.blender.org
mtllib Medium Red Rug.mtl
o Model001_24_chantmed_0.3_9_1
v 0.765086 0.047972 1.430158
v 0.647742 0.041948 1.455359
v 0.779658 0.042174 1.449061
v 0.647742 0.047843 1.436457
v -0.671371 0.041634 1.439610
v -0.671766 0.046029 1.422280
v -0.781626 0.045948 1.423070
v -0.790287 0.042037 1.437247
v -0.777295 0.050634 -1.451424
v -0.670185 0.043812 -1.463230
v -0.791860 0.043642 -1.462448
v -0.669008 0.050562 -1.452206
v 0.649323 0.044497 -1.460085
v 0.649323 0.051973 -1.449061
v 0.766272 0.052441 -1.448271
v 0.773747 0.044723 -1.458505
v 0.765086 0.047972 1.430158
v 0.647742 0.043924 1.330137
v 0.647742 0.047843 1.436457
v 0.763909 0.047448 1.328564
v -0.669008 0.050562 -1.452206
v -0.777295 0.050634 -1.451424
v -0.672161 0.045892 -1.366370
v -0.774142 0.050763 -1.363217
v -0.781626 0.045948 1.423070
v -0.789892 0.042674 1.332500
v -0.790287 0.042037 1.437247
v -0.782021 0.046271 1.332500
v -0.783594 0.044779 0.571357
v -0.776505 0.049731 0.570962
v -0.774142 0.050279 -0.479996
v -0.793045 0.045594 -0.490633
v -0.774142 0.050763 -1.363217
v -0.789892 0.043683 -1.363217
v -0.777295 0.050634 -1.451424
v -0.791860 0.043642 -1.462448
v 0.766272 0.052441 -1.448271
v 0.772570 0.045005 -1.361644
v 0.773747 0.044723 -1.458505
v 0.765086 0.053529 -1.362426
v 0.776505 0.046287 -0.485512
v 0.769022 0.062997 -0.480787
v 0.767449 0.042207 0.568599
v 0.761933 0.043820 0.568204
v 0.763909 0.047448 1.328564
v 0.776505 0.042344 1.329355
v 0.765086 0.047972 1.430158
v 0.779658 0.042174 1.449061
v 0.763909 0.047448 1.328564
v 0.652863 0.043892 0.567414
v 0.647742 0.043924 1.330137
v 0.761933 0.043820 0.568204
v 0.652468 0.054223 -0.478424
v 0.769022 0.062997 -0.480787
v 0.765086 0.053529 -1.362426
v 0.651686 0.047054 -1.365579
v 0.766272 0.052441 -1.448271
v 0.651686 0.047054 -1.365579
v 0.765086 0.053529 -1.362426
v 0.649323 0.051973 -1.449061
v -0.774142 0.050763 -1.363217
v -0.672548 0.050110 -0.478819
v -0.672161 0.045892 -1.366370
v -0.774142 0.050279 -0.479996
v -0.776505 0.049731 0.570962
v -0.670976 0.047876 0.570962
v -0.782021 0.046271 1.332500
v -0.674524 0.044965 1.334080
v -0.781626 0.045948 1.423070
v -0.674524 0.044965 1.334080
v -0.782021 0.046271 1.332500
v -0.671766 0.046029 1.422280
v -0.670976 0.047876 0.570962
v 0.647742 0.043924 1.330137
v 0.652863 0.043892 0.567414
v -0.674524 0.044965 1.334080
v -0.672548 0.050110 -0.478819
v 0.652863 0.043892 0.567414
v 0.652468 0.054223 -0.478424
v -0.670976 0.047876 0.570962
v -0.672161 0.045892 -1.366370
v -0.672548 0.050110 -0.478819
v 0.651686 0.047054 -1.365579
v 0.652468 0.054223 -0.478424
v -0.669008 0.050562 -1.452206
v 0.651686 0.047054 -1.365579
v 0.649323 0.051973 -1.449061
v -0.672161 0.045892 -1.366370
v -0.671766 0.046029 1.422280
v 0.647742 0.043924 1.330137
v -0.674524 0.044965 1.334080
v 0.647742 0.047843 1.436457
vt 0.977000 0.845762
vt 0.902000 0.824763
vt 0.986000 0.824763
vt 0.903000 0.845762
vt 0.078000 0.824763
vt 0.077000 0.845762
vt 0.022000 0.845762
vt 0.015000 0.824763
vt -0.168000 0.824763
vt -0.091000 0.844763
vt -0.180000 0.844763
vt -0.089000 0.824763
vt 1.092000 0.844763
vt 1.093000 0.824763
vt 1.178000 0.824763
vt 1.183000 0.844763
vt 0.146000 0.853763
vt 0.000000 1.000762
vt 0.000000 0.852763
vt 0.146000 1.000762
vt -0.447000 0.824763
vt -0.375000 0.844763
vt -0.447000 0.844763
vt -0.382000 0.824763
vt 0.098000 0.844763
vt 0.098000 0.824763
vt 0.758000 0.824763
vt 0.758000 0.844763
vt 1.310000 0.826763
vt 1.303000 0.844763
vt 1.358000 0.826763
vt 1.358000 0.844763
vt 2.730000 0.844763
vt 2.545000 0.826763
vt 2.730000 0.826763
vt 2.568000 0.844763
vt 0.822000 0.824763
vt 0.822000 0.844763
vt -1.249000 0.824763
vt -1.249000 0.844763
vt -2.164000 0.844763
vt -2.146000 0.826763
vt -2.303000 0.844763
vt -2.303000 0.826763
vt 1.855000 0.824763
vt 1.144000 0.719763
vt 1.856000 0.719763
vt 1.144000 0.824763
vt 0.147000 0.719763
vt 0.147000 0.824763
vt -0.692000 0.824763
vt -0.683000 0.719763
vt 1.863000 0.824763
vt 1.021000 0.719763
vt 1.862000 0.719763
vt 1.021000 0.824763
vt 0.025000 0.824763
vt 0.025000 0.719763
vt -0.695000 0.824763
vt 0.077000 0.603763
vt 0.960000 0.099762
vt 0.969000 0.600762
vt 0.084000 0.102762
vt 0.079000 0.719763
vt 0.970000 0.035763
vt 0.970000 0.719763
vt 0.079000 0.038763
vt 0.100000 0.663763
vt 0.079000 0.088763
vt 0.963000 0.669762
vt 0.971000 0.092763
vt -0.263000 0.824763
vt 1.320000 0.719763
vt 1.311000 0.824763
vt -0.231000 0.719763
vt 1.320000 0.824763
vt -0.230000 0.824763
vn 0.013400 0.956600 0.291300
vn 0.007700 0.956000 0.293400
vn 0.012000 0.958500 0.284800
vn 0.002400 0.959800 0.280600
vn -0.002200 0.964600 0.263600
vn -0.001400 0.969300 0.245900
vn -0.000500 0.966800 0.255400
vn -0.002000 0.964300 0.264800
vn -0.003900 0.850100 -0.526600
vn -0.002300 0.851000 -0.525100
vn -0.004600 0.847200 -0.531300
vn -0.000600 0.844700 -0.535300
vn 0.001900 0.827600 -0.561300
vn 0.000500 0.827600 -0.561200
vn 0.003300 0.814300 -0.580400
vn 0.006200 0.800600 -0.599200
vn -0.016700 0.999600 -0.020800
vn -0.003100 0.999300 -0.036800
vn -0.030400 0.999500 -0.004800
vn 0.001100 0.998500 0.054400
vn 0.024300 0.999400 0.025600
vn 0.047600 0.998900 -0.003200
vn -0.410800 0.911700 0.004500
vn -0.412500 0.911000 0.002700
vn -0.406100 0.913800 0.004000
vn -0.469700 0.882800 0.001200
vn -0.456000 0.890000 0.000200
vn -0.572700 0.819800 -0.000600
vn -0.357100 0.934000 0.000900
vn -0.298700 0.954300 0.000000
vn -0.354900 0.934900 0.003400
vn -0.419400 0.907800 0.006000
vn -0.424000 0.905600 0.010800
vn -0.437900 0.899000 0.008300
vn 0.737200 0.675600 0.004400
vn 0.742100 0.670300 0.001500
vn 0.722700 0.691100 0.006800
vn 0.812900 0.582400 -0.003600
vn 0.867600 0.497200 -0.001100
vn 0.764000 0.645100 0.007400
vn 0.494300 0.869300 0.005000
vn 0.280200 0.959900 0.007000
vn 0.344700 0.938700 -0.006300
vn 0.377100 0.926100 -0.007500
vn 0.377700 0.925900 -0.008900
vn 0.379400 0.925200 -0.008700
vn -0.014800 0.999900 -0.002500
vn -0.009700 1.000000 0.001600
vn -0.030300 0.999500 -0.000200
vn -0.024500 0.999700 0.007600
vn -0.051600 0.998700 0.002300
vn -0.075000 0.997200 0.003500
vn -0.066000 0.997800 -0.009200
vn -0.056800 0.998400 -0.008000
vn -0.030500 0.999300 0.022800
vn -0.056600 0.998300 -0.013400
vn -0.004400 0.998300 0.058900
vn 0.024600 0.999700 -0.002100
vn 0.017100 0.999900 -0.000400
vn 0.047600 0.998900 -0.004700
vn 0.001700 1.000000 0.000500
vn 0.012300 0.999900 0.002400
vn 0.015700 0.999900 0.003500
vn 0.014900 0.999900 0.004200
vn 0.012100 0.999900 0.003900
vn 0.005700 1.000000 -0.004200
vn 0.005600 1.000000 -0.004300
vn 0.012100 0.999900 0.003500
vn -0.000800 0.999900 -0.012000
vn 0.001900 1.000000 0.002000
vn 0.001900 1.000000 0.001800
vn 0.003000 1.000000 -0.000000
vn 0.000800 1.000000 0.003800
vn -0.000100 1.000000 0.006000
vn 0.000000 1.000000 0.005900
vn -0.003100 0.999900 0.009900
vn 0.003000 1.000000 0.002100
vn -0.000900 1.000000 -0.004800
vn -0.002000 1.000000 -0.006400
vn -0.003100 1.000000 -0.008100
vn -0.001000 0.998400 0.056500
vn -0.001000 0.998400 0.056600
vn -0.001200 0.998300 0.058900
vn -0.000900 0.998500 0.054300
vn -0.000100 0.999700 -0.024500
vn 0.000800 0.999900 -0.012100
vn -0.001000 0.999300 -0.036800
usemtl Model001_Material001.031
s 1
f 1/1/1 2/2/2 3/3/3
f 2/2/2 1/1/1 4/4/4
f 4/4/4 5/5/5 2/2/2
f 4/4/4 6/6/6 5/5/5
f 7/7/7 5/5/5 6/6/6
f 5/5/5 7/7/7 8/8/8
f 9/9/9 10/10/10 11/11/11
f 10/10/10 9/9/9 12/12/12
f 13/13/13 10/10/10 12/12/12
f 13/13/13 12/12/12 14/14/14
f 15/15/15 13/13/13 14/14/14
f 13/13/13 15/15/15 16/16/16
f 17/17/17 18/18/17 19/19/18
f 18/18/17 17/17/17 20/20/19
f 21/20/20 22/18/21 23/17/21
f 23/17/21 22/18/21 24/19/22
f 25/21/23 26/22/24 27/23/25
f 26/22/24 25/21/23 28/24/26
f 28/24/26 29/25/27 26/22/24
f 29/25/27 28/24/26 30/26/28
f 31/27/29 29/25/27 30/26/28
f 32/28/30 29/25/27 31/27/29
f 33/29/31 32/28/30 31/27/29
f 32/28/30 33/29/31 34/30/32
f 35/31/33 34/30/32 33/29/31
f 34/30/32 35/31/33 36/32/34
f 37/33/35 38/34/36 39/35/37
f 38/34/36 37/33/35 40/36/38
f 40/36/38 41/37/39 38/34/36
f 40/36/38 42/38/40 41/37/39
f 42/38/40 43/39/41 41/37/39
f 43/39/41 42/38/40 44/40/42
f 45/41/43 43/39/41 44/40/42
f 43/39/41 45/41/43 46/42/44
f 47/43/45 46/42/44 45/41/43
f 46/42/44 47/43/45 48/44/46
f 49/45/47 50/46/48 51/47/49
f 50/46/48 49/45/47 52/48/50
f 52/48/50 53/49/51 50/46/48
f 53/49/51 52/48/50 54/50/52
f 55/51/53 53/49/51 54/50/52
f 53/49/51 55/51/53 56/52/54
f 57/20/55 58/19/55 59/17/56
f 58/19/55 57/20/55 60/18/57
f 61/53/58 62/54/59 63/55/60
f 62/54/59 61/53/58 64/56/61
f 64/56/61 65/57/62 62/54/59
f 62/54/59 65/57/62 66/58/63
f 67/59/64 66/58/63 65/57/62
f 66/58/63 67/59/64 68/52/65
f 69/19/66 70/20/67 71/18/68
f 70/20/67 69/19/66 72/17/69
f 73/60/70 74/61/71 75/62/72
f 74/61/71 73/60/70 76/63/73
f 77/64/74 78/65/75 79/66/76
f 78/65/75 77/64/74 80/67/77
f 81/68/78 82/69/79 83/70/79
f 83/70/79 82/69/79 84/71/80
f 85/72/81 86/73/82 87/74/83
f 86/73/82 85/72/81 88/75/84
f 89/76/85 90/75/85 91/73/86
f 90/75/85 89/76/85 92/77/87
