# Blender v2.78 (sub 0) OBJ File: 'botella11B.blend'
# www.blender.org
mtllib botella11-collision.mtl
o Cube
v -0.335799 -0.273484 0.299963
v -0.150876 0.677150 0.165084
v -0.335799 -0.273484 -0.310972
v -0.150876 0.677150 -0.165437
v 0.342847 -0.273484 0.299963
v 0.154072 0.677150 0.165084
v 0.342847 -0.273484 -0.310972
v 0.154072 0.677150 -0.165437
v -0.487249 0.143028 0.362068
v -0.378947 0.143028 0.477067
v -0.378947 0.143028 -0.481910
v -0.487249 0.143028 -0.371536
v 0.490445 0.143028 -0.371536
v 0.382143 0.143028 -0.481910
v 0.382143 0.143028 0.477067
v 0.490445 0.143028 0.362068
v -0.487249 -0.152428 -0.371536
v -0.378947 -0.152428 -0.481910
v 0.382143 -0.152428 -0.481910
v 0.490445 -0.152428 -0.371536
v 0.490445 -0.152428 0.362068
v 0.382143 -0.152428 0.477067
v -0.378947 -0.152428 0.477067
v -0.487249 -0.152428 0.362068
vn 0.0000 0.0000 1.0000
vn 0.0000 0.0000 -1.0000
vn 1.0000 0.0000 0.0000
vn 0.0000 0.5097 -0.8603
vn 0.0000 -1.0000 0.0000
vn 0.0000 1.0000 0.0000
vn -0.6244 -0.7811 0.0000
vn 0.8462 0.5329 0.0000
vn 0.0000 0.5044 0.8635
vn -1.0000 0.0000 0.0000
vn 0.0000 -0.8256 0.5643
vn 0.6342 -0.7732 0.0000
vn 0.0000 -0.8161 -0.5779
vn -0.5932 0.5796 0.5587
vn -0.5793 0.5842 -0.5684
vn 0.5793 0.5842 -0.5684
vn 0.5932 0.5796 0.5587
vn -0.4473 -0.7792 -0.4389
vn 0.4523 -0.7736 -0.4438
vn 0.4571 -0.7782 0.4305
vn -0.4520 -0.7839 0.4257
vn -0.7280 0.0000 0.6856
vn -0.7138 0.0000 -0.7004
vn 0.7138 0.0000 -0.7004
vn 0.7280 0.0000 0.6856
vn -0.8462 0.5329 0.0000
usemtl None
s off
f 22//1 15//1 10//1 23//1
f 18//2 11//2 14//2 19//2
f 20//3 13//3 16//3 21//3
f 11//4 4//4 8//4 14//4
f 3//5 7//5 5//5 1//5
f 8//6 4//6 2//6 6//6
f 1//7 24//7 17//7 3//7
f 13//8 8//8 6//8 16//8
f 15//9 6//9 2//9 10//9
f 24//10 9//10 12//10 17//10
f 5//11 22//11 23//11 1//11
f 7//12 20//12 21//12 5//12
f 3//13 18//13 19//13 7//13
f 9//14 10//14 2//14
f 11//15 12//15 4//15
f 13//16 14//16 8//16
f 15//17 16//17 6//17
f 17//18 18//18 3//18
f 19//19 20//19 7//19
f 21//20 22//20 5//20
f 23//21 24//21 1//21
f 23//22 10//22 9//22 24//22
f 11//23 18//23 17//23 12//23
f 13//24 20//24 19//24 14//24
f 15//25 22//25 21//25 16//25
f 9//26 2//26 4//26 12//26
