# Blender v2.79 (sub 0) OBJ File: ''
# www.blender.org
mtllib industry3.mtl
o mesh_4_547.nr
v -0.089954 0.639958 -0.040320
v -0.085644 0.639961 -0.040394
v -0.085809 0.640022 -0.036206
v -0.090117 0.640020 -0.036135
v -0.310960 0.415855 -0.020988
v -0.310339 0.415623 -0.036733
v -0.310354 0.440034 -0.037092
v -0.310976 0.440266 -0.021346
v -0.093881 0.614682 -0.032157
v -0.093436 0.614517 -0.043433
v -0.089942 0.620821 -0.040040
v -0.090104 0.620881 -0.035853
v -0.118533 0.537285 -0.007601
v -0.116276 0.536443 -0.064910
v -0.090124 0.597382 -0.039880
v -0.090301 0.597449 -0.035315
v -0.256439 0.475484 -0.033054
v -0.263112 0.369813 0.139821
v -0.263091 0.339250 0.140271
v -0.256419 0.444824 -0.032602
v -0.249624 0.364774 -0.202740
v -0.256439 0.475484 -0.033054
v -0.256419 0.444824 -0.032602
v -0.249603 0.334211 -0.202290
v -0.129125 0.440110 -0.040088
v -0.129744 0.440342 -0.024345
v -0.310976 0.440266 -0.021346
v -0.310354 0.440034 -0.037092
v 0.318339 0.341838 0.044725
v 0.318328 0.358633 0.044479
v 0.325131 0.356092 -0.128340
v 0.325141 0.339297 -0.128093
v 0.319970 0.475724 -0.042583
v 0.326785 0.365013 -0.212270
v 0.326805 0.334450 -0.211820
v 0.319991 0.445063 -0.042131
v 0.313296 0.370051 0.130295
v 0.319970 0.475724 -0.042583
v 0.319991 0.445063 -0.042131
v 0.313316 0.339488 0.130745
v 0.040317 0.467571 -0.013339
v 0.041273 0.483421 -0.038090
v 0.333913 0.483541 -0.042926
v -0.271347 0.467442 -0.008189
v -0.270394 0.483290 -0.032937
v 0.332959 0.467692 -0.018178
v 0.042248 0.466851 -0.062362
v 0.041273 0.483421 -0.038090
v -0.270394 0.483290 -0.032937
v 0.334890 0.466971 -0.067200
v 0.333913 0.483541 -0.042926
v -0.269416 0.466721 -0.057211
v 0.025550 0.369933 0.135051
v 0.032224 0.475605 -0.037823
v 0.319970 0.475724 -0.042583
v -0.263112 0.369813 0.139821
v -0.256439 0.475484 -0.033054
v 0.313296 0.370051 0.130295
v 0.039041 0.364894 -0.207512
v 0.032224 0.475605 -0.037823
v -0.256439 0.475484 -0.033054
v 0.326785 0.365013 -0.212270
v 0.319970 0.475724 -0.042583
v -0.249624 0.364774 -0.202740
v 0.311780 0.135374 -0.115493
v 0.311107 0.135626 -0.098375
v 0.310971 0.343097 -0.101431
v 0.311645 0.342846 -0.118549
v 0.306267 0.137433 0.024529
v 0.305591 0.137686 0.041648
v 0.305455 0.345157 0.038592
v 0.306131 0.344905 0.021473
v -0.229944 0.018578 -0.181494
v -0.230165 0.354870 -0.186450
v -0.236300 0.357162 -0.030602
v -0.236365 0.455590 -0.032052
v -0.236080 0.020871 -0.025647
v -0.242356 0.359424 0.123168
v -0.242136 0.023133 0.128122
v 0.294068 0.023354 0.119260
v 0.293847 0.359646 0.114304
v 0.297413 0.358314 0.023751
v 0.297634 0.022022 0.028707
v 0.299838 0.455811 -0.040915
v 0.299880 0.454233 -0.041932
v 0.299944 0.357369 -0.040505
v 0.302392 0.356455 -0.102677
v 0.299879 0.455210 -0.041947
v 0.302613 0.020163 -0.097721
v 0.306038 0.355092 -0.195313
v 0.306260 0.018800 -0.190358
v 0.284221 0.160246 -0.103552
v 0.279094 0.162160 0.026648
v 0.278972 0.347268 0.023920
v 0.284100 0.345352 -0.106278
v -0.082241 0.614688 -0.032348
v -0.093881 0.614682 -0.032157
v -0.090104 0.620881 -0.035853
v -0.085796 0.620883 -0.035924
v -0.093436 0.614517 -0.043433
v -0.081797 0.614522 -0.043625
v -0.085632 0.620822 -0.040112
v -0.089942 0.620821 -0.040040
v 0.290635 0.358622 0.044937
v 0.297440 0.356080 -0.127884
v 0.325131 0.356092 -0.128340
v 0.318328 0.358633 0.044479
v 0.283275 0.343086 -0.100971
v 0.283951 0.342834 -0.118091
v 0.311645 0.342846 -0.118549
v 0.310971 0.343097 -0.101431
v 0.277762 0.345146 0.039050
v 0.278435 0.344894 0.021932
v 0.306131 0.344905 0.021473
v 0.305455 0.345157 0.038592
v -0.059302 0.537310 -0.008580
v -0.118533 0.537285 -0.007601
v -0.090301 0.597449 -0.035315
v -0.085583 0.597451 -0.035393
v -0.116276 0.536443 -0.064910
v -0.057045 0.536467 -0.065889
v -0.085404 0.597383 -0.039959
v -0.090124 0.597382 -0.039880
v 0.025550 0.369933 0.135051
v 0.025570 0.339370 0.135501
v -0.263091 0.339250 0.140271
v 0.313296 0.370051 0.130295
v 0.313316 0.339488 0.130745
v -0.263112 0.369813 0.139821
v -0.249624 0.364774 -0.202740
v -0.249603 0.334211 -0.202290
v 0.039061 0.334331 -0.207061
v 0.039041 0.364894 -0.207512
v 0.039041 0.364894 -0.207512
v 0.039061 0.334331 -0.207061
v 0.326805 0.334450 -0.211820
v 0.326785 0.365013 -0.212270
v 0.026443 0.023244 0.123682
v 0.026222 0.359535 0.118727
v 0.293847 0.359646 0.114304
v -0.242136 0.023133 0.128122
v -0.242356 0.359424 0.123168
v 0.294068 0.023354 0.119260
v 0.038634 0.018689 -0.185935
v 0.038398 0.354981 -0.190889
v -0.230165 0.354870 -0.186450
v 0.306260 0.018800 -0.190358
v 0.306038 0.355092 -0.195313
v -0.229944 0.018578 -0.181494
v -0.118527 0.527130 -0.007452
v -0.116269 0.526288 -0.064760
v -0.116276 0.536443 -0.064910
v -0.118533 0.537285 -0.007601
v -0.114221 0.458136 -0.010461
v -0.112275 0.457410 -0.059856
v -0.112330 0.540408 -0.061080
v -0.114275 0.541134 -0.011684
v -0.081797 0.614522 -0.043625
v -0.082241 0.614688 -0.032348
v -0.085796 0.620883 -0.035924
v -0.085632 0.620822 -0.040112
v -0.090301 0.597449 -0.035315
v -0.090124 0.597382 -0.039880
v -0.090131 0.608319 -0.040042
v -0.090308 0.608386 -0.035476
v -0.090104 0.620881 -0.035853
v -0.089942 0.620821 -0.040040
v -0.089954 0.639958 -0.040320
v -0.090117 0.640020 -0.036135
v 0.297440 0.356080 -0.127884
v 0.297452 0.339285 -0.127636
v 0.325141 0.339297 -0.128093
v 0.325131 0.356092 -0.128340
v 0.277898 0.137674 0.042106
v 0.277762 0.345146 0.039050
v 0.305455 0.345157 0.038592
v 0.305591 0.137686 0.041648
v 0.283951 0.342834 -0.118091
v 0.284087 0.135363 -0.115035
v 0.311780 0.135374 -0.115493
v 0.311645 0.342846 -0.118549
v -0.057045 0.536467 -0.065889
v -0.059302 0.537310 -0.008580
v -0.085583 0.597451 -0.035393
v -0.085404 0.597383 -0.039959
v -0.059296 0.527155 -0.008431
v -0.118527 0.527130 -0.007452
v -0.118533 0.537285 -0.007601
v -0.059302 0.537310 -0.008580
v -0.116269 0.526288 -0.064760
v -0.057039 0.526312 -0.065740
v -0.057045 0.536467 -0.065889
v -0.116276 0.536443 -0.064910
v -0.063196 0.458157 -0.011304
v -0.114221 0.458136 -0.010461
v -0.114275 0.541134 -0.011684
v -0.063250 0.541156 -0.012528
v -0.112275 0.457410 -0.059856
v -0.061250 0.457430 -0.060700
v -0.061304 0.540429 -0.061923
v -0.112330 0.540408 -0.061080
v -0.129727 0.415929 -0.023984
v -0.310960 0.415855 -0.020988
v -0.310976 0.440266 -0.021346
v -0.129744 0.440342 -0.024345
v -0.310339 0.415623 -0.036733
v -0.129108 0.415698 -0.039727
v -0.129125 0.440110 -0.040088
v -0.310354 0.440034 -0.037092
v -0.085583 0.597451 -0.035393
v -0.090301 0.597449 -0.035315
v -0.090308 0.608386 -0.035476
v -0.085590 0.608388 -0.035554
v -0.090124 0.597382 -0.039880
v -0.085404 0.597383 -0.039959
v -0.085411 0.608321 -0.040121
v -0.090131 0.608319 -0.040042
v -0.085796 0.620883 -0.035924
v -0.090104 0.620881 -0.035853
v -0.090117 0.640020 -0.036135
v -0.085809 0.640022 -0.036206
v -0.089942 0.620821 -0.040040
v -0.085632 0.620822 -0.040112
v -0.085644 0.639961 -0.040394
v -0.089954 0.639958 -0.040320
v 0.283411 0.135615 -0.097915
v 0.283275 0.343086 -0.100971
v 0.310971 0.343097 -0.101431
v 0.311107 0.135626 -0.098375
v 0.278435 0.344894 0.021932
v 0.278571 0.137422 0.024988
v 0.306267 0.137433 0.024529
v 0.306131 0.344905 0.021473
v 0.302392 0.356455 -0.102677
v 0.302613 0.020163 -0.097721
v 0.279435 0.020153 -0.097338
v 0.279214 0.356445 -0.102293
v 0.297634 0.022022 0.028707
v 0.297413 0.358314 0.023751
v 0.274234 0.358304 0.024134
v 0.274454 0.022013 0.029088
v -0.057039 0.526312 -0.065740
v -0.059296 0.527155 -0.008431
v -0.059302 0.537310 -0.008580
v -0.057045 0.536467 -0.065889
v -0.061250 0.457430 -0.060700
v -0.063196 0.458157 -0.011304
v -0.063250 0.541156 -0.012528
v -0.061304 0.540429 -0.061923
v -0.090308 0.608386 -0.035476
v -0.090131 0.608319 -0.040042
v -0.093436 0.614517 -0.043433
v -0.093881 0.614682 -0.032157
v -0.085404 0.597383 -0.039959
v -0.085583 0.597451 -0.035393
v -0.085590 0.608388 -0.035554
v -0.085411 0.608321 -0.040121
v -0.085632 0.620822 -0.040112
v -0.085796 0.620883 -0.035924
v -0.085809 0.640022 -0.036206
v -0.085644 0.639961 -0.040394
v 0.297452 0.339285 -0.127636
v 0.290646 0.341827 0.045183
v 0.318339 0.341838 0.044725
v 0.325141 0.339297 -0.128093
v -0.085590 0.608388 -0.035554
v -0.090308 0.608386 -0.035476
v -0.093881 0.614682 -0.032157
v -0.082241 0.614688 -0.032348
v -0.090131 0.608319 -0.040042
v -0.085411 0.608321 -0.040121
v -0.081797 0.614522 -0.043625
v -0.093436 0.614517 -0.043433
v -0.085411 0.608321 -0.040121
v -0.085590 0.608388 -0.035554
v -0.082241 0.614688 -0.032348
v -0.081797 0.614522 -0.043625
vt 0.717773 0.270996
vt 0.714844 0.268066
vt 0.714844 0.270996
vt 0.717773 0.268066
vt 0.483643 0.047363
vt 0.448242 0.057129
vt 0.483643 0.057129
vt 0.448242 0.047363
vt 0.712402 0.250000
vt 0.717773 0.255371
vt 0.720703 0.250000
vt 0.714844 0.255371
vt 0.695801 0.187988
vt 0.718262 0.236816
vt 0.737305 0.187988
vt 0.714844 0.236816
vt 0.066589 0.780151
vt 0.219116 0.755859
vt 0.207520 0.780151
vt 0.078247 0.755859
vt 0.206299 0.780151
vt 0.077026 0.755859
vt 0.065430 0.780151
vt 0.218018 0.755859
vt 0.556641 0.057129
vt 0.448242 0.047363
vt 0.556641 0.047363
vt 0.448242 0.057129
vt 0.523438 0.035156
vt 0.419434 0.045898
vt 0.523438 0.045898
vt 0.419434 0.035156
vt 0.008842 0.780151
vt 0.155884 0.755859
vt 0.144531 0.780151
vt 0.020187 0.755859
vt 0.150879 0.780151
vt 0.026276 0.755859
vt 0.015106 0.780151
vt 0.161987 0.755859
vt 0.203491 0.994751
vt 0.388916 0.975388
vt 0.203491 0.975388
vt 0.005959 0.994751
vt 0.005959 0.975388
vt 0.388916 0.994751
vt 0.203491 0.956024
vt 0.005959 0.975388
vt 0.203491 0.975388
vt 0.388916 0.956024
vt 0.388916 0.975388
vt 0.005959 0.956024
vt 0.162842 0.857056
vt 0.016159 0.958679
vt 0.163330 0.958679
vt 0.310059 0.857056
vt 0.311035 0.958679
vt 0.016159 0.857056
vt 0.163330 0.856323
vt 0.311035 0.958679
vt 0.163330 0.958679
vt 0.016159 0.856323
vt 0.016159 0.958679
vt 0.311035 0.856323
vt 0.523438 0.035156
vt 0.419434 0.045898
vt 0.523438 0.045898
vt 0.419434 0.035156
vt 0.523438 0.035156
vt 0.419434 0.045898
vt 0.523438 0.045898
vt 0.419434 0.035156
vt 0.495850 0.094238
vt 0.581543 0.265137
vt 0.495850 0.265137
vt 0.581543 0.319336
vt 0.581543 0.094238
vt 0.497803 0.265137
vt 0.497803 0.095215
vt 0.683105 0.094238
vt 0.633789 0.264160
vt 0.683105 0.264160
vt 0.633789 0.094238
vt 0.599121 0.318848
vt 0.598633 0.317871
vt 0.598633 0.264648
vt 0.632324 0.264648
vt 0.598633 0.318359
vt 0.632324 0.095703
vt 0.682617 0.264648
vt 0.682617 0.095703
vt 0.993164 0.006836
vt 0.888672 0.074219
vt 0.993164 0.074219
vt 0.888672 0.006836
vt 0.712402 0.248535
vt 0.717773 0.253906
vt 0.720215 0.248535
vt 0.714844 0.253906
vt 0.712402 0.250000
vt 0.717773 0.254883
vt 0.720215 0.250000
vt 0.714844 0.254883
vt 0.523438 0.018066
vt 0.419434 0.034668
vt 0.419434 0.018066
vt 0.523438 0.034668
vt 0.402832 0.045898
vt 0.419434 0.035156
vt 0.402832 0.035156
vt 0.419434 0.045898
vt 0.402832 0.045898
vt 0.419434 0.035156
vt 0.402832 0.035156
vt 0.419434 0.045898
vt 0.695312 0.186523
vt 0.717773 0.235352
vt 0.737305 0.186523
vt 0.714844 0.235352
vt 0.694824 0.187988
vt 0.717773 0.236328
vt 0.736816 0.187500
vt 0.714355 0.236328
vt 0.164795 0.780151
vt 0.326172 0.755859
vt 0.164795 0.755859
vt 0.004021 0.780151
vt 0.004021 0.755859
vt 0.326172 0.780151
vt 0.247070 0.780151
vt 0.085754 0.755859
vt 0.247070 0.755859
vt 0.085754 0.780151
vt 0.085754 0.780151
vt 0.247803 0.755859
vt 0.085754 0.755859
vt 0.247803 0.780151
vt 0.975098 0.819702
vt 0.835938 0.991943
vt 0.975098 0.991943
vt 0.835938 0.822021
vt 0.835938 0.991943
vt 0.835938 0.819702
vt 0.975098 0.821167
vt 0.835938 0.991943
vt 0.975098 0.991943
vt 0.835938 0.822021
vt 0.835938 0.991943
vt 0.835938 0.821167
vt 0.695801 0.180176
vt 0.737305 0.187988
vt 0.737793 0.180664
vt 0.695801 0.187988
vt 0.689941 0.114258
vt 0.716797 0.166992
vt 0.716797 0.114746
vt 0.689941 0.166992
vt 0.712402 0.250000
vt 0.718262 0.254883
vt 0.720703 0.250000
vt 0.715332 0.254883
vt 0.714844 0.236816
vt 0.718262 0.245117
vt 0.718262 0.236816
vt 0.714844 0.245117
vt 0.714844 0.255371
vt 0.717773 0.269531
vt 0.717773 0.255371
vt 0.714844 0.269531
vt 0.402832 0.045898
vt 0.419434 0.035156
vt 0.402832 0.035156
vt 0.419434 0.045898
vt 0.523438 0.018066
vt 0.419434 0.034668
vt 0.419434 0.018066
vt 0.523438 0.034668
vt 0.419189 0.018555
vt 0.523438 0.035156
vt 0.523438 0.018555
vt 0.419434 0.035156
vt 0.695801 0.187988
vt 0.718262 0.236328
vt 0.737305 0.187500
vt 0.714844 0.236328
vt 0.695312 0.178711
vt 0.737305 0.186523
vt 0.737305 0.178711
vt 0.695312 0.186523
vt 0.694824 0.180664
vt 0.736816 0.187500
vt 0.736328 0.180176
vt 0.694824 0.187988
vt 0.717285 0.114258
vt 0.689941 0.166992
vt 0.689941 0.114258
vt 0.717285 0.166992
vt 0.716797 0.114746
vt 0.743652 0.166992
vt 0.743652 0.114746
vt 0.716797 0.166992
vt 0.556641 0.032227
vt 0.448242 0.047363
vt 0.448242 0.032227
vt 0.556641 0.047363
vt 0.448486 0.046875
vt 0.557129 0.031738
vt 0.557129 0.046875
vt 0.448486 0.031738
vt 0.714844 0.235352
vt 0.717773 0.243652
vt 0.717773 0.235352
vt 0.714844 0.243652
vt 0.714355 0.236328
vt 0.717773 0.244629
vt 0.717773 0.236328
vt 0.714844 0.244629
vt 0.714844 0.253906
vt 0.717773 0.268066
vt 0.717773 0.253906
vt 0.714844 0.268066
vt 0.714844 0.254883
vt 0.718262 0.269531
vt 0.717773 0.254883
vt 0.714844 0.269531
vt 0.523438 0.018066
vt 0.419434 0.034668
vt 0.419434 0.018066
vt 0.523438 0.034668
vt 0.419189 0.018555
vt 0.523438 0.035156
vt 0.523438 0.018555
vt 0.419434 0.035156
vt 0.612793 0.264648
vt 0.625000 0.094727
vt 0.612793 0.094727
vt 0.625000 0.264648
vt 0.575684 0.094727
vt 0.587891 0.264160
vt 0.575684 0.264160
vt 0.587891 0.094727
vt 0.695801 0.180176
vt 0.737305 0.187500
vt 0.737305 0.180176
vt 0.695801 0.187988
vt 0.744141 0.114258
vt 0.717285 0.166992
vt 0.717285 0.114258
vt 0.744141 0.166992
vt 0.714844 0.245117
vt 0.720703 0.250000
vt 0.718262 0.245117
vt 0.712402 0.250000
vt 0.714844 0.236328
vt 0.718262 0.244629
vt 0.718262 0.236328
vt 0.714844 0.244629
vt 0.715332 0.254883
vt 0.718262 0.269531
vt 0.718262 0.254883
vt 0.715332 0.269531
vt 0.419189 0.018555
vt 0.523438 0.035156
vt 0.523438 0.018555
vt 0.419434 0.035156
vt 0.714844 0.243652
vt 0.720215 0.248535
vt 0.717773 0.243652
vt 0.712402 0.248535
vt 0.714844 0.244629
vt 0.720215 0.250000
vt 0.717773 0.244629
vt 0.712402 0.250000
vt 0.714844 0.244629
vt 0.720703 0.250000
vt 0.718262 0.244629
vt 0.712402 0.250000
vn -0.0008 0.9999 -0.0147
vn -0.0009 0.9999 -0.0146
vn -0.0007 0.9999 -0.0149
vn -0.9992 -0.0012 -0.0394
vn -0.9992 -0.0012 -0.0395
vn -0.8641 0.5016 -0.0412
vn -0.8641 0.5016 -0.0411
vn -0.8643 0.5013 -0.0414
vn -0.8638 0.5021 -0.0406
vn -0.9118 0.4085 -0.0419
vn -0.9117 0.4087 -0.0416
vn -0.9117 0.4088 -0.0413
vn -0.9992 -0.0012 -0.0393
vn -0.9992 -0.0013 -0.0393
vn -0.0007 0.9999 -0.0148
vn 0.9992 0.0012 0.0393
vn 0.9992 0.0013 0.0393
vn 0.0086 0.8419 0.5395
vn -0.0097 0.8257 -0.5641
vn -0.0097 0.8257 -0.5640
vn 0.0083 0.8531 0.5218
vn -0.0094 0.8373 -0.5467
vn 0.9992 0.0012 0.0394
vn 0.9992 0.0013 0.0392
vn 0.9992 0.0014 0.0390
vn 0.9992 0.0015 0.0388
vn 0.0139 0.5058 0.8625
vn 0.0140 0.5059 0.8625
vn -0.0147 0.4802 -0.8771
vn -0.0147 0.4801 -0.8771
vn -0.0148 0.4802 -0.8770
vn -0.0006 0.9999 -0.0147
vn -0.0007 0.9999 -0.0147
vn 0.0149 0.4126 0.9108
vn -0.0154 0.3855 -0.9226
vn -0.0155 0.3856 -0.9226
vn -0.0155 0.3856 -0.9225
vn 0.0165 0.0147 0.9998
vn -0.0165 -0.0147 -0.9998
vn -0.0165 -0.0148 -0.9998
vn -0.9992 -0.0013 -0.0394
vn 0.8604 0.5090 0.0263
vn 0.8604 0.5090 0.0264
vn 0.8603 0.5091 0.0263
vn -0.9993 -0.0009 -0.0387
vn -0.9992 -0.0012 -0.0387
vn -0.9992 -0.0015 -0.0387
vn -0.9993 -0.0012 -0.0387
vn -0.9992 -0.0012 -0.0389
vn -0.9993 -0.0012 -0.0386
vn -0.9992 -0.0013 -0.0389
vn 0.9110 0.4114 0.0298
vn 0.9110 0.4114 0.0297
vn 0.9109 0.4115 0.0296
vn 0.0165 0.0148 0.9998
vn -0.0167 -0.0148 -0.9998
vn -0.0168 -0.0147 -0.9998
vn -0.0171 -0.0147 -0.9997
vn -0.0167 -0.0147 -0.9998
vn -0.0172 -0.0146 -0.9997
vn 0.0166 0.0147 0.9998
vn -0.0166 -0.0147 -0.9998
vn -0.0164 -0.0147 -0.9998
vn -0.8757 -0.4822 -0.0273
vn -0.8759 -0.4818 -0.0269
vn -0.8755 -0.4824 -0.0275
vn 0.9992 0.0012 0.0392
vn 0.9992 0.0012 0.0391
vn 0.9992 0.0013 0.0391
vn 0.0007 -0.9999 0.0147
vn 0.0006 -0.9999 0.0147
vn 0.0148 -0.4597 0.8879
vn 0.0149 -0.4597 0.8880
vn -0.0143 -0.4857 -0.8740
vn -0.0146 -0.4859 -0.8739
vn -0.0142 -0.4857 -0.8740
vn 0.8733 -0.4854 0.0415
vn 0.8734 -0.4853 0.0414
vn 0.8733 -0.4855 0.0415
usemtl mat_61
s 1
f 1/1/1 3/2/1 2/3/2
f 3/2/1 1/1/1 4/4/3
f 5/5/4 7/6/4 6/7/4
f 7/6/4 5/5/4 8/8/5
f 9/9/6 11/10/7 10/11/8
f 11/10/7 9/9/6 12/12/9
f 13/13/10 15/14/11 14/15/10
f 15/14/11 13/13/10 16/16/12
f 17/17/13 19/18/14 18/19/14
f 19/18/14 17/17/13 20/20/13
f 21/21/14 23/22/13 22/23/13
f 23/22/13 21/21/14 24/24/14
f 25/25/15 27/26/15 26/27/15
f 27/26/15 25/25/15 28/28/15
f 29/29/16 31/30/16 30/31/16
f 31/30/16 29/29/16 32/32/16
f 33/33/17 35/34/16 34/35/16
f 35/34/16 33/33/17 36/36/17
f 37/37/16 39/38/17 38/39/17
f 39/38/17 37/37/16 40/40/16
f 41/41/18 43/42/18 42/43/18
f 44/44/18 42/43/18 45/45/18
f 42/43/18 44/44/18 41/41/18
f 43/42/18 41/41/18 46/46/18
f 47/47/19 49/48/20 48/49/19
f 50/50/20 48/49/19 51/51/20
f 48/49/19 50/50/20 47/47/19
f 49/48/20 47/47/19 52/52/20
f 53/53/21 55/54/21 54/55/21
f 56/56/21 54/55/21 57/57/21
f 54/55/21 56/56/21 53/53/21
f 55/54/21 53/53/21 58/58/21
f 59/59/22 61/60/22 60/61/22
f 62/62/22 60/61/22 63/63/22
f 60/61/22 62/62/22 59/59/22
f 61/60/22 59/59/22 64/64/22
f 65/65/16 67/66/16 66/67/16
f 67/66/16 65/65/16 68/68/16
f 69/69/23 71/70/23 70/71/23
f 71/70/23 69/69/23 72/72/23
f 73/73/13 75/74/13 74/75/13
f 74/75/13 75/74/13 76/76/13
f 75/74/13 73/73/13 77/77/13
f 77/77/13 78/78/13 75/74/13
f 75/74/13 78/78/13 76/76/13
f 78/78/13 77/77/13 79/79/13
f 80/80/16 82/81/16 81/82/16
f 82/81/16 80/80/16 83/83/16
f 81/82/16 82/81/16 84/84/24
f 85/85/25 82/81/16 86/86/16
f 82/81/16 85/85/25 84/84/24
f 87/87/16 85/85/25 86/86/16
f 87/87/16 88/88/26 85/85/25
f 85/85/25 88/88/26 84/84/24
f 89/89/16 90/90/16 87/87/16
f 88/88/26 87/87/16 90/90/16
f 90/90/16 89/89/16 91/91/16
f 92/92/16 94/93/16 93/94/16
f 94/93/16 92/92/16 95/95/16
f 96/96/27 98/97/27 97/98/27
f 98/97/27 96/96/27 99/99/28
f 100/100/29 102/101/29 101/102/30
f 102/101/29 100/100/29 103/103/31
f 104/104/32 106/105/33 105/106/33
f 106/105/33 104/104/32 107/107/32
f 108/108/33 110/109/33 109/110/33
f 110/109/33 108/108/33 111/111/32
f 112/112/32 114/113/32 113/114/32
f 114/113/32 112/112/32 115/115/32
f 116/116/34 118/117/34 117/118/34
f 118/117/34 116/116/34 119/119/34
f 120/120/35 122/121/36 121/122/35
f 122/121/36 120/120/35 123/123/37
f 124/124/38 126/125/38 125/126/38
f 127/127/38 125/126/38 128/128/38
f 125/126/38 127/127/38 124/124/38
f 126/125/38 124/124/38 129/129/38
f 130/130/39 132/131/40 131/132/39
f 132/131/40 130/130/39 133/133/40
f 134/134/40 136/135/39 135/136/40
f 136/135/39 134/134/40 137/137/39
f 138/138/38 140/139/38 139/140/38
f 141/141/38 139/140/38 142/142/38
f 139/140/38 141/141/38 138/138/38
f 140/139/38 138/138/38 143/143/38
f 144/144/39 146/145/39 145/146/39
f 147/147/39 145/146/39 148/148/39
f 145/146/39 147/147/39 144/144/39
f 146/145/39 144/144/39 149/149/39
f 150/150/13 152/151/41 151/152/41
f 152/151/41 150/150/13 153/153/13
f 154/154/13 156/155/13 155/156/13
f 156/155/13 154/154/13 157/157/13
f 158/158/42 160/159/42 159/160/43
f 160/159/42 158/158/42 161/161/44
f 162/162/45 164/163/46 163/164/47
f 164/163/46 162/162/45 165/165/46
f 166/166/48 168/167/49 167/168/50
f 168/167/49 166/166/48 169/169/51
f 170/170/40 172/171/39 171/172/40
f 172/171/39 170/170/40 173/173/39
f 174/174/38 176/175/38 175/176/38
f 176/175/38 174/174/38 177/177/38
f 178/178/39 180/179/39 179/180/39
f 180/179/39 178/178/39 181/181/39
f 182/182/52 184/183/53 183/184/52
f 184/183/53 182/182/52 185/185/54
f 186/186/38 188/187/38 187/188/38
f 188/187/38 186/186/38 189/189/38
f 190/190/40 192/191/39 191/192/39
f 192/191/39 190/190/40 193/193/40
f 194/194/38 196/195/38 195/196/38
f 196/195/38 194/194/38 197/197/55
f 198/198/39 200/199/40 199/200/39
f 200/199/40 198/198/39 201/201/40
f 202/202/55 204/203/38 203/204/38
f 204/203/38 202/202/55 205/205/55
f 206/206/39 208/207/40 207/208/40
f 208/207/40 206/206/39 209/209/39
f 210/210/38 212/211/38 211/212/38
f 212/211/38 210/210/38 213/213/38
f 214/214/56 216/215/56 215/216/56
f 216/215/56 214/214/56 217/217/56
f 218/218/38 220/219/38 219/220/38
f 220/219/38 218/218/38 221/221/38
f 222/222/57 224/223/58 223/224/59
f 224/223/58 222/222/57 225/225/60
f 226/226/61 228/227/61 227/228/61
f 228/227/61 226/226/61 229/229/61
f 230/230/62 232/231/62 231/232/62
f 232/231/62 230/230/62 233/233/62
f 234/234/61 236/235/38 235/236/38
f 236/235/38 234/234/61 237/237/61
f 238/238/63 240/239/39 239/240/39
f 240/239/39 238/238/63 241/241/63
f 242/242/16 244/243/16 243/244/16
f 244/243/16 242/242/16 245/245/16
f 246/246/16 248/247/16 247/248/16
f 248/247/16 246/246/16 249/249/16
f 250/250/64 252/251/64 251/252/65
f 252/251/64 250/250/64 253/253/66
f 254/254/67 256/255/68 255/256/67
f 256/255/68 254/254/67 257/257/68
f 258/258/68 260/259/16 259/260/69
f 260/259/16 258/258/68 261/261/23
f 262/262/70 264/263/71 263/264/71
f 264/263/71 262/262/70 265/265/70
f 266/266/72 268/267/72 267/268/73
f 268/267/72 266/266/72 269/269/72
f 270/270/74 272/271/74 271/272/75
f 272/271/74 270/270/74 273/273/76
f 274/274/77 276/275/77 275/276/78
f 276/275/77 274/274/77 277/277/79
