# Blender v2.79 (sub 0) OBJ File: ''
# www.blender.org
mtllib 1collider.mtl
o Cube.001
v -0.192607 -0.012171 0.151323
v -0.192607 0.335033 0.157159
v -0.203079 0.335033 -0.150610
v -0.203079 -0.012171 -0.150610
v 0.200175 0.335033 -0.174523
v 0.200175 -0.012171 -0.174523
v 0.196709 0.335033 0.130683
v 0.196709 -0.012171 0.124847
vn -0.9994 -0.0003 0.0343
vn -0.0592 0.0000 -0.9982
vn 0.9999 -0.0001 0.0115
vn 0.0678 -0.0168 0.9976
vn -0.0000 -1.0000 -0.0000
vn 0.0000 1.0000 0.0000
usemtl None
s 1
f 1//1 2//1 3//1 4//1
f 4//2 3//2 5//2 6//2
f 6//3 5//3 7//3 8//3
f 8//4 7//4 2//4 1//4
f 4//5 6//5 8//5 1//5
f 5//6 3//6 2//6 7//6
