# Blender v2.82 (sub 7) OBJ File: ''
# www.blender.org
mtllib eso_l11_fancytablesmall.mtl
o Mesh_0798_Mesh_0798Mesh
v 0.043336 -0.000156 0.115878
v 0.068855 -0.000156 0.407559
v 0.002962 -0.000156 0.413324
v -0.022556 -0.000156 0.121643
v 0.115878 -0.000156 -0.043336
v 0.407559 -0.000156 -0.068855
v 0.413324 -0.000156 -0.002962
v 0.121643 -0.000156 0.022556
v -0.115878 -0.000156 0.043336
v -0.407559 -0.000156 0.068855
v -0.413324 -0.000156 0.002962
v -0.121643 -0.000156 -0.022556
v -0.043336 -0.000156 -0.115878
v -0.068855 -0.000156 -0.407559
v -0.002962 -0.000156 -0.413324
v 0.022556 -0.000156 -0.121643
v 0.068855 -0.000156 0.407559
v 0.048773 0.882512 0.178023
v -0.017119 0.882512 0.183788
v 0.002962 -0.000156 0.413324
v -0.022556 -0.000156 0.121643
v 0.002962 -0.000156 0.413324
v -0.017119 0.882512 0.183788
v -0.032040 0.882315 -0.041014
v -0.022556 -0.000156 0.121643
v -0.032040 0.882315 -0.041014
v 0.024359 0.882315 -0.046779
v 0.043336 -0.000156 0.115878
v 0.043336 -0.000156 0.115878
v 0.024359 0.882315 -0.046779
v 0.048773 0.882512 0.178023
v 0.068855 -0.000156 0.407559
v 0.407559 -0.000156 -0.068855
v 0.178023 0.882512 -0.048773
v 0.183788 0.882512 0.017119
v 0.413324 -0.000156 -0.002962
v 0.121643 -0.000156 0.022556
v 0.413324 -0.000156 -0.002962
v 0.183788 0.882512 0.017119
v -0.019410 0.882315 0.036787
v 0.121643 -0.000156 0.022556
v -0.019410 0.882315 0.036787
v -0.025175 0.882315 -0.029106
v 0.115878 -0.000156 -0.043336
v 0.115878 -0.000156 -0.043336
v -0.025175 0.882315 -0.029106
v 0.178023 0.882512 -0.048773
v 0.407559 -0.000156 -0.068855
v -0.068855 -0.000156 -0.407559
v -0.048773 0.882512 -0.178023
v 0.017119 0.882512 -0.183788
v -0.002962 -0.000156 -0.413324
v 0.022556 -0.000156 -0.121643
v -0.002962 -0.000156 -0.413324
v 0.017119 0.882512 -0.183788
v 0.036787 0.882315 0.028965
v 0.022556 -0.000156 -0.121643
v 0.036787 0.882315 0.028965
v -0.029106 0.882315 0.034729
v -0.043336 -0.000156 -0.115878
v -0.043336 -0.000156 -0.115878
v -0.029106 0.882315 0.034729
v -0.048773 0.882512 -0.178023
v -0.068855 -0.000156 -0.407559
v -0.407559 -0.000156 0.068855
v -0.178023 0.882512 0.048773
v -0.183788 0.882512 -0.017119
v -0.413324 -0.000156 0.002962
v -0.121643 -0.000156 -0.022556
v -0.413324 -0.000156 0.002962
v -0.183788 0.882512 -0.017119
v 0.041014 0.882315 -0.033224
v -0.121643 -0.000156 -0.022556
v 0.041014 0.882315 -0.033224
v 0.046779 0.882315 0.025542
v -0.115878 -0.000156 0.043336
v -0.115878 -0.000156 0.043336
v 0.046779 0.882315 0.025542
v -0.178023 0.882512 0.048773
v -0.407559 -0.000156 0.068855
v -0.400758 0.964468 -0.400757
v -0.314874 0.964468 -0.471240
v -0.314874 0.867565 -0.471240
v -0.400758 0.867565 -0.400757
v -0.471241 0.964468 -0.314872
v -0.471241 0.867565 -0.314872
v -0.523615 0.964468 -0.216887
v -0.523615 0.867565 -0.216887
v -0.555866 0.964468 -0.110568
v -0.555866 0.867565 -0.110568
v -0.566756 0.964468 0.000000
v -0.566756 0.867565 0.000000
v -0.555866 0.964468 0.110569
v -0.555866 0.867565 0.110569
v -0.523615 0.964468 0.216888
v -0.523615 0.867565 0.216888
v -0.471241 0.964468 0.314873
v -0.471241 0.867565 0.314873
v -0.400757 0.964468 0.400757
v -0.400757 0.867565 0.400757
v -0.314873 0.964468 0.471241
v -0.314873 0.867565 0.471241
v -0.216888 0.964468 0.523615
v -0.216888 0.867565 0.523615
v -0.110569 0.964468 0.555866
v -0.110569 0.867565 0.555866
v -0.000000 0.964468 0.566756
v -0.000000 0.867565 0.566756
v 0.110569 0.964468 0.555866
v 0.110569 0.867565 0.555866
v 0.216888 0.964468 0.523615
v 0.216888 0.867565 0.523615
v 0.314873 0.964468 0.471241
v 0.314873 0.867565 0.471241
v 0.400757 0.964468 0.400757
v 0.400757 0.867565 0.400757
v 0.471241 0.964468 0.314873
v 0.471241 0.867565 0.314873
v 0.523615 0.964468 0.216888
v 0.523615 0.867565 0.216888
v 0.555866 0.964468 0.110569
v 0.555866 0.867565 0.110569
v 0.566756 0.964468 -0.000000
v 0.566756 0.867565 -0.000000
v 0.555866 0.964468 -0.110569
v 0.555866 0.867565 -0.110569
v 0.523614 0.964468 -0.216888
v 0.523614 0.867565 -0.216888
v 0.471240 0.964468 -0.314873
v 0.471240 0.867565 -0.314873
v 0.400757 0.964468 -0.400757
v 0.400757 0.867565 -0.400757
v 0.314873 0.964468 -0.471241
v 0.314873 0.867565 -0.471241
v 0.216888 0.964468 -0.523615
v 0.216888 0.867565 -0.523615
v 0.110568 0.964468 -0.555866
v 0.110568 0.867565 -0.555866
v -0.000001 0.964468 -0.566756
v -0.000001 0.867565 -0.566756
v -0.110569 0.964468 -0.555866
v -0.110569 0.867565 -0.555866
v -0.216889 0.964468 -0.523614
v -0.216889 0.867565 -0.523614
v -0.314874 0.964468 -0.471240
v -0.314874 0.867565 -0.471240
v -0.523615 0.867565 0.216888
v -0.555866 0.867565 0.110569
v -0.000000 0.867565 0.000000
v -0.566756 0.867565 0.000000
v -0.471241 0.867565 0.314873
v -0.555866 0.867565 -0.110568
v -0.400757 0.867565 0.400757
v -0.523615 0.867565 -0.216887
v -0.314873 0.867565 0.471241
v -0.471241 0.867565 -0.314872
v -0.216888 0.867565 0.523615
v -0.400758 0.867565 -0.400757
v -0.110569 0.867565 0.555866
v -0.314874 0.867565 -0.471240
v -0.000000 0.867565 0.566756
v -0.216889 0.867565 -0.523614
v 0.110569 0.867565 0.555866
v -0.110569 0.867565 -0.555866
v 0.216888 0.867565 0.523615
v -0.000001 0.867565 -0.566756
v 0.314873 0.867565 0.471241
v 0.110568 0.867565 -0.555866
v 0.400757 0.867565 0.400757
v 0.216888 0.867565 -0.523615
v 0.471241 0.867565 0.314873
v 0.314873 0.867565 -0.471241
v 0.523615 0.867565 0.216888
v 0.400757 0.867565 -0.400757
v 0.555866 0.867565 0.110569
v 0.471240 0.867565 -0.314873
v 0.566756 0.867565 -0.000000
v 0.523614 0.867565 -0.216888
v 0.555866 0.867565 -0.110569
v -0.555866 0.964468 -0.110568
v -0.566756 0.964468 0.000000
v -0.000000 0.964468 0.000000
v -0.555866 0.964468 0.110569
v -0.523615 0.964468 -0.216887
v -0.523615 0.964468 0.216888
v -0.471241 0.964468 -0.314872
v -0.471241 0.964468 0.314873
v -0.400758 0.964468 -0.400757
v -0.400757 0.964468 0.400757
v -0.314874 0.964468 -0.471240
v -0.314873 0.964468 0.471241
v -0.216889 0.964468 -0.523614
v -0.216888 0.964468 0.523615
v -0.110569 0.964468 -0.555866
v -0.110569 0.964468 0.555866
v -0.000001 0.964468 -0.566756
v -0.000000 0.964468 0.566756
v 0.110568 0.964468 -0.555866
v 0.110569 0.964468 0.555866
v 0.216888 0.964468 -0.523615
v 0.216888 0.964468 0.523615
v 0.314873 0.964468 -0.471241
v 0.314873 0.964468 0.471241
v 0.400757 0.964468 -0.400757
v 0.400757 0.964468 0.400757
v 0.471240 0.964468 -0.314873
v 0.471241 0.964468 0.314873
v 0.523614 0.964468 -0.216888
v 0.523615 0.964468 0.216888
v 0.555866 0.964468 -0.110569
v 0.555866 0.964468 0.110569
v 0.566756 0.964468 -0.000000
vt 0.235844 0.637740
vt 0.393075 0.635786
vt 0.394052 0.670944
vt 0.235844 0.673874
vt 0.235844 0.637740
vt 0.393075 0.635786
vt 0.394052 0.670944
vt 0.235844 0.673874
vt 0.235844 0.637740
vt 0.393075 0.635786
vt 0.394052 0.670944
vt 0.235844 0.673874
vt 0.235844 0.637740
vt 0.393075 0.635786
vt 0.394052 0.670944
vt 0.235844 0.673874
vt 0.783711 0.177765
vt 0.783711 0.083036
vt 0.797384 0.083036
vt 0.797384 0.177765
vt 0.013180 0.028346
vt 0.040524 0.028346
vt 0.040524 0.214876
vt 0.013180 0.214876
vt 0.066893 0.003931
vt 0.066893 0.191437
vt 0.073729 0.191437
vt 0.073729 0.003931
vt 0.278813 0.199250
vt 0.185061 0.199250
vt 0.185061 0.144561
vt 0.278813 0.144561
vt 0.783711 0.177765
vt 0.783711 0.083036
vt 0.797384 0.083036
vt 0.797384 0.177765
vt 0.013180 0.028346
vt 0.040524 0.028346
vt 0.040524 0.214876
vt 0.013180 0.214876
vt 0.066893 0.003931
vt 0.066893 0.191437
vt 0.073729 0.191437
vt 0.073729 0.003931
vt 0.278813 0.199250
vt 0.185061 0.199250
vt 0.185061 0.144561
vt 0.278813 0.144561
vt 0.783711 0.177765
vt 0.783711 0.083036
vt 0.797384 0.083036
vt 0.797384 0.177765
vt 0.013180 0.028346
vt 0.040524 0.028346
vt 0.040524 0.214876
vt 0.013180 0.214876
vt 0.066893 0.003931
vt 0.066893 0.191437
vt 0.073729 0.191437
vt 0.073729 0.003931
vt 0.278813 0.199250
vt 0.185061 0.199250
vt 0.185061 0.144561
vt 0.278813 0.144561
vt 0.783711 0.177765
vt 0.783711 0.083036
vt 0.797384 0.083036
vt 0.797384 0.177765
vt 0.013180 0.028346
vt 0.040524 0.028346
vt 0.040524 0.214876
vt 0.013180 0.214876
vt 0.066893 0.003931
vt 0.066893 0.191437
vt 0.073729 0.191437
vt 0.073729 0.003931
vt 0.278813 0.199250
vt 0.185061 0.199250
vt 0.185061 0.144561
vt 0.278813 0.144561
vt 0.529798 0.081083
vt 0.537610 0.081083
vt 0.537610 0.102567
vt 0.529798 0.102567
vt 0.520032 0.081083
vt 0.520032 0.102567
vt 0.509289 0.081083
vt 0.509289 0.102567
vt 0.497570 0.081083
vt 0.497570 0.102567
vt 0.484875 0.081083
vt 0.484875 0.102567
vt 0.472178 0.081083
vt 0.472178 0.102567
vt 0.460460 0.081083
vt 0.460460 0.102567
vt 0.449717 0.081083
vt 0.449717 0.102567
vt 0.439951 0.081083
vt 0.439951 0.102567
vt 0.432138 0.081083
vt 0.432138 0.102567
vt 0.421395 0.081083
vt 0.421395 0.102567
vt 0.409677 0.081083
vt 0.409677 0.102567
vt 0.396981 0.081083
vt 0.396981 0.102567
vt 0.384285 0.081083
vt 0.384285 0.102567
vt 0.372566 0.081083
vt 0.372566 0.102567
vt 0.361824 0.081083
vt 0.361824 0.102567
vt 0.354011 0.081083
vt 0.354011 0.102567
vt 0.344245 0.081083
vt 0.344245 0.102567
vt 0.333503 0.081083
vt 0.333503 0.102567
vt 0.321783 0.081083
vt 0.321783 0.102567
vt 0.309088 0.081083
vt 0.309088 0.102567
vt 0.296391 0.081083
vt 0.296391 0.102567
vt 0.284673 0.081083
vt 0.284673 0.102567
vt 0.273931 0.081083
vt 0.273931 0.102567
vt 0.264164 0.081083
vt 0.264164 0.102567
vt 0.256351 0.081083
vt 0.256351 0.102567
vt 0.245609 0.081083
vt 0.245609 0.102567
vt 0.233890 0.081083
vt 0.233890 0.102567
vt 0.221194 0.081083
vt 0.221194 0.102567
vt 0.208499 0.081083
vt 0.208499 0.102567
vt 0.196779 0.081083
vt 0.196779 0.102567
vt 0.186037 0.081083
vt 0.186037 0.102567
vt -0.378433 0.613325
vt -0.375504 0.635786
vt -0.434099 0.659225
vt -0.374527 0.659225
vt -0.384293 0.592817
vt -0.375504 0.682663
vt -0.392106 0.574261
vt -0.378433 0.704148
vt -0.400895 0.559613
vt -0.384293 0.725633
vt -0.410661 0.548870
vt -0.392106 0.743212
vt -0.422380 0.542034
vt -0.400895 0.757861
vt -0.434099 0.540080
vt -0.410661 0.769580
vt -0.445818 0.542034
vt -0.422380 0.776416
vt -0.456561 0.548870
vt -0.434099 0.778369
vt -0.467303 0.559613
vt -0.445818 0.776416
vt -0.476092 0.574261
vt -0.456561 0.769580
vt -0.483906 0.592817
vt -0.467303 0.757861
vt -0.488789 0.613325
vt -0.476092 0.743212
vt -0.492695 0.635786
vt -0.483906 0.725633
vt -0.493671 0.659225
vt -0.488789 0.704148
vt -0.492695 0.682663
vt 0.589370 0.343786
vt 0.590346 0.367224
vt 0.530774 0.367224
vt 0.589370 0.390662
vt 0.586440 0.321324
vt 0.586440 0.412147
vt 0.580581 0.300816
vt 0.580581 0.433632
vt 0.572767 0.282260
vt 0.572767 0.451210
vt 0.563978 0.267611
vt 0.563978 0.465860
vt 0.553236 0.256869
vt 0.553236 0.477578
vt 0.542493 0.250033
vt 0.542493 0.483438
vt 0.530774 0.248080
vt 0.530774 0.486369
vt 0.519055 0.250033
vt 0.519055 0.483438
vt 0.508312 0.256869
vt 0.508312 0.477578
vt 0.497570 0.267611
vt 0.497570 0.465860
vt 0.488781 0.282260
vt 0.488781 0.451210
vt 0.480968 0.300816
vt 0.480968 0.433632
vt 0.476085 0.321324
vt 0.476085 0.412147
vt 0.472178 0.343786
vt 0.472178 0.390662
vt 0.471202 0.367224
vn 0.0000 -1.0000 0.0000
vn 0.0843 0.2526 0.9639
vn -0.9964 0.0002 0.0841
vn -0.9962 0.0000 0.0871
vn -0.9975 0.0012 0.0699
vn -0.9978 0.0015 0.0662
vn -0.0862 -0.1823 -0.9794
vn -0.1000 -0.1814 -0.9783
vn -0.0993 -0.1814 -0.9784
vn -0.0857 -0.1824 -0.9795
vn 0.9959 0.0002 -0.0902
vn 0.9941 0.0015 -0.1079
vn 0.9945 0.0012 -0.1043
vn 0.9962 0.0000 -0.0871
vn 0.9639 0.2526 -0.0843
vn 0.0884 -0.0001 0.9961
vn 0.0871 0.0000 0.9962
vn 0.0947 -0.0005 0.9955
vn 0.0963 -0.0006 0.9953
vn -0.9836 -0.1586 0.0860
vn -0.0884 0.0001 -0.9961
vn -0.0963 0.0006 -0.9953
vn -0.0947 0.0005 -0.9955
vn -0.0871 0.0000 -0.9962
vn -0.0843 0.2526 -0.9639
vn 0.9961 -0.0000 -0.0878
vn 0.9958 -0.0003 -0.0912
vn 0.9957 -0.0003 -0.0920
vn 0.0859 -0.1690 0.9819
vn -0.9961 0.0000 0.0878
vn -0.9957 0.0003 0.0920
vn -0.9958 0.0003 0.0912
vn -0.9639 0.2526 0.0843
vn -0.0849 0.0002 -0.9964
vn -0.0743 0.0009 -0.9972
vn -0.0714 0.0011 -0.9974
vn 0.9795 -0.1822 -0.0861
vn 0.9787 -0.1815 -0.0960
vn 0.9787 -0.1816 -0.0955
vn 0.9795 -0.1823 -0.0857
vn 0.0894 0.0002 0.9960
vn 0.1028 0.0011 0.9947
vn 0.1000 0.0009 0.9950
vn -0.7071 0.0000 -0.7071
vn -0.6344 0.0000 -0.7730
vn -0.8314 0.0000 -0.5556
vn -0.9239 0.0000 -0.3827
vn -0.9808 0.0000 -0.1951
vn -1.0000 0.0000 0.0000
vn -0.9808 0.0000 0.1951
vn -0.9239 0.0000 0.3827
vn -0.8314 0.0000 0.5556
vn -0.7071 0.0000 0.7071
vn -0.5556 0.0000 0.8314
vn -0.3827 0.0000 0.9239
vn -0.1951 0.0000 0.9808
vn 0.0000 0.0000 1.0000
vn 0.1951 0.0000 0.9808
vn 0.3827 0.0000 0.9239
vn 0.5556 0.0000 0.8314
vn 0.7071 0.0000 0.7071
vn 0.8314 0.0000 0.5556
vn 0.9239 0.0000 0.3827
vn 0.9808 0.0000 0.1951
vn 1.0000 0.0000 0.0000
vn 0.9808 0.0000 -0.1951
vn 0.9239 0.0000 -0.3827
vn 0.8314 0.0000 -0.5556
vn 0.7071 0.0000 -0.7071
vn 0.5556 0.0000 -0.8314
vn 0.3827 0.0000 -0.9239
vn 0.1951 0.0000 -0.9808
vn 0.0000 0.0000 -1.0000
vn -0.1951 0.0000 -0.9808
vn -0.3827 0.0000 -0.9239
vn -0.4714 0.0000 -0.8819
vn 0.0000 1.0000 0.0000
usemtl Tex_2457_0_dds
s 1
f 1/1/1 2/2/1 3/3/1
f 3/3/1 4/4/1 1/1/1
f 5/5/1 6/6/1 7/7/1
f 7/7/1 8/8/1 5/5/1
f 9/9/1 10/10/1 11/11/1
f 11/11/1 12/12/1 9/9/1
f 13/13/1 14/14/1 15/15/1
f 15/15/1 16/16/1 13/13/1
f 17/17/2 18/18/2 19/19/2
f 19/19/2 20/20/2 17/17/2
f 21/21/3 22/22/4 23/23/5
f 23/23/5 24/24/6 21/21/3
f 25/25/7 26/26/8 27/27/9
f 27/27/9 28/28/10 25/25/7
f 29/29/11 30/30/12 31/31/13
f 31/31/13 32/32/14 29/29/11
f 33/33/15 34/34/15 35/35/15
f 35/35/15 36/36/15 33/33/15
f 37/37/16 38/38/17 39/39/18
f 39/39/18 40/40/19 37/37/16
f 41/41/20 42/42/20 43/43/20
f 43/43/20 44/44/20 41/41/20
f 45/45/21 46/46/22 47/47/23
f 47/47/23 48/48/24 45/45/21
f 49/49/25 50/50/25 51/51/25
f 51/51/25 52/52/25 49/49/25
f 53/53/26 54/54/14 55/55/27
f 55/55/27 56/56/28 53/53/26
f 57/57/29 58/58/29 59/59/29
f 59/59/29 60/60/29 57/57/29
f 61/61/30 62/62/31 63/63/32
f 63/63/32 64/64/4 61/61/30
f 65/65/33 66/66/33 67/67/33
f 67/67/33 68/68/33 65/65/33
f 69/69/34 70/70/24 71/71/35
f 71/71/35 72/72/36 69/69/34
f 73/73/37 74/74/38 75/75/39
f 75/75/39 76/76/40 73/73/37
f 77/77/41 78/78/42 79/79/43
f 79/79/43 80/80/17 77/77/41
f 81/81/44 82/82/45 83/83/45
f 83/83/45 84/84/44 81/81/44
f 85/85/46 81/81/44 84/84/44
f 84/84/44 86/86/46 85/85/46
f 87/87/47 85/85/46 86/86/46
f 86/86/46 88/88/47 87/87/47
f 89/89/48 87/87/47 88/88/47
f 88/88/47 90/90/48 89/89/48
f 91/91/49 89/89/48 90/90/48
f 90/90/48 92/92/49 91/91/49
f 93/93/50 91/91/49 92/92/49
f 92/92/49 94/94/50 93/93/50
f 95/95/51 93/93/50 94/94/50
f 94/94/50 96/96/51 95/95/51
f 97/97/52 95/95/51 96/96/51
f 96/96/51 98/98/52 97/97/52
f 99/99/53 97/97/52 98/98/52
f 98/98/52 100/100/53 99/99/53
f 101/101/54 99/99/53 100/100/53
f 100/100/53 102/102/54 101/101/54
f 103/103/55 101/101/54 102/102/54
f 102/102/54 104/104/55 103/103/55
f 105/105/56 103/103/55 104/104/55
f 104/104/55 106/106/56 105/105/56
f 107/107/57 105/105/56 106/106/56
f 106/106/56 108/108/57 107/107/57
f 109/109/58 107/107/57 108/108/57
f 108/108/57 110/110/58 109/109/58
f 111/111/59 109/109/58 110/110/58
f 110/110/58 112/112/59 111/111/59
f 113/113/60 111/111/59 112/112/59
f 112/112/59 114/114/60 113/113/60
f 115/115/61 113/113/60 114/114/60
f 114/114/60 116/116/61 115/115/61
f 117/117/62 115/115/61 116/116/61
f 116/116/61 118/118/62 117/117/62
f 119/119/63 117/117/62 118/118/62
f 118/118/62 120/120/63 119/119/63
f 121/121/64 119/119/63 120/120/63
f 120/120/63 122/122/64 121/121/64
f 123/123/65 121/121/64 122/122/64
f 122/122/64 124/124/65 123/123/65
f 125/125/66 123/123/65 124/124/65
f 124/124/65 126/126/66 125/125/66
f 127/127/67 125/125/66 126/126/66
f 126/126/66 128/128/67 127/127/67
f 129/129/68 127/127/67 128/128/67
f 128/128/67 130/130/68 129/129/68
f 131/131/69 129/129/68 130/130/68
f 130/130/68 132/132/69 131/131/69
f 133/133/70 131/131/69 132/132/69
f 132/132/69 134/134/70 133/133/70
f 135/135/71 133/133/70 134/134/70
f 134/134/70 136/136/71 135/135/71
f 137/137/72 135/135/71 136/136/71
f 136/136/71 138/138/72 137/137/72
f 139/139/73 137/137/72 138/138/72
f 138/138/72 140/140/73 139/139/73
f 141/141/74 139/139/73 140/140/73
f 140/140/73 142/142/74 141/141/74
f 143/143/75 141/141/74 142/142/74
f 142/142/74 144/144/75 143/143/75
f 145/145/76 143/143/75 144/144/75
f 144/144/75 146/146/76 145/145/76
f 147/147/1 148/148/1 149/149/1
f 148/148/1 150/150/1 149/149/1
f 151/151/1 147/147/1 149/149/1
f 150/150/1 152/152/1 149/149/1
f 153/153/1 151/151/1 149/149/1
f 152/152/1 154/154/1 149/149/1
f 155/155/1 153/153/1 149/149/1
f 154/154/1 156/156/1 149/149/1
f 157/157/1 155/155/1 149/149/1
f 156/156/1 158/158/1 149/149/1
f 159/159/1 157/157/1 149/149/1
f 158/158/1 160/160/1 149/149/1
f 161/161/1 159/159/1 149/149/1
f 160/160/1 162/162/1 149/149/1
f 163/163/1 161/161/1 149/149/1
f 162/162/1 164/164/1 149/149/1
f 165/165/1 163/163/1 149/149/1
f 164/164/1 166/166/1 149/149/1
f 167/167/1 165/165/1 149/149/1
f 166/166/1 168/168/1 149/149/1
f 169/169/1 167/167/1 149/149/1
f 168/168/1 170/170/1 149/149/1
f 171/171/1 169/169/1 149/149/1
f 170/170/1 172/172/1 149/149/1
f 173/173/1 171/171/1 149/149/1
f 172/172/1 174/174/1 149/149/1
f 175/175/1 173/173/1 149/149/1
f 174/174/1 176/176/1 149/149/1
f 177/177/1 175/175/1 149/149/1
f 176/176/1 178/178/1 149/149/1
f 179/179/1 177/177/1 149/149/1
f 178/178/1 179/179/1 149/149/1
f 180/180/77 181/181/77 182/182/77
f 181/181/77 183/183/77 182/182/77
f 184/184/77 180/180/77 182/182/77
f 183/183/77 185/185/77 182/182/77
f 186/186/77 184/184/77 182/182/77
f 185/185/77 187/187/77 182/182/77
f 188/188/77 186/186/77 182/182/77
f 187/187/77 189/189/77 182/182/77
f 190/190/77 188/188/77 182/182/77
f 189/189/77 191/191/77 182/182/77
f 192/192/77 190/190/77 182/182/77
f 191/191/77 193/193/77 182/182/77
f 194/194/77 192/192/77 182/182/77
f 193/193/77 195/195/77 182/182/77
f 196/196/77 194/194/77 182/182/77
f 195/195/77 197/197/77 182/182/77
f 198/198/77 196/196/77 182/182/77
f 197/197/77 199/199/77 182/182/77
f 200/200/77 198/198/77 182/182/77
f 199/199/77 201/201/77 182/182/77
f 202/202/77 200/200/77 182/182/77
f 201/201/77 203/203/77 182/182/77
f 204/204/77 202/202/77 182/182/77
f 203/203/77 205/205/77 182/182/77
f 206/206/77 204/204/77 182/182/77
f 205/205/77 207/207/77 182/182/77
f 208/208/77 206/206/77 182/182/77
f 207/207/77 209/209/77 182/182/77
f 210/210/77 208/208/77 182/182/77
f 209/209/77 211/211/77 182/182/77
f 212/212/77 210/210/77 182/182/77
f 211/211/77 212/212/77 182/182/77
