# Blender v2.79 (sub 0) OBJ File: ''
# www.blender.org
mtllib 13collider.mtl
o Cube.001
v -0.415124 0.001937 0.091307
v -0.415124 0.335033 0.091307
v -0.421974 0.335033 -0.238356
v -0.421974 0.001937 -0.238356
v 0.473994 0.335033 -0.144669
v 0.473994 0.001937 -0.144669
v 0.476901 0.335033 0.016344
v 0.476901 0.001937 0.016344
vn -0.9998 -0.0000 0.0208
vn 0.1040 0.0000 -0.9946
vn 0.9998 -0.0000 -0.0181
vn 0.0837 -0.0000 0.9965
vn -0.0000 -1.0000 -0.0000
vn -0.0000 1.0000 0.0000
usemtl None
s 1
f 1//1 2//1 3//1 4//1
f 4//2 3//2 5//2 6//2
f 6//3 5//3 7//3 8//3
f 8//4 7//4 2//4 1//4
f 4//5 6//5 8//5 1//5
f 5//6 3//6 2//6 7//6
