# Blender v2.78 (sub 0) OBJ File: 'botella1.blend'
# www.blender.org
mtllib botella1.mtl
o Botella_Sphere002
v -0.266665 0.147410 -0.367035
v -0.101050 0.397670 -0.139085
v 0.000000 0.397670 -0.171917
v 0.000000 0.147410 -0.453680
v -0.431475 0.147410 -0.140195
v -0.163502 0.397670 -0.053125
v -0.431475 0.147410 0.140195
v -0.163502 0.397670 0.053125
v -0.266665 0.147410 0.367035
v -0.101050 0.397670 0.139085
v 0.000000 0.147410 0.453680
v 0.000000 0.397670 0.171917
v 0.266665 0.147410 0.367035
v 0.101050 0.397670 0.139085
v 0.431475 0.147410 0.140195
v 0.163502 0.397670 0.053125
v 0.431475 0.147410 -0.140195
v 0.163502 0.397670 -0.053125
v 0.266665 0.147410 -0.367035
v 0.101050 0.397670 -0.139085
v -0.266665 -0.147410 -0.367035
v 0.000000 -0.147410 -0.453680
v -0.431475 -0.147410 -0.140195
v -0.431475 -0.147410 0.140195
v -0.266665 -0.147410 0.367035
v 0.000000 -0.147410 0.453680
v 0.266665 -0.147410 0.367035
v 0.431475 -0.147410 0.140195
v 0.431475 -0.147410 -0.140195
v 0.266665 -0.147410 -0.367035
v -0.164807 -0.385923 -0.226840
v 0.000000 -0.385923 -0.280390
v -0.266665 -0.385923 -0.086645
v -0.266665 -0.385923 0.086645
v -0.164807 -0.385923 0.226840
v 0.000000 -0.385923 0.280390
v 0.164807 -0.385923 0.226840
v 0.266665 -0.385923 0.086645
v 0.266665 -0.385923 -0.086645
v 0.164807 -0.385923 -0.226840
v -0.101050 0.854722 -0.139085
v 0.000000 0.854722 -0.171917
v -0.163502 0.854722 -0.053125
v -0.163502 0.854722 0.053125
v -0.101050 0.854722 0.139085
v 0.000000 0.854722 0.171917
v 0.101050 0.854722 0.139085
v 0.163502 0.854722 0.053125
v 0.163502 0.854722 -0.053125
v 0.101050 0.854722 -0.139085
v -0.147978 0.956330 -0.203675
v 0.000000 0.956330 -0.251755
v -0.239435 0.956330 -0.077798
v -0.239435 0.956330 0.077798
v -0.147978 0.956330 0.203675
v 0.000000 0.956330 0.251755
v 0.147978 0.956330 0.203675
v 0.239435 0.956330 0.077798
v 0.239435 0.956330 -0.077798
v 0.147978 0.956330 -0.203675
v -0.148040 1.001433 -0.203758
v 0.000000 1.001433 -0.251860
v -0.239533 1.001433 -0.077830
v -0.239533 1.001433 0.077830
v -0.148040 1.001433 0.203758
v 0.000000 1.001433 0.251860
v 0.148040 1.001433 0.203758
v 0.239533 1.001433 0.077828
v 0.239533 1.001433 -0.077830
v 0.148040 1.001433 -0.203758
v -0.086273 1.001515 -0.118745
v 0.000000 1.001515 -0.146775
v -0.139593 1.001515 -0.045355
v -0.139593 1.001515 0.045355
v -0.086273 1.001515 0.118743
v 0.000000 1.001515 0.146775
v 0.086273 1.001515 0.118743
v 0.139593 1.001515 0.045355
v 0.139593 1.001515 -0.045355
v 0.086273 1.001515 -0.118745
v 0.000000 -0.381195 0.000000
vt 0.5507 0.3683
vt 0.4850 0.2635
vt 0.5507 0.2635
vt 0.6165 0.2635
vt 0.6822 0.3683
vt 0.6822 0.2635
vt 0.0906 0.3683
vt 0.0249 0.2635
vt 0.0906 0.2635
vt 0.1564 0.2635
vt 0.2221 0.3683
vt 0.2221 0.2635
vt 0.2878 0.2635
vt 0.3535 0.3683
vt 0.3535 0.2635
vt 0.4193 0.3683
vt 0.4193 0.2635
vt 0.4850 0.1400
vt 0.5507 0.1400
vt 0.6165 0.1400
vt 0.6822 0.1400
vt 0.0249 0.1400
vt 0.0906 0.1400
vt 0.1564 0.1400
vt 0.2221 0.1400
vt 0.2878 0.1400
vt 0.3535 0.1400
vt 0.4193 0.1400
vt 0.4850 0.0400
vt 0.5507 0.0400
vt 0.6165 0.0400
vt 0.6822 0.0400
vt 0.0249 0.0400
vt 0.0906 0.0400
vt 0.1564 0.0400
vt 0.2221 0.0400
vt 0.2878 0.0400
vt 0.3535 0.0400
vt 0.4193 0.0400
vt 0.4850 0.5598
vt 0.4850 0.3683
vt 0.6165 0.3683
vt 0.5507 0.5598
vt 0.6165 0.5598
vt 0.0249 0.5598
vt 0.0249 0.3683
vt 0.1564 0.3683
vt 0.0906 0.5598
vt 0.1564 0.5598
vt 0.2878 0.3683
vt 0.2221 0.5598
vt 0.2878 0.5598
vt 0.3535 0.5598
vt 0.4193 0.5598
vt 0.4850 0.6024
vt 0.5507 0.6024
vt 0.6822 0.5598
vt 0.6165 0.6024
vt 0.0906 0.6024
vt 0.0249 0.6024
vt 0.1564 0.6024
vt 0.2221 0.6024
vt 0.2878 0.6024
vt 0.4193 0.6024
vt 0.3535 0.6024
vt 0.4850 0.6213
vt 0.5507 0.6213
vt 0.6822 0.6024
vt 0.6165 0.6213
vt 0.0906 0.6213
vt 0.0249 0.6213
vt 0.1564 0.6213
vt 0.2221 0.6213
vt 0.2878 0.6213
vt 0.4193 0.6213
vt 0.3535 0.6213
vt 0.6448 0.6141
vt 0.6455 0.6016
vt 0.6497 0.6074
vt 0.6376 0.5918
vt 0.6376 0.6041
vt 0.6448 0.5819
vt 0.6455 0.5944
vt 0.6565 0.5864
vt 0.6497 0.5886
vt 0.6565 0.5781
vt 0.6633 0.5886
vt 0.6754 0.5918
vt 0.6682 0.5819
vt 0.6675 0.6016
vt 0.6675 0.5944
vt 0.6754 0.6041
vt 0.6633 0.6074
vt 0.6682 0.6141
vt 0.6565 0.6096
vt 0.6565 0.6178
vt 0.6046 0.0796
vt 0.6395 0.0796
vt 0.6112 0.1001
vt 0.6287 0.1128
vt 0.6503 0.1128
vt 0.6112 0.0591
vt 0.6677 0.1001
vt 0.6744 0.0796
vt 0.6677 0.0591
vt 0.6503 0.0464
vt 0.6287 0.0464
vt 0.6822 0.6213
vn -0.6074 0.6486 -0.4587
vn -0.0000 0.4615 -0.8871
vn -0.5218 0.4603 -0.7182
vn -0.8375 0.4583 -0.2974
vn -0.6234 0.6489 0.4362
vn -0.8440 0.4609 0.2742
vn -0.2486 0.6487 0.7193
vn -0.5218 0.4602 0.7182
vn -0.0241 0.4584 0.8884
vn 0.6074 0.6486 0.4587
vn 0.5218 0.4603 0.7182
vn 0.8375 0.4583 0.2974
vn 0.6234 0.6489 -0.4362
vn 0.8440 0.4609 -0.2742
vn 0.2486 0.6487 -0.7193
vn 0.5218 0.4602 -0.7182
vn 0.0000 -0.3092 -0.9510
vn -0.5589 -0.3094 -0.7693
vn -0.9044 -0.3092 -0.2939
vn -0.9044 -0.3093 0.2939
vn -0.5589 -0.3094 0.7693
vn 0.0000 -0.3092 0.9510
vn 0.5589 -0.3094 0.7693
vn 0.9044 -0.3092 0.2939
vn 0.9044 -0.3093 -0.2939
vn 0.5589 -0.3094 -0.7693
vn -0.3549 -0.8482 -0.3932
vn -0.4636 -0.6146 -0.6382
vn -0.5416 -0.6848 -0.4876
vn -0.7532 -0.6106 0.2447
vn -0.4636 -0.6146 0.6382
vn -0.2963 -0.6848 0.6657
vn 0.4636 -0.6146 0.6382
vn 0.5416 -0.6848 0.4876
vn 0.7532 -0.6106 -0.2447
vn 0.4636 -0.6146 -0.6382
vn 0.0000 -0.1486 -0.9889
vn 0.3386 0.3729 -0.8639
vn -0.9658 0.1184 -0.2304
vn -0.3766 -0.3191 -0.8697
vn -0.8158 -0.3191 -0.4823
vn -0.9438 -0.3188 0.0877
vn 0.0793 0.1184 0.9898
vn -0.7108 -0.3191 0.6269
vn -0.2042 -0.3195 0.9253
vn 0.9658 0.1184 0.2304
vn 0.3766 -0.3191 0.8697
vn 0.8158 -0.3191 0.4823
vn 0.9438 -0.3188 -0.0877
vn 0.7108 -0.3191 -0.6269
vn -0.0000 -0.6255 -0.7803
vn -0.4592 -0.6242 -0.6321
vn -0.7430 -0.6242 -0.2414
vn -0.7998 -0.3233 0.5057
vn -0.7440 -0.6229 0.2417
vn -0.3513 -0.3233 0.8786
vn 0.4592 -0.6242 0.6321
vn 0.7430 -0.6242 0.2414
vn 0.7998 -0.3233 -0.5057
vn 0.7440 -0.6229 -0.2417
vn 0.0000 0.9205 -0.3907
vn -0.0843 0.5054 -0.8588
vn -0.5693 0.5020 -0.6510
vn -0.2306 0.9199 0.3173
vn -0.8437 0.4976 -0.2014
vn -0.0000 0.9157 0.4018
vn 0.0733 0.4998 0.8630
vn 0.5693 0.5021 0.6510
vn 0.2347 0.9169 -0.3229
vn 0.8434 0.5000 0.1964
vn -0.5432 0.3822 -0.7476
vn -0.0001 0.3822 -0.9241
vn -0.8788 0.3822 -0.2856
vn -0.5432 0.3822 0.7476
vn -0.8788 0.3822 0.2856
vn 0.0001 0.3822 0.9241
vn 0.8788 0.3822 0.2856
vn 0.5432 0.3822 0.7476
vn 0.8788 0.3822 -0.2856
vn 0.5432 0.3822 -0.7476
vn -0.3043 -0.9474 -0.0989
usemtl Material.001
s 1
f 2/1/1 4/2/2 1/3/3
f 5/4/4 2/1/1 1/3/3
f 8/5/5 5/4/4 7/6/6
f 10/7/7 7/8/6 9/9/8
f 11/10/9 10/7/7 9/9/8
f 14/11/10 11/10/9 13/12/11
f 15/13/12 14/11/10 13/12/11
f 18/14/13 15/13/12 17/15/14
f 20/16/15 17/15/14 19/17/16
f 4/2/2 20/16/15 19/17/16
f 1/3/3 22/18/17 21/19/18
f 5/4/4 21/19/18 23/20/19
f 7/6/6 23/20/19 24/21/20
f 9/9/8 24/22/20 25/23/21
f 11/10/9 25/23/21 26/24/22
f 13/12/11 26/24/22 27/25/23
f 15/13/12 27/25/23 28/26/24
f 17/15/14 28/26/24 29/27/25
f 19/17/16 29/27/25 30/28/26
f 4/2/2 30/28/26 22/18/17
f 21/19/18 32/29/27 31/30/28
f 33/31/29 21/19/18 31/30/28
f 24/21/20 33/31/29 34/32/30
f 25/23/21 34/33/30 35/34/31
f 36/35/32 25/23/21 35/34/31
f 27/25/23 36/35/32 37/36/33
f 38/37/34 27/25/23 37/36/33
f 29/27/25 38/37/34 39/38/35
f 30/28/26 39/38/35 40/39/36
f 32/29/27 30/28/26 40/39/36
f 2/1/1 42/40/37 3/41/38
f 6/42/39 41/43/40 2/1/1
f 8/5/5 43/44/41 6/42/39
f 10/7/7 44/45/42 8/46/5
f 12/47/43 45/48/44 10/7/7
f 14/11/10 46/49/45 12/47/43
f 16/50/46 47/51/47 14/11/10
f 18/14/13 48/52/48 16/50/46
f 20/16/15 49/53/49 18/14/13
f 3/41/38 50/54/50 20/16/15
f 41/43/40 52/55/51 42/40/37
f 43/44/41 51/56/52 41/43/40
f 44/57/42 53/58/53 43/44/41
f 44/45/42 55/59/54 54/60/55
f 45/48/44 56/61/56 55/59/54
f 47/51/47 56/61/56 46/49/45
f 48/52/48 57/62/57 47/51/47
f 49/53/49 58/63/58 48/52/48
f 49/53/49 60/64/59 59/65/60
f 50/54/50 52/55/51 60/64/59
f 51/56/52 62/66/61 52/55/51
f 53/58/53 61/67/62 51/56/52
f 54/68/55 63/69/63 53/58/53
f 54/60/55 65/70/64 64/71/65
f 55/59/54 66/72/66 65/70/64
f 57/62/57 66/72/66 56/61/56
f 58/63/58 67/73/67 57/62/57
f 59/65/60 68/74/68 58/63/58
f 59/65/60 70/75/69 69/76/70
f 60/64/59 62/66/61 70/75/69
f 62/77/61 71/78/71 72/79/72
f 63/80/63 71/78/71 61/81/62
f 64/82/65 73/83/73 63/80/63
f 64/82/65 75/84/74 74/85/75
f 65/86/64 76/87/76 75/84/74
f 67/88/67 76/87/76 66/89/66
f 67/88/67 78/90/77 77/91/78
f 68/92/68 79/93/79 78/90/77
f 69/94/70 80/95/80 79/93/79
f 62/77/61 80/95/80 70/96/69
f 31/97/28 81/98/81 33/99/29
f 34/100/30 81/98/81 35/101/31
f 32/102/27 81/98/81 31/97/28
f 36/103/32 81/98/81 37/104/33
f 38/105/34 81/98/81 39/106/35
f 81/98/81 34/100/30 33/99/29
f 81/98/81 36/103/32 35/101/31
f 32/102/27 40/107/36 81/98/81
f 81/98/81 38/105/34 37/104/33
f 81/98/81 40/107/36 39/106/35
f 2/1/1 3/41/38 4/2/2
f 5/4/4 6/42/39 2/1/1
f 8/5/5 6/42/39 5/4/4
f 10/7/7 8/46/5 7/8/6
f 11/10/9 12/47/43 10/7/7
f 14/11/10 12/47/43 11/10/9
f 15/13/12 16/50/46 14/11/10
f 18/14/13 16/50/46 15/13/12
f 20/16/15 18/14/13 17/15/14
f 4/2/2 3/41/38 20/16/15
f 1/3/3 4/2/2 22/18/17
f 5/4/4 1/3/3 21/19/18
f 7/6/6 5/4/4 23/20/19
f 9/9/8 7/8/6 24/22/20
f 11/10/9 9/9/8 25/23/21
f 13/12/11 11/10/9 26/24/22
f 15/13/12 13/12/11 27/25/23
f 17/15/14 15/13/12 28/26/24
f 19/17/16 17/15/14 29/27/25
f 4/2/2 19/17/16 30/28/26
f 21/19/18 22/18/17 32/29/27
f 33/31/29 23/20/19 21/19/18
f 24/21/20 23/20/19 33/31/29
f 25/23/21 24/22/20 34/33/30
f 36/35/32 26/24/22 25/23/21
f 27/25/23 26/24/22 36/35/32
f 38/37/34 28/26/24 27/25/23
f 29/27/25 28/26/24 38/37/34
f 30/28/26 29/27/25 39/38/35
f 32/29/27 22/18/17 30/28/26
f 2/1/1 41/43/40 42/40/37
f 6/42/39 43/44/41 41/43/40
f 8/5/5 44/57/42 43/44/41
f 10/7/7 45/48/44 44/45/42
f 12/47/43 46/49/45 45/48/44
f 14/11/10 47/51/47 46/49/45
f 16/50/46 48/52/48 47/51/47
f 18/14/13 49/53/49 48/52/48
f 20/16/15 50/54/50 49/53/49
f 3/41/38 42/40/37 50/54/50
f 41/43/40 51/56/52 52/55/51
f 43/44/41 53/58/53 51/56/52
f 44/57/42 54/68/55 53/58/53
f 44/45/42 45/48/44 55/59/54
f 45/48/44 46/49/45 56/61/56
f 47/51/47 57/62/57 56/61/56
f 48/52/48 58/63/58 57/62/57
f 49/53/49 59/65/60 58/63/58
f 49/53/49 50/54/50 60/64/59
f 50/54/50 42/40/37 52/55/51
f 51/56/52 61/67/62 62/66/61
f 53/58/53 63/69/63 61/67/62
f 54/68/55 64/108/65 63/69/63
f 54/60/55 55/59/54 65/70/64
f 55/59/54 56/61/56 66/72/66
f 57/62/57 67/73/67 66/72/66
f 58/63/58 68/74/68 67/73/67
f 59/65/60 69/76/70 68/74/68
f 59/65/60 60/64/59 70/75/69
f 60/64/59 52/55/51 62/66/61
f 62/77/61 61/81/62 71/78/71
f 63/80/63 73/83/73 71/78/71
f 64/82/65 74/85/75 73/83/73
f 64/82/65 65/86/64 75/84/74
f 65/86/64 66/89/66 76/87/76
f 67/88/67 77/91/78 76/87/76
f 67/88/67 68/92/68 78/90/77
f 68/92/68 69/94/70 79/93/79
f 69/94/70 70/96/69 80/95/80
f 62/77/61 72/79/72 80/95/80
o Corcho_Sphere002.001
v -0.086273 1.001515 -0.118745
v 0.000000 1.001515 -0.146775
v -0.139593 1.001515 -0.045355
v -0.139593 1.001515 0.045355
v -0.086273 1.001515 0.118743
v 0.000000 1.001515 0.146775
v 0.086273 1.001515 0.118743
v 0.139593 1.001515 0.045355
v 0.139593 1.001515 -0.045355
v 0.086273 1.001515 -0.118745
v -0.109080 1.161675 -0.150137
v 0.000000 1.161675 -0.185580
v -0.176498 1.161675 -0.057348
v -0.176498 1.161675 0.057348
v -0.109080 1.161675 0.150137
v 0.000000 1.161675 0.185580
v 0.109080 1.161675 0.150137
v 0.176498 1.161675 0.057348
v 0.176498 1.161675 -0.057348
v 0.109080 1.161675 -0.150137
v -0.113548 1.321802 -0.156282
v 0.000000 1.321802 -0.193178
v -0.183722 1.321802 -0.059695
v -0.183722 1.321802 0.059695
v -0.113548 1.321802 0.156282
v 0.000000 1.321802 0.193178
v 0.113548 1.321802 0.156282
v 0.183722 1.321802 0.059695
v 0.183722 1.321802 -0.059695
v 0.113548 1.321802 -0.156282
vt 0.6959 0.6451
vt 0.7944 0.8131
vt 0.6959 0.8131
vt 0.7944 0.6451
vt 0.8930 0.8131
vt 0.9915 0.6451
vt 0.8930 0.6451
vt 0.1047 0.6451
vt 0.0061 0.8131
vt 0.0061 0.6451
vt 0.2032 0.6451
vt 0.1047 0.8131
vt 0.3017 0.8131
vt 0.2032 0.8131
vt 0.3017 0.6451
vt 0.4003 0.8131
vt 0.4988 0.6451
vt 0.4003 0.6451
vt 0.5974 0.6451
vt 0.4988 0.8131
vt 0.5974 0.8131
vt 0.6959 0.9811
vt 0.7944 0.9811
vt 0.9915 0.8131
vt 0.8930 0.9811
vt 0.1047 0.9811
vt 0.0061 0.9811
vt 0.2032 0.9811
vt 0.3017 0.9811
vt 0.4003 0.9811
vt 0.5974 0.9811
vt 0.4988 0.9811
vt 0.3140 0.8168
vt 0.4266 0.6617
vt 0.5273 0.6617
vt 0.3450 0.9127
vt 0.6090 0.7212
vt 0.4266 0.9719
vt 0.6402 0.8168
vt 0.5273 0.9719
vt 0.9915 0.9811
vt 0.3450 0.7212
vt 0.6090 0.9127
vn 0.0000 0.3789 -0.9254
vn -0.5817 -0.1434 -0.8007
vn 0.0000 -0.1434 -0.9897
vn -0.5437 0.3802 -0.7483
vn -0.9412 -0.1434 -0.3058
vn -0.8796 0.3802 0.2858
vn -0.8788 0.3822 -0.2856
vn -0.5437 0.3802 0.7483
vn -0.9405 -0.1397 0.3097
vn 0.0000 0.3789 0.9254
vn -0.5788 -0.1397 0.8034
vn 0.5817 -0.1434 0.8007
vn 0.0039 -0.1397 0.9902
vn 0.5437 0.3802 0.7483
vn 0.9412 -0.1434 0.3058
vn 0.8796 0.3802 -0.2858
vn 0.8788 0.3822 0.2856
vn 0.5437 0.3802 -0.7483
vn 0.9405 -0.1397 -0.3097
vn 0.5788 -0.1397 -0.8034
vn -0.0000 0.9179 -0.3969
vn -0.3234 0.8350 -0.4452
vn -0.9357 0.1790 -0.3041
vn -0.3234 0.8350 0.4452
vn -0.9355 0.1800 0.3040
vn 0.0000 0.9179 0.3969
vn 0.3234 0.8350 0.4452
vn 0.9357 0.1790 0.3041
vn 0.3234 0.8350 -0.4452
vn 0.9355 0.1800 -0.3040
vn -0.3213 0.8374 -0.4423
vn -0.3213 0.8374 0.4423
vn -0.0000 0.9211 -0.3894
vn 0.0000 0.9211 0.3894
vn 0.3213 0.8374 -0.4423
vn 0.3213 0.8374 0.4423
vn -0.9355 0.1800 -0.3040
vn 0.9355 0.1800 0.3040
usemtl Material.001
s 1
f 83/109/82 92/110/83 93/111/84
f 82/112/85 94/113/86 92/110/83
f 85/114/87 94/113/86 84/115/88
f 86/116/89 95/117/90 85/118/87
f 87/119/91 96/120/92 86/116/89
f 87/119/91 98/121/93 97/122/94
f 88/123/95 99/124/96 98/121/93
f 90/125/97 99/124/96 89/126/98
f 91/127/99 100/128/100 90/125/97
f 83/109/82 101/129/101 91/127/99
f 92/110/83 103/130/102 93/111/84
f 94/113/86 102/131/103 92/110/83
f 95/132/90 104/133/104 94/113/86
f 95/117/90 106/134/105 105/135/106
f 96/120/92 107/136/107 106/134/105
f 98/121/93 107/136/107 97/122/94
f 99/124/96 108/137/108 98/121/93
f 100/128/100 109/138/109 99/124/96
f 100/128/100 111/139/110 110/140/111
f 101/129/101 103/130/102 111/139/110
f 102/141/112 105/142/106 106/143/113
f 103/144/114 106/143/113 107/145/115
f 107/145/115 111/146/116 103/144/114
f 108/147/117 110/148/111 111/146/116
f 83/109/82 82/112/85 92/110/83
f 82/112/85 84/115/88 94/113/86
f 85/114/87 95/132/90 94/113/86
f 86/116/89 96/120/92 95/117/90
f 87/119/91 97/122/94 96/120/92
f 87/119/91 88/123/95 98/121/93
f 88/123/95 89/126/98 99/124/96
f 90/125/97 100/128/100 99/124/96
f 91/127/99 101/129/101 100/128/100
f 83/109/82 93/111/84 101/129/101
f 92/110/83 102/131/103 103/130/102
f 94/113/86 104/133/104 102/131/103
f 95/132/90 105/149/106 104/133/104
f 95/117/90 96/120/92 106/134/105
f 96/120/92 97/122/94 107/136/107
f 98/121/93 108/137/108 107/136/107
f 99/124/96 109/138/109 108/137/108
f 100/128/100 110/140/111 109/138/109
f 100/128/100 101/129/101 111/139/110
f 101/129/101 93/111/84 103/130/102
f 102/141/112 104/150/118 105/142/106
f 103/144/114 102/141/112 106/143/113
f 107/145/115 108/147/117 111/146/116
f 108/147/117 109/151/119 110/148/111
