# Blender v2.79 (sub 0) OBJ File: ''
# www.blender.org
mtllib 14collider.mtl
o Cube.001
v -0.381082 -0.012171 0.216792
v -0.381082 0.335033 0.222628
v -0.382406 0.335033 -0.100899
v -0.382406 -0.012171 -0.100899
v 0.217423 0.335033 -0.013460
v 0.217423 -0.012171 -0.013460
v 0.143174 0.335033 0.213632
v 0.143174 -0.012171 0.207796
vn -1.0000 -0.0000 0.0041
vn 0.1442 0.0000 -0.9895
vn 0.9493 -0.0026 0.3144
vn 0.0172 -0.0168 0.9997
vn 0.0000 -1.0000 -0.0000
vn -0.0000 1.0000 0.0000
usemtl None
s 1
f 1//1 2//1 3//1 4//1
f 4//2 3//2 5//2 6//2
f 6//3 5//3 7//3 8//3
f 8//4 7//4 2//4 1//4
f 4//5 6//5 8//5 1//5
f 5//6 3//6 2//6 7//6
