# Blender v2.76 (sub 0) OBJ File: 'maraudersmounted.blend'
# www.blender.org
mtllib maraudersmountedCol.mtl
o Cube
v -0.263102 -1.937495 0.604241
v -0.153821 1.030418 0.153821
v -0.263102 -1.937495 -0.604241
v -0.153821 1.030418 -0.153821
v 0.263102 -1.937495 0.604241
v 0.153821 1.030418 0.153821
v 0.263102 -1.937495 -0.604241
v 0.153821 1.030418 -0.153821
vn -0.999300 0.036800 0.000000
vn 0.000000 0.150000 -0.988700
vn 0.999300 0.036800 0.000000
vn 0.000000 0.150000 0.988700
vn 0.000000 -1.000000 0.000000
vn 0.000000 1.000000 0.000000
usemtl None
s off
f 2//1 4//1 3//1 1//1
f 4//2 8//2 7//2 3//2
f 8//3 6//3 5//3 7//3
f 6//4 2//4 1//4 5//4
f 1//5 3//5 7//5 5//5
f 6//6 8//6 4//6 2//6
