# Blender v2.79 (sub 0) OBJ File: ''
# www.blender.org
mtllib 9collider.mtl
o Cube
v -0.095253 -0.012171 0.239374
v -0.095253 0.335033 0.239374
v -0.106542 0.335033 0.068541
v -0.106542 -0.012171 0.068541
v 0.525668 0.335033 0.031913
v 0.525668 -0.012171 0.031913
v 0.518363 0.335033 0.206574
v 0.518363 -0.012171 0.206574
vn -0.9978 0.0000 0.0659
vn -0.0578 0.0000 -0.9983
vn 0.9991 0.0000 0.0418
vn 0.0534 -0.0000 0.9986
vn 0.0000 -1.0000 -0.0000
vn -0.0000 1.0000 0.0000
usemtl None
s 1
f 1//1 2//1 3//1 4//1
f 4//2 3//2 5//2 6//2
f 6//3 5//3 7//3 8//3
f 8//4 7//4 2//4 1//4
f 4//5 6//5 8//5 1//5
f 5//6 3//6 2//6 7//6
o Cube.001
v -0.512890 -0.012171 0.124985
v -0.512890 0.335033 0.124986
v -0.422523 0.335033 -0.011106
v -0.422523 -0.012171 -0.011106
v -0.299933 0.335033 0.064510
v -0.299933 -0.012171 0.064510
v -0.388396 0.335033 0.203333
v -0.388396 -0.012171 0.203333
vn -0.8331 0.0000 -0.5532
vn 0.5250 0.0000 -0.8511
vn 0.8433 -0.0000 0.5374
vn -0.5326 -0.0000 0.8463
vn 0.0000 -1.0000 -0.0000
vn -0.0000 1.0000 0.0000
usemtl None
s 1
f 9//7 10//7 11//7 12//7
f 12//8 11//8 13//8 14//8
f 14//9 13//9 15//9 16//9
f 16//10 15//10 10//10 9//10
f 12//11 14//11 16//11 9//11
f 13//12 11//12 10//12 15//12
o Cube.002
v -0.013189 -0.012171 -0.080808
v -0.013189 0.335033 -0.080808
v -0.057635 0.335033 -0.246997
v -0.057635 -0.012171 -0.246997
v 0.295726 0.335033 -0.359875
v 0.295726 -0.012171 -0.359875
v 0.356328 0.335033 -0.229045
v 0.356328 -0.012171 -0.229045
vn -0.9660 -0.0000 0.2584
vn -0.3043 0.0000 -0.9526
vn 0.9074 0.0000 -0.4203
vn 0.3723 -0.0000 0.9281
vn -0.0000 -1.0000 -0.0000
vn 0.0000 1.0000 0.0000
usemtl None
s 1
f 17//13 18//13 19//13 20//13
f 20//14 19//14 21//14 22//14
f 22//15 21//15 23//15 24//15
f 24//16 23//16 18//16 17//16
f 20//17 22//17 24//17 17//17
f 21//18 19//18 18//18 23//18
