# Blender v2.79 (sub 0) OBJ File: ''
# www.blender.org
mtllib 10collider.mtl
o Cube.001
v -0.037519 0.001937 0.183924
v -0.037519 0.335033 0.183924
v -0.279584 0.335033 -0.243975
v -0.279584 0.001937 -0.243975
v 0.143960 0.335033 -0.216505
v 0.143960 0.001937 -0.216505
v 0.151153 0.335033 0.216228
v 0.151153 0.001937 0.216228
vn -0.8704 -0.0000 0.4924
vn 0.0647 0.0000 -0.9979
vn 0.9999 0.0000 -0.0166
vn -0.1688 -0.0000 0.9857
vn 0.0000 -1.0000 -0.0000
vn -0.0000 1.0000 0.0000
usemtl None
s 1
f 1//1 2//1 3//1 4//1
f 4//2 3//2 5//2 6//2
f 6//3 5//3 7//3 8//3
f 8//4 7//4 2//4 1//4
f 4//5 6//5 8//5 1//5
f 5//6 3//6 2//6 7//6
