# Blender v2.82 (sub 7) OBJ File: 'untitled.blend'
# www.blender.org
mtllib ESO_L2_Papers.mtl
o Mesh_0765_Mesh_0765Mesh
v -0.208014 0.003482 -0.521699
v 0.122965 0.003280 -0.463061
v 0.193909 0.003280 -0.863493
v -0.137071 0.003482 -0.922132
v -0.077211 0.014224 0.671390
v -0.126967 -0.008758 0.795446
v -0.101445 0.014957 0.804253
v -0.032697 0.025865 0.563097
v -0.075923 0.024970 0.813060
v 0.062231 0.026616 0.860734
v 0.230249 0.026616 0.922132
v 0.325801 0.026616 0.662066
v 0.157936 0.037162 0.599797
v -0.020565 0.025865 0.533583
v 0.057568 0.025865 0.321406
v 0.235929 0.031372 0.388418
v 0.403662 0.022584 0.451438
v -0.671238 0.007359 0.611095
v -0.701637 0.017504 0.618797
v -0.658332 0.019845 0.629644
v -0.712567 0.017973 0.634337
v -0.649165 0.019777 0.655094
v -0.724693 0.008261 0.633932
v -0.640375 0.009527 0.675531
v -0.735715 0.002157 0.504261
v -0.372123 0.003590 0.485684
v -0.359462 0.008613 0.654458
v -0.419494 0.003590 0.375773
v -0.733993 0.007801 0.399367
v -0.380588 0.012975 0.372854
v -0.671238 0.007359 0.611095
v -0.658332 0.019845 0.629644
v -0.701637 0.017504 0.618797
v -0.712567 0.017973 0.634337
v -0.649165 0.019777 0.655094
v -0.724693 0.008261 0.633932
v -0.640375 0.009527 0.675531
v -0.735715 0.002157 0.504261
v -0.372123 0.003590 0.485684
v -0.359462 0.008613 0.654458
v -0.733993 0.007801 0.399367
v -0.419494 0.003590 0.375773
v -0.380588 0.012975 0.372854
v 0.333985 -0.002125 0.599787
v 0.337244 -0.002125 0.374718
v 0.357098 0.010304 0.395173
v 0.331658 0.010304 0.618846
v 0.330204 -0.002125 0.860840
v 0.371547 0.022733 0.409255
v 0.302150 0.010304 0.878279
v 0.331444 0.022733 0.630204
v 0.284930 0.022733 0.886477
v -0.033191 -0.002125 0.592825
v -0.038716 -0.002125 0.854311
v -0.064390 0.010304 0.832245
v -0.032387 0.010304 0.574247
v -0.028428 -0.002125 0.367383
v -0.078485 0.022733 0.821917
v -0.004795 0.010304 0.351812
v -0.031971 0.022733 0.563819
v 0.008131 0.022733 0.341298
v 0.151409 -0.002125 0.857676
v 0.330204 -0.002125 0.860840
v 0.302150 0.010304 0.878279
v 0.124508 0.010304 0.855969
v -0.038716 -0.002125 0.854311
v 0.284930 0.022733 0.886477
v -0.064390 0.010304 0.832245
v 0.108803 0.022733 0.855189
v -0.078485 0.022733 0.821917
v 0.160023 -0.002125 0.371163
v -0.028428 -0.002125 0.367383
v -0.004795 0.010304 0.351812
v 0.181708 0.010304 0.374158
v 0.337244 -0.002125 0.374718
v 0.008131 0.022733 0.341298
v 0.357098 0.010304 0.395173
v 0.195419 0.022733 0.376320
v 0.371547 0.022733 0.409255
v 0.189653 0.031594 0.076673
v 0.303930 0.024741 0.160665
v 0.317886 0.018829 -0.047511
v 0.529965 0.004608 -0.084673
v 0.435614 0.035690 -0.187594
v 0.456712 0.005284 0.243542
v 0.411573 0.011769 0.251234
v 0.502730 0.030318 0.359073
v 0.676645 0.026335 0.155893
v 0.688325 0.008381 0.066399
v 0.732137 0.026382 0.093453
v 0.798739 0.026074 -0.018858
v 0.850120 0.045859 -0.013452
v 0.655705 0.030406 -0.182865
v 0.569557 0.025856 -0.238885
v 0.571282 0.041576 -0.287064
v 0.108803 0.022733 0.855189
v 0.284930 0.022733 0.886477
v 0.331444 0.022733 0.630204
v 0.371547 0.022733 0.409255
v 0.195419 0.022733 0.376320
v 0.155317 0.022733 0.598031
v -0.078485 0.022733 0.821917
v 0.008131 0.022733 0.341298
v -0.031971 0.022733 0.563819
v -0.179615 0.032258 -0.031337
v -0.243759 0.027670 0.071075
v -0.066182 0.019543 0.069673
v -0.021324 0.006881 0.247439
v 0.060522 0.031819 0.160716
v -0.304690 0.012333 0.206133
v -0.314001 0.017969 0.168279
v -0.399491 0.035367 0.252548
v -0.215936 0.028957 0.387314
v -0.139463 0.012338 0.391552
v -0.159378 0.028069 0.430465
v -0.059769 0.026138 0.479875
v -0.060793 0.043066 0.523835
v 0.070451 0.027390 0.347945
v 0.112465 0.022683 0.271216
v 0.153719 0.035354 0.269595
v -0.514645 0.026279 -0.473846
v -0.621945 0.023188 -0.411235
v -0.459795 0.012446 -0.327788
v -0.503968 0.000160 -0.144587
v -0.387730 0.024040 -0.184479
v -0.742058 0.009253 -0.317376
v -0.732388 0.014887 -0.356274
v -0.850121 0.034538 -0.320371
v -0.747463 0.026494 -0.110137
v -0.680145 0.008425 -0.069788
v -0.716591 0.025146 -0.043879
v -0.649541 0.022194 0.048616
v -0.671184 0.039929 0.088132
v -0.468079 0.020752 -0.009332
v -0.393313 0.014780 -0.059121
v -0.354801 0.027234 -0.040919
v 0.220356 0.020748 0.046882
v 0.317886 0.018829 -0.047511
v 0.303930 0.024741 0.160665
v 0.452674 0.015682 -0.154671
v 0.435614 0.035690 -0.187594
v 0.569557 0.025856 -0.238885
v 0.571282 0.041576 -0.287064
v 0.655705 0.030406 -0.182865
v 0.529965 0.004608 -0.084673
v 0.798739 0.026074 -0.018858
v 0.850120 0.045859 -0.013452
v 0.732137 0.026382 0.093453
v 0.688325 0.008381 0.066399
v 0.676645 0.026335 0.155893
v 0.456712 0.005284 0.243542
v 0.502730 0.030318 0.359073
v 0.411573 0.011769 0.251234
v -0.152523 0.022579 -0.007147
v -0.066182 0.019543 0.069673
v -0.243759 0.027670 0.071075
v 0.033355 0.015271 0.177324
v 0.060522 0.031819 0.160716
v 0.112465 0.022683 0.271216
v 0.153719 0.035354 0.269595
v 0.070451 0.027390 0.347945
v -0.021324 0.006881 0.247439
v -0.059769 0.026138 0.479875
v -0.060793 0.043066 0.523835
v -0.159378 0.028069 0.430465
v -0.139463 0.012338 0.391552
v -0.215936 0.028957 0.387314
v -0.304690 0.012333 0.206133
v -0.399491 0.035367 0.252548
v -0.314001 0.017969 0.168279
v -0.501678 0.016151 -0.438900
v -0.459795 0.012446 -0.327788
v -0.621945 0.023188 -0.411235
v -0.420630 0.007525 -0.182318
v -0.387730 0.024040 -0.184479
v -0.393313 0.014780 -0.059121
v -0.354801 0.027234 -0.040919
v -0.468079 0.020752 -0.009332
v -0.503968 0.000160 -0.144587
v -0.649541 0.022194 0.048616
v -0.671184 0.039929 0.088132
v -0.716591 0.025146 -0.043879
v -0.680145 0.008425 -0.069788
v -0.747463 0.026494 -0.110137
v -0.742058 0.009253 -0.317376
v -0.850121 0.034538 -0.320371
v -0.732388 0.014887 -0.356274
vt 0.760839 0.270587
vt 0.513761 0.270587
vt 0.512784 0.028392
vt 0.760839 0.028392
vt 0.489346 0.422936
vt 0.489346 0.498133
vt 0.472744 0.498133
vt 0.489346 0.346761
vt 0.456142 0.498133
vt 0.367272 0.498133
vt 0.253011 0.498133
vt 0.253011 0.326253
vt 0.367272 0.326253
vt 0.489346 0.326253
vt 0.489346 0.177811
vt 0.367272 0.177811
vt 0.253011 0.177811
vt 0.541105 0.624114
vt 0.567473 0.631926
vt 0.541105 0.587980
vt 0.584076 0.631926
vt 0.541105 0.545986
vt 0.596771 0.631926
vt 0.541105 0.534267
vt 0.716892 0.632903
vt 0.716892 0.278400
vt 0.541105 0.279376
vt 0.825294 0.319417
vt 0.825294 0.632903
vt 0.825294 0.278400
vt 0.539152 0.988383
vt 0.539152 0.952249
vt 0.564544 0.995219
vt 0.581146 0.995219
vt 0.539152 0.909279
vt 0.593841 0.995219
vt 0.539152 0.897559
vt 0.712009 0.996195
vt 0.712986 0.641692
vt 0.539152 0.641692
vt 0.819434 0.996195
vt 0.819434 0.681733
vt 0.819434 0.641692
vt 0.186602 0.100660
vt 0.325279 0.100660
vt 0.313559 0.128981
vt 0.174883 0.128981
vt 0.024488 0.100660
vt 0.307700 0.159256
vt 0.012769 0.128981
vt 0.168047 0.159256
vt 0.005933 0.159256
vt 0.168047 0.159256
vt 0.005933 0.159256
vt 0.018629 0.129958
vt 0.179766 0.129958
vt 0.307700 0.159256
vt 0.023512 0.100660
vt 0.318442 0.129958
vt 0.184649 0.100660
vt 0.325279 0.100660
vt 0.125077 0.161209
vt 0.007886 0.161209
vt 0.024488 0.131911
vt 0.142656 0.131911
vt 0.249104 0.161209
vt 0.034254 0.101637
vt 0.267660 0.131911
vt 0.152422 0.101637
vt 0.277426 0.101637
vt 0.147539 0.100660
vt 0.270589 0.100660
vt 0.255941 0.129958
vt 0.132890 0.129958
vt 0.031324 0.100660
vt 0.250081 0.160232
vt 0.017652 0.129958
vt 0.125077 0.160232
vt 0.006909 0.160232
vt 0.824317 0.630950
vt 0.713962 0.630950
vt 0.824317 0.515712
vt 0.728611 0.398521
vt 0.824317 0.395591
vt 0.601654 0.595792
vt 0.621186 0.630950
vt 0.540129 0.630950
vt 0.540129 0.437584
vt 0.578216 0.393638
vt 0.540129 0.382895
vt 0.567473 0.299885
vt 0.540129 0.275470
vt 0.716892 0.275470
vt 0.790137 0.298908
vt 0.824317 0.275470
vt 0.117264 0.493250
vt 0.011792 0.493250
vt 0.011792 0.332112
vt 0.011792 0.193436
vt 0.117264 0.193436
vt 0.117264 0.332112
vt 0.229573 0.493250
vt 0.229573 0.193436
vt 0.229573 0.332112
vt 0.824317 0.630950
vt 0.713962 0.630950
vt 0.824317 0.515712
vt 0.728611 0.398521
vt 0.824317 0.395591
vt 0.601654 0.595792
vt 0.621186 0.630950
vt 0.540129 0.630950
vt 0.540129 0.437584
vt 0.578216 0.393638
vt 0.540129 0.382895
vt 0.567473 0.299885
vt 0.540129 0.275470
vt 0.716892 0.275470
vt 0.790137 0.298908
vt 0.824317 0.275470
vt 0.824317 0.630950
vt 0.713962 0.630950
vt 0.824317 0.515712
vt 0.728611 0.398521
vt 0.824317 0.395591
vt 0.601654 0.595792
vt 0.621186 0.630950
vt 0.540129 0.630950
vt 0.540129 0.437584
vt 0.578216 0.393638
vt 0.540129 0.382895
vt 0.567473 0.299885
vt 0.540129 0.275470
vt 0.716892 0.275470
vt 0.790137 0.298908
vt 0.824317 0.275470
vt 0.824317 0.606535
vt 0.824317 0.516688
vt 0.716892 0.632903
vt 0.798926 0.402427
vt 0.824317 0.396568
vt 0.791113 0.299885
vt 0.824317 0.276447
vt 0.719822 0.276447
vt 0.730564 0.399497
vt 0.574310 0.300861
vt 0.545988 0.276447
vt 0.545988 0.383872
vt 0.584076 0.394614
vt 0.545988 0.438561
vt 0.606537 0.596769
vt 0.545988 0.632903
vt 0.626069 0.632903
vt 0.824317 0.606535
vt 0.824317 0.516688
vt 0.716892 0.632903
vt 0.798926 0.402427
vt 0.824317 0.396568
vt 0.791113 0.299885
vt 0.824317 0.276447
vt 0.719822 0.276447
vt 0.730564 0.399497
vt 0.574310 0.300861
vt 0.545988 0.276447
vt 0.545988 0.383872
vt 0.584076 0.394614
vt 0.545988 0.438561
vt 0.606537 0.596769
vt 0.545988 0.632903
vt 0.626069 0.632903
vt 0.824317 0.606535
vt 0.824317 0.516688
vt 0.716892 0.632903
vt 0.798926 0.402427
vt 0.824317 0.396568
vt 0.791113 0.299885
vt 0.824317 0.276447
vt 0.719822 0.276447
vt 0.730564 0.399497
vt 0.574310 0.300861
vt 0.545988 0.276447
vt 0.545988 0.383872
vt 0.584076 0.394614
vt 0.545988 0.438561
vt 0.606537 0.596769
vt 0.545988 0.632903
vt 0.626069 0.632903
vn 0.0006 1.0000 0.0001
vn -0.4604 0.8832 -0.0888
vn -0.6524 0.7478 -0.1231
vn -0.4986 0.8621 -0.0896
vn -0.0772 0.9969 -0.0091
vn -0.1660 0.9858 -0.0251
vn -0.0091 0.9998 0.0142
vn 0.0000 1.0000 0.0000
vn 0.0428 0.9989 0.0167
vn 0.0013 0.9999 0.0097
vn -0.0552 0.9982 -0.0215
vn -0.0348 0.9990 -0.0280
vn 0.0195 0.9996 -0.0178
vn 0.0522 0.9986 0.0002
vn 0.1093 0.7877 -0.6063
vn -0.0040 0.9807 -0.1956
vn 0.0054 0.9851 -0.1715
vn -0.2533 0.6790 0.6890
vn -0.2124 0.8875 0.4090
vn -0.1325 -0.9138 0.3840
vn -0.1070 -0.9594 0.2607
vn -0.0052 -1.0000 0.0002
vn 0.0269 -0.9996 0.0056
vn -0.0010 -0.9995 0.0298
vn 0.0905 -0.9948 -0.0451
vn -0.0174 -0.9984 -0.0540
vn 0.2264 -0.9691 -0.0976
vn -0.1093 -0.7877 0.6063
vn -0.0054 -0.9851 0.1715
vn 0.0040 -0.9807 0.1956
vn 0.2533 -0.6790 -0.6890
vn 0.2124 -0.8875 -0.4090
vn 0.1325 0.9138 -0.3840
vn 0.1070 0.9594 -0.2607
vn -0.0016 1.0000 0.0054
vn -0.0216 0.9998 -0.0031
vn 0.0010 0.9995 -0.0298
vn 0.0014 0.9991 0.0427
vn -0.0825 0.9959 0.0356
vn -0.2264 0.9691 0.0976
vn 0.9956 0.0092 0.0931
vn 0.5249 -0.8511 0.0076
vn 0.5664 -0.8236 0.0293
vn 0.9952 0.0083 0.0974
vn 0.4481 0.8927 0.0485
vn 0.6258 -0.7765 0.0730
vn 0.5713 0.8154 0.0932
vn 0.9880 -0.0808 0.1311
vn 0.6160 0.7797 0.1118
vn -0.9872 -0.1228 -0.1014
vn -0.4294 -0.9030 -0.0091
vn -0.5142 -0.8569 -0.0354
vn -0.9939 -0.0416 -0.1017
vn -0.5168 0.8539 -0.0612
vn -0.6402 -0.7639 -0.0808
vn -0.6852 0.7193 -0.1140
vn -0.9881 -0.0653 -0.1390
vn -0.7412 0.6578 -0.1336
vn -0.1061 -0.1344 0.9852
vn -0.0101 -0.8219 0.5695
vn -0.0346 -0.7698 0.6373
vn -0.0989 -0.0298 0.9946
vn -0.0681 0.8188 0.5700
vn -0.0990 -0.6243 0.7749
vn -0.1334 0.5926 0.7944
vn -0.1360 -0.0923 0.9864
vn -0.1487 0.5268 0.8368
vn 0.1003 0.0289 -0.9945
vn 0.0123 -0.7905 -0.6123
vn 0.0364 -0.7522 -0.6579
vn 0.1038 0.0852 -0.9909
vn 0.0667 0.8079 -0.5855
vn 0.0896 -0.6777 -0.7298
vn 0.1203 0.7000 -0.7038
vn 0.1355 0.0452 -0.9897
vn 0.1366 0.6689 -0.7306
vn 0.0768 0.9968 -0.0231
vn 0.0930 0.9956 -0.0042
vn 0.0745 0.9969 0.0257
vn 0.0164 0.9956 0.0915
vn 0.1241 0.9720 0.1996
vn 0.0172 0.9930 -0.1163
vn 0.1257 0.9875 -0.0949
vn -0.0968 0.9800 -0.1738
vn -0.1885 0.9600 -0.2070
vn -0.1546 0.9846 -0.0806
vn -0.2740 0.9416 -0.1954
vn -0.2979 0.9512 0.0798
vn -0.3628 0.9309 0.0414
vn -0.1762 0.9667 0.1853
vn -0.0236 0.9681 0.2492
vn -0.0018 0.9507 0.3101
vn 0.0462 0.9962 0.0735
vn 0.0284 0.9954 0.0911
vn -0.0027 0.9972 0.0749
vn -0.0727 0.9971 0.0219
vn -0.1728 0.9753 0.1374
vn 0.1345 0.9909 0.0071
vn 0.1213 0.9857 0.1169
vn 0.1831 0.9768 -0.1108
vn 0.2090 0.9562 -0.2047
vn 0.0859 0.9831 -0.1615
vn 0.1907 0.9381 -0.2891
vn -0.0853 0.9525 -0.2923
vn -0.0522 0.9315 -0.3599
vn -0.1811 0.9698 -0.1632
vn -0.2334 0.9724 -0.0061
vn -0.2928 0.9559 0.0201
vn 0.0216 0.9960 0.0862
vn -0.0022 0.9956 0.0935
vn -0.0223 0.9977 0.0647
vn -0.0597 0.9981 -0.0147
vn -0.2023 0.9785 0.0411
vn 0.1306 0.9890 0.0684
vn 0.0678 0.9849 0.1595
vn 0.2282 0.9735 -0.0135
vn 0.2944 0.9519 -0.0847
vn 0.1657 0.9807 -0.1035
vn 0.3171 0.9334 -0.1678
vn 0.0744 0.9514 -0.2989
vn 0.1347 0.9295 -0.3434
vn -0.0702 0.9709 -0.2289
vn -0.1893 0.9752 -0.1141
vn -0.2544 0.9598 -0.1184
vn 0.0083 -0.9995 0.0289
vn -0.0208 -0.9998 0.0007
vn -0.0720 -0.9974 -0.0012
vn -0.1690 -0.9568 -0.2363
vn -0.2578 -0.8847 -0.3884
vn 0.0328 -0.9656 -0.2577
vn 0.0018 -0.9507 -0.3101
vn 0.1762 -0.9667 -0.1853
vn -0.0041 -0.9978 -0.0657
vn 0.2979 -0.9512 -0.0798
vn 0.3628 -0.9309 -0.0414
vn 0.2740 -0.9416 0.1954
vn 0.1546 -0.9846 0.0806
vn 0.1885 -0.9600 0.2070
vn -0.0172 -0.9930 0.1163
vn 0.0968 -0.9800 0.1738
vn -0.1257 -0.9875 0.0949
vn -0.0456 -0.9989 0.0118
vn -0.0197 -0.9996 -0.0193
vn -0.0215 -0.9973 -0.0706
vn 0.2063 -0.9608 -0.1850
vn 0.3526 -0.8913 -0.2849
vn 0.2426 -0.9700 0.0147
vn 0.2928 -0.9559 -0.0201
vn 0.1811 -0.9698 0.1632
vn 0.0479 -0.9988 -0.0077
vn 0.0853 -0.9525 0.2923
vn 0.0522 -0.9315 0.3599
vn -0.1907 -0.9381 0.2891
vn -0.0859 -0.9831 0.1615
vn -0.2090 -0.9562 0.2047
vn -0.1345 -0.9909 -0.0071
vn -0.1831 -0.9768 0.1108
vn -0.1213 -0.9857 -0.1169
vn -0.0608 -0.9981 -0.0103
vn -0.0234 -0.9994 -0.0259
vn -0.0011 -0.9974 -0.0721
vn 0.2542 -0.9648 -0.0677
vn 0.4312 -0.8979 -0.0883
vn 0.1936 -0.9729 0.1260
vn 0.2544 -0.9598 0.1184
vn 0.0702 -0.9709 0.2289
vn 0.0310 -0.9994 0.0157
vn -0.0744 -0.9514 0.2989
vn -0.1347 -0.9295 0.3434
vn -0.3171 -0.9334 0.1678
vn -0.1657 -0.9807 0.1035
vn -0.2944 -0.9519 0.0847
vn -0.1306 -0.9890 -0.0684
vn -0.2282 -0.9735 0.0135
vn -0.0678 -0.9849 -0.1595
usemtl Tex_1668_0_dds
s 1
f 1/1/1 2/2/1 3/3/1
f 3/3/1 4/4/1 1/1/1
f 5/5/2 6/6/3 7/7/4
f 8/8/5 5/5/2 7/7/4
f 7/7/4 9/9/6 8/8/5
f 8/8/5 9/9/6 10/10/7
f 10/10/7 11/11/8 12/12/9
f 10/10/7 13/13/10 8/8/5
f 12/12/9 13/13/10 10/10/7
f 14/14/11 8/8/5 13/13/10
f 15/15/12 14/14/11 13/13/10
f 13/13/10 16/16/13 15/15/12
f 16/16/13 13/13/10 12/12/9
f 17/17/14 16/16/13 12/12/9
f 18/18/15 19/19/16 20/20/17
f 20/20/17 19/19/16 21/21/18
f 21/21/18 22/22/19 20/20/17
f 22/22/19 21/21/18 23/23/20
f 23/23/20 24/24/21 22/22/19
f 24/24/21 23/23/20 25/25/22
f 26/26/23 27/27/24 24/24/21
f 24/24/21 25/25/22 26/26/23
f 28/28/25 26/26/23 25/25/22
f 25/25/22 29/29/26 28/28/25
f 26/26/23 28/28/25 30/30/27
f 31/31/28 32/32/29 33/33/30
f 34/34/31 33/33/30 32/32/29
f 32/32/29 35/35/32 34/34/31
f 36/36/33 34/34/31 35/35/32
f 35/35/32 37/37/34 36/36/33
f 37/37/34 38/38/35 36/36/33
f 39/39/36 38/38/35 37/37/34
f 37/37/34 40/40/37 39/39/36
f 41/41/38 38/38/35 39/39/36
f 39/39/36 42/42/39 41/41/38
f 39/39/36 43/43/40 42/42/39
f 44/44/41 45/45/42 46/46/43
f 46/46/43 47/47/44 44/44/41
f 48/48/45 44/44/41 47/47/44
f 47/47/44 46/46/43 49/49/46
f 47/47/44 50/50/47 48/48/45
f 49/49/46 51/51/48 47/47/44
f 50/50/47 47/47/44 51/51/48
f 51/51/48 52/52/49 50/50/47
f 53/53/50 54/54/51 55/55/52
f 55/55/52 56/56/53 53/53/50
f 57/57/54 53/53/50 56/56/53
f 56/56/53 55/55/52 58/58/55
f 56/56/53 59/59/56 57/57/54
f 58/58/55 60/60/57 56/56/53
f 59/59/56 56/56/53 60/60/57
f 60/60/57 61/61/58 59/59/56
f 62/62/59 63/63/60 64/64/61
f 64/64/61 65/65/62 62/62/59
f 66/66/63 62/62/59 65/65/62
f 65/65/62 64/64/61 67/67/64
f 65/65/62 68/68/65 66/66/63
f 67/67/64 69/69/66 65/65/62
f 68/68/65 65/65/62 69/69/66
f 69/69/66 70/70/67 68/68/65
f 71/71/68 72/72/69 73/73/70
f 73/73/70 74/74/71 71/71/68
f 75/75/72 71/71/68 74/74/71
f 74/74/71 73/73/70 76/76/73
f 74/74/71 77/77/74 75/75/72
f 76/76/73 78/78/75 74/74/71
f 77/77/74 74/74/71 78/78/75
f 78/78/75 79/79/76 77/77/74
f 80/80/77 81/81/78 82/82/79
f 82/82/79 81/81/78 83/83/80
f 83/83/80 84/84/81 82/82/79
f 81/81/78 85/85/82 83/83/80
f 86/86/83 85/85/82 81/81/78
f 87/87/84 85/85/82 86/86/83
f 88/88/85 85/85/82 87/87/84
f 89/89/86 85/85/82 88/88/85
f 89/89/86 83/83/80 85/85/82
f 88/88/85 90/90/87 89/89/86
f 91/91/88 89/89/86 90/90/87
f 89/89/86 91/91/88 83/83/80
f 90/90/87 92/92/89 91/91/88
f 91/91/88 92/92/89 93/93/90
f 91/91/88 94/94/91 83/83/80
f 93/93/90 94/94/91 91/91/88
f 84/84/81 83/83/80 94/94/91
f 95/95/92 94/94/91 93/93/90
f 94/94/91 95/95/92 84/84/81
f 96/96/8 97/97/8 98/98/8
f 98/98/8 99/99/8 100/100/8
f 98/98/8 101/101/8 96/96/8
f 100/100/8 101/101/8 98/98/8
f 102/102/8 96/96/8 101/101/8
f 101/101/8 100/100/8 103/103/8
f 101/101/8 104/104/8 102/102/8
f 103/103/8 104/104/8 101/101/8
f 105/105/93 106/106/94 107/107/95
f 107/107/95 106/106/94 108/108/96
f 108/108/96 109/109/97 107/107/95
f 106/106/94 110/110/98 108/108/96
f 111/111/99 110/110/98 106/106/94
f 112/112/100 110/110/98 111/111/99
f 113/113/101 110/110/98 112/112/100
f 114/114/102 110/110/98 113/113/101
f 114/114/102 108/108/96 110/110/98
f 113/113/101 115/115/103 114/114/102
f 116/116/104 114/114/102 115/115/103
f 114/114/102 116/116/104 108/108/96
f 115/115/103 117/117/105 116/116/104
f 116/116/104 117/117/105 118/118/106
f 116/116/104 119/119/107 108/108/96
f 118/118/106 119/119/107 116/116/104
f 109/109/97 108/108/96 119/119/107
f 120/120/108 119/119/107 118/118/106
f 119/119/107 120/120/108 109/109/97
f 121/121/109 122/122/110 123/123/111
f 123/123/111 122/122/110 124/124/112
f 124/124/112 125/125/113 123/123/111
f 122/122/110 126/126/114 124/124/112
f 127/127/115 126/126/114 122/122/110
f 128/128/116 126/126/114 127/127/115
f 129/129/117 126/126/114 128/128/116
f 130/130/118 126/126/114 129/129/117
f 130/130/118 124/124/112 126/126/114
f 129/129/117 131/131/119 130/130/118
f 132/132/120 130/130/118 131/131/119
f 130/130/118 132/132/120 124/124/112
f 131/131/119 133/133/121 132/132/120
f 132/132/120 133/133/121 134/134/122
f 132/132/120 135/135/123 124/124/112
f 134/134/122 135/135/123 132/132/120
f 125/125/113 124/124/112 135/135/123
f 136/136/124 135/135/123 134/134/122
f 135/135/123 136/136/124 125/125/113
f 137/137/125 138/138/126 139/139/127
f 138/138/126 140/140/128 139/139/127
f 138/138/126 141/141/129 140/140/128
f 141/141/129 142/142/130 140/140/128
f 142/142/130 141/141/129 143/143/131
f 144/144/132 142/142/130 143/143/131
f 140/140/128 145/145/133 139/139/127
f 145/145/133 140/140/128 142/142/130
f 144/144/132 146/146/134 142/142/130
f 146/146/134 145/145/133 142/142/130
f 146/146/134 144/144/132 147/147/135
f 146/146/134 147/147/135 148/148/136
f 148/148/136 149/149/137 146/146/134
f 149/149/137 145/145/133 146/146/134
f 149/149/137 148/148/136 150/150/138
f 149/149/137 151/151/139 145/145/133
f 150/150/138 151/151/139 149/149/137
f 145/145/133 151/151/139 139/139/127
f 152/152/140 151/151/139 150/150/138
f 153/153/141 139/139/127 151/151/139
f 153/153/141 151/151/139 152/152/140
f 154/154/142 155/155/143 156/156/144
f 155/155/143 157/157/145 156/156/144
f 155/155/143 158/158/146 157/157/145
f 158/158/146 159/159/147 157/157/145
f 159/159/147 158/158/146 160/160/148
f 161/161/149 159/159/147 160/160/148
f 157/157/145 162/162/150 156/156/144
f 162/162/150 157/157/145 159/159/147
f 161/161/149 163/163/151 159/159/147
f 163/163/151 162/162/150 159/159/147
f 163/163/151 161/161/149 164/164/152
f 163/163/151 164/164/152 165/165/153
f 165/165/153 166/166/154 163/163/151
f 166/166/154 162/162/150 163/163/151
f 166/166/154 165/165/153 167/167/155
f 166/166/154 168/168/156 162/162/150
f 167/167/155 168/168/156 166/166/154
f 162/162/150 168/168/156 156/156/144
f 169/169/157 168/168/156 167/167/155
f 170/170/158 156/156/144 168/168/156
f 170/170/158 168/168/156 169/169/157
f 171/171/159 172/172/160 173/173/161
f 172/172/160 174/174/162 173/173/161
f 172/172/160 175/175/163 174/174/162
f 175/175/163 176/176/164 174/174/162
f 176/176/164 175/175/163 177/177/165
f 178/178/166 176/176/164 177/177/165
f 174/174/162 179/179/167 173/173/161
f 179/179/167 174/174/162 176/176/164
f 178/178/166 180/180/168 176/176/164
f 180/180/168 179/179/167 176/176/164
f 180/180/168 178/178/166 181/181/169
f 180/180/168 181/181/169 182/182/170
f 182/182/170 183/183/171 180/180/168
f 183/183/171 179/179/167 180/180/168
f 183/183/171 182/182/170 184/184/172
f 183/183/171 185/185/173 179/179/167
f 184/184/172 185/185/173 183/183/171
f 179/179/167 185/185/173 173/173/161
f 186/186/174 185/185/173 184/184/172
f 187/187/175 173/173/161 185/185/173
f 187/187/175 185/185/173 186/186/174
